<svg xmlns="http://www.w3.org/2000/svg" width="129" height="127" viewBox="0 0 129 127">
  <g id="img3" transform="translate(-410.059 -776)">
    <rect id="Rectangle_458851" data-name="Rectangle 458851" width="129" height="127" transform="translate(410.059 776)" fill="#68eae0"/>
    <path id="Path_1031231" data-name="Path 1031231" d="M19,18h81.211a12.336,12.336,0,0,1,12.336,12.336v81.211H31.336A12.336,12.336,0,0,1,19,99.211Z" transform="translate(408.721 774.799)" fill="#fff"/>
    <path id="Path_1031236" data-name="Path 1031236" d="M109.821,42.854a5.14,5.14,0,1,1-5.14,5.14,5.14,5.14,0,0,1,5.14-5.14" transform="translate(411.117 775.494)" fill="#19538d"/>
    <path id="Path_1031241" data-name="Path 1031241" d="M80.821,12.854a5.14,5.14,0,1,1-5.14,5.14,5.14,5.14,0,0,1,5.14-5.14" transform="translate(410.307 774.654)" fill="#19538d"/>
    <path id="Path_1031246" data-name="Path 1031246" d="M112.547,48.689v62.857H31.336A12.336,12.336,0,0,1,19,99.211V18H83.1" transform="translate(408.721 774.799)" fill="none" stroke="#19538d" stroke-miterlimit="10" stroke-width="3"/>
    <g id="Group_1188441" data-name="Group 1188441" transform="translate(28.672 -7623.807)">
      <g id="Group_1099776" data-name="Group 1099776" transform="translate(412.387 8428.781)">
        <g id="Group_1099618" data-name="Group 1099618" transform="translate(-0.348 0.025)">
          <rect id="Rectangle_401104" data-name="Rectangle 401104" width="67.943" height="68.761" transform="translate(0)" fill="none"/>
        </g>
        <g id="compartir-datos" transform="translate(-1.09 0.169)">
          <path id="Path_1031519" data-name="Path 1031519" d="M52.109,36.7H15.48A1.389,1.389,0,0,1,14.1,35.315V13.04a1.389,1.389,0,0,1,1.382-1.382h2a.624.624,0,0,0,0-1.247h-2a2.633,2.633,0,0,0-2.63,2.63V35.315a2.633,2.633,0,0,0,2.63,2.63h36.63a2.633,2.633,0,0,0,2.63-2.63V13.04a2.633,2.633,0,0,0-2.63-2.63h-2a.624.624,0,0,0,0,1.247h2a1.389,1.389,0,0,1,1.382,1.382V35.315A1.4,1.4,0,0,1,52.109,36.7Z" transform="translate(0.448 0.352)" fill="#19538d" stroke="#19538d" stroke-width="0.3"/>
          <path id="Path_1031520" data-name="Path 1031520" d="M10.681,42.46A2.141,2.141,0,1,0,12.822,44.6,2.138,2.138,0,0,0,10.681,42.46Zm0,3.025a.889.889,0,1,1,.894-.894A.885.885,0,0,1,10.681,45.485Z" transform="translate(0.278 1.616)" fill="#19538d" stroke="#19538d" stroke-width="0.3"/>
          <path id="Path_1031521" data-name="Path 1031521" d="M15.211,42.46A2.141,2.141,0,1,0,17.352,44.6a2.138,2.138,0,0,0-2.141-2.141Zm0,3.025a.889.889,0,1,1,0-1.777.889.889,0,0,1,0,1.777Z" transform="translate(0.456 1.616)" fill="#19538d" stroke="#19538d" stroke-width="0.3"/>
          <path id="Path_1031522" data-name="Path 1031522" d="M19.731,42.46A2.141,2.141,0,1,0,21.872,44.6,2.138,2.138,0,0,0,19.731,42.46Zm0,3.025a.889.889,0,1,1,0-1.777.889.889,0,0,1,0,1.777Z" transform="translate(0.635 1.616)" fill="#19538d" stroke="#19538d" stroke-width="0.3"/>
          <path id="Path_1031523" data-name="Path 1031523" d="M65.352,57.15H61.1V55.622a1.628,1.628,0,0,0-1.632-1.632H34.128V51.173H59.875a2.633,2.633,0,0,0,2.63-2.63V43.5a2.633,2.633,0,0,0-2.63-2.63H59.2V11.685A5.15,5.15,0,0,0,54.054,6.54H49.969a.624.624,0,0,0,0,1.247h4.085a3.9,3.9,0,0,1,3.887,3.887V40.852H10.533V11.685A3.9,3.9,0,0,1,14.42,7.8h4.085a.624.624,0,0,0,0-1.247H14.42A5.15,5.15,0,0,0,9.275,11.7V40.873H8.61A2.633,2.633,0,0,0,5.98,43.5v5.041a2.633,2.633,0,0,0,2.63,2.63H32.87V53.99H9.015a1.628,1.628,0,0,0-1.632,1.632V57.15H3.132A1.628,1.628,0,0,0,1.5,58.782v6.372a1.628,1.628,0,0,0,1.632,1.632h9.76a1.628,1.628,0,0,0,1.632-1.632V58.782a1.628,1.628,0,0,0-1.632-1.632H8.641V55.622a.373.373,0,0,1,.374-.374H24.866v1.9H20.615a1.628,1.628,0,0,0-1.632,1.632v6.372a1.628,1.628,0,0,0,1.632,1.632h9.76a1.628,1.628,0,0,0,1.632-1.632V58.782a1.628,1.628,0,0,0-1.632-1.632H26.124v-1.9H42.36v1.9H38.109a1.628,1.628,0,0,0-1.632,1.632v6.372a1.628,1.628,0,0,0,1.632,1.632h9.76A1.628,1.628,0,0,0,49.5,65.154V58.782a1.628,1.628,0,0,0-1.632-1.632H43.618v-1.9H59.469a.373.373,0,0,1,.374.374V57.15H55.592a1.628,1.628,0,0,0-1.632,1.632v6.372a1.628,1.628,0,0,0,1.632,1.632h9.76a1.628,1.628,0,0,0,1.632-1.632V58.782a1.635,1.635,0,0,0-1.632-1.632ZM27.122,42.12h14.24v1.892a1.389,1.389,0,0,1-1.382,1.382H28.5a1.389,1.389,0,0,1-1.382-1.382ZM7.227,48.533V43.492A1.389,1.389,0,0,1,8.61,42.109H25.864V44a2.633,2.633,0,0,0,2.63,2.63H39.98A2.633,2.633,0,0,0,42.61,44V42.109H59.864a1.389,1.389,0,0,1,1.382,1.382v5.041a1.389,1.389,0,0,1-1.382,1.382H8.61a1.389,1.389,0,0,1-1.382-1.382Zm6.05,10.249v6.372a.373.373,0,0,1-.374.374H3.132a.373.373,0,0,1-.374-.374V58.782a.373.373,0,0,1,.374-.374h9.76a.375.375,0,0,1,.385.374Zm17.483,0v6.372a.373.373,0,0,1-.374.374h-9.76a.373.373,0,0,1-.374-.374V58.782a.373.373,0,0,1,.374-.374h9.76A.373.373,0,0,1,30.76,58.782Zm17.483,0v6.372a.373.373,0,0,1-.374.374h-9.76a.373.373,0,0,1-.374-.374V58.782a.373.373,0,0,1,.374-.374h9.76A.366.366,0,0,1,48.243,58.782Zm17.483,6.372a.373.373,0,0,1-.374.374h-9.76a.373.373,0,0,1-.374-.374V58.782a.373.373,0,0,1,.374-.374h9.76a.373.373,0,0,1,.374.374Z" transform="translate(0 0.199)" fill="#19538d" stroke="#19538d" stroke-width="0.3"/>
          <path id="Path_1031524" data-name="Path 1031524" d="M61.425,58h-6.1a.624.624,0,1,0,0,1.247h6.1a.624.624,0,0,0,0-1.247Z" transform="translate(2.098 2.228)" fill="#19538d" stroke="#19538d" stroke-width="0.3"/>
          <path id="Path_1031525" data-name="Path 1031525" d="M61.425,60.52h-6.1a.624.624,0,0,0,0,1.247h6.1a.624.624,0,0,0,0-1.247Z" transform="translate(2.098 2.328)" fill="#19538d" stroke="#19538d" stroke-width="0.3"/>
          <path id="Path_1031526" data-name="Path 1031526" d="M37.88,58.624a.625.625,0,0,0,.624.624h6.1a.624.624,0,1,0,0-1.247H38.5A.625.625,0,0,0,37.88,58.624Z" transform="translate(1.435 2.228)" fill="#19538d" stroke="#19538d" stroke-width="0.3"/>
          <path id="Path_1031527" data-name="Path 1031527" d="M44.6,60.52h-6.1a.624.624,0,0,0,0,1.247h6.1a.625.625,0,0,0,.624-.624A.619.619,0,0,0,44.6,60.52Z" transform="translate(1.434 2.328)" fill="#19538d" stroke="#19538d" stroke-width="0.3"/>
          <path id="Path_1031528" data-name="Path 1031528" d="M21.05,58.624a.625.625,0,0,0,.624.624h6.1a.624.624,0,1,0,0-1.247h-6.1a.625.625,0,0,0-.624.624Z" transform="translate(0.771 2.228)" fill="#19538d" stroke="#19538d" stroke-width="0.3"/>
          <path id="Path_1031529" data-name="Path 1031529" d="M27.775,60.52h-6.1a.624.624,0,1,0,0,1.247h6.1a.624.624,0,1,0,0-1.247Z" transform="translate(0.771 2.328)" fill="#19538d" stroke="#19538d" stroke-width="0.3"/>
          <path id="Path_1031530" data-name="Path 1031530" d="M4.23,58.624a.625.625,0,0,0,.624.624h6.1a.624.624,0,0,0,0-1.247h-6.1A.625.625,0,0,0,4.23,58.624Z" transform="translate(0.108 2.228)" fill="#19538d" stroke="#19538d" stroke-width="0.3"/>
          <path id="Path_1031531" data-name="Path 1031531" d="M10.955,60.52h-6.1a.624.624,0,0,0,0,1.247h6.1a.624.624,0,1,0,0-1.247Z" transform="translate(0.108 2.328)" fill="#19538d" stroke="#19538d" stroke-width="0.3"/>
          <path id="Path_1031532" data-name="Path 1031532" d="M19.445,14.171A1.7,1.7,0,0,0,18,15.855v2.484a1.7,1.7,0,0,0,1.445,1.684l2.162.333a12.292,12.292,0,0,0,1.206,2.91l-1.289,1.767a1.681,1.681,0,0,0,.177,2.2l1.757,1.757a1.694,1.694,0,0,0,2.214.166l1.767-1.289a12.741,12.741,0,0,0,2.91,1.206l.333,2.162a1.692,1.692,0,0,0,1.684,1.445h2.484a1.7,1.7,0,0,0,1.684-1.445l.333-2.162a12.291,12.291,0,0,0,2.91-1.206l1.767,1.289a1.681,1.681,0,0,0,2.2-.177L45.5,27.226a1.694,1.694,0,0,0,.166-2.214l-1.289-1.767a12.292,12.292,0,0,0,1.206-2.91L47.749,20a1.7,1.7,0,0,0,1.445-1.684V15.834a1.7,1.7,0,0,0-1.445-1.684l-2.162-.333a12.292,12.292,0,0,0-1.206-2.91L45.67,9.14a1.691,1.691,0,0,0-.166-2.2L43.747,5.18a1.694,1.694,0,0,0-2.214-.166L39.766,6.3A12.292,12.292,0,0,0,36.855,5.1l-.333-2.162A1.7,1.7,0,0,0,34.839,1.49H32.355a1.7,1.7,0,0,0-1.684,1.445L30.338,5.1A12.291,12.291,0,0,0,27.428,6.3L25.661,5.014a1.681,1.681,0,0,0-2.2.177L21.7,6.947a1.694,1.694,0,0,0-.166,2.214l1.289,1.767a12.741,12.741,0,0,0-1.206,2.91Zm3.274.364a11.3,11.3,0,0,1,1.372-3.316.61.61,0,0,0-.031-.7l-1.538-2.1a.444.444,0,0,1,.042-.582L24.32,6.084a.444.444,0,0,1,.582-.042L27,7.581a.629.629,0,0,0,.7.031A11.029,11.029,0,0,1,31.014,6.24a.634.634,0,0,0,.478-.509l.395-2.567a.449.449,0,0,1,.447-.385h2.484a.456.456,0,0,1,.447.374L35.67,5.71a.621.621,0,0,0,.478.509,11.3,11.3,0,0,1,3.316,1.372.61.61,0,0,0,.7-.031l2.1-1.538a.444.444,0,0,1,.582.042L44.6,7.82a.444.444,0,0,1,.042.582L43.1,10.5a.612.612,0,0,0-.031.7,11.029,11.029,0,0,1,1.372,3.316.634.634,0,0,0,.509.478l2.567.395a.449.449,0,0,1,.385.447v2.484a.456.456,0,0,1-.385.447l-2.567.395a.621.621,0,0,0-.509.478,11.029,11.029,0,0,1-1.372,3.316.61.61,0,0,0,.031.7l1.538,2.1a.444.444,0,0,1-.042.582l-1.757,1.757a.444.444,0,0,1-.582.042l-2.1-1.538a.612.612,0,0,0-.7-.031,10.92,10.92,0,0,1-3.316,1.372.634.634,0,0,0-.478.509l-.395,2.567a.449.449,0,0,1-.447.385H32.344a.456.456,0,0,1-.447-.374l-.385-2.547a.621.621,0,0,0-.478-.509,11.3,11.3,0,0,1-3.316-1.372.645.645,0,0,0-.333-.094.623.623,0,0,0-.374.125l-2.1,1.538a.444.444,0,0,1-.582-.042l-1.757-1.757a.444.444,0,0,1-.042-.582l1.538-2.1a.612.612,0,0,0,.031-.7,11.029,11.029,0,0,1-1.372-3.316.634.634,0,0,0-.509-.478L19.653,18.8a.449.449,0,0,1-.385-.447V15.865a.456.456,0,0,1,.385-.447l2.567-.395a.649.649,0,0,0,.5-.489Z" transform="translate(0.651 0)" fill="#19538d" stroke="#19538d" stroke-width="0.3"/>
          <path id="Path_1031533" data-name="Path 1031533" d="M33.308,24.926a8.118,8.118,0,1,0-8.118-8.118A8.122,8.122,0,0,0,33.308,24.926Zm0-14.978a6.86,6.86,0,1,1-6.86,6.86A6.867,6.867,0,0,1,33.308,9.948Z" transform="translate(0.934 0.284)" fill="#19538d" stroke="#19538d" stroke-width="0.3"/>
        </g>
      </g>
    </g>
  </g>
</svg>
