<svg xmlns="http://www.w3.org/2000/svg" width="129" height="127" viewBox="0 0 129 127">
  <g id="img5" transform="translate(-410.059 -1120)">
    <rect id="Rectangle_458853" data-name="Rectangle 458853" width="129" height="127" transform="translate(410.059 1120)" fill="#68eae0"/>
    <path id="Path_1031233" data-name="Path 1031233" d="M19,18h81.211a12.336,12.336,0,0,1,12.336,12.336v81.211H31.336A12.336,12.336,0,0,1,19,99.211Z" transform="translate(408.721 1118.799)" fill="#fff"/>
    <path id="Path_1031238" data-name="Path 1031238" d="M109.821,42.854a5.14,5.14,0,1,1-5.14,5.14,5.14,5.14,0,0,1,5.14-5.14" transform="translate(411.117 1119.494)" fill="#19538d"/>
    <path id="Path_1031243" data-name="Path 1031243" d="M80.821,12.854a5.14,5.14,0,1,1-5.14,5.14,5.14,5.14,0,0,1,5.14-5.14" transform="translate(410.307 1118.654)" fill="#19538d"/>
    <path id="Path_1031248" data-name="Path 1031248" d="M112.547,48.689v62.857H31.336A12.336,12.336,0,0,1,19,99.211V18H83.1" transform="translate(408.721 1118.799)" fill="none" stroke="#19538d" stroke-miterlimit="10" stroke-width="3"/>
    <g id="Group_1188443" data-name="Group 1188443" transform="translate(28.672 -7279.807)">
      <g id="Group_1099776" data-name="Group 1099776" transform="translate(412.387 8428.781)">
        <g id="Group_1099618" data-name="Group 1099618" transform="translate(-0.348 0.025)">
          <rect id="Rectangle_401104" data-name="Rectangle 401104" width="67.943" height="68.761" transform="translate(0)" fill="none"/>
        </g>
        <g id="procesamiento-de-archivos" transform="translate(1.462 1.515)">
          <path id="Path_1031545" data-name="Path 1031545" d="M62.1,54.466H59.613V21.926a4.563,4.563,0,0,0-4.558-4.558h-3.4a18.1,18.1,0,0,0-.969-3.957.619.619,0,0,0-1.163.428,16.812,16.812,0,0,1,.887,3.539H44.48c-.02,0-.031-.01-.051-.01l-1.4-.275a.429.429,0,0,1-.326-.275q-.122-.337-.275-.673a.413.413,0,0,1,.041-.418l.8-1.183a1.669,1.669,0,0,0-.2-2.121L41.37,10.729a1.67,1.67,0,0,0-2.121-.2l-1.183.8a.438.438,0,0,1-.418.041q-.337-.153-.673-.275a.429.429,0,0,1-.275-.326l-.265-1.4a1.68,1.68,0,0,0-1.642-1.356H32.406a1.672,1.672,0,0,0-1.642,1.356l-.265,1.4a.429.429,0,0,1-.275.326q-.337.122-.673.275a.438.438,0,0,1-.418-.041l-1.183-.8a1.669,1.669,0,0,0-2.121.2l-1.693,1.693a1.67,1.67,0,0,0-.2,2.121l.8,1.183a.438.438,0,0,1,.041.418q-.153.337-.275.673a.429.429,0,0,1-.326.275l-1.4.265c-.01,0-.02.01-.041.01H16.763A16.985,16.985,0,0,1,47.386,9.831l-4.854-.642a.617.617,0,1,0-.163,1.224l6.119.806a.626.626,0,0,0,.408-.031c.031-.01.061-.01.082-.031a.919.919,0,0,0,.1-.092.01.01,0,0,0,.01-.01.01.01,0,0,1,.01-.01.892.892,0,0,0,.082-.1.358.358,0,0,0,.061-.143c.01-.02.01-.051.02-.071a.62.62,0,0,0,.01-.194l-.816-6.2a.617.617,0,0,0-1.224.163l.489,3.743A18.053,18.053,0,0,0,33.589,1.51a18.25,18.25,0,0,0-18.07,15.867h-3.4a4.561,4.561,0,0,0-4.558,4.558v32.53H5.077A1.889,1.889,0,0,0,3.19,56.353v2.4a6.989,6.989,0,0,0,6.985,6.985H57.013A6.989,6.989,0,0,0,64,58.749v-2.4a1.9,1.9,0,0,0-1.9-1.887ZM21.515,22.028H16.753a17.114,17.114,0,0,1-.153-2.294c0-.377.02-.755.041-1.122h4.8a1.772,1.772,0,0,0-.051.4V21.4a1.883,1.883,0,0,0,.122.632Zm2.611,5.955,1.693,1.683a1.67,1.67,0,0,0,2.121.2l1.183-.8a.438.438,0,0,1,.418-.041q.337.153.673.275a.429.429,0,0,1,.275.326l.265,1.4A1.68,1.68,0,0,0,32.4,32.388h2.386a1.672,1.672,0,0,0,1.642-1.356l.265-1.4a.429.429,0,0,1,.275-.326c.224-.082.459-.173.673-.275a.413.413,0,0,1,.418.041l1.183.8a1.669,1.669,0,0,0,2.121-.2l1.683-1.683a1.67,1.67,0,0,0,.2-2.121l-.8-1.183a.438.438,0,0,1-.041-.418q.153-.337.275-.673a.429.429,0,0,1,.326-.275l.306-.061H50.2A17.023,17.023,0,0,1,33.579,36.722a16.843,16.843,0,0,1-13.8-7.087l4.854.642a.617.617,0,0,0,.163-1.224l-6.2-.816a.439.439,0,0,0-.163,0,.566.566,0,0,0-.347.173.608.608,0,0,0-.173.52l.816,6.2a.616.616,0,0,0,.612.53.225.225,0,0,0,.082-.01.62.62,0,0,0,.53-.693l-.489-3.743a18.22,18.22,0,0,0,32.01-7.985h.908a1.362,1.362,0,0,1,1.356,1.356V48.439A1.362,1.362,0,0,1,52.383,49.8H14.805a1.362,1.362,0,0,1-1.356-1.356V24.608a1.362,1.362,0,0,1,1.356-1.356h.908a18.13,18.13,0,0,0,.653,2.427.622.622,0,0,0,.581.418.707.707,0,0,0,.2-.031.618.618,0,0,0,.377-.785,15.754,15.754,0,0,1-.561-2.029H23.85l.306.061a.429.429,0,0,1,.326.275c.082.224.173.459.275.673a.413.413,0,0,1-.041.418l-.8,1.183a1.669,1.669,0,0,0,.2,2.121Zm21.609-9.372h4.813c.02.377.041.744.041,1.122a17.115,17.115,0,0,1-.163,2.294H45.663a1.625,1.625,0,0,0,.122-.632V19.009a1.632,1.632,0,0,0-.051-.4Zm-33.611,0h3.284c-.02.367-.041.744-.041,1.122a18.986,18.986,0,0,0,.143,2.294h-.7a2.583,2.583,0,0,0-2.58,2.58V48.46a2.583,2.583,0,0,0,2.58,2.58H52.373a2.583,2.583,0,0,0,2.58-2.58V24.608a2.583,2.583,0,0,0-2.58-2.58h-.714a18.984,18.984,0,0,0,.153-2.294c0-.377-.02-.755-.041-1.122h3.284a3.325,3.325,0,0,1,3.324,3.324v32.53H8.8V21.936a3.341,3.341,0,0,1,.969-2.345,3.306,3.306,0,0,1,2.356-.979ZM23.861,55.7H43.328v1.856A1.932,1.932,0,0,1,41.4,59.483H25.8a1.932,1.932,0,0,1-1.927-1.927V55.7Zm.52-37.395a1.655,1.655,0,0,0,1.244-1.05,6.008,6.008,0,0,1,.245-.591,1.676,1.676,0,0,0-.143-1.621l-.8-1.183a.446.446,0,0,1,.051-.561l1.693-1.693a.435.435,0,0,1,.561-.051l1.183.8a1.676,1.676,0,0,0,1.621.143,6.009,6.009,0,0,1,.591-.245A1.652,1.652,0,0,0,31.682,11l.265-1.4a.438.438,0,0,1,.438-.357h2.386a.448.448,0,0,1,.438.357l.265,1.4a1.655,1.655,0,0,0,1.05,1.244,6.009,6.009,0,0,1,.591.245,1.676,1.676,0,0,0,1.621-.143l1.183-.8a.446.446,0,0,1,.561.051L42.175,13.3a.435.435,0,0,1,.051.561l-.8,1.183a1.676,1.676,0,0,0-.143,1.621,6.009,6.009,0,0,1,.245.591,1.652,1.652,0,0,0,1.244,1.05l1.4.275a.438.438,0,0,1,.357.438v2.386a.448.448,0,0,1-.357.438l-1.4.275a1.655,1.655,0,0,0-1.244,1.05,6.008,6.008,0,0,1-.245.591,1.676,1.676,0,0,0,.143,1.621l.8,1.183a.434.434,0,0,1-.051.561l-1.693,1.693a.435.435,0,0,1-.561.051l-1.183-.8a1.676,1.676,0,0,0-1.621-.143,6.009,6.009,0,0,1-.591.245,1.652,1.652,0,0,0-1.05,1.244l-.265,1.4a.438.438,0,0,1-.438.357H32.386a.448.448,0,0,1-.438-.357l-.265-1.4a1.655,1.655,0,0,0-1.05-1.244,6.009,6.009,0,0,1-.591-.245,1.581,1.581,0,0,0-.683-.143,1.719,1.719,0,0,0-.938.286l-1.183.8a.446.446,0,0,1-.561-.051l-1.693-1.693a.435.435,0,0,1-.051-.561l.8-1.183a1.676,1.676,0,0,0,.143-1.621,6.008,6.008,0,0,1-.245-.591,1.636,1.636,0,0,0-1.244-1.05l-1.4-.265a.438.438,0,0,1-.357-.438V19.03a.448.448,0,0,1,.357-.438ZM62.764,58.749A5.758,5.758,0,0,1,57.013,64.5H10.165a5.758,5.758,0,0,1-5.751-5.751v-2.4a.662.662,0,0,1,.663-.663h17.55v1.856a3.164,3.164,0,0,0,3.161,3.161h15.6a3.164,3.164,0,0,0,3.161-3.161V55.69H62.1a.662.662,0,0,1,.663.663Z" transform="translate(-0.589 -0.622)" fill="#19538d" stroke="#19538d" stroke-width="0.5"/>
          <path id="Path_1031546" data-name="Path 1031546" d="M24.34,47.21H41.66a4.105,4.105,0,1,0,0-8.21H24.34a4.105,4.105,0,1,0,0,8.21Zm20.22-4.1a2.9,2.9,0,0,1-2.9,2.9h-5.2l2.18-5.8h3.03a2.894,2.894,0,0,1,2.89,2.9ZM24.34,40.2h13L35.16,46H24.34a2.9,2.9,0,0,1,0-5.8Z" fill="#19538d" stroke="#19538d" stroke-width="0.5"/>
          <path id="Path_1031547" data-name="Path 1031547" d="M33,26.46a6.62,6.62,0,1,0-6.62-6.62A6.628,6.628,0,0,0,33,26.46Zm0-12.04a5.42,5.42,0,1,1-5.42,5.42A5.424,5.424,0,0,1,33,14.42Z" fill="#19538d" stroke="#19538d" stroke-width="0.5"/>
        </g>
      </g>
    </g>
  </g>
</svg>
