<svg xmlns="http://www.w3.org/2000/svg" width="129" height="127" viewBox="0 0 129 127">
  <g id="img6" transform="translate(-410.059 -1288)">
    <rect id="Rectangle_458964" data-name="Rectangle 458964" width="129" height="127" transform="translate(410.059 1288)" fill="#68eae0"/>
    <path id="Path_1031504" data-name="Path 1031504" d="M19,18h81.211a12.336,12.336,0,0,1,12.336,12.336v81.211H31.336A12.336,12.336,0,0,1,19,99.211Z" transform="translate(408.721 1286.799)" fill="#fff"/>
    <path id="Path_1031506" data-name="Path 1031506" d="M109.821,42.854a5.14,5.14,0,1,1-5.14,5.14,5.14,5.14,0,0,1,5.14-5.14" transform="translate(411.117 1287.494)" fill="#19538d"/>
    <path id="Path_1031505" data-name="Path 1031505" d="M80.821,12.854a5.14,5.14,0,1,1-5.14,5.14,5.14,5.14,0,0,1,5.14-5.14" transform="translate(410.307 1286.654)" fill="#19538d"/>
    <path id="Path_1031503" data-name="Path 1031503" d="M112.547,48.689v62.857H31.336A12.336,12.336,0,0,1,19,99.211V18H83.1" transform="translate(408.721 1286.799)" fill="none" stroke="#19538d" stroke-miterlimit="10" stroke-width="3"/>
    <g id="Group_1188601" data-name="Group 1188601" transform="translate(28.672 -7111.807)">
      <g id="Group_1099776" data-name="Group 1099776" transform="translate(412.387 8428.781)">
        <g id="Group_1099618" data-name="Group 1099618" transform="translate(-0.348 0.025)">
          <rect id="Rectangle_401104" data-name="Rectangle 401104" width="67.943" height="68.761" transform="translate(0)" fill="none"/>
        </g>
        <g id="blogging" transform="translate(1.322 1.195)">
          <path id="Path_1031491" data-name="Path 1031491" d="M53.34,1.83H12.66A11.339,11.339,0,0,0,1.33,13.16V52.84A11.339,11.339,0,0,0,12.66,64.17H53.34A11.339,11.339,0,0,0,64.67,52.84V13.16A11.339,11.339,0,0,0,53.34,1.83ZM3.25,13.16a9.419,9.419,0,0,1,9.41-9.41H53.34a9.419,9.419,0,0,1,9.41,9.41v2.81H29.47a1.262,1.262,0,0,1-.86-.34l-5.07-4.76a4.118,4.118,0,0,0-2.82-1.12H15.2a4.127,4.127,0,0,0-4.12,4.12v.84a1.25,1.25,0,0,1-1.25,1.25H3.25ZM53.34,62.25H12.66a9.419,9.419,0,0,1-9.41-9.41V17.89H9.82a3.171,3.171,0,0,0,3.17-3.17v-.84a2.206,2.206,0,0,1,2.2-2.2h5.52a2.185,2.185,0,0,1,1.51.6l5.07,4.76a3.177,3.177,0,0,0,2.17.86H62.75V52.85A9.417,9.417,0,0,1,53.34,62.25Z" fill="#19538d"/>
          <path id="Path_1031492" data-name="Path 1031492" d="M55.18,12.99a3.125,3.125,0,1,0-3.12-3.13A3.128,3.128,0,0,0,55.18,12.99Zm0-4.34a1.205,1.205,0,1,1-1.2,1.2A1.191,1.191,0,0,1,55.18,8.65Z" fill="#19538d"/>
          <path id="Path_1031493" data-name="Path 1031493" d="M47.32,13.26a3.125,3.125,0,1,0-3.12-3.13A3.128,3.128,0,0,0,47.32,13.26Zm0-4.34a1.205,1.205,0,1,1-1.2,1.2A1.191,1.191,0,0,1,47.32,8.92Z" fill="#19538d"/>
          <path id="Path_1031494" data-name="Path 1031494" d="M39.46,13.53a3.125,3.125,0,1,0-3.12-3.13A3.128,3.128,0,0,0,39.46,13.53Zm0-4.34a1.205,1.205,0,1,1-1.2,1.2A1.191,1.191,0,0,1,39.46,9.19Z" fill="#19538d"/>
          <path id="Path_1031495" data-name="Path 1031495" d="M55.59,22.26H11.51a4.206,4.206,0,0,0-4.2,4.2V39.24a4.206,4.206,0,0,0,4.2,4.2H55.59a4.206,4.206,0,0,0,4.2-4.2V26.47a4.214,4.214,0,0,0-4.2-4.21Zm2.28,16.99a2.279,2.279,0,0,1-2.28,2.28H11.51a2.279,2.279,0,0,1-2.28-2.28V26.47a2.279,2.279,0,0,1,2.28-2.28H55.59a2.279,2.279,0,0,1,2.28,2.28Z" fill="#19538d"/>
          <path id="Path_1031496" data-name="Path 1031496" d="M49.24,28.05H17.86a.96.96,0,1,0,0,1.92H49.23a.96.96,0,0,0,.96-.96A.945.945,0,0,0,49.24,28.05Z" fill="#19538d"/>
          <path id="Path_1031497" data-name="Path 1031497" d="M43.11,33.2H23.99a.96.96,0,1,0,0,1.92H43.11a.96.96,0,0,0,0-1.92Z" fill="#19538d"/>
          <path id="Path_1031498" data-name="Path 1031498" d="M56.25,51.96H24.87a.96.96,0,0,0,0,1.92H56.24a.96.96,0,0,0,.01-1.92Z" fill="#19538d"/>
          <path id="Path_1031499" data-name="Path 1031499" d="M56.25,47.53H24.87a.96.96,0,0,0,0,1.92H56.24a.96.96,0,0,0,.96-.96A.945.945,0,0,0,56.25,47.53Z" fill="#19538d"/>
          <path id="Path_1031500" data-name="Path 1031500" d="M56.25,56.22H24.87a.96.96,0,0,0,0,1.92H56.24a.96.96,0,0,0,.96-.96A.945.945,0,0,0,56.25,56.22Z" fill="#19538d"/>
          <path id="Path_1031501" data-name="Path 1031501" d="M13.53,46a5.76,5.76,0,1,0,5.76,5.76A5.768,5.768,0,0,0,13.53,46Zm0,9.6a3.84,3.84,0,1,1,3.84-3.84,3.841,3.841,0,0,1-3.84,3.84Z" fill="#19538d"/>
          <path id="Path_1031502" data-name="Path 1031502" d="M14.49,50.62l-1.21,1.25-.4-.39a.962.962,0,0,0-1.34,1.38l1.09,1.06a.937.937,0,0,0,.67.27h.01a.98.98,0,0,0,.68-.29l1.88-1.94a.962.962,0,1,0-1.38-1.34Z" fill="#19538d"/>
        </g>
      </g>
    </g>
  </g>
</svg>
