<svg xmlns="http://www.w3.org/2000/svg" xmlns:xlink="http://www.w3.org/1999/xlink" width="130.059" height="130.059" viewBox="0 0 130.059 130.059">
  <defs>
    <clipPath id="clip-path">
      <rect id="Rectangle_456267" data-name="Rectangle 456267" width="130.059" height="130.059" fill="none"/>
    </clipPath>
  </defs>
  <g id="img1" transform="translate(-186 -9276.941)">
    <g id="Group_1188419" data-name="Group 1188419" transform="translate(186 9276.941)">
      <g id="Group_1188418" data-name="Group 1188418" transform="translate(130.059 130.059) rotate(180)">
        <path id="Path_999622" data-name="Path 999622" d="M60.755,0A60.755,60.755,0,1,1,0,60.755,60.755,60.755,0,0,1,60.755,0" transform="translate(4.274 4.275)" fill="#e1f5ff"/>
        <g id="Group_1179902" data-name="Group 1179902" transform="translate(0 0)">
          <g id="Group_1179905" data-name="Group 1179905" clip-path="url(#clip-path)">
            <path id="Path_999618" data-name="Path 999618" d="M65.029,0A65.029,65.029,0,1,1,0,65.029,65.03,65.03,0,0,1,65.029,0" fill="none"/>
            <path id="Path_999619" data-name="Path 999619" d="M5.08,0A5.08,5.08,0,1,1,0,5.08,5.081,5.081,0,0,1,5.08,0" transform="translate(0 59.949)" fill="#19538d"/>
            <path id="Path_999620" data-name="Path 999620" d="M5.08,0A5.08,5.08,0,1,1,0,5.08,5.081,5.081,0,0,1,5.08,0" transform="translate(16.257 19.306)" fill="#19538d"/>
            <path id="Path_999621" data-name="Path 999621" d="M60.965,121.93A61.034,61.034,0,0,1,0,60.965H3.048A57.916,57.916,0,1,0,18.7,21.362l-2.223-2.085A60.965,60.965,0,1,1,60.965,121.93" transform="translate(4.064 4.064)" fill="#19538d"/>
            <rect id="Rectangle_456268" data-name="Rectangle 456268" width="130.059" height="130.059" fill="none"/>
            <rect id="Rectangle_456269" data-name="Rectangle 456269" width="130.059" height="130.059" fill="none"/>
          </g>
        </g>
        <g id="Group_1179903" data-name="Group 1179903" transform="translate(99.949 100.841) rotate(180)">
          <g id="Group_1099618" data-name="Group 1099618" transform="translate(0 0)">
            <rect id="Rectangle_401104" data-name="Rectangle 401104" width="70.232" height="71.079" transform="translate(0)" fill="none"/>
          </g>
          <g id="desarrollador-de-software_1_" data-name="desarrollador-de-software (1)" transform="translate(-2.275 -1.318)">
            <path id="Path_1031468" data-name="Path 1031468" d="M32.04,43.29H28.667a.977.977,0,0,0,0,1.954H32.04a.977.977,0,0,0,.977-.977A.963.963,0,0,0,32.04,43.29Z" transform="translate(3.609 5.255)" fill="#19538d"/>
            <path id="Path_1031469" data-name="Path 1031469" d="M8.575,29.315H29.134a2.051,2.051,0,0,0,2.045-2.045v-15.6A2.051,2.051,0,0,0,29.134,9.63H8.575A2.051,2.051,0,0,0,6.53,11.675v15.6A2.051,2.051,0,0,0,8.575,29.315ZM8.5,11.675a.078.078,0,0,1,.08-.08H29.134a.078.078,0,0,1,.08.08v15.6a.078.078,0,0,1-.08.08H8.575a.078.078,0,0,1-.08-.08Z" transform="translate(0.734 0.682)" fill="#19538d"/>
            <path id="Path_1031470" data-name="Path 1031470" d="M14.793,24.787a.93.93,0,0,0,.454.114,1,1,0,0,0,.875-.522l5.123-9.837a.978.978,0,0,0-1.738-.9L14.384,23.48a.947.947,0,0,0,.409,1.306Z" transform="translate(1.785 1.155)" fill="#19538d"/>
            <path id="Path_1031471" data-name="Path 1031471" d="M20.585,19.54l1.67,1.67-1.67,1.67a.98.98,0,0,0,1.386,1.386L24.333,21.9a.974.974,0,0,0,0-1.386L21.97,18.155a.98.98,0,0,0-1.386,1.386Z" transform="translate(2.604 1.801)" fill="#19538d"/>
            <path id="Path_1031472" data-name="Path 1031472" d="M13.307,19.226a.98.98,0,0,0,1.386-1.386l-1.67-1.67,1.67-1.67a.98.98,0,1,0-1.386-1.386l-2.363,2.363a.974.974,0,0,0,0,1.386Z" transform="translate(1.294 1.116)" fill="#19538d"/>
            <path id="Path_1031473" data-name="Path 1031473" d="M34.447,17.581H53.382a.977.977,0,0,0,.977-.977v-6a.977.977,0,0,0-.977-.977H34.447a.977.977,0,0,0-.977.977v6a.984.984,0,0,0,.977.977Zm.988-6H52.4v4.032H35.435Z" transform="translate(4.394 0.682)" fill="#19538d"/>
            <path id="Path_1031474" data-name="Path 1031474" d="M31.927,22.184H55.632a.977.977,0,0,0,0-1.954H31.927a.977.977,0,0,0,0,1.954Z" transform="translate(4.052 2.122)" fill="#19538d"/>
            <path id="Path_1031475" data-name="Path 1031475" d="M31.927,26.594H55.632a.977.977,0,0,0,0-1.954H31.927a.977.977,0,0,0,0,1.954Z" transform="translate(4.052 2.721)" fill="#19538d"/>
            <path id="Path_1031476" data-name="Path 1031476" d="M31.927,30.994H55.632a.977.977,0,1,0,0-1.954H31.927a.977.977,0,0,0,0,1.954Z" transform="translate(4.052 3.319)" fill="#19538d"/>
            <path id="Path_1031477" data-name="Path 1031477" d="M31.927,35.394H42.559a.977.977,0,1,0,0-1.954H31.927a.977.977,0,1,0,0,1.954Z" transform="translate(4.052 3.917)" fill="#19538d"/>
            <path id="Path_1031478" data-name="Path 1031478" d="M7.517,30.994H28.565a.977.977,0,0,0,0-1.954H7.517a.977.977,0,1,0,0,1.954Z" transform="translate(0.735 3.319)" fill="#19538d"/>
            <path id="Path_1031479" data-name="Path 1031479" d="M7.517,35.394H28.565a.977.977,0,1,0,0-1.954H7.517a.977.977,0,1,0,0,1.954Z" transform="translate(0.735 3.917)" fill="#19538d"/>
            <path id="Path_1031480" data-name="Path 1031480" d="M72.3,47.092l-1.749-.568a11.131,11.131,0,0,0-1.068-2.578l.841-1.636a1.76,1.76,0,0,0-.318-2.056l-1.125-1.125a1.76,1.76,0,0,0-2.056-.318l-.023.011V9.244A4.639,4.639,0,0,0,62.172,4.61H5.764A4.639,4.639,0,0,0,1.13,9.244v42.1a4.639,4.639,0,0,0,4.634,4.634H22.337v6H20.2a4.106,4.106,0,0,0-4.1,4.1v1.079H13.909a.977.977,0,1,0,0,1.954H54.016a.977.977,0,1,0,0-1.954H51.824V66.072a4.106,4.106,0,0,0-4.1-4.1H45.588v-6h3.669l-.432.852a1.762,1.762,0,0,0,.329,2.056l1.125,1.125a1.78,1.78,0,0,0,2.056.329l1.636-.829a11.34,11.34,0,0,0,2.578,1.068l.568,1.738A1.755,1.755,0,0,0,58.8,63.539h1.59a1.755,1.755,0,0,0,1.681-1.227l.568-1.738a11.428,11.428,0,0,0,2.578-1.068l1.636.841a1.762,1.762,0,0,0,2.056-.329l1.125-1.125a1.762,1.762,0,0,0,.329-2.056L69.521,55.2a10.93,10.93,0,0,0,1.068-2.578l1.749-.568a1.77,1.77,0,0,0,1.227-1.681v-1.59A1.846,1.846,0,0,0,72.3,47.092ZM49.87,66.072v1.079h-31.8V66.072a2.152,2.152,0,0,1,2.147-2.147H47.735A2.15,2.15,0,0,1,49.87,66.072ZM5.764,6.564H62.172a2.686,2.686,0,0,1,2.681,2.681V39.493a10.871,10.871,0,0,0-2.226-.9l-.568-1.749a1.755,1.755,0,0,0-1.681-1.227h-1.59a1.755,1.755,0,0,0-1.681,1.227L56.538,38.6a11.13,11.13,0,0,0-2.567,1.068l-1.636-.841a1.76,1.76,0,0,0-2.056.318l-1.125,1.125a1.78,1.78,0,0,0-.329,2.056l.386.75H3.084V9.244A2.686,2.686,0,0,1,5.764,6.564ZM3.084,51.34v-6.3h46.06a11.829,11.829,0,0,0-.545,1.5l-1.749.568a1.77,1.77,0,0,0-1.227,1.681v1.59a1.755,1.755,0,0,0,1.227,1.681l1.738.557a11.959,11.959,0,0,0,.488,1.4H5.764A2.676,2.676,0,0,1,3.084,51.34ZM43.634,61.971H24.29v-6H43.634ZM71.577,50.227l-2.135.682a.978.978,0,0,0-.659.716,9.349,9.349,0,0,1-1.238,2.987.97.97,0,0,0-.045.977l1.022,2-.931.931-2-1.022a1,1,0,0,0-.977.045,9.288,9.288,0,0,1-2.976,1.238.978.978,0,0,0-.716.659l-.693,2.124H58.912l-.693-2.124a1,1,0,0,0-.716-.659,9.158,9.158,0,0,1-2.987-1.238.977.977,0,0,0-.965-.045l-2,1.022-.931-.931,1.022-2a.915.915,0,0,0,.091-.545c0-.023.011-.034.011-.057a.952.952,0,0,0-.375-.75,9.1,9.1,0,0,1-1.011-2.6,1.013,1.013,0,0,0-.659-.727l-2.135-.682V48.909l2.135-.693a.978.978,0,0,0,.659-.716A9.08,9.08,0,0,1,51.6,44.524a.971.971,0,0,0,.045-.977l-1.022-2,.931-.931,2,1.022a1,1,0,0,0,.977-.045A9.288,9.288,0,0,1,57.5,40.356a.978.978,0,0,0,.716-.659l.693-2.135h1.318l.693,2.135a1,1,0,0,0,.716.659,9.04,9.04,0,0,1,2.976,1.238.971.971,0,0,0,.977.045l2-1.022.931.931-1.022,2a1,1,0,0,0,.045.977A9.288,9.288,0,0,1,68.782,47.5a1.013,1.013,0,0,0,.659.727l2.135.693Z" transform="translate(0 0)" fill="#19538d"/>
            <path id="Path_1031481" data-name="Path 1031481" d="M53.373,38.43a6.543,6.543,0,1,0,6.543,6.543,6.544,6.544,0,0,0-6.543-6.543Zm0,11.132a4.589,4.589,0,1,1,4.589-4.589A4.591,4.591,0,0,1,53.373,49.562Z" transform="translate(6.209 4.595)" fill="#19538d"/>
          </g>
        </g>
      </g>
    </g>
  </g>
</svg>
