<svg xmlns="http://www.w3.org/2000/svg" xmlns:xlink="http://www.w3.org/1999/xlink" width="130.059" height="130.059" viewBox="0 0 130.059 130.059">
  <defs>
    <clipPath id="clip-path">
      <rect id="Rectangle_456267" data-name="Rectangle 456267" width="130.059" height="130.059" fill="none"/>
    </clipPath>
  </defs>
  <g id="img2" transform="translate(-186 -9276.941)">
    <g id="Group_1188419" data-name="Group 1188419" transform="translate(186 9276.941)">
      <g id="Group_1188418" data-name="Group 1188418" transform="translate(130.059 130.059) rotate(180)">
        <path id="Path_999622" data-name="Path 999622" d="M60.755,0A60.755,60.755,0,1,1,0,60.755,60.755,60.755,0,0,1,60.755,0" transform="translate(4.274 4.275)" fill="#e1f5ff"/>
        <g id="Group_1179902" data-name="Group 1179902" transform="translate(0 0)">
          <g id="Group_1179905" data-name="Group 1179905" clip-path="url(#clip-path)">
            <path id="Path_999618" data-name="Path 999618" d="M65.029,0A65.029,65.029,0,1,1,0,65.029,65.03,65.03,0,0,1,65.029,0" fill="none"/>
            <path id="Path_999619" data-name="Path 999619" d="M5.08,0A5.08,5.08,0,1,1,0,5.08,5.081,5.081,0,0,1,5.08,0" transform="translate(0 59.949)" fill="#19538d"/>
            <path id="Path_999620" data-name="Path 999620" d="M5.08,0A5.08,5.08,0,1,1,0,5.08,5.081,5.081,0,0,1,5.08,0" transform="translate(16.257 19.306)" fill="#19538d"/>
            <path id="Path_999621" data-name="Path 999621" d="M60.965,121.93A61.034,61.034,0,0,1,0,60.965H3.048A57.916,57.916,0,1,0,18.7,21.362l-2.223-2.085A60.965,60.965,0,1,1,60.965,121.93" transform="translate(4.064 4.064)" fill="#19538d"/>
            <rect id="Rectangle_456268" data-name="Rectangle 456268" width="130.059" height="130.059" fill="none"/>
            <rect id="Rectangle_456269" data-name="Rectangle 456269" width="130.059" height="130.059" fill="none"/>
          </g>
        </g>
        <g id="Group_1179903" data-name="Group 1179903" transform="translate(99.949 100.841) rotate(180)">
          <g id="Group_1099618" data-name="Group 1099618" transform="translate(0 0)">
            <rect id="Rectangle_401104" data-name="Rectangle 401104" width="70.232" height="71.079" transform="translate(0)" fill="none"/>
          </g>
          <g id="oferta-en-linea" transform="translate(-0.48 -0.575)">
            <path id="Path_1031482" data-name="Path 1031482" d="M60.753,8.708H56.34L53.924,3.281a2.489,2.489,0,0,0-3.188-1.247L47.194,3.468a2.4,2.4,0,0,0-1.335,1.313,2.232,2.232,0,0,0-.066,1.489,11.5,11.5,0,0,1-5.262.706l-4.667-.463a5.578,5.578,0,0,0-4.159,1.3l-.452.386-.265.022a6.086,6.086,0,0,1-3.332-.662l-.541-.276.132-.2a2.289,2.289,0,0,0,.309-1.776,2.368,2.368,0,0,0-1.1-1.478L23.155,1.9a2.481,2.481,0,0,0-3.321.772L15.95,8.708H11.207A7.02,7.02,0,0,0,4.19,15.725V51.8a7.02,7.02,0,0,0,7.017,7.017H29.73v5.671H26.475a1.618,1.618,0,0,0-1.533,1.092l-1.1,3.2a1.641,1.641,0,0,0,.21,1.478,1.621,1.621,0,0,0,1.324.684H46.609a1.626,1.626,0,0,0,1.533-2.162l-1.1-3.2a1.618,1.618,0,0,0-1.533-1.092H42.241V58.817H60.764A7.02,7.02,0,0,0,67.78,51.8V15.725a7.037,7.037,0,0,0-7.028-7.017Zm0,1.324a5.7,5.7,0,0,1,5.693,5.693v32.92H62.694V18.9a5.154,5.154,0,0,0-4.038-5l-1.721-3.872ZM10.589,48.646V18.9a3.827,3.827,0,0,1,2.857-3.674,2.436,2.436,0,0,0,.739.684l3.3,1.931a2.442,2.442,0,0,0,1.247.342,2.54,2.54,0,0,0,1.589-.563l.232.177a4.223,4.223,0,0,1,1.677,2.725,2.224,2.224,0,0,0,.872,1.423l.706.53-.971,1.169a2.254,2.254,0,0,0-.519,1.71,2.278,2.278,0,0,0,.9,1.556,2.365,2.365,0,0,0,1.357.485,2.483,2.483,0,0,0-.011.574,2.282,2.282,0,0,0,.894,1.545,2.392,2.392,0,0,0,2.361.32A2.3,2.3,0,0,0,28.638,31a2.464,2.464,0,0,0,1.467.485,2.413,2.413,0,0,0,.96-.2,2.13,2.13,0,0,0,.7.927,2.237,2.237,0,0,0,3.034-.342l.563-.684.287.21a2.981,2.981,0,0,0,1.8.618H37.6a2.465,2.465,0,0,0,2.35-2.107,2.913,2.913,0,0,0,1.644.364,2.514,2.514,0,0,0,1.8-.894,2.331,2.331,0,0,0,.53-1.2,2.985,2.985,0,0,0,1.644.364A2.462,2.462,0,0,0,47.9,26.426a2.856,2.856,0,0,0,1.633.364,2.53,2.53,0,0,0,1.809-.9,2.4,2.4,0,0,0,.519-1.82,2.683,2.683,0,0,0-1.114-1.831l-2.8-2.074.011-.011a7.294,7.294,0,0,1,2.659-2l.463-.21a2.474,2.474,0,0,0,1.887.861,2.372,2.372,0,0,0,.938-.188l3.541-1.434a2.385,2.385,0,0,0,1.335-1.324,2.071,2.071,0,0,0,.132-.5A3.817,3.817,0,0,1,61.382,18.9V48.646Zm24.15-18.8c0,.011-.011.011-.011.022l-.022.022L33.79,31a.9.9,0,0,1-1.214.132.724.724,0,0,1-.3-.519.693.693,0,0,1,.165-.541c0-.011.011-.011.011-.022l.9-1.1.033-.033a.9.9,0,0,1,1.2-.11.751.751,0,0,1,.3.7A.881.881,0,0,1,34.739,29.846ZM32.8,27.552l-.4.485a.292.292,0,0,0-.055.066l-1.39,1.677a1.123,1.123,0,0,1-1.511.165.964.964,0,0,1-.386-.651.916.916,0,0,1,.21-.706v-.011a.194.194,0,0,1,.044-.055l1.368-1.644.011-.011.4-.485.011-.011.044-.044a1.114,1.114,0,0,1,1.467-.132.955.955,0,0,1,.386.883.819.819,0,0,1-.2.474Zm-2.03-3.067a.914.914,0,0,1-.2.474l-.375.463a.039.039,0,0,0-.011.022c-.022.022-.033.044-.055.066a.293.293,0,0,1,.055-.066.412.412,0,0,0-.066.077l-1.842,2.217c-.011.022-.033.044-.044.066l-.419.507a1.1,1.1,0,0,1-1.511.154.927.927,0,0,1-.375-.651.916.916,0,0,1,.21-.706l.463-.563,1.346-1.633a.51.51,0,0,0,.077-.077l.883-1.059a1.1,1.1,0,0,1,1.511-.154.925.925,0,0,1,.353.861ZM27.6,23a.846.846,0,0,1-.21.474l-.353.43a.48.48,0,0,0-.066.077l-1.412,1.71V25.7a1.1,1.1,0,0,1-1.511.154.964.964,0,0,1-.386-.651.9.9,0,0,1,.221-.706l1.842-2.217a1.079,1.079,0,0,1,.838-.386,1.063,1.063,0,0,1,.662.221A.95.95,0,0,1,27.6,23ZM47.095,5.277a1.069,1.069,0,0,1,.6-.585l3.541-1.434a1.258,1.258,0,0,1,.441-.088,1.111,1.111,0,0,1,1.026.64L57.5,14.6a.935.935,0,0,1,.011.75,1.069,1.069,0,0,1-.6.585l-3.541,1.434a1.141,1.141,0,0,1-1.478-.563L47.249,6.359l-.143-.331a.982.982,0,0,1-.011-.75ZM35.731,7.837l4.678.463a12.918,12.918,0,0,0,5.9-.805l4.115,9.256-.375.165a8.784,8.784,0,0,0-3.133,2.361l-.066.077-10.238-7.59a2.8,2.8,0,0,0-4.678,1.456l-.21,1.291a2.654,2.654,0,0,1-.563,1.225,2.787,2.787,0,0,1-1.743.982l-.386-2.78a3.4,3.4,0,0,1,1.191-3.078l1.743-1.5c.011-.011.022-.011.022-.022l.585-.5a4.157,4.157,0,0,1,3.155-1Zm-8.693.894a7.352,7.352,0,0,0,2.67.794l-.364.32a4.751,4.751,0,0,0-1.633,4.27l.408,2.913a1.211,1.211,0,0,0,1.357,1.015,4.187,4.187,0,0,0,2.714-1.467,3.862,3.862,0,0,0,.849-1.853l.21-1.291a1.471,1.471,0,0,1,2.416-.75l.1.1,10.8,8.021h.011l3.365,2.493a1.382,1.382,0,0,1,.574.927,1.046,1.046,0,0,1-.221.794,1.232,1.232,0,0,1-.872.43,1.567,1.567,0,0,1-1.092-.331l-1.556-1.18L42.02,20.348a.662.662,0,0,0-.794,1.059L45.98,25a1.423,1.423,0,0,1,.585.96,1.078,1.078,0,0,1-.232.805,1.265,1.265,0,0,1-.872.419,1.608,1.608,0,0,1-1.092-.331l-1.533-1.147c-.011-.011-.011-.022-.022-.022L39.6,23.26a.662.662,0,0,0-.794,1.059L42,26.724c.011.011.011.022.022.033h.011a1.4,1.4,0,0,1,.552.816,1.069,1.069,0,0,1-.21.927,1.226,1.226,0,0,1-.883.419,1.506,1.506,0,0,1-1.081-.331l-1.556-1.169L37.2,26.173a.662.662,0,1,0-.794,1.059l1.666,1.258a1.447,1.447,0,0,1,.585.96,1.053,1.053,0,0,1-.232.794,1.211,1.211,0,0,1-.872.43,1.646,1.646,0,0,1-1.081-.342l-.342-.254a2.2,2.2,0,0,0,.1-.386,2.094,2.094,0,0,0-.816-1.942,2.186,2.186,0,0,0-1.07-.419c0-.022.011-.044.011-.066a2.287,2.287,0,0,0-.9-2.129,2.429,2.429,0,0,0-1.346-.474,2.254,2.254,0,0,0-.894-2.118,2.438,2.438,0,0,0-2.361-.32,2.42,2.42,0,0,0-.816-1.18,2.462,2.462,0,0,0-3.332.375l-.022.033-.739-.563a.887.887,0,0,1-.364-.552,5.489,5.489,0,0,0-2.184-3.6l-.221-.165L26.42,8.411ZM20.948,3.38a1.145,1.145,0,0,1,1.533-.342l3.3,1.931a1.1,1.1,0,0,1,.485.651.926.926,0,0,1-.132.739L19.746,16.3a.011.011,0,0,1-.011.011c-.011.011-.011.033-.022.044a1.145,1.145,0,0,1-1.533.342l-3.3-1.931a1.007,1.007,0,0,1-.485-.64.926.926,0,0,1,.132-.739ZM5.5,15.725A5.7,5.7,0,0,1,11.2,10.032H15.09l-1.7,2.637a2.308,2.308,0,0,0-.364,1.3A5.066,5.066,0,0,0,9.265,18.9V48.646H5.514V15.725ZM45.76,66.01l1.1,3.2a.283.283,0,0,1-.033.265.3.3,0,0,1-.243.121H25.361a.3.3,0,0,1-.243-.121.283.283,0,0,1-.033-.265l1.1-3.2a.3.3,0,0,1,.276-.2H45.473A.289.289,0,0,1,45.76,66.01Zm-4.865-1.522H31.054V58.817h9.841Zm19.858-7.006H11.2A5.7,5.7,0,0,1,5.5,51.79v-1.82H66.434v1.82a5.683,5.683,0,0,1-5.682,5.693Z" transform="translate(0.433 0.162)" fill="#19538d" stroke="#19538d" stroke-width="0.5"/>
            <path id="Path_1031483" data-name="Path 1031483" fill="#19538d" stroke="#19538d" stroke-width="0.5"/>
            <path id="Path_1031484" data-name="Path 1031484" d="M33.281,46.13a3,3,0,1,0,3,3A3,3,0,0,0,33.281,46.13Zm0,4.667a1.666,1.666,0,1,1,1.666-1.666A1.671,1.671,0,0,1,33.281,50.8Z" transform="translate(3.126 4.762)" fill="#19538d" stroke="#19538d" stroke-width="0.5"/>
            <path id="Path_1031485" data-name="Path 1031485" d="M53.683,32.1H37.212a.662.662,0,1,0,0,1.324h16.46a.664.664,0,0,0,.662-.662.655.655,0,0,0-.651-.662Z" transform="translate(3.773 3.314)" fill="#19538d" stroke="#19538d" stroke-width="0.5"/>
            <path id="Path_1031486" data-name="Path 1031486" d="M15.462,33.434H32.474a.662.662,0,1,0,0-1.324H15.462a.662.662,0,1,0,0,1.324Z" transform="translate(1.528 3.315)" fill="#19538d" stroke="#19538d" stroke-width="0.5"/>
            <path id="Path_1031487" data-name="Path 1031487" d="M55.327,36.2H21.292a.662.662,0,1,0,0,1.324H55.327a.662.662,0,1,0,0-1.324Z" transform="translate(2.13 3.737)" fill="#19538d" stroke="#19538d" stroke-width="0.5"/>
            <path id="Path_1031488" data-name="Path 1031488" d="M15.462,37.534H18.33a.662.662,0,1,0,0-1.324H15.462a.662.662,0,1,0,0,1.324Z" transform="translate(1.528 3.738)" fill="#19538d" stroke="#19538d" stroke-width="0.5"/>
            <path id="Path_1031489" data-name="Path 1031489" d="M52.464,40.3H49.022a.662.662,0,1,0,0,1.324h3.442a.662.662,0,0,0,0-1.324Z" transform="translate(4.992 4.16)" fill="#19538d" stroke="#19538d" stroke-width="0.5"/>
            <path id="Path_1031490" data-name="Path 1031490" d="M47.7,40.3H15.462a.662.662,0,1,0,0,1.324H47.687a.664.664,0,0,0,.662-.662A.648.648,0,0,0,47.7,40.3Z" transform="translate(1.528 4.16)" fill="#19538d" stroke="#19538d" stroke-width="0.5"/>
          </g>
        </g>
      </g>
    </g>
  </g>
</svg>
