<svg xmlns="http://www.w3.org/2000/svg" xmlns:xlink="http://www.w3.org/1999/xlink" width="96" height="96" viewBox="0 0 96 96">
  <defs>
    <clipPath id="clip-path">
      <rect id="Rectangle_456267" data-name="Rectangle 456267" width="96" height="96" fill="none"/>
    </clipPath>
  </defs>
  <g id="img10" transform="translate(479.746 8495) rotate(180)">
    <path id="Path_999622" data-name="Path 999622" d="M43.07,0A43.07,43.07,0,1,1,0,43.07,43.071,43.071,0,0,1,43.07,0" transform="translate(388.676 8403.93)" fill="#e3fbf9"/>
    <g id="Group_1179902" data-name="Group 1179902" transform="translate(383.746 8399)">
      <g id="Group_1179905" data-name="Group 1179905" clip-path="url(#clip-path)">
        <path id="Path_999618" data-name="Path 999618" d="M48,0A48,48,0,1,1,0,48,48,48,0,0,1,48,0" fill="none"/>
        <path id="Path_999619" data-name="Path 999619" d="M3.75,59A3.75,3.75,0,1,1,0,62.75,3.75,3.75,0,0,1,3.75,59" transform="translate(0 -14.75)" fill="#0f654d"/>
        <path id="Path_999620" data-name="Path 999620" d="M19.75,19A3.75,3.75,0,1,1,16,22.75,3.75,3.75,0,0,1,19.75,19" transform="translate(-4 -4.75)" fill="#0f654d"/>
        <path id="Path_999621" data-name="Path 999621" d="M49,94A45.051,45.051,0,0,1,4,49H6.25A42.75,42.75,0,1,0,17.806,19.768l-1.641-1.539A45,45,0,1,1,49,94" transform="translate(-1 -1)" fill="#0f654d"/>
        <rect id="Rectangle_456268" data-name="Rectangle 456268" width="96" height="96" fill="none"/>
        <rect id="Rectangle_456269" data-name="Rectangle 456269" width="96" height="96" fill="none"/>
      </g>
    </g>
    <g id="Group_1179903" data-name="Group 1179903" transform="translate(458.745 8474.508) rotate(180)">
      <g id="Group_1099618" data-name="Group 1099618" transform="translate(-0.036 0)">
        <rect id="Rectangle_401104" data-name="Rectangle 401104" width="54.153" height="54.806" transform="translate(0)" fill="none"/>
      </g>
      <g id="layer2" transform="translate(299.647 -0.343)">
        <g id="g56193" transform="translate(-297 2)">
          <g id="Group_1189074" data-name="Group 1189074" transform="translate(0)">
            <path id="rect49889" d="M15.074,2a1.166,1.166,0,0,0-.74.266L4.426,10.426a1.166,1.166,0,0,0-.426.9v37.3a4.678,4.678,0,0,0,4.663,4.663H41.3a4.678,4.678,0,0,0,4.663-4.663H43.631A2.3,2.3,0,0,1,41.3,50.957H8.663a2.3,2.3,0,0,1-2.331-2.331V13.656h5.828a4.678,4.678,0,0,0,4.663-4.663V4.331H41.3a2.3,2.3,0,0,1,2.331,2.331v3.5h2.331v-3.5A4.678,4.678,0,0,0,41.3,2Zm-.583,3.155V8.994a2.3,2.3,0,0,1-2.331,2.331H7Z" transform="translate(-4 -2)" fill="#0f654d"/>
            <path id="path50884" d="M38.491,11a10.486,10.486,0,0,0-5.828,19.206V44.744a1.166,1.166,0,0,0,1.865.933L38.491,42.7l3.964,2.973a1.166,1.166,0,0,0,1.865-.933V30.206A10.486,10.486,0,0,0,38.491,11Zm0,2.331a8.159,8.159,0,1,1-8.159,8.159A8.142,8.142,0,0,1,38.491,13.331Zm-3.5,18.047a10.436,10.436,0,0,0,6.994,0V42.415l-2.8-2.1a1.166,1.166,0,0,0-1.4,0l-2.8,2.1Z" transform="translate(-0.025 -0.509)" fill="#0f654d"/>
            <path id="circle51388" d="M37.754,15.445a5.309,5.309,0,1,0,5.309,5.309A5.326,5.326,0,0,0,37.754,15.445Zm0,2.331a2.978,2.978,0,1,1-2.978,2.978A2.96,2.96,0,0,1,37.754,17.777Z" transform="translate(0.711 0.227)" fill="#0f654d"/>
          </g>
          <path id="path51884" d="M30,7V9.331h3.5V7Z" transform="translate(0.307 -1.172)" fill="#0f654d"/>
          <path id="path51886" d="M18,7V9.331H29.656V7Z" transform="translate(-1.681 -1.172)" fill="#0f654d"/>
          <path id="path52878" d="M9,16v2.331H27.65V16Z" transform="translate(-3.172 0.319)" fill="#0f654d"/>
          <path id="path52880" d="M9,21v2.331H22.988V21Z" transform="translate(-3.172 1.147)" fill="#0f654d"/>
          <path id="path52882" d="M9,26v2.331H27.65V26Z" transform="translate(-3.172 1.975)" fill="#0f654d"/>
          <path id="path52884" d="M9,31v2.331H22.988V31Z" transform="translate(-3.172 2.803)" fill="#0f654d"/>
          <path id="path53384" d="M9,36v2.331H27.65V36Z" transform="translate(-3.172 3.631)" fill="#0f654d"/>
        </g>
      </g>
    </g>
  </g>
</svg>
