<svg xmlns="http://www.w3.org/2000/svg" xmlns:xlink="http://www.w3.org/1999/xlink" width="96" height="96" viewBox="0 0 96 96">
  <defs>
    <clipPath id="clip-path">
      <rect id="Rectangle_456267" data-name="Rectangle 456267" width="96" height="96" fill="none"/>
    </clipPath>
  </defs>
  <g id="img6" transform="translate(479.746 8495) rotate(180)">
    <path id="Path_999622" data-name="Path 999622" d="M43.07,0A43.07,43.07,0,1,1,0,43.07,43.071,43.071,0,0,1,43.07,0" transform="translate(388.676 8403.93)" fill="#e3fbf9"/>
    <g id="Group_1179902" data-name="Group 1179902" transform="translate(383.746 8399)">
      <g id="Group_1179905" data-name="Group 1179905" clip-path="url(#clip-path)">
        <path id="Path_999618" data-name="Path 999618" d="M48,0A48,48,0,1,1,0,48,48,48,0,0,1,48,0" fill="none"/>
        <path id="Path_999619" data-name="Path 999619" d="M3.75,59A3.75,3.75,0,1,1,0,62.75,3.75,3.75,0,0,1,3.75,59" transform="translate(0 -14.75)" fill="#0f654d"/>
        <path id="Path_999620" data-name="Path 999620" d="M19.75,19A3.75,3.75,0,1,1,16,22.75,3.75,3.75,0,0,1,19.75,19" transform="translate(-4 -4.75)" fill="#0f654d"/>
        <path id="Path_999621" data-name="Path 999621" d="M49,94A45.051,45.051,0,0,1,4,49H6.25A42.75,42.75,0,1,0,17.806,19.768l-1.641-1.539A45,45,0,1,1,49,94" transform="translate(-1 -1)" fill="#0f654d"/>
        <rect id="Rectangle_456268" data-name="Rectangle 456268" width="96" height="96" fill="none"/>
        <rect id="Rectangle_456269" data-name="Rectangle 456269" width="96" height="96" fill="none"/>
      </g>
    </g>
    <g id="Group_1179903" data-name="Group 1179903" transform="translate(458.745 8474.508) rotate(180)">
      <g id="Group_1099618" data-name="Group 1099618" transform="translate(0 0)">
        <rect id="Rectangle_401104" data-name="Rectangle 401104" width="54.153" height="54.806" transform="translate(0)" fill="none"/>
      </g>
      <g id="reporte-de-negocios" transform="translate(0.964 -3.314)">
        <path id="Path_1032547" data-name="Path 1032547" d="M44.245,27.242V4l-4.9,2.042L35.285,4.361,31.232,6.052,27.18,4.361,23.128,6.052,19.065,4.361,15.013,6.052,10.95,4.361,6.9,6.042,2,4.01V50.05a5.925,5.925,0,0,0,5.919,5.919H48.473a5.925,5.925,0,0,0,5.919-5.919V27.242ZM7.919,54.278A4.233,4.233,0,0,1,3.691,50.05V6.537L6.9,7.877,10.95,6.186,15,7.877l4.052-1.691,4.052,1.691,4.052-1.691,4.052,1.691,4.052-1.691,4.052,1.691,3.207-1.34v43.5a5.9,5.9,0,0,0,1.784,4.228H7.919ZM52.69,50.05a4.228,4.228,0,0,1-8.455,0V28.933H52.68V50.05Z" fill="#0f654d"/>
        <path id="Path_1032548" data-name="Path 1032548" d="M124.9,327.7h1.691v5.919H124.9Z" transform="translate(-110.227 -290.322)" fill="#0f654d"/>
        <path id="Path_1032549" data-name="Path 1032549" d="M165.9,294.9h1.691v9.29H165.9Z" transform="translate(-147 -260.905)" fill="#0f654d"/>
        <path id="Path_1032550" data-name="Path 1032550" d="M206.8,311.3h1.691v7.6H206.8Z" transform="translate(-183.683 -275.614)" fill="#0f654d"/>
        <path id="Path_1032551" data-name="Path 1032551" d="M247.8,278.5h1.691v10.981H247.8Z" transform="translate(-220.455 -246.196)" fill="#0f654d"/>
        <path id="Path_1032552" data-name="Path 1032552" d="M288.8,262.1h1.691v12.673H288.8Z" transform="translate(-257.227 -231.487)" fill="#0f654d"/>
        <path id="Path_1032553" data-name="Path 1032553" d="M114.238,221.873l-4.176-4.176-7.362,7.352,1.2,1.2,6.166-6.166,4.259,4.269,6.517-7.434-1.279-1.114Z" transform="translate(-90.317 -189.961)" fill="#0f654d"/>
        <path id="Path_1032554" data-name="Path 1032554" d="M165.9,73.7h20.272v1.691H165.9Z" transform="translate(-147 -62.513)" fill="#0f654d"/>
        <path id="Path_1032555" data-name="Path 1032555" d="M165.9,131h20.272v1.691H165.9Z" transform="translate(-147 -113.905)" fill="#0f654d"/>
        <path id="Path_1032556" data-name="Path 1032556" d="M59.645,73.7H51.2v7.6h8.445Zm-1.691,5.908H52.881V75.381h5.073Z" transform="translate(-44.127 -62.513)" fill="#0f654d"/>
        <path id="Path_1032557" data-name="Path 1032557" d="M51.2,450.6h1.691v1.691H51.2Z" transform="translate(-44.127 -400.55)" fill="#0f654d"/>
        <path id="Path_1032558" data-name="Path 1032558" d="M83.9,450.6h1.691v1.691H83.9Z" transform="translate(-73.455 -400.55)" fill="#0f654d"/>
        <path id="Path_1032559" data-name="Path 1032559" d="M116.7,450.6h1.691v1.691H116.7Z" transform="translate(-102.873 -400.55)" fill="#0f654d"/>
        <path id="Path_1032560" data-name="Path 1032560" d="M149.5,450.6h1.691v1.691H149.5Z" transform="translate(-132.291 -400.55)" fill="#0f654d"/>
        <path id="Path_1032561" data-name="Path 1032561" d="M182.3,450.6h1.691v1.691H182.3Z" transform="translate(-161.709 -400.55)" fill="#0f654d"/>
        <path id="Path_1032562" data-name="Path 1032562" d="M215,450.6h1.691v1.691H215Z" transform="translate(-191.037 -400.55)" fill="#0f654d"/>
        <path id="Path_1032563" data-name="Path 1032563" d="M247.8,450.6h1.691v1.691H247.8Z" transform="translate(-220.455 -400.55)" fill="#0f654d"/>
        <path id="Path_1032564" data-name="Path 1032564" d="M280.6,450.6h1.691v1.691H280.6Z" transform="translate(-249.873 -400.55)" fill="#0f654d"/>
        <path id="Path_1032565" data-name="Path 1032565" d="M313.4,450.6h1.691v1.691H313.4Z" transform="translate(-279.291 -400.55)" fill="#0f654d"/>
        <path id="Path_1032566" data-name="Path 1032566" d="M346.1,450.6h1.691v1.691H346.1Z" transform="translate(-308.619 -400.55)" fill="#0f654d"/>
        <path id="Path_1032567" data-name="Path 1032567" d="M75.7,212.054h27.036V188.4H75.7Zm1.691-21.963h23.654v20.272H77.391Z" transform="translate(-66.101 -165.386)" fill="#0f654d"/>
      </g>
    </g>
  </g>
</svg>
