<svg xmlns="http://www.w3.org/2000/svg" xmlns:xlink="http://www.w3.org/1999/xlink" width="96" height="96" viewBox="0 0 96 96">
  <defs>
    <clipPath id="clip-path">
      <rect id="Rectangle_456267" data-name="Rectangle 456267" width="96" height="96" fill="none"/>
    </clipPath>
  </defs>
  <g id="img7" transform="translate(479.746 8495) rotate(180)">
    <path id="Path_999622" data-name="Path 999622" d="M43.07,0A43.07,43.07,0,1,1,0,43.07,43.071,43.071,0,0,1,43.07,0" transform="translate(388.676 8403.93)" fill="#e3fbf9"/>
    <g id="Group_1179902" data-name="Group 1179902" transform="translate(383.746 8399)">
      <g id="Group_1179905" data-name="Group 1179905" clip-path="url(#clip-path)">
        <path id="Path_999618" data-name="Path 999618" d="M48,0A48,48,0,1,1,0,48,48,48,0,0,1,48,0" fill="none"/>
        <path id="Path_999619" data-name="Path 999619" d="M3.75,59A3.75,3.75,0,1,1,0,62.75,3.75,3.75,0,0,1,3.75,59" transform="translate(0 -14.75)" fill="#0f654d"/>
        <path id="Path_999620" data-name="Path 999620" d="M19.75,19A3.75,3.75,0,1,1,16,22.75,3.75,3.75,0,0,1,19.75,19" transform="translate(-4 -4.75)" fill="#0f654d"/>
        <path id="Path_999621" data-name="Path 999621" d="M49,94A45.051,45.051,0,0,1,4,49H6.25A42.75,42.75,0,1,0,17.806,19.768l-1.641-1.539A45,45,0,1,1,49,94" transform="translate(-1 -1)" fill="#0f654d"/>
        <rect id="Rectangle_456268" data-name="Rectangle 456268" width="96" height="96" fill="none"/>
        <rect id="Rectangle_456269" data-name="Rectangle 456269" width="96" height="96" fill="none"/>
      </g>
    </g>
    <g id="Group_1179903" data-name="Group 1179903" transform="translate(458.745 8474.508) rotate(180)">
      <g id="Group_1099618" data-name="Group 1099618" transform="translate(0 -0.492)">
        <rect id="Rectangle_401104" data-name="Rectangle 401104" width="54.153" height="54.806" transform="translate(0)" fill="none"/>
      </g>
      <g id="reunion_2_" data-name="reunion (2)" transform="translate(-0.29 -0.492)">
        <path id="Path_1032568" data-name="Path 1032568" d="M30.67,58.226c-5.313,0-7.221-1.755-7.42-1.954a.852.852,0,0,1-.25-.6V52.261A4.266,4.266,0,0,1,27.261,48h6.818a4.266,4.266,0,0,1,4.261,4.261V55.67a.852.852,0,0,1-.25.6C37.89,56.472,35.982,58.226,30.67,58.226ZM24.7,55.249c.605.389,2.373,1.273,5.965,1.273s5.351-.879,5.965-1.278V52.261A2.557,2.557,0,0,0,34.078,49.7H27.261A2.557,2.557,0,0,0,24.7,52.261Z" transform="translate(-3.252 -6.504)" fill="#0f654d"/>
        <path id="Path_1032569" data-name="Path 1032569" d="M31.113,48.226a5.113,5.113,0,1,1,5.113-5.113A5.113,5.113,0,0,1,31.113,48.226Zm0-8.522a3.409,3.409,0,1,0,3.409,3.409A3.409,3.409,0,0,0,31.113,39.7Z" transform="translate(-3.695 -5.026)" fill="#0f654d"/>
        <path id="Path_1032570" data-name="Path 1032570" d="M49.67,58.226c-5.313,0-7.221-1.755-7.42-1.954a.852.852,0,0,1-.25-.6V52.261A4.266,4.266,0,0,1,46.261,48h6.818a4.266,4.266,0,0,1,4.261,4.261V55.67a.852.852,0,0,1-.25.6C56.89,56.472,54.982,58.226,49.67,58.226ZM43.7,55.249c.605.389,2.373,1.273,5.965,1.273s5.351-.879,5.965-1.278V52.261A2.557,2.557,0,0,0,53.078,49.7H46.261A2.557,2.557,0,0,0,43.7,52.261Z" transform="translate(-6.06 -6.504)" fill="#0f654d"/>
        <path id="Path_1032571" data-name="Path 1032571" d="M50.113,48.226a5.113,5.113,0,1,1,5.113-5.113A5.113,5.113,0,0,1,50.113,48.226Zm0-8.522a3.409,3.409,0,1,0,3.409,3.409A3.409,3.409,0,0,0,50.113,39.7Z" transform="translate(-6.504 -5.026)" fill="#0f654d"/>
        <path id="Path_1032572" data-name="Path 1032572" d="M11.67,58.226c-5.313,0-7.221-1.755-7.42-1.954a.852.852,0,0,1-.25-.6V52.261A4.266,4.266,0,0,1,8.261,48h6.818a4.266,4.266,0,0,1,4.261,4.261V55.67a.852.852,0,0,1-.25.6c-.2.2-2.108,1.954-7.42,1.954ZM5.7,55.249c.605.389,2.373,1.273,5.965,1.273s5.351-.879,5.965-1.278V52.261A2.557,2.557,0,0,0,15.078,49.7H8.261A2.557,2.557,0,0,0,5.7,52.261Z" transform="translate(-0.443 -6.504)" fill="#0f654d"/>
        <path id="Path_1032573" data-name="Path 1032573" d="M12.113,48.226a5.113,5.113,0,1,1,5.113-5.113A5.113,5.113,0,0,1,12.113,48.226Zm0-8.522a3.409,3.409,0,1,0,3.409,3.409A3.409,3.409,0,0,0,12.113,39.7Z" transform="translate(-0.887 -5.026)" fill="#0f654d"/>
        <path id="Path_1032574" data-name="Path 1032574" d="M52.984,31.27H1.852A.852.852,0,0,1,1,30.418V4.852A.852.852,0,0,1,1.852,4H52.984a.852.852,0,0,1,.852.852V30.418A.852.852,0,0,1,52.984,31.27ZM2.7,29.566H52.131V5.7H2.7Z" fill="#0f654d"/>
        <path id="Path_1032575" data-name="Path 1032575" d="M16.226,28.453A10.226,10.226,0,1,1,26.453,18.226,10.226,10.226,0,0,1,16.226,28.453Zm0-18.748a8.522,8.522,0,1,0,8.522,8.522A8.522,8.522,0,0,0,16.226,9.7Z" transform="translate(-0.739 -0.591)" fill="#0f654d"/>
        <path id="Path_1032576" data-name="Path 1032576" d="M17.852,19.078A.852.852,0,0,1,17,18.226V8.852a.852.852,0,1,1,1.7,0v9.374A.852.852,0,0,1,17.852,19.078Z" transform="translate(-2.365 -0.591)" fill="#0f654d"/>
        <path id="Path_1032577" data-name="Path 1032577" d="M16.226,20.7H6.852a.852.852,0,1,1,0-1.7h9.374a.852.852,0,1,1,0,1.7Z" transform="translate(-0.739 -2.217)" fill="#0f654d"/>
        <path id="Path_1032578" data-name="Path 1032578" d="M34,22H47.635v1.7H34Z" transform="translate(-4.878 -2.661)" fill="#0f654d"/>
        <path id="Path_1032579" data-name="Path 1032579" d="M34,26H54.453v1.7H34Z" transform="translate(-4.878 -3.252)" fill="#0f654d"/>
        <path id="Path_1032580" data-name="Path 1032580" d="M34,30H54.453v1.7H34Z" transform="translate(-4.878 -3.843)" fill="#0f654d"/>
        <path id="Path_1032581" data-name="Path 1032581" d="M39.261,19.261H35.852A.852.852,0,0,1,35,18.409V15.852A.852.852,0,0,1,35.852,15h3.409v1.7H36.7v.852h2.557Z" transform="translate(-5.026 -1.626)" fill="#0f654d"/>
        <path id="Path_1032582" data-name="Path 1032582" d="M47.261,18.818H43.852A.852.852,0,0,1,43,17.965V12.852A.852.852,0,0,1,43.852,12h3.409v1.7H44.7v3.409h2.557Z" transform="translate(-6.208 -1.182)" fill="#0f654d"/>
        <path id="Path_1032583" data-name="Path 1032583" d="M55.261,18.226H51.852A.852.852,0,0,1,51,17.374V8.852A.852.852,0,0,1,51.852,8h3.409a.852.852,0,0,1,.852.852v8.522A.852.852,0,0,1,55.261,18.226Zm-2.557-1.7h1.7V9.7H52.7Z" transform="translate(-7.39 -0.591)" fill="#0f654d"/>
      </g>
    </g>
  </g>
</svg>
