<svg xmlns="http://www.w3.org/2000/svg" xmlns:xlink="http://www.w3.org/1999/xlink" width="96" height="96" viewBox="0 0 96 96">
  <defs>
    <clipPath id="clip-path">
      <rect id="Rectangle_456267" data-name="Rectangle 456267" width="96" height="96" fill="none"/>
    </clipPath>
    <clipPath id="clip-path-2">
      <path id="path4335" d="M0-682.665H53.748v53.748H0Z" transform="translate(0 682.665)" fill="#0f654d"/>
    </clipPath>
  </defs>
  <g id="img8" transform="translate(479.746 8495) rotate(180)">
    <path id="Path_999622" data-name="Path 999622" d="M43.07,0A43.07,43.07,0,1,1,0,43.07,43.071,43.071,0,0,1,43.07,0" transform="translate(388.676 8403.93)" fill="#e3fbf9"/>
    <g id="Group_1179902" data-name="Group 1179902" transform="translate(383.746 8399)">
      <g id="Group_1179905" data-name="Group 1179905" clip-path="url(#clip-path)">
        <path id="Path_999618" data-name="Path 999618" d="M48,0A48,48,0,1,1,0,48,48,48,0,0,1,48,0" fill="none"/>
        <path id="Path_999619" data-name="Path 999619" d="M3.75,59A3.75,3.75,0,1,1,0,62.75,3.75,3.75,0,0,1,3.75,59" transform="translate(0 -14.75)" fill="#0f654d"/>
        <path id="Path_999620" data-name="Path 999620" d="M19.75,19A3.75,3.75,0,1,1,16,22.75,3.75,3.75,0,0,1,19.75,19" transform="translate(-4 -4.75)" fill="#0f654d"/>
        <path id="Path_999621" data-name="Path 999621" d="M49,94A45.051,45.051,0,0,1,4,49H6.25A42.75,42.75,0,1,0,17.806,19.768l-1.641-1.539A45,45,0,1,1,49,94" transform="translate(-1 -1)" fill="#0f654d"/>
        <rect id="Rectangle_456268" data-name="Rectangle 456268" width="96" height="96" fill="none"/>
        <rect id="Rectangle_456269" data-name="Rectangle 456269" width="96" height="96" fill="none"/>
      </g>
    </g>
    <g id="Group_1179903" data-name="Group 1179903" transform="translate(458.745 8474.508) rotate(180)">
      <g id="Group_1099618" data-name="Group 1099618" transform="translate(0 0)">
        <rect id="Rectangle_401104" data-name="Rectangle 401104" width="54.153" height="54.806" transform="translate(0)" fill="none"/>
      </g>
      <g id="g4305" transform="translate(1.964 682.173)">
        <g id="g4307" transform="translate(33.686 -641.428)">
          <path id="path4309" d="M-71.136-45.111a.784.784,0,0,1-.4-.11l-5.292-3.135a.787.787,0,0,1-.276-1.079.787.787,0,0,1,1.079-.276l5.292,3.135a.787.787,0,0,1,.276,1.079A.787.787,0,0,1-71.136-45.111Z" transform="translate(77.215 49.821)" fill="#0f654d"/>
        </g>
        <g id="g4311" transform="translate(31.786 -638.227)">
          <path id="path4313" d="M-54.84-35.457a.784.784,0,0,1-.4-.11l-3.9-2.31a.787.787,0,0,1-.276-1.079.787.787,0,0,1,1.079-.276l3.9,2.31a.787.787,0,0,1,.276,1.079A.787.787,0,0,1-54.84-35.457Z" transform="translate(59.525 39.341)" fill="#0f654d"/>
        </g>
        <g id="g4315" transform="translate(30.167 -634.86)">
          <path id="path4317" d="M-27.094-19.018a.784.784,0,0,1-.4-.11l-1.528-.905a.787.787,0,0,1-.276-1.079.787.787,0,0,1,1.079-.276l1.528.905a.787.787,0,0,1,.276,1.079A.787.787,0,0,1-27.094-19.018Z" transform="translate(29.408 21.498)" fill="#0f654d"/>
        </g>
        <g id="g4319" transform="translate(8.634 -668.197)">
          <path id="path4321" d="M16.53-8.425H-9.213A.787.787,0,0,1-10-9.213.787.787,0,0,1-9.213-10H16.53a.787.787,0,0,1,.787.787A.787.787,0,0,1,16.53-8.425Z" transform="translate(10 10)" fill="#0f654d"/>
        </g>
        <g id="g4323" transform="translate(8.634 -673.682)">
          <path id="path4325" d="M3.659-8.425H-9.213A.787.787,0,0,1-10-9.213.787.787,0,0,1-9.213-10H3.659a.787.787,0,0,1,.787.787A.787.787,0,0,1,3.659-8.425Z" transform="translate(10 10)" fill="#0f654d"/>
        </g>
        <g id="g4327" transform="translate(8.634 -663.337)">
          <path id="path4329" d="M16.53-8.425H-9.213A.787.787,0,0,1-10-9.213.787.787,0,0,1-9.213-10H16.53a.787.787,0,0,1,.787.787A.787.787,0,0,1,16.53-8.425Z" transform="translate(10 10)" fill="#0f654d"/>
        </g>
        <g id="g4331" transform="translate(0 -682.665)">
          <g id="g4333" clip-path="url(#clip-path-2)">
            <g id="g4339" transform="translate(31.011 0.221)">
              <path id="path4341" d="M-.451.336H-5.97A4.035,4.035,0,0,1-10-3.694V-9.213A.787.787,0,0,1-9.213-10a.787.787,0,0,1,.787.787v5.518A2.459,2.459,0,0,0-5.97-1.239H-.451a.787.787,0,0,1,.787.787A.787.787,0,0,1-.451.336Z" transform="translate(10 10)" fill="#0f654d"/>
            </g>
            <g id="g4343" transform="translate(3.016 0)">
              <path id="path4345" d="M-467.387-258.221h-8.238a4.035,4.035,0,0,1-4.03-4.03v-41.775a4.035,4.035,0,0,1,4.03-4.03h23.734a3.224,3.224,0,0,1,2.294.95l7.544,7.544a3.223,3.223,0,0,1,.95,2.294V-283.8a.787.787,0,0,1-.787.787.787.787,0,0,1-.787-.787v-13.466a1.659,1.659,0,0,0-.489-1.181l-7.544-7.544a1.659,1.659,0,0,0-1.181-.489h-23.734a2.459,2.459,0,0,0-2.456,2.456v41.775a2.459,2.459,0,0,0,2.456,2.456h8.238a.787.787,0,0,1,.787.787A.787.787,0,0,1-467.387-258.221Z" transform="translate(479.656 308.057)" fill="#0f654d"/>
            </g>
            <g id="g4347" transform="translate(9.166 26.553)">
              <path id="path4349" d="M-125.458-23.939a1.744,1.744,0,0,1,.882.242l1.63.965a3.091,3.091,0,0,1,1.083,4.231l-5.317,8.975a3.1,3.1,0,0,1-2.659,1.514,3.086,3.086,0,0,1-1.572-.432l-1.63-.965a1.733,1.733,0,0,1-.607-2.371l6.7-11.31A1.739,1.739,0,0,1-125.458-23.939ZM-129.84-9.586a1.5,1.5,0,0,0,1.3-.742l5.317-8.975a1.515,1.515,0,0,0-.531-2.073l-1.63-.965a.142.142,0,0,0-.079-.022.157.157,0,0,0-.135.077l-6.7,11.31a.156.156,0,0,0,.055.214l1.63.965A1.51,1.51,0,0,0-129.84-9.586Z" transform="translate(133.889 23.939)" fill="#0f654d"/>
            </g>
            <g id="g4351" transform="translate(38.273 26.552)">
              <path id="path4353" d="M-41.566-108.617a3.09,3.09,0,0,1-2.662-1.513l-2.492-4.206a.787.787,0,0,1,.276-1.079.787.787,0,0,1,1.079.276l2.492,4.206a1.515,1.515,0,0,0,2.073.531l1.63-.965a.156.156,0,0,0,.055-.214l-6.7-11.31a.176.176,0,0,0-.214-.055l-1.63.966a1.5,1.5,0,0,0-.695.927,1.5,1.5,0,0,0,.164,1.147l.94,1.587a.787.787,0,0,1-.276,1.079.787.787,0,0,1-1.079-.276l-.94-1.587a3.068,3.068,0,0,1-.335-2.34,3.068,3.068,0,0,1,1.418-1.891l1.63-.966a1.719,1.719,0,0,1,1.311-.188,1.72,1.72,0,0,1,1.06.795l6.7,11.31a1.733,1.733,0,0,1-.607,2.371l-1.63.966A3.069,3.069,0,0,1-41.566-108.617Z" transform="translate(49.977 124.544)" fill="#0f654d"/>
            </g>
            <g id="g4355" transform="translate(19.871 30.398)">
              <path id="path4357" d="M-123.591-19.783a4.008,4.008,0,0,1-2.047-.564l-.939-.553a.787.787,0,0,1-.278-1.078.787.787,0,0,1,1.078-.278l.94.554a2.436,2.436,0,0,0,2.133.178l1.52-.588c1.727-.668,2.694-.381,4.339.564l.278.164a.787.787,0,0,1,.276,1.079.787.787,0,0,1-1.079.276l-.269-.159c-1.406-.807-1.88-.88-2.979-.455l-1.52.588A4.032,4.032,0,0,1-123.591-19.783Z" transform="translate(126.964 22.477)" fill="#0f654d"/>
            </g>
            <g id="g4359" transform="translate(14.047 40.238)">
              <path id="path4361" d="M-7.64-7.5a.784.784,0,0,1-.4-.109l-1.575-.93a.787.787,0,0,1-.278-1.078.787.787,0,0,1,1.078-.278l1.575.93a.787.787,0,0,1,.278,1.078A.787.787,0,0,1-7.64-7.5Z" transform="translate(10.002 10.002)" fill="#0f654d"/>
            </g>
            <g id="g4363" transform="translate(27.275 42.181)">
              <path id="path4365" d="M-5.748-103.067a2.632,2.632,0,0,1-1.345-.371l-2.522-1.494a.787.787,0,0,1-.276-1.079.787.787,0,0,1,1.079-.276l2.522,1.494a1.067,1.067,0,0,0,.814.116,1.067,1.067,0,0,0,.658-.493,1.067,1.067,0,0,0,.116-.814,1.067,1.067,0,0,0-.493-.658.787.787,0,0,1-.276-1.079A.787.787,0,0,1-4.393-108l2.093,1.24a1.075,1.075,0,0,0,1.472-.377,1.075,1.075,0,0,0-.377-1.471.787.787,0,0,1-.276-1.079A.787.787,0,0,1-.4-109.958l1.4.827a1.075,1.075,0,0,0,1.471-.377,1.075,1.075,0,0,0-.376-1.471h0a.787.787,0,0,1-.276-1.079.787.787,0,0,1,1.079-.276L4.6-111.322a1.075,1.075,0,0,0,1.471-.377,1.075,1.075,0,0,0-.377-1.471.787.787,0,0,1-.276-1.079.787.787,0,0,1,1.079-.276,2.652,2.652,0,0,1,.929,3.629,2.653,2.653,0,0,1-3.249,1.114,2.634,2.634,0,0,1-.356,1.076,2.654,2.654,0,0,1-2.93,1.218,2.633,2.633,0,0,1-.363,1.158A2.652,2.652,0,0,1-3.1-105.4l-.009-.005a2.642,2.642,0,0,1-.353,1.039,2.631,2.631,0,0,1-1.622,1.216A2.665,2.665,0,0,1-5.748-103.067Z" transform="translate(10.002 114.635)" fill="#0f654d"/>
            </g>
            <g id="g4367" transform="translate(27.536 30.432)">
              <path id="path4369" d="M-135.843-3.191a.785.785,0,0,1-.4-.11l-10.238-6.063a3.479,3.479,0,0,1-.84,1.347,3.469,3.469,0,0,1-2.471,1.022,1.688,1.688,0,0,1-1.684-1.687v-3.506a3.539,3.539,0,0,1,2.673-3.434l2.627-.665a3.522,3.522,0,0,1,2.164.137l1.714.674a2.433,2.433,0,0,0,2.127-.179l.225-.131a.787.787,0,0,1,1.076.285.787.787,0,0,1-.285,1.076l-.219.127a4,4,0,0,1-3.5.288l-1.718-.675a1.956,1.956,0,0,0-1.2-.076l-2.627.665a1.966,1.966,0,0,0-1.485,1.908v3.506a.112.112,0,0,0,.112.112,1.905,1.905,0,0,0,1.356-.561,1.905,1.905,0,0,0,.562-1.357v-.148a.787.787,0,0,1,.4-.684.787.787,0,0,1,.791.007l10.745,6.363a4.025,4.025,0,0,1,.4-.274l1.6-.933a.787.787,0,0,1,1.077.283.787.787,0,0,1-.283,1.077l-1.593.931a2.443,2.443,0,0,0-.533.428A.787.787,0,0,1-135.843-3.191Z" transform="translate(151.477 16.396)" fill="#0f654d"/>
            </g>
            <g id="g4371" transform="translate(14.031 40.614)">
              <path id="path4373" d="M-50.177-59.29a2.633,2.633,0,0,1-1.541-.5,2.651,2.651,0,0,1-.607-3.7l1.054-1.468a2.651,2.651,0,0,1,3.7-.607,2.631,2.631,0,0,1,1.069,1.722,2.631,2.631,0,0,1-.462,1.973.787.787,0,0,1-1.1.18.787.787,0,0,1-.18-1.1,1.066,1.066,0,0,0,.187-.8,1.066,1.066,0,0,0-.433-.7,1.075,1.075,0,0,0-1.5.246l-1.054,1.468a1.075,1.075,0,0,0,.246,1.5,1.075,1.075,0,0,0,1.5-.246.787.787,0,0,1,1.1-.18.787.787,0,0,1,.18,1.1A2.647,2.647,0,0,1-50.177-59.29Z" transform="translate(52.821 66.052)" fill="#0f654d"/>
            </g>
            <g id="g4375" transform="translate(17.053 41.163)">
              <path id="path4377" d="M-76.136-47.418a2.631,2.631,0,0,1,1.543.5A2.631,2.631,0,0,1-73.524-45.2a2.631,2.631,0,0,1-.462,1.973L-76.2-40.137a2.656,2.656,0,0,1-2.153,1.1,2.63,2.63,0,0,1-1.543-.5,2.631,2.631,0,0,1-1.069-1.722,2.631,2.631,0,0,1,.462-1.973l2.217-3.089A2.656,2.656,0,0,1-76.136-47.418Zm-2.22,6.81a1.077,1.077,0,0,0,.873-.448l2.217-3.088a1.066,1.066,0,0,0,.187-.8,1.066,1.066,0,0,0-.433-.7,1.065,1.065,0,0,0-.625-.2,1.078,1.078,0,0,0-.874.448l-2.217,3.088a1.066,1.066,0,0,0-.187.8,1.066,1.066,0,0,0,.433.7A1.065,1.065,0,0,0-78.356-40.608Z" transform="translate(81.003 47.418)" fill="#0f654d"/>
            </g>
            <g id="g4379" transform="translate(20.078 43.333)">
              <path id="path4381" d="M-39.942-11.475a2.634,2.634,0,0,1-1.541-.5,2.651,2.651,0,0,1-.607-3.7.787.787,0,0,1,1.1-.18.787.787,0,0,1,.18,1.1,1.075,1.075,0,0,0,.246,1.5,1.075,1.075,0,0,0,1.5-.246l2.217-3.089a1.066,1.066,0,0,0,.187-.8,1.066,1.066,0,0,0-.433-.7,1.066,1.066,0,0,0-.8-.187,1.066,1.066,0,0,0-.7.433.787.787,0,0,1-1.1.18.787.787,0,0,1-.18-1.1,2.631,2.631,0,0,1,1.722-1.069,2.631,2.631,0,0,1,1.973.462,2.63,2.63,0,0,1,1.069,1.722,2.631,2.631,0,0,1-.462,1.973l-2.217,3.089A2.647,2.647,0,0,1-39.942-11.475Z" transform="translate(42.586 19.859)" fill="#0f654d"/>
            </g>
            <g id="g4383" transform="translate(23.594 46.875)">
              <path id="path4385" d="M-21.162-13.536a2.633,2.633,0,0,1-1.541-.5,2.631,2.631,0,0,1-1.069-1.722,2.631,2.631,0,0,1,.462-1.973.786.786,0,0,1,.627-.328.786.786,0,0,1,.11-.7,2.631,2.631,0,0,1,1.722-1.069,2.631,2.631,0,0,1,1.973.462,2.631,2.631,0,0,1,1.069,1.722,2.63,2.63,0,0,1-.462,1.973l-.737,1.027A2.647,2.647,0,0,1-21.162-13.536Zm-.758-3.972a.786.786,0,0,1-.11.7,1.067,1.067,0,0,0-.187.8,1.066,1.066,0,0,0,.433.7,1.075,1.075,0,0,0,1.5-.246l.737-1.027a1.066,1.066,0,0,0,.187-.8,1.067,1.067,0,0,0-.433-.7,1.066,1.066,0,0,0-.8-.187,1.066,1.066,0,0,0-.7.433A.786.786,0,0,1-21.92-17.508Z" transform="translate(23.807 19.859)" fill="#0f654d"/>
            </g>
          </g>
        </g>
      </g>
    </g>
  </g>
</svg>
