<svg xmlns="http://www.w3.org/2000/svg" xmlns:xlink="http://www.w3.org/1999/xlink" width="96" height="96" viewBox="0 0 96 96">
  <defs>
    <clipPath id="clip-path">
      <rect id="Rectangle_456267" data-name="Rectangle 456267" width="96" height="96" fill="none"/>
    </clipPath>
  </defs>
  <g id="img11" transform="translate(479.746 8495) rotate(180)">
    <path id="Path_999622" data-name="Path 999622" d="M43.07,0A43.07,43.07,0,1,1,0,43.07,43.071,43.071,0,0,1,43.07,0" transform="translate(388.676 8403.93)" fill="#e3fbf9"/>
    <g id="Group_1179902" data-name="Group 1179902" transform="translate(383.746 8399)">
      <g id="Group_1179905" data-name="Group 1179905" clip-path="url(#clip-path)">
        <path id="Path_999618" data-name="Path 999618" d="M48,0A48,48,0,1,1,0,48,48,48,0,0,1,48,0" fill="none"/>
        <path id="Path_999619" data-name="Path 999619" d="M3.75,59A3.75,3.75,0,1,1,0,62.75,3.75,3.75,0,0,1,3.75,59" transform="translate(0 -14.75)" fill="#0f654d"/>
        <path id="Path_999620" data-name="Path 999620" d="M19.75,19A3.75,3.75,0,1,1,16,22.75,3.75,3.75,0,0,1,19.75,19" transform="translate(-4 -4.75)" fill="#0f654d"/>
        <path id="Path_999621" data-name="Path 999621" d="M49,94A45.051,45.051,0,0,1,4,49H6.25A42.75,42.75,0,1,0,17.806,19.768l-1.641-1.539A45,45,0,1,1,49,94" transform="translate(-1 -1)" fill="#0f654d"/>
        <rect id="Rectangle_456268" data-name="Rectangle 456268" width="96" height="96" fill="none"/>
        <rect id="Rectangle_456269" data-name="Rectangle 456269" width="96" height="96" fill="none"/>
      </g>
    </g>
    <g id="Group_1179903" data-name="Group 1179903" transform="translate(458.745 8474.508) rotate(180)">
      <g id="Group_1099618" data-name="Group 1099618" transform="translate(0 0)">
        <rect id="Rectangle_401104" data-name="Rectangle 401104" width="54.153" height="54.806" transform="translate(0)" fill="none"/>
      </g>
      <path id="auditoria-de-datos" d="M16.735,38.913H8.458a.871.871,0,0,1-.753-.434,5.294,5.294,0,0,1,4.583-7.946h.036l18.408.055A11.057,11.057,0,1,1,50.678,39.83l2.159,2.1a1.806,1.806,0,0,1,1.944.365h0l5.593,5.428a1.8,1.8,0,0,1,.037,2.539h0l-2.018,2.079h0a1.8,1.8,0,0,1-2.536.042l0,0-5.59-5.428a1.8,1.8,0,0,1-.428-1.933l-2.063-2a11.028,11.028,0,0,1-2.784,1.494V65.115h8.278a.87.87,0,0,1,.753.434,5.294,5.294,0,0,1-4.583,7.946H49.4l-27.43-.079a.886.886,0,0,1-.109-.007c-2.923-.082-5.126-3.062-5.126-6.1Zm-4.449-6.639A3.553,3.553,0,0,0,9,37.172h7.738v-.447a4.448,4.448,0,0,0-4.418-4.451h-.03Zm37.365,8.983q-.269.317-.56.613l1.852,1.8.578-.6Zm-6.4,3.726a11.075,11.075,0,0,1-12-6.071H23a.871.871,0,0,1,0-1.741h7.584a11.15,11.15,0,0,1-.285-4.84l-13.695-.043a6.175,6.175,0,0,1,1.871,4.437v30.58c0,2.142,1.429,4.357,3.5,4.364h.152a3.539,3.539,0,0,0,2.321-1.305,3.84,3.84,0,0,0,1.076-2.244c0-1.293-.129-1.182-.427-1.7a.871.871,0,0,1,.755-1.3H43.247Zm6.191,26.77a3.554,3.554,0,0,0,3.288-4.9H27.21a10.134,10.134,0,0,1,.056,1.264,5.653,5.653,0,0,1-1.514,3.4q-.072.082-.148.161l23.8.073h.032ZM41.212,24.8a9.316,9.316,0,1,0,9.316,9.316A9.315,9.315,0,0,0,41.212,24.8Zm0,1.244a8.072,8.072,0,1,1-8.072,8.072A8.072,8.072,0,0,1,41.212,26.043Zm0,1.74a6.333,6.333,0,1,0,6.333,6.333A6.332,6.332,0,0,0,41.212,27.783Zm-4.13,7.156a.87.87,0,1,1,1.23-1.23l1.464,1.464,4.366-3.961A.87.87,0,0,1,45.311,32.5l-4.98,4.517a.87.87,0,0,1-1.2-.029Zm20.062,16.19,2.019-2.08a.056.056,0,0,0,0-.079h0L53.57,43.54a.057.057,0,0,0-.079,0h0l-2.019,2.08,0,0a.053.053,0,0,0,0,.075l0,0,5.59,5.428a.058.058,0,0,0,.08,0Zm-26.117-9.3a.871.871,0,1,1,0,1.741H23a.871.871,0,0,1,0-1.741Zm7.7,9.314a.871.871,0,1,1,0,1.741H23a.871.871,0,0,1,0-1.741Zm0-2.917H23a.871.871,0,0,1,0-1.741H38.723a.871.871,0,1,1,0,1.741Zm0,7.573a.871.871,0,1,1,0,1.741H23A.871.871,0,0,1,23,55.8Zm0,4.658a.871.871,0,1,1,0,1.741H23a.871.871,0,0,1,0-1.741Z" transform="translate(-6.457 -20.77)" fill="#0f654d" fill-rule="evenodd"/>
    </g>
  </g>
</svg>
