<svg xmlns="http://www.w3.org/2000/svg" width="90" height="90" viewBox="0 0 90 90">
  <g id="img16" transform="translate(-335.652 -4524.669)">
    <circle id="Ellipse_13702" data-name="Ellipse 13702" cx="45" cy="45" r="45" transform="translate(335.652 4524.669)" fill="#fff"/>
    <g id="capacitacion_2_" data-name="capacitacion (2)" transform="translate(348.653 4537.669)">
      <circle id="Ellipse_13705" data-name="Ellipse 13705" cx="13" cy="13" r="13" transform="translate(18.787 19)" fill="#f2f2f2"/>
      <path id="Path_1032485" data-name="Path 1032485" d="M52.5,5.11,54.126,8.4l3.632.528L55.13,11.492l.62,3.618L52.5,13.4,49.252,15.11l.62-3.618L47.244,8.93,50.876,8.4Z" fill="#e6be50"/>
      <path id="Path_1032486" data-name="Path 1032486" d="M10.553,47.58l1.625,3.292,3.633.527-2.629,2.563.62,3.618-3.249-1.708L7.3,57.58l.621-3.618L5.3,51.4l3.633-.527Z" fill="#e6be50"/>
      <path id="Path_1032487" data-name="Path 1032487" d="M51.408,28.15h-1.3a1.928,1.928,0,0,1-1.819-1.39,17.188,17.188,0,0,0-1.129-2.719,1.929,1.929,0,0,1,.3-2.273l.924-.924A20.109,20.109,0,0,0,42.943,15.4l-.924.924a1.929,1.929,0,0,1-2.273.3A17.183,17.183,0,0,0,37.027,15.5a1.928,1.928,0,0,1-1.39-1.819v-1.3a19.758,19.758,0,0,0-7.7,0v1.3a1.928,1.928,0,0,1-1.39,1.819,17.183,17.183,0,0,0-2.719,1.129,1.929,1.929,0,0,1-2.273-.3l-.924-.924a20.109,20.109,0,0,0-5.445,5.445l.924.924a1.929,1.929,0,0,1,.3,2.273,17.189,17.189,0,0,0-1.129,2.719,1.928,1.928,0,0,1-1.819,1.39h-1.3a19.756,19.756,0,0,0,0,7.7h1.3a1.928,1.928,0,0,1,1.819,1.39,17.187,17.187,0,0,0,1.129,2.719,1.929,1.929,0,0,1-.3,2.273l-.924.924A20.106,20.106,0,0,0,20.632,48.6l.924-.924a1.929,1.929,0,0,1,2.273-.3A17.184,17.184,0,0,0,26.547,48.5a1.928,1.928,0,0,1,1.39,1.819v1.3a19.758,19.758,0,0,0,7.7,0v-1.3a1.928,1.928,0,0,1,1.39-1.819,17.185,17.185,0,0,0,2.719-1.129,1.929,1.929,0,0,1,2.273.3l.924.924a20.107,20.107,0,0,0,5.445-5.445l-.924-.924a1.929,1.929,0,0,1-.3-2.273,17.187,17.187,0,0,0,1.129-2.719,1.928,1.928,0,0,1,1.819-1.39h1.3a19.757,19.757,0,0,0,0-7.7ZM31.787,45a13,13,0,1,1,13-13,13,13,0,0,1-13,13Z" fill="#6d8299"/>
      <path id="Path_1032488" data-name="Path 1032488" d="M35,33.5H29a4,4,0,0,0-4,4v5.572a12.952,12.952,0,0,0,14-.259V37.5A4,4,0,0,0,35,33.5Z" fill="#507ab3"/>
      <path id="Path_1032489" data-name="Path 1032489" d="M32,33.5,30,42l2,2.5L34,42Z" fill="#d8e2f0"/>
      <circle id="Ellipse_13706" data-name="Ellipse 13706" cx="4.5" cy="4.5" r="4.5" transform="translate(27.5 24.5)" fill="#f2c791"/>
      <path id="Path_1032490" data-name="Path 1032490" d="M32,27.5a8.582,8.582,0,0,1,4.477,1.273,4.482,4.482,0,0,0-8.954,0A8.582,8.582,0,0,1,32,27.5Z" fill="#64768c"/>
      <path id="Path_1032491" data-name="Path 1032491" d="M5.148,47.5A31.008,31.008,0,0,1,47.5,5.148l-1,1.731A29.007,29.007,0,0,0,6.879,46.5Z" fill="#9ab8d9"/>
      <path id="Path_1032492" data-name="Path 1032492" d="M32,63a30.992,30.992,0,0,1-15.476-4.133l1-1.732A29.008,29.008,0,0,0,57.121,17.5l1.731-1A31.008,31.008,0,0,1,32,63Z" fill="#a3b7cc"/>
    </g>
  </g>
</svg>
