<svg xmlns="http://www.w3.org/2000/svg" xmlns:xlink="http://www.w3.org/1999/xlink" width="96" height="96" viewBox="0 0 96 96">
  <defs>
    <clipPath id="clip-path">
      <rect id="Rectangle_456267" data-name="Rectangle 456267" width="96" height="96" fill="none"/>
    </clipPath>
  </defs>
  <g id="img13" transform="translate(479.746 8495) rotate(180)">
    <path id="Path_999622" data-name="Path 999622" d="M43.07,0A43.07,43.07,0,1,1,0,43.07,43.071,43.071,0,0,1,43.07,0" transform="translate(388.676 8403.93)" fill="#e3fbf9"/>
    <g id="Group_1179902" data-name="Group 1179902" transform="translate(383.746 8399)">
      <g id="Group_1179905" data-name="Group 1179905" clip-path="url(#clip-path)">
        <path id="Path_999618" data-name="Path 999618" d="M48,0A48,48,0,1,1,0,48,48,48,0,0,1,48,0" fill="none"/>
        <path id="Path_999619" data-name="Path 999619" d="M3.75,59A3.75,3.75,0,1,1,0,62.75,3.75,3.75,0,0,1,3.75,59" transform="translate(0 -14.75)" fill="#0f654d"/>
        <path id="Path_999620" data-name="Path 999620" d="M19.75,19A3.75,3.75,0,1,1,16,22.75,3.75,3.75,0,0,1,19.75,19" transform="translate(-4 -4.75)" fill="#0f654d"/>
        <path id="Path_999621" data-name="Path 999621" d="M49,94A45.051,45.051,0,0,1,4,49H6.25A42.75,42.75,0,1,0,17.806,19.768l-1.641-1.539A45,45,0,1,1,49,94" transform="translate(-1 -1)" fill="#0f654d"/>
        <rect id="Rectangle_456268" data-name="Rectangle 456268" width="96" height="96" fill="none"/>
        <rect id="Rectangle_456269" data-name="Rectangle 456269" width="96" height="96" fill="none"/>
      </g>
    </g>
    <g id="Group_1179903" data-name="Group 1179903" transform="translate(458.745 8474.508) rotate(180)">
      <g id="Group_1099618" data-name="Group 1099618" transform="translate(0 0)">
        <rect id="Rectangle_401104" data-name="Rectangle 401104" width="54.153" height="54.806" transform="translate(0)" fill="none"/>
      </g>
      <path id="accesibilidad" d="M20.866,52.921l.806,1.425v0a2.246,2.246,0,0,1-.847,3.048L18.166,58.9h0a2.247,2.247,0,0,1-3.049-.848L7.291,44.233a2.243,2.243,0,0,1,.843-3.051L10.8,39.674h0a2.248,2.248,0,0,1,3.049.845v0l.665,1.175,6.128-3.548A20.18,20.18,0,1,1,57.765,27.184q0,.885-.075,1.751a6.874,6.874,0,0,1-.087,8.68,3.67,3.67,0,0,1,1.575,3.42,3.578,3.578,0,0,1-1.568,2.8L40.4,54.429a7.129,7.129,0,0,1-5.77.82h0l-12.15-3.256Zm-5.523-9.76,4.694,8.295,1.9-1.1a.842.842,0,0,1,.639-.084L35.06,53.622A5.5,5.5,0,0,0,39.511,53h0L56.727,42.4a1.878,1.878,0,0,0,.772-1.488,1.951,1.951,0,0,0-1.219-2.07A6.845,6.845,0,0,1,52.31,40.1a6.926,6.926,0,0,1-.787-.045L42.1,45.543a6.968,6.968,0,0,1-4.787.843h0l-1.176-.191h0l-.034-.006h0c-2.139-.439-4.123-1.085-6.324-1.677a.842.842,0,0,1,.437-1.626c2.156.579,4.1,1.215,6.192,1.647a1.833,1.833,0,0,0,2.192-1.3h0A1.9,1.9,0,0,0,37.3,40.98a71.144,71.144,0,0,1-9.8-3.014h0c-1.8-.585-3.451.154-5.091,1.1Zm6.763-5.85c1.9-1.021,3.841-1.62,5.917-.946a68.635,68.635,0,0,0,9.642,2.97.856.856,0,0,1,.11.027,3.577,3.577,0,0,1,2.448,4.3,3.885,3.885,0,0,1-.422,1.006,5.221,5.221,0,0,0,1.453-.583L49.3,39.405a6.879,6.879,0,1,1,6.784-11.938q0-.141,0-.283A18.5,18.5,0,1,0,22.106,37.31Zm30.2-9.285a5.2,5.2,0,1,0,5.2,5.2A5.2,5.2,0,0,0,52.31,28.026ZM49.18,33.484a.842.842,0,0,1,1.19-1.19l1.317,1.317,2.563-2.563a.842.842,0,1,1,1.19,1.19L52.282,35.4a.842.842,0,0,1-1.19,0Zm-36.8,7.867h0a.559.559,0,0,0-.757-.21L8.964,42.647h0a.555.555,0,0,0-.207.755h0L16.58,57.228h0a.558.558,0,0,0,.757.209L20,55.931h0a.558.558,0,0,0,.209-.758Zm-1.086,1.5a1.1,1.1,0,1,1-.934,1.251A1.1,1.1,0,0,1,11.3,42.855ZM41.58,25.6c0,.495.019.988.054,1.479.406,5.709,2.719,9.682,4.518,11.525a.842.842,0,0,1-1.2,1.176C42.98,37.767,40.4,33.444,39.955,27.2c-.046-.643-.06-1.29-.06-1.938h0c0-.043,0-.38,0-.507a.842.842,0,0,1,.842-.836h6.071a.91.91,0,1,0,0-1.82H28.359a.91.91,0,0,0,0,1.82h6a.842.842,0,0,1,.842.836c0,.126,0,.464,0,.507h0c0,.649-.015,1.3-.06,1.938a20.666,20.666,0,0,1-2.9,9.331.842.842,0,1,1-1.438-.876,19,19,0,0,0,2.662-8.574c.035-.491.05-.985.054-1.479H28.359a2.594,2.594,0,1,1,0-5.187H46.809a2.594,2.594,0,1,1,0,5.187Zm1.747,15.533a.842.842,0,0,1-1.169,1.212,26.981,26.981,0,0,1-4.585-6.033,21.9,21.9,0,0,1-1.213,1.83.842.842,0,0,1-1.356-1,18.76,18.76,0,0,0,1.821-3,.842.842,0,0,1,1.519,0,25.338,25.338,0,0,0,4.983,6.989ZM37.584,11.118a4.208,4.208,0,1,1-4.208,4.208A4.21,4.21,0,0,1,37.584,11.118Zm0,1.684a2.524,2.524,0,1,0,2.524,2.524A2.526,2.526,0,0,0,37.584,12.8Z" transform="translate(-6.096 -5.072)" fill="#0f654d" fill-rule="evenodd"/>
    </g>
  </g>
</svg>
