<svg xmlns="http://www.w3.org/2000/svg" xmlns:xlink="http://www.w3.org/1999/xlink" width="177.15" height="404.914" viewBox="0 0 177.15 404.914">
  <defs>
    <clipPath id="clip-path">
      <rect id="Rectangle_458981" data-name="Rectangle 458981" width="177.15" height="404.914" fill="none"/>
    </clipPath>
    <clipPath id="clip-path-2">
      <rect id="Rectangle_458982" data-name="Rectangle 458982" width="41.064" height="47.212" fill="none"/>
    </clipPath>
  </defs>
  <g id="img4" transform="translate(5.289 -11408)">
    <g id="Group_1185272" data-name="Group 1185272" transform="translate(-5.289 11408)">
      <g id="Group_1185267" data-name="Group 1185267">
        <g id="Group_1185266" data-name="Group 1185266" clip-path="url(#clip-path)">
          <path id="Path_1031393" data-name="Path 1031393" d="M101.229,229.07h75.308V343.7H0V330.3A101.228,101.228,0,0,1,101.229,229.07" transform="translate(0 60.785)" fill="#69d7e5"/>
          <path id="Path_1031394" data-name="Path 1031394" d="M60.018,263.157l2.427,35.708,16.455-.709L78.327,262Z" transform="translate(15.926 69.523)" fill="#edbc9c"/>
          <path id="Path_1031395" data-name="Path 1031395" d="M67.808,288.044,37.821,301.719a4.754,4.754,0,0,0-2.5,5.33H88.219l-1.97-19.223Z" transform="translate(9.34 76.376)"/>
          <rect id="Rectangle_458979" data-name="Rectangle 458979" width="54.501" height="5.689" transform="translate(43.991 383.425)" fill="#fff"/>
          <line id="Line_3383" data-name="Line 3383" x2="3.252" y2="2.766" transform="translate(67.913 367.842)" fill="none" stroke="#fff" stroke-linecap="round" stroke-linejoin="round" stroke-width="1.023"/>
          <line id="Line_3384" data-name="Line 3384" x2="3.276" y2="2.788" transform="translate(63.549 369.942)" fill="none" stroke="#fff" stroke-linecap="round" stroke-linejoin="round" stroke-width="1.023"/>
          <line id="Line_3385" data-name="Line 3385" x2="3.462" y2="2.952" transform="translate(59.17 372.14)" fill="none" stroke="#fff" stroke-linecap="round" stroke-linejoin="round" stroke-width="1.023"/>
          <path id="Path_1031396" data-name="Path 1031396" d="M102.356,263.157l2.427,35.708,16.455-.709L120.664,262Z" transform="translate(27.161 69.523)" fill="#edbc9c"/>
          <path id="Path_1031397" data-name="Path 1031397" d="M110.145,288.044,80.158,301.719a4.753,4.753,0,0,0-2.5,5.33h52.9l-1.97-19.223Z" transform="translate(20.575 76.376)"/>
          <rect id="Rectangle_458980" data-name="Rectangle 458980" width="54.501" height="5.689" transform="translate(97.562 383.425)" fill="#fff"/>
          <line id="Line_3386" data-name="Line 3386" x2="3.252" y2="2.766" transform="translate(121.484 367.842)" fill="none" stroke="#fff" stroke-linecap="round" stroke-linejoin="round" stroke-width="1.023"/>
          <line id="Line_3387" data-name="Line 3387" x2="3.276" y2="2.788" transform="translate(117.122 369.942)" fill="none" stroke="#fff" stroke-linecap="round" stroke-linejoin="round" stroke-width="1.023"/>
          <line id="Line_3388" data-name="Line 3388" x2="3.462" y2="2.952" transform="translate(112.743 372.14)" fill="none" stroke="#fff" stroke-linecap="round" stroke-linejoin="round" stroke-width="1.023"/>
          <path id="Path_1031398" data-name="Path 1031398" d="M72.519,130.4l63.122,4.811,5.24,177.333H109.436l-11.2-133.753-15,57.151,5.112,78.76-29.447.085L48.729,227.7Z" transform="translate(12.931 34.601)" fill="#949e85"/>
          <line id="Line_3389" data-name="Line 3389" x2="14.116" y2="7.707" transform="translate(97.05 205.678)" fill="none" stroke="#6b725e" stroke-miterlimit="10" stroke-width="1"/>
          <path id="Path_1031399" data-name="Path 1031399" d="M70.16,87.894l.407,17.406-9.88.123.729-18.735Z" transform="translate(16.104 23.003)" fill="#ebab9d"/>
          <path id="Path_1031400" data-name="Path 1031400" d="M68.133,64.339S54.921,76.829,56.3,108.51l12.846,2.078Z" transform="translate(14.914 17.073)" fill="#808dff"/>
          <path id="Path_1031401" data-name="Path 1031401" d="M97.6,56.548c15.883,0,33.9,5.492,33.9,5.492l-.685,101.055L63.7,157.942l.711-88.386a4.31,4.31,0,0,1,2.249-3.743l18.559-7.94s9.135-1.325,12.376-1.325" transform="translate(16.904 15.005)" fill="#808dff"/>
          <line id="Line_3390" data-name="Line 3390" y1="21.292" transform="translate(84.064 91.936)" fill="none" stroke="#667af1" stroke-miterlimit="10" stroke-width="0.764"/>
          <path id="Path_1031402" data-name="Path 1031402" d="M113.356,88.163l4.317,49.987s4.767,10.052,13.2-.4,1.215-51.3,1.215-51.3Z" transform="translate(30.08 22.938)" fill="#edbc9c"/>
          <path id="Path_1031403" data-name="Path 1031403" d="M110.23,99.929s-3.6-36.9,8.079-39.067c12.111-2.249,19.145,20.58,20.263,36.94Z" transform="translate(29.111 16.109)" fill="#808dff"/>
          <path id="Path_1031404" data-name="Path 1031404" d="M95.211,92.36s-2.433-8.813-11.252-9.672S72.544,88.753,74.2,93.314,81.6,105.3,90.3,101.5,95.21,92.36,95.21,92.36" transform="translate(19.565 21.922)" fill="#edbc9c"/>
          <path id="Path_1031405" data-name="Path 1031405" d="M82.863,82.682a54.885,54.885,0,0,0-15.1,4.135,1.723,1.723,0,0,0,1.1,3.225L80.81,87.809Z" transform="translate(17.733 21.94)" fill="#edbc9c"/>
          <path id="Path_1031406" data-name="Path 1031406" d="M126.58,139.665,86.823,99.457l4.913-9.141,38.669,24.569Z" transform="translate(23.039 23.966)" fill="#edbc9c"/>
          <line id="Line_3391" data-name="Line 3391" x2="8.057" y2="5.118" transform="translate(145.391 133.735)" fill="none" stroke="#dea888" stroke-miterlimit="10" stroke-width="0.764"/>
          <path id="Path_1031407" data-name="Path 1031407" d="M47.837,100.461,64.559,150.1a3.769,3.769,0,0,0,4.063,2.536l40.634-5.34a3.771,3.771,0,0,0,3.07-4.974L95.121,92.748a3.769,3.769,0,0,0-4.053-2.5L50.919,95.52a3.77,3.77,0,0,0-3.244,4.23,3.818,3.818,0,0,0,.166.711" transform="translate(12.642 23.939)" fill="#121314"/>
          <path id="Path_1031408" data-name="Path 1031408" d="M48.806,95.4l-2.125,2.757L110,147.045l2.273-2.955Z" transform="translate(12.387 25.316)" fill="#121314"/>
          <path id="Path_1031409" data-name="Path 1031409" d="M46.325,102.406l16.722,49.635a3.769,3.769,0,0,0,4.063,2.536l40.634-5.34a3.771,3.771,0,0,0,3.07-4.974L93.609,94.7a3.769,3.769,0,0,0-4.053-2.5L49.407,97.467a3.77,3.77,0,0,0-3.244,4.23,3.818,3.818,0,0,0,.166.711" transform="translate(12.241 24.457)" fill="#455157"/>
          <path id="Path_1031410" data-name="Path 1031410" d="M65.655,113.871a4.376,4.376,0,1,0,4.349-4.4h0a4.375,4.375,0,0,0-4.345,4.4v0" transform="translate(17.422 29.048)" fill="#86969c"/>
          <path id="Path_1031411" data-name="Path 1031411" d="M47.819,112.491l3.807,10.268a2.863,2.863,0,0,0,3.06,1.845,6.342,6.342,0,0,0,5.461-7.115,6.256,6.256,0,0,0-.232-1.055l-1.069-3.448a6.342,6.342,0,0,0-6.36-4.455l-2.118.1a2.863,2.863,0,0,0-2.55,3.857" transform="translate(12.641 28.797)" fill="#edbc9c"/>
          <path id="Path_1031412" data-name="Path 1031412" d="M81.271,46.813,83.291,63.1c.7,5.721,4.483,8.35,9.932,7.62,4.649-.625,9.481-3.515,8.653-8.535l-2.4-25.573Z" transform="translate(21.566 9.716)" fill="#edbc9c"/>
          <path id="Path_1031413" data-name="Path 1031413" d="M83.027,60.882s18.346-6.66,16.806-23.1c-.462-4.9-18.753,7.359-18.753,7.359Z" transform="translate(21.515 9.72)" fill="#dea888"/>
          <path id="Path_1031414" data-name="Path 1031414" d="M79.736,59.835l7.916-3.682,13.966.4,8.189,1.144s3.053,12.268-17.659,12.95c-16.556.547-12.412-10.812-12.412-10.812" transform="translate(21.036 14.901)" fill="#edbc9c"/>
        </g>
      </g>
      <g id="Group_1185269" data-name="Group 1185269" transform="translate(87.616 3.459)">
        <g id="Group_1185268" data-name="Group 1185268" clip-path="url(#clip-path-2)">
          <path id="Path_1031415" data-name="Path 1031415" d="M71.481,27.79S59.736,19.046,65.1,10.945,80.221,9.862,80.221,9.862Z" transform="translate(-63.698 -3.459)" fill="#6b4f22"/>
          <path id="Path_1031416" data-name="Path 1031416" d="M80.9,7.712S113.99,3.028,99.426,28.654L95.661,18.259Z" transform="translate(-63.698 -3.459)" fill="#6b4f22"/>
          <path id="Path_1031417" data-name="Path 1031417" d="M77.072,32.51a5.033,5.033,0,0,1-4.307,5.635A4.979,4.979,0,0,1,67.3,33.709l0-.027A5.035,5.035,0,0,1,71.6,28.046a4.981,4.981,0,0,1,5.469,4.438l0,.026" transform="translate(-63.698 -3.459)" fill="#d39d7e"/>
          <path id="Path_1031418" data-name="Path 1031418" d="M84.639,47.629h0c-6.926.351-12.915-5.009-13.4-10.841l-.949-12.2A13.444,13.444,0,0,1,81.851,9.956c7.221-.865,15.037,4.326,15.9,11.784l.626,9.52A15.259,15.259,0,0,1,84.639,47.629" transform="translate(-63.698 -3.459)" fill="#edbc9c"/>
          <path id="Path_1031419" data-name="Path 1031419" d="M78.6,34.051,78.4,37.494h1.82" transform="translate(-63.698 -3.459)" fill="none" stroke="#000" stroke-linecap="round" stroke-linejoin="round" stroke-width="0.523"/>
          <path id="Path_1031420" data-name="Path 1031420" d="M86.472,25.683s-3.017-.137-3,1.129c0,0,.035.858,2.67.925s3.309-.159,3.52-.973-1.774-1.128-3.187-1.081" transform="translate(-63.698 -3.459)" fill="#6b4f22"/>
          <path id="Path_1031421" data-name="Path 1031421" d="M73.895,26.536s2.477-.362,2.725.818c0,0,.15.8-2.019,1.071s-2.89.009-3.121-.633c-.261-.728,1.235-1.188,2.415-1.253" transform="translate(-63.698 -3.459)" fill="#6b4f22"/>
          <path id="Path_1031422" data-name="Path 1031422" d="M75.92,32.51A1.265,1.265,0,1,1,74.57,31.3a1.291,1.291,0,0,1,1.355,1.212" transform="translate(-63.698 -3.459)" fill="#1f2326"/>
          <path id="Path_1031423" data-name="Path 1031423" d="M86.982,31.7a1.265,1.265,0,1,1-1.355-1.212A1.292,1.292,0,0,1,86.982,31.7" transform="translate(-63.698 -3.459)" fill="#1f2326"/>
          <path id="Path_1031424" data-name="Path 1031424" d="M70.242,21.68s-.457-3.206,5.839-3.99,14.386-.253,18.869,5.352l.1,8.824,5.616-5.547L97.709,13.182,80.9,7.707l-10.054,7Z" transform="translate(-63.698 -3.459)" fill="#6b4f22"/>
          <path id="Path_1031425" data-name="Path 1031425" d="M104.727,30.71a4.984,4.984,0,0,1-4.269,5.582,4.931,4.931,0,0,1-5.412-4.4l0-.021a4.985,4.985,0,0,1,4.265-5.583,4.93,4.93,0,0,1,5.416,4.392l0,.028" transform="translate(-63.698 -3.459)" fill="#edbc9c"/>
          <path id="Path_1031426" data-name="Path 1031426" d="M98.791,32.98s-.417-3.625,3-3.456" transform="translate(-63.698 -3.459)" fill="none" stroke="#000" stroke-linecap="round" stroke-linejoin="round" stroke-width="0.523"/>
          <path id="Path_1031427" data-name="Path 1031427" d="M94.657,25.678s-7.339-1.714-4.509-8.876,6.277,1.946,6.277,1.946Z" transform="translate(-63.698 -3.459)" fill="#6b4f22"/>
        </g>
      </g>
      <g id="Group_1185271" data-name="Group 1185271">
        <g id="Group_1185270" data-name="Group 1185270" clip-path="url(#clip-path)">
          <path id="Path_1031428" data-name="Path 1031428" d="M117.762,88.786l2.392,19.9L93.97,90.929,90.49,107.97s35.878,35.988,38.749,36.346,9.469,1.674,11.788-9.565S143.673,90,143.673,90l-21.128-2.479Z" transform="translate(24.012 23.225)" fill="#808dff"/>
          <path id="Path_1031429" data-name="Path 1031429" d="M7.882,61.421H61.7A2.718,2.718,0,0,0,64.415,58.7V40.774A2.718,2.718,0,0,0,61.7,38.05H7.882a2.716,2.716,0,0,0-2.717,2.717h0V58.7a2.718,2.718,0,0,0,2.713,2.723Z" transform="translate(1.371 10.097)" fill="#19538d"/>
          <line id="Line_3392" data-name="Line 3392" x1="39.378" transform="translate(15.983 57.108)" fill="none" stroke="#fff" stroke-linecap="round" stroke-linejoin="round" stroke-width="1.076"/>
          <line id="Line_3393" data-name="Line 3393" x1="13.482" transform="translate(16.113 63.317)" fill="none" stroke="#fff" stroke-linecap="round" stroke-linejoin="round" stroke-width="1.076"/>
          <path id="Path_1031430" data-name="Path 1031430" d="M48.238,54.064V64.631L34.766,54.064Z" transform="translate(9.225 14.346)" fill="#19538d"/>
          <path id="Path_1031431" data-name="Path 1031431" d="M86.334,39.951a7.705,7.705,0,0,1-7.771,1.677" transform="translate(20.847 10.601)" fill="none" stroke="#1e0a00" stroke-linecap="round" stroke-linejoin="round" stroke-width="0.361"/>
          <path id="Path_1031432" data-name="Path 1031432" d="M98.727,25.738a5.421,5.421,0,0,1-5.918,1.136c-3.408-1.494-2.332-3.05-2.332-3.05s-1.793,2.631-4.6,2.032-3.05-1.673-3.05-1.673a2.972,2.972,0,0,1-2.152,3.149c-2.39.616-3.347,0-3.347,0s-.492,3.68-2.332,3.664a5.241,5.241,0,0,1-2.989-.912s-.6,3.005-3.467,2.467-4.278-3.168-3.724-3.826c0,0-4.586-.358-3.629-4.9,0,0-2.571-2.75.178-5.082,0,0-3.825-2.51-.538-6.754,0,0-2.809-5.38,2.51-5.2,0,0,1.5-5.141,6.995-2.152,0,0,.9-3.05,3.287-1.913,0,0,2.332-3.325,6.576-.9,0,0,3.05-2.331,5.2-.178,0,0,2.967-2.451,5.4-.3,0,0,5.182-1.434,6.317,2.273,0,0,5.919-2.512,7.712,2.51,0,0,6.754-2.271,7.592,3.168,0,0,4.338.218,2.51,3.527,0,0,4.244,1.435,2.392,4.006,0,0,1.852,4.782-1.2,4.782,0,0,2.989,5.679-.419,6.457,0,0,.239,3.347-2.57,3.586a7.918,7.918,0,0,1-4.961-1.374l-4.963-3.109Z" transform="translate(15.787 0.123)" fill="#6b4f22"/>
          <path id="Path_1031433" data-name="Path 1031433" d="M77.908,37.882h4.74l2.507.09L91,40.671s-8.993,2.561-10.872,0c0,0-2.333,2.219-4.951,1.139,0,0,2.106-.456,2.732-3.928" transform="translate(19.948 10.052)" fill="#6b4f22"/>
          <path id="Path_1031434" data-name="Path 1031434" d="M117.19,79.4l1.3,30.01-24.5-16.324" transform="translate(24.942 21.069)" fill="none" stroke="#667af1" stroke-miterlimit="10" stroke-width="0.764"/>
          <line id="Line_3394" data-name="Line 3394" x2="29.203" y2="27.482" transform="translate(116.188 133.735)" fill="none" stroke="#667af1" stroke-miterlimit="10" stroke-width="0.764"/>
        </g>
      </g>
    </g>
  </g>
</svg>
