<svg xmlns="http://www.w3.org/2000/svg" xmlns:xlink="http://www.w3.org/1999/xlink" width="96" height="96" viewBox="0 0 96 96">
  <defs>
    <clipPath id="clip-path">
      <rect id="Rectangle_456267" data-name="Rectangle 456267" width="96" height="96" fill="none"/>
    </clipPath>
  </defs>
  <g id="img14" transform="translate(479.746 8495) rotate(180)">
    <path id="Path_999622" data-name="Path 999622" d="M43.07,0A43.07,43.07,0,1,1,0,43.07,43.071,43.071,0,0,1,43.07,0" transform="translate(388.676 8403.93)" fill="#e3fbf9"/>
    <g id="Group_1179902" data-name="Group 1179902" transform="translate(383.746 8399)">
      <g id="Group_1179905" data-name="Group 1179905" clip-path="url(#clip-path)">
        <path id="Path_999618" data-name="Path 999618" d="M48,0A48,48,0,1,1,0,48,48,48,0,0,1,48,0" fill="none"/>
        <path id="Path_999619" data-name="Path 999619" d="M3.75,59A3.75,3.75,0,1,1,0,62.75,3.75,3.75,0,0,1,3.75,59" transform="translate(0 -14.75)" fill="#0f654d"/>
        <path id="Path_999620" data-name="Path 999620" d="M19.75,19A3.75,3.75,0,1,1,16,22.75,3.75,3.75,0,0,1,19.75,19" transform="translate(-4 -4.75)" fill="#0f654d"/>
        <path id="Path_999621" data-name="Path 999621" d="M49,94A45.051,45.051,0,0,1,4,49H6.25A42.75,42.75,0,1,0,17.806,19.768l-1.641-1.539A45,45,0,1,1,49,94" transform="translate(-1 -1)" fill="#0f654d"/>
        <rect id="Rectangle_456268" data-name="Rectangle 456268" width="96" height="96" fill="none"/>
        <rect id="Rectangle_456269" data-name="Rectangle 456269" width="96" height="96" fill="none"/>
      </g>
    </g>
    <g id="Group_1179903" data-name="Group 1179903" transform="translate(458.745 8474.508) rotate(180)">
      <g id="Group_1099618" data-name="Group 1099618" transform="translate(0 0)">
        <rect id="Rectangle_401104" data-name="Rectangle 401104" width="54.153" height="54.806" transform="translate(0)" fill="none"/>
      </g>
      <g id="layer1" transform="translate(0.469 -0.306)">
        <path id="path7579" d="M27.107.529a3.544,3.544,0,1,0,3.545,3.54A3.542,3.542,0,0,0,27.107.529Zm0,1.772a1.772,1.772,0,1,1-1.774,1.768A1.77,1.77,0,0,1,27.107,2.3ZM21.149,5.844,9.286,11.317a.886.886,0,1,0,.742,1.609L21.893,7.453A.89.89,0,0,0,21.58,5.76.86.86,0,0,0,21.149,5.844Zm23.035,7.082a.886.886,0,1,0,.742-1.609L33.064,5.844a.886.886,0,1,0-.744,1.609Zm-19.4-2.289A2.07,2.07,0,0,0,23.732,11.8a2.776,2.776,0,0,1-.386.772,3.157,3.157,0,0,1-1.289.837,3.333,3.333,0,0,1-1.524.353,2.549,2.549,0,0,1-.817-.242,2.154,2.154,0,0,0-1.524-.085,4.974,4.974,0,0,0-1.824,1.322,4.968,4.968,0,0,0-1.3,1.838,2.133,2.133,0,0,0,.118,1.516,2.554,2.554,0,0,1,.256.812,3.306,3.306,0,0,1-.327,1.524,3.3,3.3,0,0,1-.824,1.32,2.456,2.456,0,0,1-.746.393,2.1,2.1,0,0,0-1.145.988,4.744,4.744,0,0,0-.358,2.184,4.754,4.754,0,0,0,.358,2.184,2.1,2.1,0,0,0,1.145.988,2.4,2.4,0,0,1,.735.389,3.309,3.309,0,0,1,.834,1.324,3.333,3.333,0,0,1,.327,1.505,2.343,2.343,0,0,1-.242.791,2.177,2.177,0,0,0-.157,1.452,3.311,3.311,0,0,0,.709,1.275,13.05,13.05,0,0,0-1.407,3.18,7.043,7.043,0,0,0-2.478-2.239,4.434,4.434,0,1,0-6.74,0A7.081,7.081,0,0,0,1.415,42.44v1.04a3.991,3.991,0,0,0,3.985,4h6.2a3.942,3.942,0,0,0,2.218-.675v3.339a3.56,3.56,0,0,0,1.145,2.791,3.929,3.929,0,0,0,3.355.635c.02,0,.04-.01.059-.013L27.1,51.211l8.759,2.355a3.892,3.892,0,0,0,3.388-.628A3.541,3.541,0,0,0,40.4,50.159V46.81a3.941,3.941,0,0,0,2.218.671h6.2a3.991,3.991,0,0,0,3.985-4V42.44a7.081,7.081,0,0,0-3.717-6.258,4.429,4.429,0,1,0-6.739,0,6.991,6.991,0,0,0-2.481,2.242,13.116,13.116,0,0,0-1.405-3.191,3.289,3.289,0,0,0,.711-1.268,2.178,2.178,0,0,0-.157-1.452,2.337,2.337,0,0,1-.242-.791,3.3,3.3,0,0,1,.327-1.505,3.306,3.306,0,0,1,.834-1.324,2.388,2.388,0,0,1,.735-.389,2.105,2.105,0,0,0,1.145-.988,4.744,4.744,0,0,0,.358-2.184,4.759,4.759,0,0,0-.358-2.184,2.1,2.1,0,0,0-1.145-.988,2.458,2.458,0,0,1-.746-.393,3.3,3.3,0,0,1-.824-1.32,3.3,3.3,0,0,1-.327-1.524,2.581,2.581,0,0,1,.256-.811A2.128,2.128,0,0,0,39.14,16.6a4.967,4.967,0,0,0-1.3-1.838,4.976,4.976,0,0,0-1.824-1.322,2.154,2.154,0,0,0-1.524.085,2.557,2.557,0,0,1-.817.242,3.36,3.36,0,0,1-1.524-.353,3.154,3.154,0,0,1-1.289-.837,2.771,2.771,0,0,1-.386-.772,2.07,2.07,0,0,0-1.052-1.164,5.225,5.225,0,0,0-2.322-.365,5.224,5.224,0,0,0-2.322.365Zm-20.712.521A3.544,3.544,0,1,0,7.618,14.7,3.541,3.541,0,0,0,4.073,11.158Zm46.067,0a3.544,3.544,0,1,0,3.544,3.54,3.542,3.542,0,0,0-3.544-3.54ZM28.657,12.227c.122.059.134.154.19.261a4.164,4.164,0,0,0,.647,1.2,4.919,4.919,0,0,0,1.967,1.355,5.135,5.135,0,0,0,2.341.49,4.179,4.179,0,0,0,1.341-.36c.148-.058.223-.091.32-.059A3.433,3.433,0,0,1,36.583,16a3.574,3.574,0,0,1,.863,1.125.486.486,0,0,1-.066.313A4.228,4.228,0,0,0,37,18.766a5.094,5.094,0,0,0,.45,2.348,5.073,5.073,0,0,0,1.308,1.995,4.086,4.086,0,0,0,1.211.687c.141.06.207.065.261.169a3.222,3.222,0,0,1,.169,1.367,3.261,3.261,0,0,1-.169,1.367c-.054.1-.153.124-.261.169a4.086,4.086,0,0,0-1.211.687,5.073,5.073,0,0,0-1.308,2A5.114,5.114,0,0,0,37,31.858a3.922,3.922,0,0,0,.372,1.334c.052.146.1.228.078.327a1.3,1.3,0,0,1-.08.187,13.321,13.321,0,0,0-4.919-3.717,7.089,7.089,0,1,0-10.693,0,13.315,13.315,0,0,0-4.919,3.717,1.366,1.366,0,0,1-.08-.187c-.027-.1.027-.181.078-.327a3.923,3.923,0,0,0,.372-1.334,5.117,5.117,0,0,0-.45-2.308,5.073,5.073,0,0,0-1.308-2,4.086,4.086,0,0,0-1.211-.687c-.109-.046-.207-.065-.261-.169a3.248,3.248,0,0,1-.169-1.367,3.247,3.247,0,0,1,.169-1.367c.054-.1.121-.11.261-.169a4.086,4.086,0,0,0,1.211-.687,5.073,5.073,0,0,0,1.308-1.995,5.094,5.094,0,0,0,.45-2.348,4.233,4.233,0,0,0-.379-1.327.487.487,0,0,1-.066-.313A3.572,3.572,0,0,1,17.63,16a3.43,3.43,0,0,1,1.12-.884c.1-.033.172,0,.32.059a4.176,4.176,0,0,0,1.341.36,5.134,5.134,0,0,0,2.341-.49,4.919,4.919,0,0,0,1.967-1.355,4.163,4.163,0,0,0,.647-1.2c.057-.107.068-.2.191-.261a4.324,4.324,0,0,1,1.55-.183,4.325,4.325,0,0,1,1.55.183Zm-24.584.7A1.772,1.772,0,1,1,2.3,14.7,1.77,1.77,0,0,1,4.073,12.93Zm46.067,0A1.772,1.772,0,1,1,48.366,14.7,1.769,1.769,0,0,1,50.14,12.93ZM5.668,19.688a.886.886,0,0,0-.908,1.125l1.557,5.9a.886.886,0,1,0,1.713-.45l-1.557-5.9a.886.886,0,0,0-.8-.675Zm42.877,0a.885.885,0,0,0-.8.675l-1.557,5.9a.886.886,0,1,0,1.713.45l1.557-5.9a.886.886,0,0,0-.908-1.125Zm-21.438.33a5.316,5.316,0,1,1-5.317,5.315A5.321,5.321,0,0,1,27.106,20.019ZM8.5,30.648a2.658,2.658,0,1,1-2.661,2.659A2.656,2.656,0,0,1,8.5,30.648Zm37.208,0a2.658,2.658,0,1,1-2.654,2.659,2.662,2.662,0,0,1,2.654-2.659Zm-24.8,14.577V42.157a.886.886,0,0,0-1.772,0V45.68l-.221.057a.887.887,0,1,0,.438,1.72l13.392-3.44a1.853,1.853,0,1,1,.962,3.578L17.977,51.833H17.97a2.136,2.136,0,0,1-1.864-.249,1.79,1.79,0,0,1-.516-1.438V42.168A11.5,11.5,0,0,1,23.27,31.3a7.091,7.091,0,0,0,7.667,0,11.473,11.473,0,0,1,7.686,10.869v7.99a1.772,1.772,0,0,1-.517,1.426,2.134,2.134,0,0,1-1.864.249l-5.727-1.542,3.647-.983a3.628,3.628,0,0,0,.915-6.622v-.529a.886.886,0,0,0-1.772.03,3.482,3.482,0,0,0-1.007.11Zm9.745-8.374a.886.886,0,0,0,0,1.772h2.654a.886.886,0,0,0,0-1.772Zm-23.866.536a4.441,4.441,0,0,0,1.716.348,4.566,4.566,0,0,0,1.72-.348,5.32,5.32,0,0,1,3.6,5.052v1.04A2.213,2.213,0,0,1,11.6,45.71H5.4a2.217,2.217,0,0,1-2.213-2.23v-1.04A5.318,5.318,0,0,1,6.786,37.387Zm37.2,0a4.422,4.422,0,0,0,1.72.35,4.322,4.322,0,0,0,1.716-.35,5.319,5.319,0,0,1,3.6,5.052v1.04a2.217,2.217,0,0,1-2.213,2.23h-6.2a2.221,2.221,0,0,1-2.218-2.23v-1.04a5.32,5.32,0,0,1,3.6-5.052Z" transform="translate(0 0)" fill="#0f654d"/>
      </g>
    </g>
  </g>
</svg>
