<svg xmlns="http://www.w3.org/2000/svg" xmlns:xlink="http://www.w3.org/1999/xlink" width="96" height="96" viewBox="0 0 96 96">
  <defs>
    <clipPath id="clip-path">
      <rect id="Rectangle_456267" data-name="Rectangle 456267" width="96" height="96" fill="none"/>
    </clipPath>
  </defs>
  <g id="img17" transform="translate(479.746 8495) rotate(180)">
    <path id="Path_999622" data-name="Path 999622" d="M43.07,0A43.07,43.07,0,1,1,0,43.07,43.071,43.071,0,0,1,43.07,0" transform="translate(388.676 8403.93)" fill="#e3fbf9"/>
    <g id="Group_1179902" data-name="Group 1179902" transform="translate(383.746 8399)">
      <g id="Group_1179905" data-name="Group 1179905" clip-path="url(#clip-path)">
        <path id="Path_999618" data-name="Path 999618" d="M48,0A48,48,0,1,1,0,48,48,48,0,0,1,48,0" fill="none"/>
        <path id="Path_999619" data-name="Path 999619" d="M3.75,59A3.75,3.75,0,1,1,0,62.75,3.75,3.75,0,0,1,3.75,59" transform="translate(0 -14.75)" fill="#0f654d"/>
        <path id="Path_999620" data-name="Path 999620" d="M19.75,19A3.75,3.75,0,1,1,16,22.75,3.75,3.75,0,0,1,19.75,19" transform="translate(-4 -4.75)" fill="#0f654d"/>
        <path id="Path_999621" data-name="Path 999621" d="M49,94A45.051,45.051,0,0,1,4,49H6.25A42.75,42.75,0,1,0,17.806,19.768l-1.641-1.539A45,45,0,1,1,49,94" transform="translate(-1 -1)" fill="#0f654d"/>
        <rect id="Rectangle_456268" data-name="Rectangle 456268" width="96" height="96" fill="none"/>
        <rect id="Rectangle_456269" data-name="Rectangle 456269" width="96" height="96" fill="none"/>
      </g>
    </g>
    <g id="Group_1179903" data-name="Group 1179903" transform="translate(458.745 8474.508) rotate(180)">
      <g id="Group_1099618" data-name="Group 1099618" transform="translate(0 0)">
        <rect id="Rectangle_401104" data-name="Rectangle 401104" width="54.153" height="54.806" transform="translate(0)" fill="none"/>
      </g>
    </g>
    <g id="red" transform="translate(456.816 8472.53) rotate(180)">
      <g id="Group_1189147" data-name="Group 1189147" transform="translate(44.254 10.212)">
        <g id="Group_1189146" data-name="Group 1189146">
          <path id="Path_1032966" data-name="Path 1032966" d="M447.138,102.4a3.4,3.4,0,1,0,3.4,3.4A3.407,3.407,0,0,0,447.138,102.4Zm0,5.106a1.7,1.7,0,1,1,1.7-1.7A1.7,1.7,0,0,1,447.138,107.506Z" transform="translate(-443.734 -102.4)" fill="#0f654d"/>
        </g>
      </g>
      <g id="Group_1189149" data-name="Group 1189149" transform="translate(0 38.297)">
        <g id="Group_1189148" data-name="Group 1189148">
          <path id="Path_1032967" data-name="Path 1032967" d="M3.4,384a3.4,3.4,0,1,0,3.4,3.4A3.408,3.408,0,0,0,3.4,384Zm0,5.106a1.7,1.7,0,1,1,1.7-1.7A1.7,1.7,0,0,1,3.4,389.106Z" transform="translate(0 -384)" fill="#0f654d"/>
        </g>
      </g>
      <g id="Group_1189151" data-name="Group 1189151" transform="translate(37.445 7.659)">
        <g id="Group_1189150" data-name="Group 1189150">
          <path id="Path_1032968" data-name="Path 1032968" d="M384.025,80.421l-7.342-3.545a.851.851,0,0,0-.74,1.533l7.342,3.545a.851.851,0,0,0,.74-1.533Z" transform="translate(-375.463 -76.792)" fill="#0f654d"/>
        </g>
      </g>
      <g id="Group_1189153" data-name="Group 1189153" transform="translate(34.893 44.254)">
        <g id="Group_1189152" data-name="Group 1189152">
          <path id="Path_1032969" data-name="Path 1032969" d="M353.271,443.733a3.4,3.4,0,1,0,3.4,3.4A3.408,3.408,0,0,0,353.271,443.733Zm0,5.106a1.7,1.7,0,1,1,1.7-1.7A1.7,1.7,0,0,1,353.271,448.839Z" transform="translate(-349.867 -443.733)" fill="#0f654d"/>
        </g>
      </g>
      <g id="Group_1189155" data-name="Group 1189155" transform="translate(28.084 41.7)">
        <g id="Group_1189154" data-name="Group 1189154">
          <path id="Path_1032970" data-name="Path 1032970" d="M290.158,421.754l-7.342-3.545a.851.851,0,0,0-.74,1.533l7.342,3.545a.851.851,0,1,0,.74-1.533Z" transform="translate(-281.596 -418.124)" fill="#0f654d"/>
        </g>
      </g>
      <g id="Group_1189157" data-name="Group 1189157" transform="translate(22.127 22.978)">
        <g id="Group_1189156" data-name="Group 1189156">
          <path id="Path_1032971" data-name="Path 1032971" d="M225.271,230.4a3.4,3.4,0,1,0,3.4,3.4A3.408,3.408,0,0,0,225.271,230.4Zm0,5.106a1.7,1.7,0,1,1,1.7-1.7A1.7,1.7,0,0,1,225.271,235.506Z" transform="translate(-221.867 -230.4)" fill="#0f654d"/>
        </g>
      </g>
      <g id="Group_1189159" data-name="Group 1189159" transform="translate(17.021 19.574)">
        <g id="Group_1189158" data-name="Group 1189158">
          <path id="Path_1032972" data-name="Path 1032972" d="M177.679,200.846l-5.64-4.4a.851.851,0,1,0-1.047,1.343l5.64,4.4a.851.851,0,1,0,1.047-1.343Z" transform="translate(-170.664 -196.272)" fill="#0f654d"/>
        </g>
      </g>
      <g id="Group_1189161" data-name="Group 1189161" transform="translate(31.488 22.127)">
        <g id="Group_1189160" data-name="Group 1189160">
          <path id="Path_1032973" data-name="Path 1032973" d="M325.094,221.867a9.361,9.361,0,1,0,9.361,9.361A9.372,9.372,0,0,0,325.094,221.867Zm0,17.021a7.659,7.659,0,1,1,7.659-7.659A7.668,7.668,0,0,1,325.094,238.888Z" transform="translate(-315.733 -221.867)" fill="#0f654d"/>
        </g>
      </g>
      <g id="Group_1189163" data-name="Group 1189163" transform="translate(37.446 25.531)">
        <g id="Group_1189162" data-name="Group 1189162">
          <path id="Path_1032974" data-name="Path 1032974" d="M378.871,256a3.4,3.4,0,1,0,3.4,3.4A3.408,3.408,0,0,0,378.871,256Zm0,5.106a1.7,1.7,0,1,1,1.7-1.7A1.7,1.7,0,0,1,378.871,261.106Z" transform="translate(-375.467 -256)" fill="#0f654d"/>
        </g>
      </g>
      <g id="Group_1189165" data-name="Group 1189165" transform="translate(35.744 34.041)">
        <g id="Group_1189164" data-name="Group 1189164">
          <path id="Path_1032975" data-name="Path 1032975" d="M365.975,341.333h-4.938A2.606,2.606,0,0,0,358.4,343.9v2.243a.852.852,0,0,0,.425.737,9.314,9.314,0,0,0,9.363,0,.85.85,0,0,0,.425-.736V343.9A2.606,2.606,0,0,0,365.975,341.333Zm.935,4.3a7.717,7.717,0,0,1-6.808,0V343.9a.9.9,0,0,1,.935-.865h4.938a.9.9,0,0,1,.935.865v1.735Z" transform="translate(-358.4 -341.333)" fill="#0f654d"/>
        </g>
      </g>
      <g id="Group_1189167" data-name="Group 1189167" transform="translate(11.063 32.339)">
        <g id="Group_1189166" data-name="Group 1189166">
          <path id="Path_1032976" data-name="Path 1032976" d="M120.294,324.267a9.361,9.361,0,1,0,9.361,9.361A9.373,9.373,0,0,0,120.294,324.267Zm0,17.021a7.659,7.659,0,1,1,7.659-7.659A7.668,7.668,0,0,1,120.294,341.288Z" transform="translate(-110.933 -324.267)" fill="#0f654d"/>
        </g>
      </g>
      <g id="Group_1189169" data-name="Group 1189169" transform="translate(17.021 35.744)">
        <g id="Group_1189168" data-name="Group 1189168">
          <path id="Path_1032977" data-name="Path 1032977" d="M174.071,358.4a3.4,3.4,0,1,0,3.4,3.4A3.408,3.408,0,0,0,174.071,358.4Zm0,5.106a1.7,1.7,0,1,1,1.7-1.7A1.7,1.7,0,0,1,174.071,363.506Z" transform="translate(-170.667 -358.4)" fill="#0f654d"/>
        </g>
      </g>
      <g id="Group_1189171" data-name="Group 1189171" transform="translate(15.319 44.254)">
        <g id="Group_1189170" data-name="Group 1189170">
          <path id="Path_1032978" data-name="Path 1032978" d="M161.175,443.733h-4.938A2.606,2.606,0,0,0,153.6,446.3v2.243a.852.852,0,0,0,.425.737,9.314,9.314,0,0,0,9.363,0,.85.85,0,0,0,.425-.736V446.3A2.606,2.606,0,0,0,161.175,443.733Zm.935,4.3a7.717,7.717,0,0,1-6.808,0V446.3a.9.9,0,0,1,.935-.865h4.938a.9.9,0,0,1,.935.865v1.735Z" transform="translate(-153.6 -443.733)" fill="#0f654d"/>
        </g>
      </g>
      <g id="Group_1189173" data-name="Group 1189173" transform="translate(0 11.063)">
        <g id="Group_1189172" data-name="Group 1189172">
          <path id="Path_1032979" data-name="Path 1032979" d="M9.361,110.933a9.361,9.361,0,1,0,9.361,9.361A9.372,9.372,0,0,0,9.361,110.933Zm0,17.021a7.659,7.659,0,1,1,7.659-7.659A7.668,7.668,0,0,1,9.361,127.954Z" transform="translate(0 -110.933)" fill="#0f654d"/>
        </g>
      </g>
      <g id="Group_1189175" data-name="Group 1189175" transform="translate(5.957 14.468)">
        <g id="Group_1189174" data-name="Group 1189174">
          <path id="Path_1032980" data-name="Path 1032980" d="M63.138,145.067a3.4,3.4,0,1,0,3.4,3.4A3.408,3.408,0,0,0,63.138,145.067Zm0,5.106a1.7,1.7,0,1,1,1.7-1.7A1.7,1.7,0,0,1,63.138,150.173Z" transform="translate(-59.734 -145.067)" fill="#0f654d"/>
        </g>
      </g>
      <g id="Group_1189177" data-name="Group 1189177" transform="translate(4.255 22.978)">
        <g id="Group_1189176" data-name="Group 1189176">
          <path id="Path_1032981" data-name="Path 1032981" d="M50.242,230.4H45.3a2.606,2.606,0,0,0-2.637,2.566v2.243a.852.852,0,0,0,.425.737,9.314,9.314,0,0,0,9.363,0,.85.85,0,0,0,.425-.736v-2.243A2.606,2.606,0,0,0,50.242,230.4Zm.935,4.3a7.717,7.717,0,0,1-6.808,0v-1.735a.9.9,0,0,1,.935-.865h4.938a.9.9,0,0,1,.935.865V234.7Z" transform="translate(-42.667 -230.4)" fill="#0f654d"/>
        </g>
      </g>
      <g id="Group_1189179" data-name="Group 1189179" transform="translate(20.425)">
        <g id="Group_1189178" data-name="Group 1189178">
          <path id="Path_1032982" data-name="Path 1032982" d="M214.161,0a9.361,9.361,0,1,0,9.361,9.361A9.372,9.372,0,0,0,214.161,0Zm0,17.021a7.659,7.659,0,1,1,7.659-7.659A7.668,7.668,0,0,1,214.161,17.021Z" transform="translate(-204.8)" fill="#0f654d"/>
        </g>
      </g>
      <g id="Group_1189181" data-name="Group 1189181" transform="translate(26.382 3.404)">
        <g id="Group_1189180" data-name="Group 1189180">
          <path id="Path_1032983" data-name="Path 1032983" d="M267.938,34.133a3.4,3.4,0,1,0,3.4,3.4A3.408,3.408,0,0,0,267.938,34.133Zm0,5.106a1.7,1.7,0,1,1,1.7-1.7A1.7,1.7,0,0,1,267.938,39.239Z" transform="translate(-264.534 -34.133)" fill="#0f654d"/>
        </g>
      </g>
      <g id="Group_1189183" data-name="Group 1189183" transform="translate(24.68 11.915)">
        <g id="Group_1189182" data-name="Group 1189182">
          <path id="Path_1032984" data-name="Path 1032984" d="M255.042,119.467H250.1a2.606,2.606,0,0,0-2.637,2.566v2.243a.852.852,0,0,0,.425.737,9.314,9.314,0,0,0,9.363,0,.85.85,0,0,0,.425-.736v-2.243A2.606,2.606,0,0,0,255.042,119.467Zm.935,4.3a7.717,7.717,0,0,1-6.808,0v-1.735a.9.9,0,0,1,.935-.865h4.938a.9.9,0,0,1,.935.865v1.735Z" transform="translate(-247.467 -119.467)" fill="#0f654d"/>
        </g>
      </g>
      <g id="Group_1189185" data-name="Group 1189185" transform="translate(14.528 8.51)">
        <g id="Group_1189184" data-name="Group 1189184">
          <path id="Path_1032985" data-name="Path 1032985" d="M153.067,85.63a.852.852,0,0,0-1.2-.093l-5.9,5.047a.851.851,0,1,0,1.106,1.293l5.9-5.047A.851.851,0,0,0,153.067,85.63Z" transform="translate(-145.671 -85.333)" fill="#0f654d"/>
        </g>
      </g>
      <g id="Group_1189187" data-name="Group 1189187" transform="translate(34.041 15.32)">
        <g id="Group_1189186" data-name="Group 1189186">
          <path id="Path_1032986" data-name="Path 1032986" d="M347.971,160.759l-5.106-6.808a.851.851,0,0,0-1.362,1.02l5.106,6.808a.851.851,0,0,0,1.362-1.02Z" transform="translate(-341.333 -153.61)" fill="#0f654d"/>
        </g>
      </g>
      <g id="Group_1189189" data-name="Group 1189189" transform="translate(27.409 33.962)">
        <g id="Group_1189188" data-name="Group 1189188">
          <path id="Path_1032987" data-name="Path 1032987" d="M281.119,340.88a.851.851,0,0,0-1.191-.17l-4.754,3.565a.851.851,0,0,0,1.021,1.361l4.754-3.565A.85.85,0,0,0,281.119,340.88Z" transform="translate(-274.833 -340.54)" fill="#0f654d"/>
        </g>
      </g>
      <g id="Group_1189191" data-name="Group 1189191" transform="translate(5.106 40.85)">
        <g id="Group_1189190" data-name="Group 1189190">
          <path id="Path_1032988" data-name="Path 1032988" d="M58.008,409.6H52.051a.851.851,0,1,0,0,1.7h5.957a.851.851,0,0,0,0-1.7Z" transform="translate(-51.2 -409.6)" fill="#0f654d"/>
        </g>
      </g>
      <g id="Group_1189193" data-name="Group 1189193" transform="translate(5.957)">
        <g id="Group_1189192" data-name="Group 1189192">
          <path id="Path_1032989" data-name="Path 1032989" d="M63.137,0a3.4,3.4,0,1,0,3.4,3.4A3.408,3.408,0,0,0,63.137,0Zm0,5.106a1.7,1.7,0,1,1,1.7-1.7A1.7,1.7,0,0,1,63.137,5.106Z" transform="translate(-59.733)" fill="#0f654d"/>
        </g>
      </g>
      <g id="Group_1189195" data-name="Group 1189195" transform="translate(8.51 5.106)">
        <g id="Group_1189194" data-name="Group 1189194">
          <path id="Path_1032990" data-name="Path 1032990" d="M86.185,51.2a.851.851,0,0,0-.851.851v5.957a.851.851,0,0,0,1.7,0V52.051A.851.851,0,0,0,86.185,51.2Z" transform="translate(-85.334 -51.2)" fill="#0f654d"/>
        </g>
      </g>
    </g>
  </g>
</svg>
