<svg xmlns="http://www.w3.org/2000/svg" width="84" height="84" viewBox="0 0 84 84">
  <g id="img3" transform="translate(-185.711 -1791)">
    <rect id="Rectangle_459292" data-name="Rectangle 459292" width="84" height="84" transform="translate(185.711 1791)" fill="#ffcc74"/>
    <g id="marketing" transform="translate(195.711 1801)">
      <path id="Path_1032728" data-name="Path 1032728" d="M58,45H43V21.786a10.967,10.967,0,0,0,1.057-.613l3.577,4.471A9.129,9.129,0,1,0,49.2,24.4l-3.585-4.481A10.965,10.965,0,0,0,48.95,13h3.432l2,4h8.236l-2.5-5,2.5-5H54.382l-2,4H48.95A10.986,10.986,0,0,0,30.956,3.562,3,3,0,0,0,28,1H16a3,3,0,0,0-2.816,2H6A5.006,5.006,0,0,0,1,8V58a5.006,5.006,0,0,0,5,5H38a5.006,5.006,0,0,0,5-5V55H58a5,5,0,0,0,0-10Zm3-13a7,7,0,1,1-7-7A7.009,7.009,0,0,1,61,32ZM55.618,15l-1-2h3.764l1,2Zm0-6h3.764l-1,2H54.618ZM13.184,9A3,3,0,0,0,16,11H27.051c-.03.33-.051.662-.051,1a10.962,10.962,0,0,0,3.577,8.094l-1.525,2a13.118,13.118,0,1,0,1.586,1.217l1.527-2A10.908,10.908,0,0,0,37,22.949V45H31.818l-7.233,2.713a2.443,2.443,0,0,0,0,4.575L31.818,55H37v2H7V9ZM27,38H25V30h2Zm-4,0H21V28h2Zm-4,0H17V34h2Zm11.479,2a10.987,10.987,0,0,1-16.958,0Zm1.307-2H29V28H25V26H19v6H15v6H12.214a11,11,0,1,1,19.572,0Zm-6.5,12.416a.444.444,0,0,1,0-.831L31,47.443v5.114ZM33,53V51H53v2Zm20-4H33V47H53ZM41,45H39V22.949a10.821,10.821,0,0,0,2-.376ZM38,3a9.01,9.01,0,0,1,8.941,8H42.9a5,5,0,1,0,0,2h4.042A9,9,0,1,1,38,3Zm2.816,10a3,3,0,1,1,0-2H37v2ZM15,4a1,1,0,0,1,1-1H28a1,1,0,0,1,1,1V5.7a10.937,10.937,0,0,0-1.572,3.3L16,9a1,1,0,0,1-1-1ZM41,58a3,3,0,0,1-3,3H6a3,3,0,0,1-3-3V8A3,3,0,0,1,6,5h7V7H7A2,2,0,0,0,5,9V57a2,2,0,0,0,2,2H37a2,2,0,0,0,2-2V55h2Zm17-5H55V47h3a3,3,0,0,1,0,6Z"/>
      <path id="Path_1032729" data-name="Path 1032729" d="M49,34.382a2.619,2.619,0,0,0,3.789,2.342l4.765-2.382a2.619,2.619,0,0,0,0-4.684l-4.764-2.382A2.619,2.619,0,0,0,49,29.618Zm2-4.764A.618.618,0,0,1,51.618,29a.612.612,0,0,1,.276.065l4.764,2.382a.618.618,0,0,1,0,1.106l-4.764,2.382A.635.635,0,0,1,51,34.382Z"/>
      <path id="Path_1032730" data-name="Path 1032730" d="M9,49H21v2H9Z"/>
      <path id="Path_1032731" data-name="Path 1032731" d="M9,53H21v2H9Z"/>
      <path id="Path_1032732" data-name="Path 1032732" d="M9,13h2v2H9Z"/>
      <path id="Path_1032733" data-name="Path 1032733" d="M13,13H25v2H13Z"/>
      <path id="Path_1032734" data-name="Path 1032734" d="M9,17h2v2H9Z"/>
      <path id="Path_1032735" data-name="Path 1032735" d="M13,17H25v2H13Z"/>
    </g>
  </g>
</svg>
