<svg xmlns="http://www.w3.org/2000/svg" xmlns:xlink="http://www.w3.org/1999/xlink" width="96" height="96" viewBox="0 0 96 96">
  <defs>
    <clipPath id="clip-path">
      <rect id="Rectangle_456267" data-name="Rectangle 456267" width="96" height="96" fill="none"/>
    </clipPath>
  </defs>
  <g id="img11" transform="translate(479.746 8495) rotate(180)">
    <path id="Path_999622" data-name="Path 999622" d="M43.07,0A43.07,43.07,0,1,1,0,43.07,43.071,43.071,0,0,1,43.07,0" transform="translate(388.676 8403.93)" fill="#e3fbf9"/>
    <g id="Group_1179902" data-name="Group 1179902" transform="translate(383.746 8399)">
      <g id="Group_1179905" data-name="Group 1179905" clip-path="url(#clip-path)">
        <path id="Path_999618" data-name="Path 999618" d="M48,0A48,48,0,1,1,0,48,48,48,0,0,1,48,0" fill="none"/>
        <path id="Path_999619" data-name="Path 999619" d="M3.75,59A3.75,3.75,0,1,1,0,62.75,3.75,3.75,0,0,1,3.75,59" transform="translate(0 -14.75)" fill="#0f654d"/>
        <path id="Path_999620" data-name="Path 999620" d="M19.75,19A3.75,3.75,0,1,1,16,22.75,3.75,3.75,0,0,1,19.75,19" transform="translate(-4 -4.75)" fill="#0f654d"/>
        <path id="Path_999621" data-name="Path 999621" d="M49,94A45.051,45.051,0,0,1,4,49H6.25A42.75,42.75,0,1,0,17.806,19.768l-1.641-1.539A45,45,0,1,1,49,94" transform="translate(-1 -1)" fill="#0f654d"/>
        <rect id="Rectangle_456268" data-name="Rectangle 456268" width="96" height="96" fill="none"/>
        <rect id="Rectangle_456269" data-name="Rectangle 456269" width="96" height="96" fill="none"/>
      </g>
    </g>
    <g id="Group_1179903" data-name="Group 1179903" transform="translate(458.745 8474.508) rotate(180)">
      <g id="Group_1099618" data-name="Group 1099618" transform="translate(-0.29 -0.492)">
        <rect id="Rectangle_401104" data-name="Rectangle 401104" width="54.153" height="54.806" transform="translate(0)" fill="none"/>
      </g>
      <g id="izquierda" transform="translate(-53.535 0.508)">
        <g id="Layer_2_00000035510322778251647230000009075096859231928963_" transform="translate(60.245)">
          <g id="left_00000011728598063376404170000015459729078414091937_">
            <path id="Path_1032600" data-name="Path 1032600" d="M152.7,64.407a12.134,12.134,0,1,1,12.134-12.134v0A12.147,12.147,0,0,1,152.7,64.407Zm0-22.165A10.031,10.031,0,1,0,162.73,52.274,10.031,10.031,0,0,0,152.7,42.242Z" transform="translate(-132.122 -35.921)" fill="#0f654d"/>
            <path id="Path_1032601" data-name="Path 1032601" d="M203.439,147.692H191.826a1.051,1.051,0,0,1,0-2.1h11.612a1.051,1.051,0,0,1,0,2.1Z" transform="translate(-177.054 -130.286)" fill="#0f654d"/>
            <path id="Path_1032602" data-name="Path 1032602" d="M194.994,124.014a1.051,1.051,0,0,1-.743-.307l-3.166-3.167a1.051,1.051,0,0,1,0-1.486l3.166-3.166a1.051,1.051,0,0,1,1.486,1.486l-2.423,2.423,2.423,2.418a1.051,1.051,0,0,1-.743,1.794Z" transform="translate(-177.056 -103.442)" fill="#0f654d"/>
            <path id="Path_1032603" data-name="Path 1032603" d="M94.041,53.82H64.45a4.2,4.2,0,0,1-4.2-4.2V4.2A4.2,4.2,0,0,1,64.45,0H97.195a4.2,4.2,0,0,1,4.2,4.2V46.462a1.052,1.052,0,0,1-.308.743l-6.307,6.307A1.052,1.052,0,0,1,94.041,53.82ZM64.45,2.1a2.1,2.1,0,0,0-2.1,2.1V49.616a2.1,2.1,0,0,0,2.1,2.1H93.606L99.3,46.027V4.2a2.1,2.1,0,0,0-2.1-2.1Z" transform="translate(-60.245)" fill="#0f654d"/>
            <path id="Path_1032604" data-name="Path 1032604" d="M372.556,431.2a1.051,1.051,0,0,1-1.051-1.051v-7.389a1.051,1.051,0,0,1,1.051-1.051h6.333a1.051,1.051,0,0,1,0,2.1h-5.282v6.338A1.051,1.051,0,0,1,372.556,431.2Z" transform="translate(-338.786 -377.381)" fill="#0f654d"/>
            <path id="Path_1032605" data-name="Path 1032605" d="M132.065,64.425H101.456a1.051,1.051,0,0,1-1.051-1.051V41.211a1.051,1.051,0,0,1,1.051-1.051h30.609a1.051,1.051,0,0,1,1.051,1.051V63.374A1.051,1.051,0,0,1,132.065,64.425Zm-29.558-2.1h28.507V42.262H102.507Z" transform="translate(-96.183 -35.938)" fill="#0f654d"/>
            <path id="Path_1032606" data-name="Path 1032606" d="M132.065,293.282H101.456a1.051,1.051,0,1,1,0-2.1h30.609a1.051,1.051,0,1,1,0,2.1Z" transform="translate(-96.183 -260.572)" fill="#0f654d"/>
            <path id="Path_1032607" data-name="Path 1032607" d="M132.065,333.452H101.456a1.051,1.051,0,0,1,0-2.1h30.609a1.051,1.051,0,0,1,0,2.1Z" transform="translate(-96.183 -296.519)" fill="#0f654d"/>
            <path id="Path_1032608" data-name="Path 1032608" d="M132.065,373.612H101.456a1.051,1.051,0,0,1,0-2.1h30.609a1.051,1.051,0,0,1,0,2.1Z" transform="translate(-96.183 -332.458)" fill="#0f654d"/>
            <path id="Path_1032609" data-name="Path 1032609" d="M122.568,413.772H101.456a1.051,1.051,0,1,1,0-2.1h21.112a1.051,1.051,0,1,1,0,2.1Z" transform="translate(-96.183 -368.396)" fill="#0f654d"/>
            <path id="Path_1032610" data-name="Path 1032610" d="M113.066,453.942h-11.61a1.051,1.051,0,1,1,0-2.1h11.61a1.051,1.051,0,1,1,0,2.1Z" transform="translate(-96.183 -404.344)" fill="#0f654d"/>
          </g>
        </g>
      </g>
    </g>
  </g>
</svg>
