<svg xmlns="http://www.w3.org/2000/svg" xmlns:xlink="http://www.w3.org/1999/xlink" width="150" height="150" viewBox="0 0 150 150">
  <defs>
    <clipPath id="clip-path">
      <rect id="Rectangle_456267" data-name="Rectangle 456267" width="150" height="150" fill="none"/>
    </clipPath>
  </defs>
  <g id="img13" transform="translate(533.746 8549) rotate(180)">
    <path id="Path_999622" data-name="Path 999622" d="M70.07,0A70.07,70.07,0,1,1,0,70.07,70.071,70.071,0,0,1,70.07,0" transform="translate(388.676 8403.93)" fill="#e1f5ff"/>
    <g id="Group_1179902" data-name="Group 1179902" transform="translate(383.746 8399)">
      <g id="Group_1179905" data-name="Group 1179905" clip-path="url(#clip-path)">
        <path id="Path_999618" data-name="Path 999618" d="M75,0A75,75,0,1,1,0,75,75,75,0,0,1,75,0" fill="none"/>
        <path id="Path_999619" data-name="Path 999619" d="M5.859,59A5.859,5.859,0,1,1,0,64.859,5.86,5.86,0,0,1,5.859,59" transform="translate(0 10.141)" fill="#19538d"/>
        <path id="Path_999620" data-name="Path 999620" d="M21.859,19A5.859,5.859,0,1,1,16,24.859,5.86,5.86,0,0,1,21.859,19" transform="translate(2.75 3.266)" fill="#19538d"/>
        <path id="Path_999621" data-name="Path 999621" d="M74.313,144.625A70.392,70.392,0,0,1,4,74.313H7.516A66.8,66.8,0,1,0,25.572,28.638l-2.564-2.4a70.312,70.312,0,1,1,51.3,118.392" transform="translate(0.688 0.688)" fill="#19538d"/>
        <rect id="Rectangle_456268" data-name="Rectangle 456268" width="150" height="150" fill="none"/>
        <rect id="Rectangle_456269" data-name="Rectangle 456269" width="150" height="150" fill="none"/>
      </g>
    </g>
    <g id="Group_1179903" data-name="Group 1179903" transform="translate(499.019 8515.303) rotate(180)">
      <g id="Group_1099618" data-name="Group 1099618" transform="translate(0 0)">
        <rect id="Rectangle_401104" data-name="Rectangle 401104" width="81.001" height="81.977" transform="translate(0)" fill="none"/>
      </g>
      <g id="configuracion-de-archivo" transform="translate(-0.022 0.465)">
        <path id="Path_1031554" data-name="Path 1031554" d="M77.1,65.111H73.858V22.873a6.134,6.134,0,0,0-6.121-6.121H64.752V14.076a.735.735,0,0,0-.062-.285.616.616,0,0,0-.161-.235L52.758,1.773a.726.726,0,0,0-.235-.161.735.735,0,0,0-.285-.062H21.709a5.433,5.433,0,0,0-5.427,5.427v9.776H13.3a6.134,6.134,0,0,0-6.121,6.121V65.111H3.929A2.38,2.38,0,0,0,1.55,67.49v3.085A8.931,8.931,0,0,0,10.471,79.5h60.1A8.931,8.931,0,0,0,79.5,70.575V67.49A2.4,2.4,0,0,0,77.1,65.111ZM52.981,4.09l9.231,9.231H56.339a3.347,3.347,0,0,1-3.345-3.345V4.09ZM64.752,23.158a2.826,2.826,0,0,1,2.713,2.825V57.367c0,1.313-1.351,2.478-2.713,2.8ZM17.769,6.977a3.95,3.95,0,0,1,3.94-3.94H51.494V9.975a4.844,4.844,0,0,0,4.845,4.845h6.926V60.267h-45.5Zm-4.2,50.886V26.479a2.835,2.835,0,0,1,2.713-2.825V60.2c-1.412-.235-2.713-1.115-2.713-2.342ZM8.662,22.873A4.643,4.643,0,0,1,13.3,18.239h2.986v3.9a4.336,4.336,0,0,0-4.2,4.324v31.4c0,2.416,2.565,3.9,4.944,3.9H64.008c2.292,0,4.956-1.92,4.956-4.386v-31.4a4.328,4.328,0,0,0-4.2-4.324v-3.42H67.75a4.643,4.643,0,0,1,4.634,4.634V65.111H8.662ZM78,70.575A7.435,7.435,0,0,1,70.575,78H10.458a7.435,7.435,0,0,1-7.422-7.422V67.49a.9.9,0,0,1,.892-.892H77.1A.9.9,0,0,1,78,67.49Z" transform="translate(0)" fill="#18538d" stroke="#19538d" stroke-width="1"/>
        <path id="Path_1031555" data-name="Path 1031555" d="M10.914,56.04a3.234,3.234,0,1,0,3.234,3.234A3.236,3.236,0,0,0,10.914,56.04Zm0,4.968a1.735,1.735,0,1,1,1.735-1.735A1.74,1.74,0,0,1,10.914,61.008Z" transform="translate(1.465 13.023)" fill="#18538d" stroke="#19538d" stroke-width="1"/>
        <path id="Path_1031556" data-name="Path 1031556" d="M17.6,56.04a3.234,3.234,0,1,0,3.234,3.234A3.236,3.236,0,0,0,17.6,56.04Zm0,4.968a1.735,1.735,0,1,1,1.735-1.735A1.74,1.74,0,0,1,17.6,61.008Z" transform="translate(3.064 13.023)" fill="#18538d" stroke="#19538d" stroke-width="1"/>
        <path id="Path_1031557" data-name="Path 1031557" d="M24.294,56.04a3.234,3.234,0,1,0,3.234,3.234A3.236,3.236,0,0,0,24.294,56.04Zm0,4.968a1.735,1.735,0,1,1,1.735-1.735A1.74,1.74,0,0,1,24.294,61.008Z" transform="translate(4.663 13.023)" fill="#18538d" stroke="#19538d" stroke-width="1"/>
        <path id="Path_1031558" data-name="Path 1031558" d="M19.733,7.257H39.285a.743.743,0,0,0,0-1.487H19.733a.746.746,0,0,0-.743.743A.738.738,0,0,0,19.733,7.257Z" transform="translate(4.168 1.009)" fill="#18538d" stroke="#19538d" stroke-width="1"/>
        <path id="Path_1031559" data-name="Path 1031559" d="M19.733,10.827h12.7a.743.743,0,0,0,0-1.487h-12.7a.746.746,0,0,0-.743.743A.738.738,0,0,0,19.733,10.827Z" transform="translate(4.168 1.862)" fill="#18538d" stroke="#19538d" stroke-width="1"/>
        <path id="Path_1031560" data-name="Path 1031560" d="M37.451,13.17h-3a2.083,2.083,0,0,0-2.044,1.685l-.335,1.759a.583.583,0,0,1-.359.434c-.285.112-.57.223-.843.347a.566.566,0,0,1-.558-.05l-1.487-1a2.1,2.1,0,0,0-2.639.248L24.07,18.708a2.082,2.082,0,0,0-.248,2.639l1,1.474a.563.563,0,0,1,.05.558c-.124.273-.248.558-.347.843a.563.563,0,0,1-.434.359l-1.759.335A2.083,2.083,0,0,0,20.65,26.96v3A2.083,2.083,0,0,0,22.335,32l1.759.335a.583.583,0,0,1,.434.359c.112.285.223.57.347.843a.6.6,0,0,1-.05.558l-1,1.487a2.1,2.1,0,0,0,.248,2.639l2.119,2.119a2.082,2.082,0,0,0,2.639.248l1.474-1a.563.563,0,0,1,.558-.05c.273.124.558.248.843.347a.563.563,0,0,1,.359.434l.335,1.759a2.083,2.083,0,0,0,2.044,1.685h3a2.083,2.083,0,0,0,2.044-1.685l.335-1.759a.583.583,0,0,1,.359-.434c.285-.112.57-.223.843-.347a.566.566,0,0,1,.558.05l1.474,1a2.1,2.1,0,0,0,2.639-.248l2.119-2.119a2.082,2.082,0,0,0,.248-2.639l-1-1.474a.563.563,0,0,1-.05-.558c.124-.273.248-.558.347-.843a.562.562,0,0,1,.434-.359l1.759-.335a2.083,2.083,0,0,0,1.685-2.044V26.96a2.083,2.083,0,0,0-1.685-2.044l-1.759-.335a.583.583,0,0,1-.434-.359c-.112-.285-.223-.57-.347-.843a.6.6,0,0,1,.05-.558l1-1.487a2.1,2.1,0,0,0-.248-2.639L45.69,16.577a2.082,2.082,0,0,0-2.639-.248l-1.474,1a.563.563,0,0,1-.558.05c-.273-.124-.558-.248-.843-.347a.563.563,0,0,1-.359-.434l-.335-1.759A2.061,2.061,0,0,0,37.451,13.17Zm2.961,5.576a2.07,2.07,0,0,0,2.02-.173l1.474-1a.583.583,0,0,1,.743.074l2.119,2.119a.6.6,0,0,1,.074.743l-1,1.487a2.1,2.1,0,0,0-.173,2.02c.112.248.211.483.31.743a2.072,2.072,0,0,0,1.549,1.3l1.759.335a.583.583,0,0,1,.471.57v3a.573.573,0,0,1-.471.57l-1.759.335a2.072,2.072,0,0,0-1.549,1.3c-.087.248-.2.5-.31.743a2.044,2.044,0,0,0,.173,2.007l1,1.487a.583.583,0,0,1-.074.743L44.65,39.263a.6.6,0,0,1-.743.074l-1.474-1a2.1,2.1,0,0,0-2.02-.173c-.248.112-.5.211-.743.31a2.072,2.072,0,0,0-1.3,1.549l-.335,1.759a.583.583,0,0,1-.57.471h-3a.573.573,0,0,1-.57-.471l-.335-1.759a2.1,2.1,0,0,0-1.3-1.549c-.248-.1-.5-.2-.743-.31a2.029,2.029,0,0,0-.843-.186,2.082,2.082,0,0,0-1.165.359l-1.474,1a.583.583,0,0,1-.743-.074l-2.119-2.119A.6.6,0,0,1,25.1,36.4l1-1.487a2.076,2.076,0,0,0,.173-2.007c-.112-.248-.211-.5-.31-.743a2.072,2.072,0,0,0-1.549-1.3l-1.759-.335a.583.583,0,0,1-.471-.57v-3a.573.573,0,0,1,.471-.57l1.759-.335a2.072,2.072,0,0,0,1.549-1.3c.1-.248.2-.5.31-.743A2.044,2.044,0,0,0,26.1,22l-1-1.487a.583.583,0,0,1,.074-.743l2.119-2.119a.583.583,0,0,1,.743-.074l1.487,1a2.1,2.1,0,0,0,2.02.173c.248-.112.483-.211.743-.31A2.112,2.112,0,0,0,33.6,16.9l.335-1.759a.583.583,0,0,1,.57-.471h3a.573.573,0,0,1,.57.471L38.4,16.9a2.087,2.087,0,0,0,1.313,1.549c.211.087.458.186.694.3Z" transform="translate(4.565 2.777)" fill="#18538d" stroke="#19538d" stroke-width="1"/>
        <path id="Path_1031561" data-name="Path 1031561" d="M26.77,27a7.719,7.719,0,1,0,7.719-7.719A7.72,7.72,0,0,0,26.77,27Zm13.951,0a6.232,6.232,0,1,1-6.232-6.232A6.237,6.237,0,0,1,40.721,27Z" transform="translate(6.028 4.238)" fill="#18538d" stroke="#19538d" stroke-width="1"/>
        <path id="Path_1031562" data-name="Path 1031562" d="M55.045,39.86H18.333a.743.743,0,1,0,0,1.487H55.045a.743.743,0,0,0,0-1.487Z" transform="translate(3.834 9.156)" fill="#18538d" stroke="#19538d" stroke-width="1"/>
        <path id="Path_1031563" data-name="Path 1031563" d="M55.045,43.07H18.333a.743.743,0,1,0,0,1.487H55.045a.743.743,0,0,0,0-1.487Z" transform="translate(3.834 9.924)" fill="#18538d" stroke="#19538d" stroke-width="1"/>
        <path id="Path_1031564" data-name="Path 1031564" d="M55.045,46.29H18.333a.743.743,0,1,0,0,1.487H55.045a.746.746,0,0,0,.743-.743A.738.738,0,0,0,55.045,46.29Z" transform="translate(3.834 10.693)" fill="#18538d" stroke="#19538d" stroke-width="1"/>
      </g>
    </g>
  </g>
</svg>
