<svg xmlns="http://www.w3.org/2000/svg" xmlns:xlink="http://www.w3.org/1999/xlink" width="96" height="96" viewBox="0 0 96 96">
  <defs>
    <clipPath id="clip-path">
      <rect id="Rectangle_456267" data-name="Rectangle 456267" width="96" height="96" fill="none"/>
    </clipPath>
    <clipPath id="clip-path-2">
      <path id="path546" d="M0-682.665H52.776v52.776H0Z" transform="translate(0 682.665)" fill="#0f654d"/>
    </clipPath>
  </defs>
  <g id="img16" transform="translate(479.746 8495) rotate(180)">
    <path id="Path_999622" data-name="Path 999622" d="M43.07,0A43.07,43.07,0,1,1,0,43.07,43.071,43.071,0,0,1,43.07,0" transform="translate(388.676 8403.93)" fill="#e3fbf9"/>
    <g id="Group_1179902" data-name="Group 1179902" transform="translate(383.746 8399)">
      <g id="Group_1179905" data-name="Group 1179905" clip-path="url(#clip-path)">
        <path id="Path_999618" data-name="Path 999618" d="M48,0A48,48,0,1,1,0,48,48,48,0,0,1,48,0" fill="none"/>
        <path id="Path_999619" data-name="Path 999619" d="M3.75,59A3.75,3.75,0,1,1,0,62.75,3.75,3.75,0,0,1,3.75,59" transform="translate(0 -14.75)" fill="#0f654d"/>
        <path id="Path_999620" data-name="Path 999620" d="M19.75,19A3.75,3.75,0,1,1,16,22.75,3.75,3.75,0,0,1,19.75,19" transform="translate(-4 -4.75)" fill="#0f654d"/>
        <path id="Path_999621" data-name="Path 999621" d="M49,94A45.051,45.051,0,0,1,4,49H6.25A42.75,42.75,0,1,0,17.806,19.768l-1.641-1.539A45,45,0,1,1,49,94" transform="translate(-1 -1)" fill="#0f654d"/>
        <rect id="Rectangle_456268" data-name="Rectangle 456268" width="96" height="96" fill="none"/>
        <rect id="Rectangle_456269" data-name="Rectangle 456269" width="96" height="96" fill="none"/>
      </g>
    </g>
    <g id="Group_1179903" data-name="Group 1179903" transform="translate(458.745 8474.508) rotate(180)">
      <g id="Group_1099618" data-name="Group 1099618" transform="translate(0 0)">
        <rect id="Rectangle_401104" data-name="Rectangle 401104" width="54.153" height="54.806" transform="translate(0)" fill="none"/>
      </g>
      <g id="g540" transform="translate(0.612 683.785)">
        <g id="g542" transform="translate(0 -682.665)">
          <g id="g544" clip-path="url(#clip-path-2)">
            <g id="g550" transform="translate(0 37.947)">
              <path id="path552" d="M.77-6.024h-10A.773.773,0,0,1-10-6.8v-2.43A.773.773,0,0,1-9.227-10a.773.773,0,0,1,.773.773V-7.57H.77a.773.773,0,0,1,.773.773A.773.773,0,0,1,.77-6.024Z" transform="translate(10 10)" fill="#0f654d"/>
            </g>
            <g id="g554" transform="translate(0 26.565)">
              <path id="path556" d="M-9.227-101.242a.773.773,0,0,1-.773-.773v-1.224a6.083,6.083,0,0,1,4.348-5.856L-.9-110.529a.773.773,0,0,1,.964.517.773.773,0,0,1-.517.964l-4.752,1.435a4.546,4.546,0,0,0-3.249,4.376v1.224A.773.773,0,0,1-9.227-101.242Z" transform="translate(10 110.562)" fill="#0f654d"/>
            </g>
            <g id="g558" transform="translate(12.826 26.565)">
              <path id="path560" d="M-2.6-6.006a.77.77,0,0,1-.5-.181A4.536,4.536,0,0,0-4.7-7.055L-9.453-8.489a.773.773,0,0,1-.517-.964.773.773,0,0,1,.964-.517l4.752,1.435A6.075,6.075,0,0,1-2.1-7.372.773.773,0,0,1-2-6.283.772.772,0,0,1-2.6-6.006Z" transform="translate(10.003 10.003)" fill="#0f654d"/>
            </g>
            <g id="g562" transform="translate(8.551 24.064)">
              <path id="path564" d="M-7.089-3.917A2.914,2.914,0,0,1-10-6.827V-9.32a.773.773,0,0,1,.773-.773.773.773,0,0,1,.773.773v2.493A1.366,1.366,0,0,0-7.089-5.463,1.366,1.366,0,0,0-5.725-6.827v-2.5a.773.773,0,0,1,.773-.773.773.773,0,0,1,.773.773v2.5A2.914,2.914,0,0,1-7.089-3.917Z" transform="translate(10 10.101)" fill="#0f654d"/>
            </g>
            <g id="g566" transform="translate(5.344 10.368)">
              <path id="path568" d="M-142.14-79.121A6.124,6.124,0,0,1-136.022-73v3.293a6.181,6.181,0,0,1-6.036,6.2h-.081a6.124,6.124,0,0,1-6.117-6.117V-73A6.124,6.124,0,0,1-142.14-79.121Zm0,14.06a4.641,4.641,0,0,0,4.571-4.65V-73a4.576,4.576,0,0,0-4.571-4.571A4.576,4.576,0,0,0-146.711-73v3.372A4.576,4.576,0,0,0-142.14-65.062Z" transform="translate(148.257 79.121)" fill="#0f654d"/>
            </g>
            <g id="g570" transform="translate(5.063 37.044)">
              <path id="path572" d="M-9.227-48.222A.773.773,0,0,1-10-48.995v-3.332a.773.773,0,0,1,.773-.773.773.773,0,0,1,.773.773v3.332A.773.773,0,0,1-9.227-48.222Z" transform="translate(10 53.1)" fill="#0f654d"/>
            </g>
            <g id="g574" transform="translate(41.233 37.932)">
              <path id="path576" d="M-128.537-6.01h-10a.773.773,0,0,1-.773-.773.773.773,0,0,1,.773-.773h9.223V-9.227a.773.773,0,0,1,.773-.773.773.773,0,0,1,.773.773v2.444A.773.773,0,0,1-128.537-6.01Z" transform="translate(139.306 10)" fill="#0f654d"/>
            </g>
            <g id="g578" transform="translate(42.679 26.565)">
              <path id="path580" d="M-.679-.7a.773.773,0,0,1-.773-.773V-2.679A4.546,4.546,0,0,0-4.7-7.055L-9.453-8.489a.773.773,0,0,1-.517-.964.773.773,0,0,1,.964-.517l4.752,1.435A6.083,6.083,0,0,1,.094-2.679V-1.47A.773.773,0,0,1-.679-.7Z" transform="translate(10.003 10.003)" fill="#0f654d"/>
            </g>
            <g id="g582" transform="translate(31.769 26.565)">
              <path id="path584" d="M-9.227-37.7a.771.771,0,0,1-.593-.276.773.773,0,0,1,.1-1.089A6.074,6.074,0,0,1-7.57-40.226l4.753-1.435a.773.773,0,0,1,.964.517.773.773,0,0,1-.517.964l-4.752,1.435a4.535,4.535,0,0,0-1.608.868A.77.77,0,0,1-9.227-37.7Z" transform="translate(10 41.695)" fill="#0f654d"/>
            </g>
            <g id="g586" transform="translate(38.403 24.064)">
              <path id="path588" d="M-62.393-3.917A2.914,2.914,0,0,1-65.3-6.827v-2.5a.773.773,0,0,1,.773-.773.773.773,0,0,1,.773.773v2.5a1.366,1.366,0,0,0,1.365,1.364,1.366,1.366,0,0,0,1.365-1.364V-9.32a.773.773,0,0,1,.773-.773.773.773,0,0,1,.773.773v2.493A2.914,2.914,0,0,1-62.393-3.917Z" transform="translate(65.304 10.101)" fill="#0f654d"/>
            </g>
            <g id="g590" transform="translate(35.197 10.368)">
              <path id="path592" d="M-3.883-79.121A6.124,6.124,0,0,1,2.235-73v3.372a6.124,6.124,0,0,1-6.117,6.117h-.081A6.181,6.181,0,0,1-10-69.712V-73A6.124,6.124,0,0,1-3.883-79.121Zm-.06,14.059a4.589,4.589,0,0,0,4.631-4.57V-73a4.576,4.576,0,0,0-4.571-4.571A4.576,4.576,0,0,0-8.454-73v3.293a4.629,4.629,0,0,0,4.51,4.65Z" transform="translate(10 79.121)" fill="#0f654d"/>
            </g>
            <g id="g594" transform="translate(46.166 37.044)">
              <path id="path596" d="M-9.227-48.222A.773.773,0,0,1-10-48.995v-3.332a.773.773,0,0,1,.773-.773.773.773,0,0,1,.773.773v3.332A.773.773,0,0,1-9.227-48.222Z" transform="translate(10 53.1)" fill="#0f654d"/>
            </g>
            <g id="g598" transform="translate(23.155 33.215)">
              <path id="path600" d="M-5.557-5.528H-7.982A.773.773,0,0,1-8.694-6L-9.941-8.926a.773.773,0,0,1,.408-1.014.773.773,0,0,1,1.014.408l1.047,2.458h1.4l1.047-2.458a.773.773,0,0,1,1.014-.408A.773.773,0,0,1-3.6-8.926L-4.845-6A.773.773,0,0,1-5.557-5.528Z" transform="translate(10.003 10.003)" fill="#0f654d"/>
            </g>
            <g id="g602" transform="translate(9.997 29.586)">
              <path id="path604" d="M-107.929-197.177h-8.27a.773.773,0,0,1-.773-.773v-8.742a7.005,7.005,0,0,1,5.344-6.818l4.08-1a.773.773,0,0,1,.935.566.773.773,0,0,1-.566.935l-4.08,1a5.463,5.463,0,0,0-4.167,5.316v7.969h7.5a.773.773,0,0,1,.773.773A.773.773,0,0,1-107.929-197.177Z" transform="translate(116.972 214.535)" fill="#0f654d"/>
            </g>
            <g id="g606" transform="translate(32.397 29.586)">
              <path id="path608" d="M-.393,7.356h-8.27a.773.773,0,0,1-.773-.773.773.773,0,0,1,.773-.773h7.5V-2.159A5.463,5.463,0,0,0-5.334-7.475l-4.08-1a.773.773,0,0,1-.566-.935.773.773,0,0,1,.935-.566l4.08,1A7.005,7.005,0,0,1,.38-2.159V6.583A.773.773,0,0,1-.393,7.356Z" transform="translate(10.002 10.002)" fill="#0f654d"/>
            </g>
            <g id="g610" transform="translate(22.283 23.22)">
              <path id="path612" d="M-9.227-5.226A.773.773,0,0,1-10-6V-9.227A.773.773,0,0,1-9.227-10a.773.773,0,0,1,.773.773V-6A.773.773,0,0,1-9.227-5.226Z" transform="translate(10 10)" fill="#0f654d"/>
            </g>
            <g id="g614" transform="translate(28.947 23.22)">
              <path id="path616" d="M-9.227-46.979A.773.773,0,0,1-10-47.752V-50.98a.773.773,0,0,1,.773-.773.773.773,0,0,1,.773.773v3.228A.773.773,0,0,1-9.227-46.979Z" transform="translate(10 51.753)" fill="#0f654d"/>
            </g>
            <g id="g618" transform="translate(19.367 10.095)">
              <path id="path620" d="M-9.229-69.409a.769.769,0,0,1-.413-.12A.773.773,0,0,1-9.881-70.6l.849-1.338a3.256,3.256,0,0,1,2.763-1.52H-3.9a4.249,4.249,0,0,0,3.36-1.664l.487-.64a.773.773,0,0,1,.774-.288.773.773,0,0,1,.593.575h0a3.183,3.183,0,0,0,.7,1.185,4.4,4.4,0,0,0,1.512.873A.774.774,0,0,1,4-72.431a.773.773,0,0,1-.981.48A5.884,5.884,0,0,1,.864-73.244,4.956,4.956,0,0,1,.4-73.836a5.809,5.809,0,0,1-4.3,1.927H-6.269a1.718,1.718,0,0,0-1.458.8l-.848,1.338A.773.773,0,0,1-9.229-69.409Z" transform="translate(10.001 76.063)" fill="#0f654d"/>
            </g>
            <g id="g622" transform="translate(16.035 0)">
              <path id="path624" d="M-237.893-179.954a.773.773,0,0,1-.773-.773v-4.79a8.816,8.816,0,0,0-8.806-8.806,8.816,8.816,0,0,0-8.806,8.806v4.79a.773.773,0,0,1-.773.773.773.773,0,0,1-.773-.773v-4.79a10.364,10.364,0,0,1,10.352-10.353,10.364,10.364,0,0,1,10.353,10.353v4.79A.773.773,0,0,1-237.893-179.954Z" transform="translate(257.825 195.869)" fill="#0f654d"/>
            </g>
            <g id="g626" transform="translate(31.862 12.703)">
              <path id="path628" d="M-7.561-68.106H-9.227A.773.773,0,0,1-10-68.879a.773.773,0,0,1,.773-.773h1.666a.894.894,0,0,0,.893-.893v-1.666a.894.894,0,0,0-.893-.893H-9.227A.773.773,0,0,1-10-73.877a.773.773,0,0,1,.773-.773h1.666a2.442,2.442,0,0,1,2.439,2.439v1.666A2.442,2.442,0,0,1-7.561-68.106Z" transform="translate(10 74.65)" fill="#0f654d"/>
            </g>
            <g id="g630" transform="translate(16.035 12.703)">
              <path id="path632" d="M-48.995-68.106h-1.666A2.442,2.442,0,0,1-53.1-70.545v-1.666a2.442,2.442,0,0,1,2.439-2.439h1.666a.773.773,0,0,1,.773.773.773.773,0,0,1-.773.773h-1.666a.894.894,0,0,0-.893.893v1.666a.894.894,0,0,0,.893.893h1.666a.773.773,0,0,1,.773.773A.773.773,0,0,1-48.995-68.106Z" transform="translate(53.1 74.65)" fill="#0f654d"/>
            </g>
            <g id="g634" transform="translate(19.367 12.703)">
              <path id="path636" d="M-2.98,3A7.028,7.028,0,0,1-10-4.021V-9.227A.773.773,0,0,1-9.227-10a.773.773,0,0,1,.773.773v5.206A5.481,5.481,0,0,0-2.98,1.454,5.481,5.481,0,0,0,2.495-4.021V-9.227A.773.773,0,0,1,3.268-10a.773.773,0,0,1,.773.773v5.206A7.029,7.029,0,0,1-2.98,3Z" transform="translate(10 10)" fill="#0f654d"/>
            </g>
            <g id="g638" transform="translate(18.832 26.448)">
              <path id="path640" d="M-50.41-10a.772.772,0,0,1,.312.066.773.773,0,0,1,.46.707v1.862l2.969,1.855a.773.773,0,0,1,.359.573.773.773,0,0,1-.229.636L-49.9-1.023a1.6,1.6,0,0,1-1.119.455,1.6,1.6,0,0,1-1.445-.9L-54.555-5.75a.773.773,0,0,1,.175-.911L-50.93-9.8A.773.773,0,0,1-50.41-10Zm2.087,5.28-2.5-1.56a.773.773,0,0,1-.363-.656v-.542l-1.729,1.572,1.833,3.758.1.017h0Z" transform="translate(54.634 10)" fill="#0f654d"/>
            </g>
            <g id="g642" transform="translate(25.615 26.448)">
              <path id="path644" d="M-49-10a.773.773,0,0,1,.52.2l3.451,3.139a.773.773,0,0,1,.175.911L-46.936-1.47a1.6,1.6,0,0,1-1.445.9A1.6,1.6,0,0,1-49.5-1.023L-52.866-4.3a.773.773,0,0,1-.229-.636.773.773,0,0,1,.359-.573l2.969-1.855V-9.227a.773.773,0,0,1,.46-.707A.772.772,0,0,1-49-10Zm2.5,4.094-1.729-1.572v.542a.773.773,0,0,1-.363.656l-2.5,1.56,2.66,2.589.1-.017Z" transform="translate(53.1 10)" fill="#0f654d"/>
            </g>
            <g id="g646" transform="translate(29.155 8.266)">
              <path id="path648" d="M-9.229-30.281a.769.769,0,0,1-.432-.133.773.773,0,0,1-.208-1.073l1.236-1.829a.773.773,0,0,1,1.073-.208.773.773,0,0,1,.208,1.073l-1.236,1.829A.772.772,0,0,1-9.229-30.281Z" transform="translate(10.001 33.656)" fill="#0f654d"/>
            </g>
            <g id="g650" transform="translate(36.34 41.392)">
              <path id="path652" d="M-9.227-56.265A.773.773,0,0,1-10-57.038V-60.37a.773.773,0,0,1,.226-.547l.674-.674a.773.773,0,0,1,1.093,0,.773.773,0,0,1,0,1.093l-.447.447v3.012A.773.773,0,0,1-9.227-56.265Z" transform="translate(10 61.817)" fill="#0f654d"/>
            </g>
            <g id="g654" transform="translate(14.216 41.392)">
              <path id="path656" d="M-17.27-56.265a.773.773,0,0,1-.773-.773V-60.05l-.447-.447a.773.773,0,0,1,0-1.093.773.773,0,0,1,1.093,0l.674.674a.773.773,0,0,1,.226.547v3.332A.773.773,0,0,1-17.27-56.265Z" transform="translate(18.717 61.817)" fill="#0f654d"/>
            </g>
            <g id="g658" transform="translate(18.072 36.143)">
              <path id="path660" d="M-178.7-34.274a8.326,8.326,0,0,1-8.316-8.316,8.326,8.326,0,0,1,8.316-8.316,8.358,8.358,0,0,1,3.781.906.773.773,0,0,1,.337,1.04.773.773,0,0,1-1.04.337,6.711,6.711,0,0,0-3.078-.737,6.778,6.778,0,0,0-6.77,6.77,6.778,6.778,0,0,0,6.77,6.77,6.778,6.778,0,0,0,6.77-6.77,6.723,6.723,0,0,0-1.258-3.931A.773.773,0,0,1-173-47.6a.773.773,0,0,1,1.078.18,8.261,8.261,0,0,1,1.546,4.83A8.326,8.326,0,0,1-178.7-34.274Z" transform="translate(187.013 50.907)" fill="#0f654d"/>
            </g>
            <g id="g662" transform="translate(21.401 39.327)">
              <path id="path664" d="M-53.278-96.014a1.576,1.576,0,0,1-.627-.13l-1.464-.631-1.492.631a1.576,1.576,0,0,1-.627.13,1.588,1.588,0,0,1-1.17-.519,1.561,1.561,0,0,1-.4-1.21l.148-1.587-1.061-1.224a1.568,1.568,0,0,1-.316-1.533,1.568,1.568,0,0,1,1.157-1.054l1.555-.35.836-1.387a1.568,1.568,0,0,1,1.36-.775,1.568,1.568,0,0,1,1.36.775l.813,1.371,1.578.366a1.568,1.568,0,0,1,1.157,1.054,1.568,1.568,0,0,1-.316,1.533l-1.053,1.2.139,1.614a1.561,1.561,0,0,1-.4,1.21A1.588,1.588,0,0,1-53.278-96.014Zm-2.1-2.311a1.572,1.572,0,0,1,.626.129l1.478.635a.043.043,0,0,0,.027-.015l-.141-1.612A1.588,1.588,0,0,1-53-100.378l1.053-1.2-1.574-.408a1.588,1.588,0,0,1-1.013-.736l-.813-1.371-.874,1.371a1.588,1.588,0,0,1-1.013.736l-1.555.35,1.034,1.255a1.588,1.588,0,0,1,.387,1.191l-.148,1.587,1.513-.6A1.571,1.571,0,0,1-55.383-98.325Z" transform="translate(60.37 105.653)" fill="#0f654d"/>
            </g>
          </g>
        </g>
      </g>
    </g>
  </g>
</svg>
