<svg xmlns="http://www.w3.org/2000/svg" xmlns:xlink="http://www.w3.org/1999/xlink" width="96" height="96" viewBox="0 0 96 96">
  <defs>
    <clipPath id="clip-path">
      <rect id="Rectangle_456267" data-name="Rectangle 456267" width="96" height="96" fill="none"/>
    </clipPath>
  </defs>
  <g id="img12" transform="translate(479.746 8495) rotate(180)">
    <path id="Path_999622" data-name="Path 999622" d="M43.07,0A43.07,43.07,0,1,1,0,43.07,43.071,43.071,0,0,1,43.07,0" transform="translate(388.676 8403.93)" fill="#e3fbf9"/>
    <g id="Group_1179902" data-name="Group 1179902" transform="translate(383.746 8399)">
      <g id="Group_1179905" data-name="Group 1179905" clip-path="url(#clip-path)">
        <path id="Path_999618" data-name="Path 999618" d="M48,0A48,48,0,1,1,0,48,48,48,0,0,1,48,0" fill="none"/>
        <path id="Path_999619" data-name="Path 999619" d="M3.75,59A3.75,3.75,0,1,1,0,62.75,3.75,3.75,0,0,1,3.75,59" transform="translate(0 -14.75)" fill="#0f654d"/>
        <path id="Path_999620" data-name="Path 999620" d="M19.75,19A3.75,3.75,0,1,1,16,22.75,3.75,3.75,0,0,1,19.75,19" transform="translate(-4 -4.75)" fill="#0f654d"/>
        <path id="Path_999621" data-name="Path 999621" d="M49,94A45.051,45.051,0,0,1,4,49H6.25A42.75,42.75,0,1,0,17.806,19.768l-1.641-1.539A45,45,0,1,1,49,94" transform="translate(-1 -1)" fill="#0f654d"/>
        <rect id="Rectangle_456268" data-name="Rectangle 456268" width="96" height="96" fill="none"/>
        <rect id="Rectangle_456269" data-name="Rectangle 456269" width="96" height="96" fill="none"/>
      </g>
    </g>
    <g id="Group_1179903" data-name="Group 1179903" transform="translate(458.745 8474.508) rotate(180)">
      <g id="Group_1099618" data-name="Group 1099618" transform="translate(-0.036 0.264)">
        <rect id="Rectangle_401104" data-name="Rectangle 401104" width="54.153" height="54.806" transform="translate(0)" fill="none"/>
      </g>
      <path id="estructura-de-datos" d="M38.284,79.372v17.47A1.66,1.66,0,0,1,36.628,98.5H8.659A1.66,1.66,0,0,1,7,96.842V60.135a1.66,1.66,0,0,1,1.659-1.659H32.3a1.6,1.6,0,0,1,1.17.486l4.33,4.33a1.6,1.6,0,0,1,.486,1.17V77.6h7.158V61.181a.885.885,0,0,1,.885-.885h6.247V58.526a2,2,0,0,1,2-2h5.309a2,2,0,0,1,2,2v5.309a2,2,0,0,1-2,2H54.577a2,2,0,0,1-2-2V62.066H47.212V77.6h5.361V75.832a2,2,0,0,1,2-2h5.309a2,2,0,0,1,2,2v5.309a2,2,0,0,1-2,2H54.577a2,2,0,0,1-2-2V79.372H47.212V94.908h5.361V93.139a2,2,0,0,1,2-2h5.309a2,2,0,0,1,2,2v5.309a2,2,0,0,1-2,2H54.577a2,2,0,0,1-2-2V96.679H46.327a.885.885,0,0,1-.885-.885V79.372ZM31.73,60.247H8.771V96.728H36.513V65.03H33a1.279,1.279,0,0,1-1.272-1.272Zm3.531,3.012L33.5,61.5v1.76Zm24.625-4.965H54.577a.232.232,0,0,0-.233.232v5.309a.233.233,0,0,0,.233.233h5.309a.232.232,0,0,0,.232-.233V58.526A.232.232,0,0,0,59.886,58.294Zm0,34.613H54.577a.233.233,0,0,0-.233.233v5.309a.232.232,0,0,0,.233.232h5.309a.232.232,0,0,0,.232-.232V93.139A.232.232,0,0,0,59.886,92.906Zm0-17.306H54.577a.232.232,0,0,0-.233.232v5.309a.232.232,0,0,0,.233.232h5.309a.232.232,0,0,0,.232-.232V75.832A.232.232,0,0,0,59.886,75.6ZM13.456,92.906a.885.885,0,1,1,0-1.771H31.828a.885.885,0,1,1,0,1.771Zm0-5.414a.885.885,0,1,1,0-1.771H31.828a.885.885,0,1,1,0,1.771Zm0-10.829a.885.885,0,0,1,0-1.771H31.828a.885.885,0,0,1,0,1.771Zm0-10.825a.885.885,0,0,1,0-1.771H26.642a.885.885,0,0,1,0,1.771Zm0,16.239a.885.885,0,1,1,0-1.771H31.828a.885.885,0,1,1,0,1.771Zm0-10.825a.885.885,0,1,1,0-1.771H31.828a.885.885,0,1,1,0,1.771Z" transform="translate(-7.036 -50.86)" fill="#0f654d" fill-rule="evenodd"/>
    </g>
  </g>
</svg>
