<svg xmlns="http://www.w3.org/2000/svg" xmlns:xlink="http://www.w3.org/1999/xlink" width="98" height="98" viewBox="0 0 98 98">
  <defs>
    <clipPath id="clip-path">
      <rect id="Rectangle_456312" data-name="Rectangle 456312" width="98" height="98" transform="translate(0.059 0.059)" fill="none"/>
    </clipPath>
  </defs>
  <g id="img19" transform="translate(-307.117 -10093.059)">
    <g id="Group_1179968" data-name="Group 1179968" transform="translate(307.059 10093)">
      <g id="Group_1179959" data-name="Group 1179959" clip-path="url(#clip-path)">
        <path id="Path_999654" data-name="Path 999654" d="M1.5,5.146H81.261A12.087,12.087,0,0,1,93.377,17.2V96.585H13.616A12.087,12.087,0,0,1,1.5,84.527Z" transform="translate(0.014 0.025)" fill="#fff"/>
      </g>
      <g id="Group_1179960" data-name="Group 1179960">
        <g id="Group_1179956" data-name="Group 1179956" clip-path="url(#clip-path)">
          <path id="Path_999651" data-name="Path 999651" d="M92.229,30a5.024,5.024,0,1,1-5.048,5.024A5.037,5.037,0,0,1,92.229,30" transform="translate(0.84 0.145)" fill="#19538d"/>
          <path id="Path_999652" data-name="Path 999652" d="M63.229,0a5.024,5.024,0,1,1-5.048,5.024A5.037,5.037,0,0,1,63.229,0" transform="translate(0.56 0)" fill="#19538d"/>
          <path id="Path_999653" data-name="Path 999653" d="M93.377,35.144V96.585H13.616A12.087,12.087,0,0,1,1.5,84.527V5.146H64.459" transform="translate(0.014 0.025)" fill="none" stroke="#19538d" stroke-miterlimit="10" stroke-width="3"/>
        </g>
      </g>
    </g>
    <g id="Group_1179969" data-name="Group 1179969" transform="translate(322.757 10111.315)">
      <rect id="Rectangle_456311" data-name="Rectangle 456311" width="64.131" height="64.594" transform="translate(0.07 0.049)" fill="#fff"/>
      <g id="equipo" transform="translate(1.067 1.048)">
        <path id="Path_1031573" data-name="Path 1031573" d="M57.2,53.715a6.176,6.176,0,0,0-3.531-10.273v-8.35a1.027,1.027,0,0,0-.3-.73l-4.156-4.156c.188-.357.387-.708.552-1.073a1.029,1.029,0,0,0-.235-1.178l-1.923-1.8a17.394,17.394,0,0,0,.522-1.953l2.581-.6a1.032,1.032,0,0,0,.793-.9c.068-.7.1-1.386.1-2.052s-.035-1.355-.1-2.052a1.032,1.032,0,0,0-.793-.9l-2.581-.6a17.453,17.453,0,0,0-.522-1.953l1.923-1.8a1.033,1.033,0,0,0,.235-1.178A20.64,20.64,0,0,0,47.709,8.6a1.027,1.027,0,0,0-1.138-.385l-2.5.76A17.458,17.458,0,0,0,42.63,7.538l.762-2.5A1.033,1.033,0,0,0,43.007,3.9a20.639,20.639,0,0,0-3.551-2.057,1.036,1.036,0,0,0-1.179.235L36.475,4a17.453,17.453,0,0,0-1.953-.524L33.92.9a1.031,1.031,0,0,0-.9-.793,20.537,20.537,0,0,0-4.1,0,1.032,1.032,0,0,0-.9.793l-.6,2.581A17.673,17.673,0,0,0,25.453,4l-1.8-1.923a1.039,1.039,0,0,0-1.179-.235A20.64,20.64,0,0,0,18.922,3.9a1.032,1.032,0,0,0-.385,1.138l.76,2.5a17.686,17.686,0,0,0-1.439,1.438l-2.5-.76a1.034,1.034,0,0,0-1.138.385,20.69,20.69,0,0,0-2.057,3.552A1.03,1.03,0,0,0,12.4,13.33l1.924,1.8a17.453,17.453,0,0,0-.524,1.953l-2.581.6a1.031,1.031,0,0,0-.792.9c-.069.7-.1,1.386-.1,2.052s.035,1.355.1,2.052a1.031,1.031,0,0,0,.792.9l2.582.6a17.452,17.452,0,0,0,.522,1.953l-1.923,1.8a1.034,1.034,0,0,0-.235,1.178c.165.365.364.718.552,1.073L8.564,34.363a1.024,1.024,0,0,0-.3.73v8.35A6.176,6.176,0,0,0,4.73,53.715,5.153,5.153,0,0,0,0,58.835V60.9a1.031,1.031,0,0,0,1.032,1.032H17.55A1.032,1.032,0,0,0,18.582,60.9v-2.06a5.155,5.155,0,0,0-4.726-5.12,6.176,6.176,0,0,0-3.531-10.273V35.52l3.48-3.48c.142.213.268.437.418.645a1.031,1.031,0,0,0,1.138.385l2.5-.76A17.539,17.539,0,0,0,19.3,33.748l-.761,2.5a1.033,1.033,0,0,0,.385,1.138,20.619,20.619,0,0,0,3.551,2.057,1.032,1.032,0,0,0,1.179-.235l1.8-1.924a17.441,17.441,0,0,0,1.952.523l.6,2.581a1.032,1.032,0,0,0,.9.793c.346.034.679.034,1.02.051v2.21a6.176,6.176,0,0,0-3.531,10.273,5.15,5.15,0,0,0-4.727,5.118V60.9a1.031,1.031,0,0,0,1.032,1.032H39.224A1.031,1.031,0,0,0,40.256,60.9v-2.06a5.155,5.155,0,0,0-4.726-5.12A6.176,6.176,0,0,0,32,43.442v-2.21c.341-.018.674-.018,1.019-.051a1.031,1.031,0,0,0,.9-.793l.6-2.581a17.565,17.565,0,0,0,1.953-.523l1.8,1.923a1.036,1.036,0,0,0,1.179.235,20.678,20.678,0,0,0,3.55-2.057,1.033,1.033,0,0,0,.385-1.138l-.761-2.5a17.46,17.46,0,0,0,1.439-1.439l2.5.761a1.035,1.035,0,0,0,1.138-.385c.149-.209.276-.433.418-.647l3.479,3.482v7.923a6.176,6.176,0,0,0-3.531,10.273,5.153,5.153,0,0,0-4.726,5.12V60.9a1.031,1.031,0,0,0,1.032,1.032H60.9A1.031,1.031,0,0,0,61.93,60.9v-2.06a5.153,5.153,0,0,0-4.726-5.12Zm-40.686,5.12v1.028H2.068V58.835a3.1,3.1,0,0,1,3.1-3.1h8.249a3.1,3.1,0,0,1,3.1,3.1Zm-3.1-9.293a4.128,4.128,0,1,1-4.128-4.128A4.133,4.133,0,0,1,13.421,49.542Zm24.77,9.293v1.028H23.742V58.835a3.1,3.1,0,0,1,3.1-3.1h8.249a3.1,3.1,0,0,1,3.1,3.1Zm-3.1-9.293a4.128,4.128,0,1,1-4.128-4.128A4.133,4.133,0,0,1,35.1,49.542ZM46.452,30.876l-2.427-.739a1.029,1.029,0,0,0-1.1.331A15.465,15.465,0,0,1,40.794,32.6a1.034,1.034,0,0,0-.332,1.1l.738,2.427a18.835,18.835,0,0,1-1.93,1.119l-1.746-1.865a1.029,1.029,0,0,0-1.116-.261,15.447,15.447,0,0,1-2.9.776,1.031,1.031,0,0,0-.838.783l-.584,2.505a17.95,17.95,0,0,1-2.234,0l-.584-2.505a1.032,1.032,0,0,0-.838-.783,15.386,15.386,0,0,1-2.9-.776,1.023,1.023,0,0,0-1.117.26l-1.747,1.865a18.613,18.613,0,0,1-1.93-1.118l.739-2.427a1.034,1.034,0,0,0-.331-1.1,15.437,15.437,0,0,1-2.135-2.136,1.03,1.03,0,0,0-1.1-.331l-2.427.738a18.788,18.788,0,0,1-1.119-1.93L16.229,27.2a1.031,1.031,0,0,0,.262-1.115,15.41,15.41,0,0,1-.777-2.9,1.03,1.03,0,0,0-.783-.838l-2.505-.585q-.037-.568-.037-1.116c0-.365.012-.738.035-1.117l2.505-.585a1.031,1.031,0,0,0,.783-.838,15.381,15.381,0,0,1,.776-2.9,1.031,1.031,0,0,0-.26-1.117L14.364,12.34a18.476,18.476,0,0,1,1.118-1.93l2.426.739a1.031,1.031,0,0,0,1.1-.332A15.489,15.489,0,0,1,21.14,8.682a1.033,1.033,0,0,0,.331-1.1l-.738-2.427a18.834,18.834,0,0,1,1.93-1.119L24.41,5.9a1.033,1.033,0,0,0,1.116.261,15.436,15.436,0,0,1,2.9-.776,1.032,1.032,0,0,0,.838-.783L29.849,2.1a17.95,17.95,0,0,1,2.234,0l.584,2.505a1.031,1.031,0,0,0,.838.783,15.4,15.4,0,0,1,2.9.776,1.027,1.027,0,0,0,1.117-.26l1.747-1.865A18.612,18.612,0,0,1,41.2,5.158L40.46,7.585a1.035,1.035,0,0,0,.332,1.1,15.465,15.465,0,0,1,2.135,2.136,1.029,1.029,0,0,0,1.1.331l2.427-.738a18.881,18.881,0,0,1,1.119,1.93L45.7,14.087a1.031,1.031,0,0,0-.261,1.116,15.4,15.4,0,0,1,.776,2.9,1.031,1.031,0,0,0,.784.838l2.5.585c.025.378.037.751.037,1.117s-.013.738-.035,1.116l-2.5.585a1.031,1.031,0,0,0-.784.838,15.429,15.429,0,0,1-.776,2.9,1.031,1.031,0,0,0,.261,1.115l1.865,1.747a18.667,18.667,0,0,1-1.119,1.931Zm6.189,14.538a4.128,4.128,0,1,1-4.128,4.128A4.132,4.132,0,0,1,52.641,45.414Zm7.225,14.449H45.416V58.835a3.1,3.1,0,0,1,3.1-3.1h8.249a3.1,3.1,0,0,1,3.1,3.1Zm0,0" transform="translate(0 0)" fill="#19538d"/>
        <path id="Path_1031574" data-name="Path 1031574" d="M149.421,56.008a13.417,13.417,0,1,0,13.417,13.417A13.432,13.432,0,0,0,149.421,56.008Zm-7.174,22.206a5.163,5.163,0,0,1,5.11-4.661h4.128a5.162,5.162,0,0,1,5.11,4.661,11.318,11.318,0,0,1-14.348,0Zm7.174-6.725a4.128,4.128,0,1,1,4.128-4.128A4.133,4.133,0,0,1,149.421,71.489Zm8.913,4.946a7.279,7.279,0,0,0-4.646-4.6,6.193,6.193,0,1,0-8.532,0,7.279,7.279,0,0,0-4.646,4.6,11.352,11.352,0,1,1,17.825,0Zm0,0" transform="translate(-118.454 -48.782)" fill="#19538d"/>
        <path id="Path_1031575" data-name="Path 1031575" d="M432,152.008h2.064v2.064H432Zm0,0" transform="translate(-376.267 -132.397)" fill="#19538d"/>
        <path id="Path_1031576" data-name="Path 1031576" d="M464,152.008h2.064v2.064H464Zm0,0" transform="translate(-404.139 -132.397)" fill="#19538d"/>
        <path id="Path_1031577" data-name="Path 1031577" d="M464,184.008h2.064v2.064H464Zm0,0" transform="translate(-404.139 -160.268)" fill="#19538d"/>
        <path id="Path_1031578" data-name="Path 1031578" d="M464,120.008h2.064v2.064H464Zm0,0" transform="translate(-404.139 -104.525)" fill="#19538d"/>
        <path id="Path_1031579" data-name="Path 1031579" d="M0,152.008H2.068v2.064H0Zm0,0" transform="translate(0 -132.397)" fill="#19538d"/>
        <path id="Path_1031580" data-name="Path 1031580" d="M0,184.008H2.068v2.064H0Zm0,0" transform="translate(0 -160.268)" fill="#19538d"/>
        <path id="Path_1031581" data-name="Path 1031581" d="M0,120.008H2.068v2.064H0Zm0,0" transform="translate(0 -104.525)" fill="#19538d"/>
        <path id="Path_1031582" data-name="Path 1031582" d="M32,152.008h2.064v2.064H32Zm0,0" transform="translate(-27.872 -132.397)" fill="#19538d"/>
      </g>
    </g>
  </g>
</svg>
