<svg xmlns="http://www.w3.org/2000/svg" xmlns:xlink="http://www.w3.org/1999/xlink" width="96" height="96" viewBox="0 0 96 96">
  <defs>
    <clipPath id="clip-path">
      <rect id="Rectangle_456267" data-name="Rectangle 456267" width="96" height="96" fill="none"/>
    </clipPath>
  </defs>
  <g id="img15" transform="translate(479.746 8495) rotate(180)">
    <path id="Path_999622" data-name="Path 999622" d="M43.07,0A43.07,43.07,0,1,1,0,43.07,43.071,43.071,0,0,1,43.07,0" transform="translate(388.676 8403.93)" fill="#e3fbf9"/>
    <g id="Group_1179902" data-name="Group 1179902" transform="translate(383.746 8399)">
      <g id="Group_1179905" data-name="Group 1179905" clip-path="url(#clip-path)">
        <path id="Path_999618" data-name="Path 999618" d="M48,0A48,48,0,1,1,0,48,48,48,0,0,1,48,0" fill="none"/>
        <path id="Path_999619" data-name="Path 999619" d="M3.75,59A3.75,3.75,0,1,1,0,62.75,3.75,3.75,0,0,1,3.75,59" transform="translate(0 -14.75)" fill="#0f654d"/>
        <path id="Path_999620" data-name="Path 999620" d="M19.75,19A3.75,3.75,0,1,1,16,22.75,3.75,3.75,0,0,1,19.75,19" transform="translate(-4 -4.75)" fill="#0f654d"/>
        <path id="Path_999621" data-name="Path 999621" d="M49,94A45.051,45.051,0,0,1,4,49H6.25A42.75,42.75,0,1,0,17.806,19.768l-1.641-1.539A45,45,0,1,1,49,94" transform="translate(-1 -1)" fill="#0f654d"/>
        <rect id="Rectangle_456268" data-name="Rectangle 456268" width="96" height="96" fill="none"/>
        <rect id="Rectangle_456269" data-name="Rectangle 456269" width="96" height="96" fill="none"/>
      </g>
    </g>
    <g id="Group_1179903" data-name="Group 1179903" transform="translate(458.745 8474.508) rotate(180)">
      <g id="Group_1099618" data-name="Group 1099618" transform="translate(0 0)">
        <rect id="Rectangle_401104" data-name="Rectangle 401104" width="54.153" height="54.806" transform="translate(0)" fill="none"/>
      </g>
      <g id="administrar_1_" data-name="administrar (1)" transform="translate(0 2.959)">
        <path id="Path_1032942" data-name="Path 1032942" d="M39.779,72.259a.878.878,0,0,1-.863-.723l-.827-4.6a.879.879,0,0,1,.718-1.022l4.749-.8a.878.878,0,0,1,1.011.711l.827,4.6a.878.878,0,0,1-.718,1.021l-4.75.8a.856.856,0,0,1-.147.012Zm.2-4.761.516,2.872,3.018-.509-.516-2.872Zm0,0" transform="translate(-33.894 -57.845)" fill="#0f654d"/>
        <path id="Path_1032943" data-name="Path 1032943" d="M62.3,142.372l6.926-1.2.3,1.731L62.6,144.1Zm0,0" transform="translate(-55.464 -125.568)" fill="#0f654d"/>
        <path id="Path_1032944" data-name="Path 1032944" d="M4.556,38.742a.878.878,0,0,1-.863-.724L.014,17.452a.878.878,0,0,1,.769-1.028L13.82,14.99a.878.878,0,0,1,.974.873v22a.878.878,0,1,1-1.757,0V16.844L1.909,18.067,5.422,37.71a.879.879,0,0,1-.71,1.019.915.915,0,0,1-.156.013Zm0,0" transform="translate(0 -13.232)" fill="#0f654d"/>
        <path id="Path_1032945" data-name="Path 1032945" d="M393.1,70.93a.861.861,0,0,1-.151-.013l-4.959-.856a.879.879,0,0,1-.715-1.018l.863-4.919a.877.877,0,0,1,1.015-.714l4.959.856a.879.879,0,0,1,.715,1.018l-.863,4.918A.879.879,0,0,1,393.1,70.93Zm-3.942-2.451,3.228.558.56-3.189-3.228-.558Zm0,0" transform="translate(-344.743 -56.33)" fill="#0f654d"/>
        <path id="Path_1032946" data-name="Path 1032946" d="M365.129,142.914l.3-1.731,6.926,1.2-.3,1.731Zm0,0" transform="translate(-325.041 -125.575)" fill="#0f654d"/>
        <path id="Path_1032947" data-name="Path 1032947" d="M374.108,31.88a.848.848,0,0,1-.153-.014.878.878,0,0,1-.713-1.016l2.667-15.193-10.57-.941V31a.878.878,0,1,1-1.757,0V13.756a.878.878,0,0,1,.956-.875l12.479,1.111a.879.879,0,0,1,.787,1.027l-2.832,16.134a.878.878,0,0,1-.864.727Zm0,0" transform="translate(-323.664 -11.356)" fill="#0f654d"/>
        <path id="Path_1032948" data-name="Path 1032948" d="M163.448,45.769h-9.7a.878.878,0,0,1-.878-.878V35.265a.879.879,0,0,1,.878-.878h9.7a.879.879,0,0,1,.878.878V44.89A.878.878,0,0,1,163.448,45.769Zm-8.824-1.757h7.946V36.144h-7.946Zm0,0" transform="translate(-136.084 -30.504)" fill="#0f654d"/>
        <path id="Path_1032949" data-name="Path 1032949" d="M287.773,50.934h6.453V52.69h-6.453Zm0,0" transform="translate(-256.178 -45.234)" fill="#0f654d"/>
        <path id="Path_1032950" data-name="Path 1032950" d="M287.773,93.988h6.453v1.757h-6.453Zm0,0" transform="translate(-256.178 -83.562)" fill="#0f654d"/>
        <path id="Path_1032951" data-name="Path 1032951" d="M157.16,167.473h10.677v1.757H157.16Zm0,0" transform="translate(-139.905 -148.978)" fill="#0f654d"/>
        <path id="Path_1032952" data-name="Path 1032952" d="M119.628,25.51a.878.878,0,0,1-.878-.878V1a.878.878,0,0,1,.878-.878h26.88a.879.879,0,0,1,.878.878V19.645a.878.878,0,0,1-1.757,0V1.878H120.507V24.632A.878.878,0,0,1,119.628,25.51Zm0,0" transform="translate(-105.712 0)" fill="#0f654d"/>
        <path id="Path_1032953" data-name="Path 1032953" d="M67.477,200.5H23.322a1.436,1.436,0,0,1-1.435-1.35L20.276,176.47a1.434,1.434,0,0,1,1.434-1.527H45.054l4.42-4.143a3.109,3.109,0,0,1,2.135-.843H69.1a1.434,1.434,0,0,1,1.435,1.5l-1.621,27.683a1.432,1.432,0,0,1-1.435,1.353Zm-.319-1.455v.006Zm-43.519-.016v.008S23.639,199.029,23.639,199.026Zm-.021-.286H67.176l1.583-27.027H51.609a1.358,1.358,0,0,0-.934.368L45.749,176.7h-23.7Zm0,0" transform="translate(-18.048 -151.189)" fill="#0f654d"/>
        <path id="Path_1032954" data-name="Path 1032954" d="M177.522,295.725H161.638a1.155,1.155,0,0,1-1.118-1.131l-.439-6.622a1.289,1.289,0,0,1,.33-.965,1.072,1.072,0,0,1,.787-.347h16.763a1.07,1.07,0,0,1,.787.347,1.288,1.288,0,0,1,.331.965l-.44,6.622a1.154,1.154,0,0,1-1.118,1.131Zm-15.283-1.757h14.682l.369-5.553H161.87Zm0,0" transform="translate(-142.503 -255.079)" fill="#0f654d"/>
        <path id="Path_1032955" data-name="Path 1032955" d="M198.953,319.949h10.468v1.757H198.953Zm0,0" transform="translate(-177.11 -284.714)" fill="#0f654d"/>
      </g>
    </g>
  </g>
</svg>
