<svg xmlns="http://www.w3.org/2000/svg" xmlns:xlink="http://www.w3.org/1999/xlink" width="96" height="96" viewBox="0 0 96 96">
  <defs>
    <clipPath id="clip-path">
      <rect id="Rectangle_456267" data-name="Rectangle 456267" width="96" height="96" fill="none"/>
    </clipPath>
  </defs>
  <g id="img14" transform="translate(479.746 8495) rotate(180)">
    <path id="Path_999622" data-name="Path 999622" d="M43.07,0A43.07,43.07,0,1,1,0,43.07,43.071,43.071,0,0,1,43.07,0" transform="translate(388.676 8403.93)" fill="#e3fbf9"/>
    <g id="Group_1179902" data-name="Group 1179902" transform="translate(383.746 8399)">
      <g id="Group_1179905" data-name="Group 1179905" clip-path="url(#clip-path)">
        <path id="Path_999618" data-name="Path 999618" d="M48,0A48,48,0,1,1,0,48,48,48,0,0,1,48,0" fill="none"/>
        <path id="Path_999619" data-name="Path 999619" d="M3.75,59A3.75,3.75,0,1,1,0,62.75,3.75,3.75,0,0,1,3.75,59" transform="translate(0 -14.75)" fill="#0f654d"/>
        <path id="Path_999620" data-name="Path 999620" d="M19.75,19A3.75,3.75,0,1,1,16,22.75,3.75,3.75,0,0,1,19.75,19" transform="translate(-4 -4.75)" fill="#0f654d"/>
        <path id="Path_999621" data-name="Path 999621" d="M49,94A45.051,45.051,0,0,1,4,49H6.25A42.75,42.75,0,1,0,17.806,19.768l-1.641-1.539A45,45,0,1,1,49,94" transform="translate(-1 -1)" fill="#0f654d"/>
        <rect id="Rectangle_456268" data-name="Rectangle 456268" width="96" height="96" fill="none"/>
        <rect id="Rectangle_456269" data-name="Rectangle 456269" width="96" height="96" fill="none"/>
      </g>
    </g>
    <g id="Group_1179903" data-name="Group 1179903" transform="translate(458.745 8474.508) rotate(180)">
      <g id="Group_1099618" data-name="Group 1099618" transform="translate(0 0)">
        <rect id="Rectangle_401104" data-name="Rectangle 401104" width="54.153" height="54.806" transform="translate(0)" fill="none"/>
      </g>
      <path id="cuestionario" d="M91.011,11.478h8.173a3.23,3.23,0,0,1,3.227,3.223V57.952a3.23,3.23,0,0,1-3.227,3.223H62.989a3.23,3.23,0,0,1-3.227-3.223V14.7a3.23,3.23,0,0,1,3.227-3.223h8.173v-.546a.874.874,0,0,1,.874-.874h4.529a4.871,4.871,0,0,1,9.043,0h4.529a.874.874,0,0,1,.874.874ZM71.162,13.226H62.989A1.48,1.48,0,0,0,61.51,14.7V57.952a1.48,1.48,0,0,0,1.48,1.475H99.184a1.48,1.48,0,0,0,1.48-1.475V14.7a1.48,1.48,0,0,0-1.48-1.475H91.011v1.522h7.256a.874.874,0,0,1,.874.874V57.031a.874.874,0,0,1-.874.874H63.906a.874.874,0,0,1-.874-.874V15.622a.874.874,0,0,1,.874-.874h7.256ZM91.011,16.5v.546a.874.874,0,0,1-.874.874h-18.1a.874.874,0,0,1-.874-.874V16.5H64.78V56.157H97.394V16.5Zm-18.1-4.689v4.361H89.264V11.806H84.972a.874.874,0,0,1-.85-.67,3.123,3.123,0,0,0-6.072,0,.874.874,0,0,1-.85.67Zm8.177.4a1.058,1.058,0,1,1,1.056-1.056A1.057,1.057,0,0,1,81.087,12.208Zm-1.815,21.1a.874.874,0,1,1,0-1.748H93.94a.874.874,0,1,1,0,1.748ZM69.509,49.053a.874.874,0,1,1,0-1.748h22.9a.874.874,0,0,1,0,1.748Zm.481-4.258a.874.874,0,1,1,0-1.748H92.41a.874.874,0,0,1,0,1.748Zm.432-17.38a1.094,1.094,0,1,1-2.188,0,3.787,3.787,0,1,1,5.4,3.426.881.881,0,0,0-.382.33.908.908,0,0,0-.134.487v.54a1.094,1.094,0,0,1-2.188,0v-.54A3.1,3.1,0,0,1,71.4,30a3.053,3.053,0,0,1,1.3-1.132,1.622,1.622,0,0,0,.671-.6,1.6,1.6,0,1,0-2.95-.855Zm1.6,7.377a1.093,1.093,0,1,1-1.094,1.092A1.094,1.094,0,0,1,72.019,34.792Zm7.252-5.744a.874.874,0,1,1,0-1.748H93.94a.874.874,0,1,1,0,1.748Z" transform="translate(-53.763 -6.492)" fill="#0f654d" fill-rule="evenodd"/>
    </g>
  </g>
</svg>
