<svg xmlns="http://www.w3.org/2000/svg" xmlns:xlink="http://www.w3.org/1999/xlink" width="96" height="96" viewBox="0 0 96 96">
  <defs>
    <clipPath id="clip-path">
      <rect id="Rectangle_456267" data-name="Rectangle 456267" width="96" height="96" fill="none"/>
    </clipPath>
  </defs>
  <g id="img18" transform="translate(-2650.793 3127.756)">
    <g id="Group_1188942" data-name="Group 1188942" transform="translate(3130.539 5367.244) rotate(180)">
      <path id="Path_999622" data-name="Path 999622" d="M43.07,0A43.07,43.07,0,1,1,0,43.07,43.071,43.071,0,0,1,43.07,0" transform="translate(388.676 8403.93)" fill="#e3fbf9"/>
      <g id="Group_1179902" data-name="Group 1179902" transform="translate(383.746 8399)">
        <g id="Group_1179905" data-name="Group 1179905" clip-path="url(#clip-path)">
          <path id="Path_999618" data-name="Path 999618" d="M48,0A48,48,0,1,1,0,48,48,48,0,0,1,48,0" fill="none"/>
          <path id="Path_999619" data-name="Path 999619" d="M3.75,59A3.75,3.75,0,1,1,0,62.75,3.75,3.75,0,0,1,3.75,59" transform="translate(0 -14.75)" fill="#0f654d"/>
          <path id="Path_999620" data-name="Path 999620" d="M19.75,19A3.75,3.75,0,1,1,16,22.75,3.75,3.75,0,0,1,19.75,19" transform="translate(-4 -4.75)" fill="#0f654d"/>
          <path id="Path_999621" data-name="Path 999621" d="M49,94A45.051,45.051,0,0,1,4,49H6.25A42.75,42.75,0,1,0,17.806,19.768l-1.641-1.539A45,45,0,1,1,49,94" transform="translate(-1 -1)" fill="#0f654d"/>
          <rect id="Rectangle_456268" data-name="Rectangle 456268" width="96" height="96" fill="none"/>
          <rect id="Rectangle_456269" data-name="Rectangle 456269" width="96" height="96" fill="none"/>
        </g>
      </g>
      <g id="Group_1179903" data-name="Group 1179903" transform="translate(458.745 8474.508) rotate(180)">
        <g id="Group_1099618" data-name="Group 1099618" transform="translate(0 0)">
          <rect id="Rectangle_401104" data-name="Rectangle 401104" width="54.153" height="54.806" transform="translate(0)" fill="none"/>
        </g>
      </g>
    </g>
    <g id="ingeniero-de-software" transform="translate(2675.129 -3116.329)">
      <g id="Group_1189145" data-name="Group 1189145" transform="translate(-1.464 8.306)">
        <path id="Path_1032962" data-name="Path 1032962" d="M136.567,167.109a3.284,3.284,0,0,1,2.3,0v.462A2.533,2.533,0,0,0,141.4,170.1H143a2.533,2.533,0,0,0,2.533-2.528v-1.883A2.533,2.533,0,0,0,143,163.159h-1.6a2.535,2.535,0,0,0-2.52,2.277,4.8,4.8,0,0,0-2.328,0,2.534,2.534,0,0,0-2.52-2.277h-1.6a2.533,2.533,0,0,0-2.533,2.528v1.883a2.533,2.533,0,0,0,2.533,2.528h1.6a2.533,2.533,0,0,0,2.533-2.528Zm3.911-1.422a.924.924,0,0,1,.925-.92H143a.924.924,0,0,1,.925.92v1.883a.924.924,0,0,1-.925.92h-1.6a.924.924,0,0,1-.925-.92Zm-5.519,1.883a.924.924,0,0,1-.925.92h-1.6a.924.924,0,0,1-.925-.92v-1.883a.924.924,0,0,1,.925-.92h1.6a.924.924,0,0,1,.925.92Z" transform="translate(-115.983 -146.94)" fill="#0f654d"/>
        <path id="Path_1032963" data-name="Path 1032963" d="M175.462,327.077a3.277,3.277,0,1,0,3.283,3.277A3.284,3.284,0,0,0,175.462,327.077Zm0,4.947a1.669,1.669,0,1,1,1.676-1.669A1.674,1.674,0,0,1,175.462,332.024Z" transform="translate(-153.726 -293.292)" fill="#0f654d"/>
        <path id="Path_1032964" data-name="Path 1032964" d="M147.409,294.107l-.322-.186a6.55,6.55,0,0,0,0-1.861l.324-.187a1.332,1.332,0,0,0,.486-1.811l-1.107-1.908a1.329,1.329,0,0,0-1.81-.482l-.324.187a6.587,6.587,0,0,0-1.619-.933v-.37a1.329,1.329,0,0,0-1.328-1.327H139.5a1.329,1.329,0,0,0-1.328,1.327v.37a6.615,6.615,0,0,0-1.618.933l-.323-.186a1.329,1.329,0,0,0-1.813.483l-1.1,1.906a1.326,1.326,0,0,0,.484,1.813l.322.186a6.55,6.55,0,0,0,0,1.861l-.324.187a1.327,1.327,0,0,0-.483,1.811l1.1,1.906a1.327,1.327,0,0,0,1.812.489l.326-.187a6.65,6.65,0,0,0,1.617.933v.371a1.329,1.329,0,0,0,1.328,1.327h2.207a1.329,1.329,0,0,0,1.328-1.327v-.37a6.616,6.616,0,0,0,1.618-.933l.324.186a1.327,1.327,0,0,0,1.813-.486l1.1-1.906a1.327,1.327,0,0,0-.484-1.814Zm-2-2.269a4.927,4.927,0,0,1,0,2.306.8.8,0,0,0,.381.886l.572.329-.822,1.421-.575-.331a.8.8,0,0,0-.953.113,4.979,4.979,0,0,1-2,1.155.8.8,0,0,0-.577.771v.66h-1.647v-.66a.8.8,0,0,0-.577-.771,5.009,5.009,0,0,1-2.006-1.156.8.8,0,0,0-.952-.112l-.575.331-.822-1.421.572-.329a.8.8,0,0,0,.381-.886,4.927,4.927,0,0,1,0-2.306.8.8,0,0,0-.38-.886l-.572-.329.821-1.419.577.332a.8.8,0,0,0,.953-.113,4.978,4.978,0,0,1,2-1.155.8.8,0,0,0,.577-.771v-.66h1.647v.66a.8.8,0,0,0,.577.771,4.948,4.948,0,0,1,2,1.154.8.8,0,0,0,.955.114l.577-.332.822,1.418-.574.33A.8.8,0,0,0,145.408,291.838Z" transform="translate(-118.87 -255.929)" fill="#0f654d"/>
        <path id="Path_1032965" data-name="Path 1032965" d="M53.175,39.875A10.975,10.975,0,0,0,35.528,38.7a2.427,2.427,0,0,0-1.689-.682H32.8a13.876,13.876,0,0,0,.971-1.964,4.548,4.548,0,0,0,3.825-2.037,4.069,4.069,0,0,0,.245-4.092,3.714,3.714,0,0,0-3.2-1.873l.448-3.107a10.231,10.231,0,0,0-2.294-8.279,13.968,13.968,0,0,0-7.011-4.285,14.318,14.318,0,0,0-7.571-.1A7.707,7.707,0,0,0,13.114,16.3c-3.762,1.153-5.507,4.287-4.8,8.659h0l.5,3.094a3.711,3.711,0,0,0-3.184,1.873,4.068,4.068,0,0,0,.245,4.091A4.547,4.547,0,0,0,9.7,36.052a13.881,13.881,0,0,0,.971,1.964H9.631A2.429,2.429,0,0,0,7.2,40.441V48.4l-1.746.615C.566,50.728,0,54.842,0,57.787v4.925a1.444,1.444,0,0,0,1.442,1.443H42.029a1.445,1.445,0,0,0,1.444-1.443V57.787c0-.4-.011-.78-.034-1.142l.067,0q.214.008.428.008a10.912,10.912,0,0,0,5.853-1.7.8.8,0,0,0-.859-1.359,9.327,9.327,0,0,1-10.484-.315.8.8,0,0,0-.432-.151l-5.4-.255L34.685,47.9a.8.8,0,0,0,.048-.457,9.268,9.268,0,0,1,4.185-9.591,9.336,9.336,0,0,1,12.465,13.5.8.8,0,0,0,1.282.971,10.958,10.958,0,0,0,.51-12.445ZM34.511,32.462V29.653a2.159,2.159,0,0,1,1.912,1.04,2.445,2.445,0,0,1-.184,2.45,2.836,2.836,0,0,1-1.956,1.249,8.8,8.8,0,0,0,.228-1.931Zm-27.28.682a2.444,2.444,0,0,1-.184-2.45,2.16,2.16,0,0,1,1.912-1.041v2.809a8.8,8.8,0,0,0,.228,1.931A2.835,2.835,0,0,1,7.231,33.143ZM9.9,24.7c-.42-2.584-.067-5.888,4-6.953a.8.8,0,0,0,.54-.473c1.529-3.732,6.648-4.506,10.915-3.343,4.3,1.174,9.018,4.7,8.137,10.783l-.255,1.765c-1.229-1.749-2.356-2.113-4.9-2.118H15.061c-2.549.005-3.627.353-4.862,2.156Zm-5,35.029v1.214a3.188,3.188,0,0,0,.433,1.605H1.608v-4.76c0-4.01,1.311-6.181,4.383-7.261L7.2,50.1v8.042h-.71A1.59,1.59,0,0,0,4.9,59.728Zm32.055,1.214a1.61,1.61,0,0,1-1.611,1.605H8.123a1.61,1.61,0,0,1-1.611-1.605V59.75H36.959ZM36.27,54.66l1.432.068a10.935,10.935,0,0,0,4.11,1.724c.035.415.053.856.053,1.336v4.76H38.134a3.188,3.188,0,0,0,.433-1.605V59.729a1.589,1.589,0,0,0-1.589-1.587H36.27ZM33.843,41.441a10.9,10.9,0,0,0-.732,6.058l-2.426,5.817a.8.8,0,0,0,.7,1.113l3.273.154v3.558H8.811v-17.7a.819.819,0,0,1,.82-.817h9.833a.8.8,0,1,0,0-1.608h-6.88a10.294,10.294,0,0,1-2.018-5.555V29.044c1.59-2.952,2.012-3.071,4.5-3.076H28.333c2.466.005,2.962.095,4.571,3.077v3.417a10.293,10.293,0,0,1-2.018,5.555h-7.68a.8.8,0,0,0,0,1.608H33.839a.833.833,0,0,1,.719.425,10.95,10.95,0,0,0-.715,1.391Z" transform="translate(0 -11.819)" fill="#0f654d"/>
      </g>
    </g>
  </g>
</svg>
