<svg xmlns="http://www.w3.org/2000/svg" xmlns:xlink="http://www.w3.org/1999/xlink" width="1020" height="380" viewBox="0 0 1020 380">
  <defs>
    <clipPath id="clip-path">
      <rect id="Rectangle_459443" data-name="Rectangle 459443" width="123" height="159" transform="translate(289.711 1648)" fill="#ccf7f4"/>
    </clipPath>
  </defs>
  <g id="img19" transform="translate(-289.711 -9295)">
    <rect id="Rectangle_459396" data-name="Rectangle 459396" width="1020" height="380" transform="translate(289.711 9295)" fill="#f2f9fd"/>
    <path id="Rectangle_459402" data-name="Rectangle 459402" d="M14,0H215.138a14,14,0,0,1,14,14V59.8a0,0,0,0,1,0,0H0a0,0,0,0,1,0,0V14A14,14,0,0,1,14,0Z" transform="translate(393.711 9383.2)" fill="#19538d"/>
    <path id="Rectangle_459417" data-name="Rectangle 459417" d="M14,0H215.138a14,14,0,0,1,14,14V59.8a0,0,0,0,1,0,0H0a0,0,0,0,1,0,0V14A14,14,0,0,1,14,0Z" transform="translate(684.862 9383.2)" fill="#19538d"/>
    <path id="Rectangle_459419" data-name="Rectangle 459419" d="M14,0H215.138a14,14,0,0,1,14,14V59.8a0,0,0,0,1,0,0H0a0,0,0,0,1,0,0V14A14,14,0,0,1,14,0Z" transform="translate(976.862 9383)" fill="#19538d"/>
    <path id="Path_1033356" data-name="Path 1033356" d="M10.279,13.9V18H7.366V5.914h4.823a5.617,5.617,0,0,1,2.453.51,3.847,3.847,0,0,1,1.652,1.453,3.967,3.967,0,0,1,.585,2.137,3.5,3.5,0,0,1-1.266,2.826A5.252,5.252,0,0,1,12.139,13.9Zm0-2.25h1.909a1.8,1.8,0,0,0,1.291-.423,1.573,1.573,0,0,0,.444-1.2,1.944,1.944,0,0,0-.457-1.353,1.617,1.617,0,0,0-1.245-.515H10.279ZM21.3,18H18.49V9.019H21.3ZM18.324,6.7a1.249,1.249,0,0,1,.432-.979,1.835,1.835,0,0,1,2.241,0,1.249,1.249,0,0,1,.432.979A1.249,1.249,0,0,1,21,7.682a1.835,1.835,0,0,1-2.241,0A1.249,1.249,0,0,1,18.324,6.7Zm8.036,9.139h4.092V18H22.824V16.439l3.984-5.263H23V9.019h7.363v1.511ZM36.911,18a3.158,3.158,0,0,1-.266-.805,2.6,2.6,0,0,1-2.158.971,3.187,3.187,0,0,1-2.158-.768,2.444,2.444,0,0,1-.888-1.93A2.512,2.512,0,0,1,32.52,13.26a5.5,5.5,0,0,1,3.138-.747h.863v-.475q0-1.243-1.071-1.243a.875.875,0,0,0-1,.984h-2.8a2.508,2.508,0,0,1,1.108-2.114,4.657,4.657,0,0,1,2.826-.813,4.083,4.083,0,0,1,2.714.838,2.915,2.915,0,0,1,1.021,2.3v3.976a4.072,4.072,0,0,0,.382,1.893V18ZM35.16,16.174a1.56,1.56,0,0,0,.867-.224,1.4,1.4,0,0,0,.494-.506V14.007h-.813q-1.461,0-1.461,1.312a.8.8,0,0,0,.257.618A.931.931,0,0,0,35.16,16.174ZM46.35,11.55l-.921-.066a1.655,1.655,0,0,0-1.693.83V18h-2.8V9.019h2.623l.091,1.154a2.166,2.166,0,0,1,1.967-1.32,2.728,2.728,0,0,1,.78.1Zm6.484,0-.921-.066a1.655,1.655,0,0,0-1.693.83V18h-2.8V9.019h2.623l.091,1.154A2.166,2.166,0,0,1,52.1,8.853a2.728,2.728,0,0,1,.78.1ZM58.7,18a3.158,3.158,0,0,1-.266-.805,2.6,2.6,0,0,1-2.158.971,3.187,3.187,0,0,1-2.158-.768,2.444,2.444,0,0,1-.888-1.93A2.512,2.512,0,0,1,54.3,13.26a5.5,5.5,0,0,1,3.138-.747h.863v-.475q0-1.243-1.071-1.243a.875.875,0,0,0-1,.984h-2.8a2.508,2.508,0,0,1,1.108-2.114,4.657,4.657,0,0,1,2.826-.813,4.083,4.083,0,0,1,2.714.838,2.915,2.915,0,0,1,1.021,2.3v3.976a4.072,4.072,0,0,0,.382,1.893V18Zm-1.751-1.826a1.56,1.56,0,0,0,.867-.224,1.4,1.4,0,0,0,.494-.506V14.007h-.813q-1.461,0-1.461,1.312a.8.8,0,0,0,.257.618A.931.931,0,0,0,56.944,16.174Zm10.992,2.864H65.952L70.078,5.914H72.07ZM85.6,13.576a5.416,5.416,0,0,1-.942,3.341,3.021,3.021,0,0,1-2.544,1.249,2.589,2.589,0,0,1-2.034-.9v4.192h-2.8V9.019H79.9l.083.83a2.589,2.589,0,0,1,2.117-1,3.045,3.045,0,0,1,2.582,1.224,5.483,5.483,0,0,1,.921,3.366ZM82.8,13.4q0-2.391-1.395-2.391a1.316,1.316,0,0,0-1.328.714v3.536a1.359,1.359,0,0,0,1.345.747q1.336,0,1.378-2.308ZM92.31,11.55l-.921-.066a1.655,1.655,0,0,0-1.693.83V18H86.9V9.019h2.623l.091,1.154a2.166,2.166,0,0,1,1.967-1.32,2.728,2.728,0,0,1,.78.1Zm.4,1.876a5.3,5.3,0,0,1,.523-2.395,3.74,3.74,0,0,1,1.5-1.615,4.525,4.525,0,0,1,2.3-.564,4.13,4.13,0,0,1,3.179,1.249,4.794,4.794,0,0,1,1.162,3.4v.1a4.651,4.651,0,0,1-1.166,3.333,4.141,4.141,0,0,1-3.158,1.233,4.188,4.188,0,0,1-3.08-1.15A4.5,4.5,0,0,1,92.718,13.9Zm2.8.174a3.342,3.342,0,0,0,.39,1.826,1.3,1.3,0,0,0,1.154.581q1.494,0,1.527-2.3v-.282q0-2.416-1.544-2.416-1.4,0-1.519,2.083Zm10.734.481,1.494-5.063h3L107.071,19.5l-.158.382a2.781,2.781,0,0,1-2.756,1.743A4.384,4.384,0,0,1,103,21.462V19.469h.365a1.913,1.913,0,0,0,.9-.17,1.033,1.033,0,0,0,.461-.611l.224-.6-3.121-9.072h2.988Zm9.6,4.084a4.617,4.617,0,0,1-3.345-1.233,4.257,4.257,0,0,1-1.278-3.208v-.232a5.516,5.516,0,0,1,.51-2.432,3.735,3.735,0,0,1,1.49-1.631,4.5,4.5,0,0,1,2.324-.577,3.888,3.888,0,0,1,2.988,1.175,4.616,4.616,0,0,1,1.1,3.275v1.087H114.07a2.016,2.016,0,0,0,.656,1.187,1.951,1.951,0,0,0,1.312.432,2.514,2.514,0,0,0,2.075-.93l1.278,1.511a3.573,3.573,0,0,1-1.482,1.15A5.007,5.007,0,0,1,115.846,18.166Zm-.315-7.155q-1.229,0-1.461,1.627h2.822v-.216a1.386,1.386,0,0,0-.34-1.042A1.354,1.354,0,0,0,115.531,11.011Zm9.065,5a1.244,1.244,0,0,0,.913-.32,1.172,1.172,0,0,0,.315-.892h2.623a3.105,3.105,0,0,1-1.058,2.424,3.937,3.937,0,0,1-2.727.946,3.986,3.986,0,0,1-3.088-1.229,4.841,4.841,0,0,1-1.129-3.4v-.116a5.471,5.471,0,0,1,.5-2.4,3.656,3.656,0,0,1,1.448-1.6,4.319,4.319,0,0,1,2.241-.56,3.887,3.887,0,0,1,2.781.971,3.445,3.445,0,0,1,1.029,2.631h-2.623a1.536,1.536,0,0,0-.34-1.071,1.175,1.175,0,0,0-.913-.374q-1.087,0-1.27,1.386a9.782,9.782,0,0,0-.058,1.212,3.842,3.842,0,0,0,.324,1.876A1.121,1.121,0,0,0,124.6,16.008Zm8.335-9.222V9.019h1.478v1.942h-1.478V15.07a1.049,1.049,0,0,0,.183.706.98.98,0,0,0,.722.2,4.1,4.1,0,0,0,.7-.05v2a5.163,5.163,0,0,1-1.577.241,2.93,2.93,0,0,1-2.133-.681,2.79,2.79,0,0,1-.689-2.067V10.961h-1.146V9.019h1.146V6.786Zm2.018,6.641a5.3,5.3,0,0,1,.523-2.395,3.74,3.74,0,0,1,1.5-1.615,4.525,4.525,0,0,1,2.3-.564,4.13,4.13,0,0,1,3.179,1.249,4.794,4.794,0,0,1,1.162,3.4v.1a4.651,4.651,0,0,1-1.166,3.333,4.141,4.141,0,0,1-3.158,1.233,4.188,4.188,0,0,1-3.08-1.15,4.5,4.5,0,0,1-1.253-3.117Zm2.8.174a3.342,3.342,0,0,0,.39,1.826,1.3,1.3,0,0,0,1.154.581q1.494,0,1.527-2.3v-.282q0-2.416-1.544-2.416-1.4,0-1.519,2.083Zm12.577-2.05-.921-.066a1.655,1.655,0,0,0-1.693.83V18h-2.8V9.019h2.623l.091,1.154a2.166,2.166,0,0,1,1.967-1.32,2.728,2.728,0,0,1,.78.1Z" transform="translate(429.711 9403)" fill="#fff"/>
    <path id="Path_1033357" data-name="Path 1033357" d="M46.163,13.186h-4.7V18H38.552V5.914h8.085v2.25H41.465v2.781h4.7ZM52.539,18a3.158,3.158,0,0,1-.266-.805,2.6,2.6,0,0,1-2.158.971,3.187,3.187,0,0,1-2.158-.768,2.444,2.444,0,0,1-.888-1.93,2.512,2.512,0,0,1,1.079-2.208,5.5,5.5,0,0,1,3.138-.747h.863v-.475q0-1.243-1.071-1.243a.875.875,0,0,0-1,.984h-2.8a2.508,2.508,0,0,1,1.108-2.114,4.657,4.657,0,0,1,2.826-.813,4.083,4.083,0,0,1,2.714.838,2.915,2.915,0,0,1,1.021,2.3v3.976a4.072,4.072,0,0,0,.382,1.893V18Zm-1.751-1.826a1.56,1.56,0,0,0,.867-.224,1.4,1.4,0,0,0,.494-.506V14.007h-.813q-1.461,0-1.461,1.312a.8.8,0,0,0,.257.618A.931.931,0,0,0,50.788,16.174Zm9.555-.166a1.244,1.244,0,0,0,.913-.32,1.172,1.172,0,0,0,.315-.892h2.623a3.105,3.105,0,0,1-1.058,2.424,3.937,3.937,0,0,1-2.727.946,3.986,3.986,0,0,1-3.088-1.229,4.841,4.841,0,0,1-1.129-3.4v-.116a5.471,5.471,0,0,1,.5-2.4,3.656,3.656,0,0,1,1.448-1.6,4.319,4.319,0,0,1,2.241-.56,3.887,3.887,0,0,1,2.781.971,3.445,3.445,0,0,1,1.029,2.631H61.572a1.536,1.536,0,0,0-.34-1.071,1.175,1.175,0,0,0-.913-.374q-1.087,0-1.27,1.386a9.781,9.781,0,0,0-.058,1.212,3.842,3.842,0,0,0,.324,1.876A1.121,1.121,0,0,0,60.343,16.008ZM68.371,18H65.565V9.019h2.806ZM65.4,6.7a1.249,1.249,0,0,1,.432-.979,1.835,1.835,0,0,1,2.241,0A1.249,1.249,0,0,1,68.5,6.7a1.249,1.249,0,0,1-.432.979,1.835,1.835,0,0,1-2.241,0A1.249,1.249,0,0,1,65.4,6.7ZM73.087,18H70.281V5.25h2.806ZM77.8,18H75V9.019H77.8ZM74.831,6.7a1.249,1.249,0,0,1,.432-.979,1.835,1.835,0,0,1,2.241,0,1.249,1.249,0,0,1,.432.979,1.249,1.249,0,0,1-.432.979,1.835,1.835,0,0,1-2.241,0A1.249,1.249,0,0,1,74.831,6.7Zm7.995.083V9.019H84.3v1.942H82.826V15.07a1.049,1.049,0,0,0,.183.706.98.98,0,0,0,.722.2,4.1,4.1,0,0,0,.7-.05v2a5.163,5.163,0,0,1-1.577.241,2.93,2.93,0,0,1-2.133-.681,2.79,2.79,0,0,1-.689-2.067V10.961H78.883V9.019h1.146V6.786ZM90.5,18a3.159,3.159,0,0,1-.266-.805,2.6,2.6,0,0,1-2.158.971,3.187,3.187,0,0,1-2.158-.768,2.444,2.444,0,0,1-.888-1.93,2.512,2.512,0,0,1,1.079-2.208,5.5,5.5,0,0,1,3.138-.747h.863v-.475q0-1.243-1.071-1.243a.875.875,0,0,0-1,.984h-2.8a2.508,2.508,0,0,1,1.108-2.114,4.657,4.657,0,0,1,2.826-.813,4.083,4.083,0,0,1,2.714.838,2.915,2.915,0,0,1,1.021,2.3v3.976a4.072,4.072,0,0,0,.382,1.893V18Zm-1.751-1.826a1.56,1.56,0,0,0,.867-.224,1.4,1.4,0,0,0,.494-.506V14.007H89.3q-1.461,0-1.461,1.312a.8.8,0,0,0,.257.618A.931.931,0,0,0,88.753,16.174Zm5.4-2.731a5.486,5.486,0,0,1,.921-3.362,3.033,3.033,0,0,1,2.573-1.229,2.579,2.579,0,0,1,2.025.946V5.25h2.806V18H99.969l-.141-.963a2.649,2.649,0,0,1-2.191,1.129,3.027,3.027,0,0,1-2.54-1.229A5.66,5.66,0,0,1,94.158,13.443Zm2.8.174q0,2.391,1.395,2.391a1.377,1.377,0,0,0,1.328-.78v-3.42a1.34,1.34,0,0,0-1.312-.8q-1.295,0-1.4,2.092Zm6.808-.191a5.3,5.3,0,0,1,.523-2.395,3.74,3.74,0,0,1,1.5-1.615,4.525,4.525,0,0,1,2.3-.564,4.13,4.13,0,0,1,3.179,1.249,4.794,4.794,0,0,1,1.162,3.4v.1a4.651,4.651,0,0,1-1.166,3.333,4.141,4.141,0,0,1-3.158,1.233,4.188,4.188,0,0,1-3.08-1.15,4.5,4.5,0,0,1-1.253-3.117Zm2.8.174a3.342,3.342,0,0,0,.39,1.826,1.3,1.3,0,0,0,1.154.581q1.494,0,1.527-2.3v-.282q0-2.416-1.544-2.416-1.4,0-1.519,2.083Zm12.577-2.05-.921-.066a1.655,1.655,0,0,0-1.693.83V18h-2.8V9.019h2.623l.091,1.154a2.166,2.166,0,0,1,1.967-1.32,2.728,2.728,0,0,1,.78.1Z" transform="translate(721.711 9403)" fill="#fff"/>
    <path id="Path_1033358" data-name="Path 1033358" d="M44.313,13.725H42.736V18H39.822V5.914h4.756a5.309,5.309,0,0,1,3.362.954,3.231,3.231,0,0,1,1.212,2.695,3.924,3.924,0,0,1-.51,2.09A3.623,3.623,0,0,1,47.044,13l2.523,4.88V18H46.446Zm-1.577-2.241h1.843a1.654,1.654,0,0,0,1.249-.437,1.689,1.689,0,0,0,.419-1.219A1.709,1.709,0,0,0,45.824,8.6a1.639,1.639,0,0,0-1.245-.445H42.736Zm7.737,1.942A5.3,5.3,0,0,1,51,11.031a3.74,3.74,0,0,1,1.5-1.615,4.525,4.525,0,0,1,2.3-.564A4.13,4.13,0,0,1,57.977,10.1a4.794,4.794,0,0,1,1.162,3.4v.1a4.651,4.651,0,0,1-1.166,3.333,4.141,4.141,0,0,1-3.158,1.233,4.188,4.188,0,0,1-3.08-1.15A4.5,4.5,0,0,1,50.481,13.9Zm2.8.174a3.342,3.342,0,0,0,.39,1.826,1.3,1.3,0,0,0,1.154.581q1.494,0,1.527-2.3v-.282q0-2.416-1.544-2.416-1.4,0-1.519,2.083Zm10.4-6.815V9.019H65.15v1.942H63.672V15.07a1.049,1.049,0,0,0,.183.706.979.979,0,0,0,.722.2,4.1,4.1,0,0,0,.7-.05v2a5.163,5.163,0,0,1-1.577.241,2.93,2.93,0,0,1-2.133-.681,2.79,2.79,0,0,1-.689-2.067V10.961H59.729V9.019h1.146V6.786ZM71.352,18a3.159,3.159,0,0,1-.266-.805,2.6,2.6,0,0,1-2.158.971A3.187,3.187,0,0,1,66.77,17.4a2.444,2.444,0,0,1-.888-1.93A2.512,2.512,0,0,1,66.96,13.26a5.5,5.5,0,0,1,3.138-.747h.863v-.475q0-1.243-1.071-1.243a.875.875,0,0,0-1,.984H66.1a2.508,2.508,0,0,1,1.108-2.114,4.657,4.657,0,0,1,2.826-.813,4.083,4.083,0,0,1,2.714.838,2.915,2.915,0,0,1,1.021,2.3v3.976a4.072,4.072,0,0,0,.382,1.893V18ZM69.6,16.174a1.56,1.56,0,0,0,.867-.224,1.4,1.4,0,0,0,.494-.506V14.007h-.813q-1.461,0-1.461,1.312a.8.8,0,0,0,.257.618A.931.931,0,0,0,69.6,16.174ZM75.976,18V10.961h-1.3V9.019h1.3V8.3a3.1,3.1,0,0,1,.9-2.382,3.575,3.575,0,0,1,2.54-.847,5.562,5.562,0,0,1,1.312.174l.008,2.059a2.556,2.556,0,0,0-.689-.075q-1.27,0-1.27,1.1v.689h1.751v1.942H78.782V18Zm5.23-4.574a5.3,5.3,0,0,1,.523-2.395,3.74,3.74,0,0,1,1.5-1.615,4.525,4.525,0,0,1,2.3-.564A4.13,4.13,0,0,1,88.71,10.1a4.794,4.794,0,0,1,1.162,3.4v.1a4.651,4.651,0,0,1-1.166,3.333,4.141,4.141,0,0,1-3.158,1.233,4.188,4.188,0,0,1-3.08-1.15A4.5,4.5,0,0,1,81.215,13.9ZM84,13.6a3.342,3.342,0,0,0,.39,1.826,1.3,1.3,0,0,0,1.154.581q1.494,0,1.527-2.3v-.282q0-2.416-1.544-2.416-1.4,0-1.519,2.083ZM94.1,18H91.293V5.25H94.1Zm4.716,0H96.009V9.019h2.806ZM95.843,6.7a1.249,1.249,0,0,1,.432-.979,1.835,1.835,0,0,1,2.241,0,1.249,1.249,0,0,1,.432.979,1.249,1.249,0,0,1-.432.979,1.835,1.835,0,0,1-2.241,0A1.249,1.249,0,0,1,95.843,6.7Zm4.384,6.724a5.3,5.3,0,0,1,.523-2.395,3.74,3.74,0,0,1,1.5-1.615,4.525,4.525,0,0,1,2.3-.564,4.13,4.13,0,0,1,3.179,1.249,4.794,4.794,0,0,1,1.162,3.4v.1a4.651,4.651,0,0,1-1.166,3.333,4.141,4.141,0,0,1-3.158,1.233,4.188,4.188,0,0,1-3.08-1.15,4.5,4.5,0,0,1-1.253-3.117Zm2.8.174a3.342,3.342,0,0,0,.39,1.826,1.3,1.3,0,0,0,1.154.581q1.494,0,1.527-2.3v-.282q0-2.416-1.544-2.416-1.4,0-1.519,2.083Zm11.846,1.876a.646.646,0,0,0-.374-.573,5.682,5.682,0,0,0-1.419-.448,6.473,6.473,0,0,1-1.727-.61,2.892,2.892,0,0,1-1.038-.917,2.19,2.19,0,0,1-.357-1.237,2.482,2.482,0,0,1,1.021-2.038,4.206,4.206,0,0,1,2.673-.8,4.66,4.66,0,0,1,2.855.805,2.518,2.518,0,0,1,1.079,2.117h-2.806q0-1.079-1.137-1.079a1.127,1.127,0,0,0-.739.245.758.758,0,0,0-.3.61.7.7,0,0,0,.365.606,3.451,3.451,0,0,0,1.166.382,10.078,10.078,0,0,1,1.407.357,2.556,2.556,0,0,1,2.025,2.5,2.352,2.352,0,0,1-1.092,2,4.787,4.787,0,0,1-2.826.772,4.885,4.885,0,0,1-2.059-.415,3.442,3.442,0,0,1-1.411-1.129,2.556,2.556,0,0,1-.506-1.5h2.615a1.081,1.081,0,0,0,.415.909,1.707,1.707,0,0,0,1.021.286,1.343,1.343,0,0,0,.859-.232A.743.743,0,0,0,114.87,15.477Z" transform="translate(1012.711 9403)" fill="#fff"/>
    <g id="Rectangle_459405" data-name="Rectangle 459405" transform="translate(462.711 9369.716)" fill="#19538d" stroke="#19538d" stroke-width="2">
      <rect width="91" height="23" rx="5" stroke="none"/>
      <rect x="1" y="1" width="89" height="21" rx="4" fill="none"/>
    </g>
    <g id="Rectangle_459418" data-name="Rectangle 459418" transform="translate(753.862 9369.716)" fill="#19538d" stroke="#19538d" stroke-width="2">
      <rect width="91" height="23" rx="5" stroke="none"/>
      <rect x="1" y="1" width="89" height="21" rx="4" fill="none"/>
    </g>
    <g id="Rectangle_459420" data-name="Rectangle 459420" transform="translate(1045.711 9369.716)" fill="#19538d" stroke="#19538d" stroke-width="2">
      <rect width="91" height="23" rx="5" stroke="none"/>
      <rect x="1" y="1" width="89" height="21" rx="4" fill="none"/>
    </g>
    <rect id="Rectangle_459408" data-name="Rectangle 459408" width="268.711" height="65" transform="translate(374 9443.2)" fill="#c0f6f2"/>
    <rect id="Rectangle_459412" data-name="Rectangle 459412" width="268.974" height="65" transform="translate(957.026 9443.2)" fill="#c0f6f2"/>
    <rect id="Rectangle_459409" data-name="Rectangle 459409" width="269" height="65" transform="translate(373.711 9508)" fill="#c9e8f7"/>
    <rect id="Rectangle_459411" data-name="Rectangle 459411" width="268.974" height="65" transform="translate(957.026 9508.2)" fill="#c9e8f7"/>
    <rect id="Rectangle_459413" data-name="Rectangle 459413" width="268.974" height="65" transform="translate(957.026 9573.2)" fill="#5af6ea"/>
    <rect id="Rectangle_459414" data-name="Rectangle 459414" width="266.351" height="65" transform="translate(666.168 9573.2)" fill="#ffe1e1"/>
    <g id="Rectangle_459415" data-name="Rectangle 459415" transform="translate(665.711 9443)" fill="#fff" stroke="#19538d" stroke-width="1" stroke-dasharray="5">
      <rect width="267" height="65" stroke="none"/>
      <rect x="0.5" y="0.5" width="266" height="64" fill="none"/>
    </g>
    <g id="Rectangle_459416" data-name="Rectangle 459416" transform="translate(665.711 9507)" fill="#fff" stroke="#19538d" stroke-width="1" stroke-dasharray="5">
      <rect width="267" height="66" stroke="none"/>
      <rect x="0.5" y="0.5" width="266" height="65" fill="none"/>
    </g>
    <rect id="Rectangle_459410" data-name="Rectangle 459410" width="269" height="65" transform="translate(373.711 9573)" fill="#ffeebc"/>
    <path id="Path_1033359" data-name="Path 1033359" d="M64.373,5.914v8.218a3.855,3.855,0,0,1-1.075,2.8,4.332,4.332,0,0,1-2.893,1.22l-.423.017A4.524,4.524,0,0,1,56.82,17.1a3.83,3.83,0,0,1-1.2-2.947V5.914H57.2V14.1a2.764,2.764,0,0,0,.722,2.038,3.305,3.305,0,0,0,4.13,0,2.759,2.759,0,0,0,.718-2.034V5.914Zm7.546,9.7a1.131,1.131,0,0,0-.469-.967,4.514,4.514,0,0,0-1.635-.594,7.731,7.731,0,0,1-1.851-.6,2.633,2.633,0,0,1-1.013-.83,1.986,1.986,0,0,1-.328-1.146,2.33,2.33,0,0,1,.934-1.868,3.647,3.647,0,0,1,2.386-.764,3.753,3.753,0,0,1,2.478.789,2.5,2.5,0,0,1,.95,2.017H71.829a1.386,1.386,0,0,0-.535-1.087,2.006,2.006,0,0,0-1.349-.457,2.1,2.1,0,0,0-1.312.365,1.15,1.15,0,0,0-.473.955.932.932,0,0,0,.44.838,5.413,5.413,0,0,0,1.59.54,8.283,8.283,0,0,1,1.864.614,2.718,2.718,0,0,1,1.058.859,2.112,2.112,0,0,1,.344,1.224,2.3,2.3,0,0,1-.963,1.93,4.039,4.039,0,0,1-2.5.726,4.523,4.523,0,0,1-1.909-.382,3.105,3.105,0,0,1-1.3-1.067,2.571,2.571,0,0,1-.469-1.482h1.536a1.59,1.59,0,0,0,.618,1.224,2.4,2.4,0,0,0,1.523.452,2.476,2.476,0,0,0,1.4-.353A1.084,1.084,0,0,0,71.92,15.618Zm9.124,1.494a3.262,3.262,0,0,1-2.631,1.054,2.792,2.792,0,0,1-2.187-.834,3.611,3.611,0,0,1-.76-2.469V9.019H77v5.8q0,2.042,1.66,2.042A2.3,2.3,0,0,0,81,15.551V9.019h1.536V18H81.077ZM90.458,18a3.226,3.226,0,0,1-.216-.946,3.426,3.426,0,0,1-2.557,1.112,3.17,3.17,0,0,1-2.179-.751,2.43,2.43,0,0,1-.851-1.905,2.539,2.539,0,0,1,1.067-2.179,5.029,5.029,0,0,1,3-.776h1.494v-.706a1.725,1.725,0,0,0-.481-1.282,1.935,1.935,0,0,0-1.419-.477,2.239,2.239,0,0,0-1.378.415,1.223,1.223,0,0,0-.556,1H84.838a2.119,2.119,0,0,1,.477-1.3,3.258,3.258,0,0,1,1.295-.992,4.356,4.356,0,0,1,1.8-.365,3.551,3.551,0,0,1,2.432.776,2.8,2.8,0,0,1,.913,2.137V15.9a5.054,5.054,0,0,0,.315,1.967V18Zm-2.548-1.17a2.7,2.7,0,0,0,1.37-.374,2.259,2.259,0,0,0,.938-.971V13.642h-1.2q-2.822,0-2.822,1.652a1.4,1.4,0,0,0,.481,1.129A1.85,1.85,0,0,0,87.909,16.83ZM98.543,10.4a4.6,4.6,0,0,0-.755-.058,2.024,2.024,0,0,0-2.05,1.287V18H94.2V9.019H95.7l.025,1.038a2.391,2.391,0,0,1,2.142-1.2,1.569,1.569,0,0,1,.681.116Zm3.122,7.6H100.13V9.019h1.536Zm-1.66-11.364a.917.917,0,0,1,.228-.631.857.857,0,0,1,.677-.257.87.87,0,0,1,.681.257.907.907,0,0,1,.232.631.877.877,0,0,1-.232.623.886.886,0,0,1-.681.249.872.872,0,0,1-.677-.249A.886.886,0,0,1,100.005,6.636Zm3.753,6.79a5.3,5.3,0,0,1,.519-2.374,3.87,3.87,0,0,1,1.444-1.627,3.932,3.932,0,0,1,2.113-.573,3.788,3.788,0,0,1,2.968,1.27,4.886,4.886,0,0,1,1.133,3.378v.108a5.351,5.351,0,0,1-.5,2.353A3.813,3.813,0,0,1,110,17.585a3.977,3.977,0,0,1-2.146.581,3.778,3.778,0,0,1-2.959-1.27,4.861,4.861,0,0,1-1.133-3.362Zm1.544.183a3.842,3.842,0,0,0,.693,2.4A2.349,2.349,0,0,0,109.71,16a4.2,4.2,0,0,0,.689-2.569,3.836,3.836,0,0,0-.7-2.395,2.23,2.23,0,0,0-1.864-.917,2.205,2.205,0,0,0-1.834.9A4.17,4.17,0,0,0,105.3,13.609ZM123.043,18H121.5V7.765L118.4,8.9V7.508l4.4-1.652h.241Z" transform="translate(426.711 9466.2)" fill="#12263f"/>
    <path id="Path_1033362" data-name="Path 1033362" d="M33.861,18V5.914h3.412a5.492,5.492,0,0,1,2.789.7A4.716,4.716,0,0,1,41.933,8.6,6.457,6.457,0,0,1,42.6,11.55v.772a6.48,6.48,0,0,1-.66,3,4.642,4.642,0,0,1-1.884,1.976A5.842,5.842,0,0,1,37.206,18ZM35.455,7.217V16.7h1.677A3.648,3.648,0,0,0,40,15.55a4.737,4.737,0,0,0,1.025-3.265v-.706a4.812,4.812,0,0,0-.967-3.2,3.441,3.441,0,0,0-2.743-1.159ZM48.538,18.166a3.924,3.924,0,0,1-2.972-1.2,4.452,4.452,0,0,1-1.146-3.208v-.282a5.39,5.39,0,0,1,.51-2.386,3.982,3.982,0,0,1,1.428-1.644,3.59,3.59,0,0,1,1.988-.594,3.364,3.364,0,0,1,2.723,1.154,5,5,0,0,1,.971,3.3v.639H45.956a3.193,3.193,0,0,0,.776,2.146,2.44,2.44,0,0,0,1.888.818A2.675,2.675,0,0,0,50,16.581a3.462,3.462,0,0,0,.988-.88l.938.73A3.772,3.772,0,0,1,48.538,18.166Zm-.191-8.052a2.048,2.048,0,0,0-1.561.677,3.288,3.288,0,0,0-.78,1.9h4.5v-.116a2.925,2.925,0,0,0-.631-1.814A1.928,1.928,0,0,0,48.347,10.114Zm10.742,5.5a1.13,1.13,0,0,0-.469-.967,4.514,4.514,0,0,0-1.635-.594,7.731,7.731,0,0,1-1.851-.6,2.633,2.633,0,0,1-1.013-.83,1.986,1.986,0,0,1-.328-1.146,2.33,2.33,0,0,1,.934-1.868,3.647,3.647,0,0,1,2.386-.764,3.753,3.753,0,0,1,2.478.789,2.5,2.5,0,0,1,.95,2.017H59a1.386,1.386,0,0,0-.535-1.087,2.006,2.006,0,0,0-1.349-.457,2.1,2.1,0,0,0-1.312.365,1.15,1.15,0,0,0-.473.955.932.932,0,0,0,.44.838,5.413,5.413,0,0,0,1.59.54,8.283,8.283,0,0,1,1.864.614,2.718,2.718,0,0,1,1.058.859,2.112,2.112,0,0,1,.344,1.224,2.3,2.3,0,0,1-.963,1.93,4.039,4.039,0,0,1-2.5.726,4.523,4.523,0,0,1-1.909-.382,3.105,3.105,0,0,1-1.3-1.067,2.571,2.571,0,0,1-.469-1.482h1.536a1.59,1.59,0,0,0,.618,1.224,2.4,2.4,0,0,0,1.523.452,2.476,2.476,0,0,0,1.4-.353A1.084,1.084,0,0,0,59.089,15.618ZM68.213,18A3.226,3.226,0,0,1,68,17.054a3.426,3.426,0,0,1-2.557,1.112,3.17,3.17,0,0,1-2.179-.751,2.43,2.43,0,0,1-.851-1.905,2.539,2.539,0,0,1,1.067-2.179,5.029,5.029,0,0,1,3-.776h1.494v-.706a1.725,1.725,0,0,0-.481-1.282,1.935,1.935,0,0,0-1.419-.477,2.239,2.239,0,0,0-1.378.415,1.223,1.223,0,0,0-.556,1H62.593a2.119,2.119,0,0,1,.477-1.3,3.258,3.258,0,0,1,1.295-.992,4.356,4.356,0,0,1,1.8-.365,3.551,3.551,0,0,1,2.432.776,2.8,2.8,0,0,1,.913,2.137V15.9a5.054,5.054,0,0,0,.315,1.967V18Zm-2.548-1.17a2.7,2.7,0,0,0,1.37-.374,2.259,2.259,0,0,0,.938-.971V13.642h-1.2q-2.822,0-2.822,1.652a1.4,1.4,0,0,0,.481,1.129A1.85,1.85,0,0,0,65.664,16.83ZM76.3,10.4a4.6,4.6,0,0,0-.755-.058,2.024,2.024,0,0,0-2.05,1.287V18H71.957V9.019h1.494l.025,1.038a2.391,2.391,0,0,1,2.142-1.2,1.569,1.569,0,0,1,.681.116Zm5.795,0a4.6,4.6,0,0,0-.755-.058,2.024,2.024,0,0,0-2.05,1.287V18H77.752V9.019h1.494l.025,1.038a2.391,2.391,0,0,1,2.142-1.2,1.569,1.569,0,0,1,.681.116Zm.881,3.03a5.3,5.3,0,0,1,.519-2.374,3.87,3.87,0,0,1,1.444-1.627,3.932,3.932,0,0,1,2.113-.573,3.788,3.788,0,0,1,2.968,1.27A4.886,4.886,0,0,1,91.151,13.5v.108a5.351,5.351,0,0,1-.5,2.353,3.813,3.813,0,0,1-1.436,1.623,3.977,3.977,0,0,1-2.146.581,3.778,3.778,0,0,1-2.959-1.27,4.861,4.861,0,0,1-1.133-3.362Zm1.544.183a3.842,3.842,0,0,0,.693,2.4A2.349,2.349,0,0,0,88.926,16a4.2,4.2,0,0,0,.689-2.569,3.836,3.836,0,0,0-.7-2.395,2.23,2.23,0,0,0-1.864-.917,2.205,2.205,0,0,0-1.834.9A4.17,4.17,0,0,0,84.518,13.609ZM94.787,18H93.252V5.25h1.536Zm4.168,0H97.42V5.25h1.536ZM107,18a3.226,3.226,0,0,1-.216-.946,3.426,3.426,0,0,1-2.557,1.112,3.17,3.17,0,0,1-2.179-.751,2.43,2.43,0,0,1-.851-1.905,2.539,2.539,0,0,1,1.067-2.179,5.029,5.029,0,0,1,3-.776h1.494v-.706a1.725,1.725,0,0,0-.481-1.282,1.935,1.935,0,0,0-1.419-.477,2.239,2.239,0,0,0-1.378.415,1.223,1.223,0,0,0-.556,1H101.38a2.119,2.119,0,0,1,.477-1.3,3.258,3.258,0,0,1,1.295-.992,4.356,4.356,0,0,1,1.8-.365,3.551,3.551,0,0,1,2.432.776,2.8,2.8,0,0,1,.913,2.137V15.9a5.054,5.054,0,0,0,.315,1.967V18Zm-2.548-1.17a2.7,2.7,0,0,0,1.37-.374,2.259,2.259,0,0,0,.938-.971V13.642h-1.2q-2.822,0-2.822,1.652a1.4,1.4,0,0,0,.481,1.129A1.85,1.85,0,0,0,104.451,16.83Zm5.919-3.4a5.261,5.261,0,0,1,.979-3.324,3.333,3.333,0,0,1,5.063-.178V5.25h1.536V18h-1.411l-.075-.963a3.127,3.127,0,0,1-2.565,1.129,3.068,3.068,0,0,1-2.544-1.278,5.321,5.321,0,0,1-.984-3.337Zm1.536.174A3.984,3.984,0,0,0,112.537,16a2.039,2.039,0,0,0,1.743.863,2.24,2.24,0,0,0,2.133-1.312V11.426a2.257,2.257,0,0,0-2.117-1.27,2.049,2.049,0,0,0-1.76.872A4.386,4.386,0,0,0,111.907,13.609Zm8.061-.183a5.3,5.3,0,0,1,.519-2.374,3.87,3.87,0,0,1,1.444-1.627,3.932,3.932,0,0,1,2.113-.573,3.788,3.788,0,0,1,2.968,1.27,4.886,4.886,0,0,1,1.133,3.378v.108a5.351,5.351,0,0,1-.5,2.353,3.813,3.813,0,0,1-1.436,1.623,3.977,3.977,0,0,1-2.146.581A3.778,3.778,0,0,1,121.1,16.9a4.861,4.861,0,0,1-1.133-3.362Zm1.544.183a3.842,3.842,0,0,0,.693,2.4A2.349,2.349,0,0,0,125.919,16a4.2,4.2,0,0,0,.689-2.569,3.836,3.836,0,0,0-.7-2.395,2.23,2.23,0,0,0-1.864-.917,2.205,2.205,0,0,0-1.834.9A4.17,4.17,0,0,0,121.512,13.609ZM134.453,10.4a4.6,4.6,0,0,0-.755-.058,2.024,2.024,0,0,0-2.05,1.287V18h-1.536V9.019h1.494l.025,1.038a2.391,2.391,0,0,1,2.142-1.2,1.569,1.569,0,0,1,.681.116ZM145.047,18H143.5V7.765l-3.1,1.137V7.508l4.4-1.652h.241Z" transform="translate(426.711 9531)" fill="#12263f"/>
    <path id="Path_1033365" data-name="Path 1033365" d="M67.661,14.837H62.6L61.46,18H59.817L64.432,5.914h1.395L70.45,18H68.815Zm-4.582-1.3h4.109L65.129,7.881ZM73.331,9.019l.05,1.129a3.273,3.273,0,0,1,2.689-1.295q2.847,0,2.872,3.212V18H77.407V12.057a2.068,2.068,0,0,0-.444-1.436,1.78,1.78,0,0,0-1.357-.465,2.216,2.216,0,0,0-1.312.4,2.706,2.706,0,0,0-.88,1.046V18H71.879V9.019ZM86.846,18a3.226,3.226,0,0,1-.216-.946,3.426,3.426,0,0,1-2.557,1.112,3.17,3.17,0,0,1-2.179-.751,2.43,2.43,0,0,1-.851-1.905,2.539,2.539,0,0,1,1.067-2.179,5.029,5.029,0,0,1,3-.776h1.494v-.706a1.725,1.725,0,0,0-.481-1.282,1.935,1.935,0,0,0-1.419-.477,2.239,2.239,0,0,0-1.378.415,1.223,1.223,0,0,0-.556,1H81.227a2.119,2.119,0,0,1,.477-1.3A3.258,3.258,0,0,1,83,9.218a4.356,4.356,0,0,1,1.8-.365,3.551,3.551,0,0,1,2.432.776,2.8,2.8,0,0,1,.913,2.137V15.9a5.054,5.054,0,0,0,.315,1.967V18ZM84.3,16.83a2.7,2.7,0,0,0,1.37-.374,2.259,2.259,0,0,0,.938-.971V13.642H85.4q-2.822,0-2.822,1.652a1.4,1.4,0,0,0,.481,1.129A1.85,1.85,0,0,0,84.3,16.83ZM92.259,18H90.724V5.25h1.536Zm4.168,0H94.892V9.019h1.536ZM94.767,6.636A.917.917,0,0,1,95,6.005a.857.857,0,0,1,.677-.257.87.87,0,0,1,.681.257.907.907,0,0,1,.232.631.877.877,0,0,1-.232.623.886.886,0,0,1-.681.249A.872.872,0,0,1,95,7.259.886.886,0,0,1,94.767,6.636Zm9.389,8.981a1.131,1.131,0,0,0-.469-.967,4.514,4.514,0,0,0-1.635-.594,7.731,7.731,0,0,1-1.851-.6,2.633,2.633,0,0,1-1.013-.83,1.986,1.986,0,0,1-.328-1.146,2.33,2.33,0,0,1,.934-1.868,3.647,3.647,0,0,1,2.386-.764,3.753,3.753,0,0,1,2.478.789,2.5,2.5,0,0,1,.95,2.017h-1.544a1.386,1.386,0,0,0-.535-1.087,2.006,2.006,0,0,0-1.349-.457,2.1,2.1,0,0,0-1.312.365,1.15,1.15,0,0,0-.473.955.932.932,0,0,0,.44.838,5.413,5.413,0,0,0,1.59.54,8.283,8.283,0,0,1,1.864.614,2.718,2.718,0,0,1,1.058.859,2.112,2.112,0,0,1,.344,1.224,2.3,2.3,0,0,1-.963,1.93,4.039,4.039,0,0,1-2.5.726,4.523,4.523,0,0,1-1.909-.382,3.105,3.105,0,0,1-1.3-1.067,2.571,2.571,0,0,1-.469-1.482h1.536a1.59,1.59,0,0,0,.618,1.224,2.4,2.4,0,0,0,1.523.452,2.476,2.476,0,0,0,1.4-.353A1.084,1.084,0,0,0,104.156,15.618Zm5.662-8.774V9.019H111.5v1.187h-1.677v5.577a1.247,1.247,0,0,0,.224.81.943.943,0,0,0,.764.27,3.718,3.718,0,0,0,.73-.1V18a4.478,4.478,0,0,1-1.179.165,1.912,1.912,0,0,1-1.552-.623,2.675,2.675,0,0,1-.523-1.768v-5.57h-1.635V9.019h1.635V6.844ZM118.876,18a3.226,3.226,0,0,1-.216-.946,3.426,3.426,0,0,1-2.557,1.112,3.17,3.17,0,0,1-2.179-.751,2.43,2.43,0,0,1-.851-1.905,2.539,2.539,0,0,1,1.067-2.179,5.029,5.029,0,0,1,3-.776h1.494v-.706a1.725,1.725,0,0,0-.481-1.282,1.935,1.935,0,0,0-1.419-.477,2.239,2.239,0,0,0-1.378.415,1.223,1.223,0,0,0-.556,1h-1.544a2.119,2.119,0,0,1,.477-1.3,3.258,3.258,0,0,1,1.295-.992,4.356,4.356,0,0,1,1.8-.365,3.551,3.551,0,0,1,2.432.776,2.8,2.8,0,0,1,.913,2.137V15.9a5.054,5.054,0,0,0,.315,1.967V18Zm-2.548-1.17a2.7,2.7,0,0,0,1.37-.374,2.259,2.259,0,0,0,.938-.971V13.642h-1.2q-2.822,0-2.822,1.652a1.4,1.4,0,0,0,.481,1.129A1.85,1.85,0,0,0,116.327,16.83Z" transform="translate(426.711 9596)" fill="#12263f"/>
    <path id="Path_1033361" data-name="Path 1033361" d="M64.373,5.914v8.218a3.855,3.855,0,0,1-1.075,2.8,4.332,4.332,0,0,1-2.893,1.22l-.423.017A4.524,4.524,0,0,1,56.82,17.1a3.83,3.83,0,0,1-1.2-2.947V5.914H57.2V14.1a2.764,2.764,0,0,0,.722,2.038,3.305,3.305,0,0,0,4.13,0,2.759,2.759,0,0,0,.718-2.034V5.914Zm7.546,9.7a1.131,1.131,0,0,0-.469-.967,4.514,4.514,0,0,0-1.635-.594,7.731,7.731,0,0,1-1.851-.6,2.633,2.633,0,0,1-1.013-.83,1.986,1.986,0,0,1-.328-1.146,2.33,2.33,0,0,1,.934-1.868,3.647,3.647,0,0,1,2.386-.764,3.753,3.753,0,0,1,2.478.789,2.5,2.5,0,0,1,.95,2.017H71.829a1.386,1.386,0,0,0-.535-1.087,2.006,2.006,0,0,0-1.349-.457,2.1,2.1,0,0,0-1.312.365,1.15,1.15,0,0,0-.473.955.932.932,0,0,0,.44.838,5.413,5.413,0,0,0,1.59.54,8.283,8.283,0,0,1,1.864.614,2.718,2.718,0,0,1,1.058.859,2.112,2.112,0,0,1,.344,1.224,2.3,2.3,0,0,1-.963,1.93,4.039,4.039,0,0,1-2.5.726,4.523,4.523,0,0,1-1.909-.382,3.105,3.105,0,0,1-1.3-1.067,2.571,2.571,0,0,1-.469-1.482h1.536a1.59,1.59,0,0,0,.618,1.224,2.4,2.4,0,0,0,1.523.452,2.476,2.476,0,0,0,1.4-.353A1.084,1.084,0,0,0,71.92,15.618Zm9.124,1.494a3.262,3.262,0,0,1-2.631,1.054,2.792,2.792,0,0,1-2.187-.834,3.611,3.611,0,0,1-.76-2.469V9.019H77v5.8q0,2.042,1.66,2.042A2.3,2.3,0,0,0,81,15.551V9.019h1.536V18H81.077ZM90.458,18a3.226,3.226,0,0,1-.216-.946,3.426,3.426,0,0,1-2.557,1.112,3.17,3.17,0,0,1-2.179-.751,2.43,2.43,0,0,1-.851-1.905,2.539,2.539,0,0,1,1.067-2.179,5.029,5.029,0,0,1,3-.776h1.494v-.706a1.725,1.725,0,0,0-.481-1.282,1.935,1.935,0,0,0-1.419-.477,2.239,2.239,0,0,0-1.378.415,1.223,1.223,0,0,0-.556,1H84.838a2.119,2.119,0,0,1,.477-1.3,3.258,3.258,0,0,1,1.295-.992,4.356,4.356,0,0,1,1.8-.365,3.551,3.551,0,0,1,2.432.776,2.8,2.8,0,0,1,.913,2.137V15.9a5.054,5.054,0,0,0,.315,1.967V18Zm-2.548-1.17a2.7,2.7,0,0,0,1.37-.374,2.259,2.259,0,0,0,.938-.971V13.642h-1.2q-2.822,0-2.822,1.652a1.4,1.4,0,0,0,.481,1.129A1.85,1.85,0,0,0,87.909,16.83ZM98.543,10.4a4.6,4.6,0,0,0-.755-.058,2.024,2.024,0,0,0-2.05,1.287V18H94.2V9.019H95.7l.025,1.038a2.391,2.391,0,0,1,2.142-1.2,1.569,1.569,0,0,1,.681.116Zm3.122,7.6H100.13V9.019h1.536Zm-1.66-11.364a.917.917,0,0,1,.228-.631.857.857,0,0,1,.677-.257.87.87,0,0,1,.681.257.907.907,0,0,1,.232.631.877.877,0,0,1-.232.623.886.886,0,0,1-.681.249.872.872,0,0,1-.677-.249A.886.886,0,0,1,100.005,6.636Zm3.753,6.79a5.3,5.3,0,0,1,.519-2.374,3.87,3.87,0,0,1,1.444-1.627,3.932,3.932,0,0,1,2.113-.573,3.788,3.788,0,0,1,2.968,1.27,4.886,4.886,0,0,1,1.133,3.378v.108a5.351,5.351,0,0,1-.5,2.353A3.813,3.813,0,0,1,110,17.585a3.977,3.977,0,0,1-2.146.581,3.778,3.778,0,0,1-2.959-1.27,4.861,4.861,0,0,1-1.133-3.362Zm1.544.183a3.842,3.842,0,0,0,.693,2.4A2.349,2.349,0,0,0,109.71,16a4.2,4.2,0,0,0,.689-2.569,3.836,3.836,0,0,0-.7-2.395,2.23,2.23,0,0,0-1.864-.917,2.205,2.205,0,0,0-1.834.9A4.17,4.17,0,0,0,105.3,13.609ZM125.915,18H118V16.9l4.184-4.648a9.939,9.939,0,0,0,1.282-1.714,2.861,2.861,0,0,0,.353-1.365,2.169,2.169,0,0,0-.573-1.552,2,2,0,0,0-1.527-.606,2.372,2.372,0,0,0-1.781.652,2.489,2.489,0,0,0-.635,1.814h-1.536a3.565,3.565,0,0,1,1.075-2.7,3.985,3.985,0,0,1,2.876-1.029,3.829,3.829,0,0,1,2.665.884,3.015,3.015,0,0,1,.979,2.353q0,1.785-2.274,4.25l-3.237,3.511h6.068Z" transform="translate(1009.711 9466.2)" fill="#12263f"/>
    <path id="Path_1033364" data-name="Path 1033364" d="M33.652,18V5.914h3.412a5.492,5.492,0,0,1,2.789.7A4.716,4.716,0,0,1,41.724,8.6a6.457,6.457,0,0,1,.668,2.955v.772a6.48,6.48,0,0,1-.66,3,4.642,4.642,0,0,1-1.884,1.976A5.842,5.842,0,0,1,37,18ZM35.246,7.217V16.7h1.677A3.648,3.648,0,0,0,39.79,15.55a4.737,4.737,0,0,0,1.025-3.265v-.706a4.812,4.812,0,0,0-.967-3.2A3.441,3.441,0,0,0,37.1,7.217ZM48.329,18.166a3.924,3.924,0,0,1-2.972-1.2,4.452,4.452,0,0,1-1.146-3.208v-.282a5.39,5.39,0,0,1,.51-2.386A3.982,3.982,0,0,1,46.15,9.446a3.59,3.59,0,0,1,1.988-.594,3.364,3.364,0,0,1,2.723,1.154,5,5,0,0,1,.971,3.3v.639H45.747a3.193,3.193,0,0,0,.776,2.146,2.44,2.44,0,0,0,1.888.818,2.675,2.675,0,0,0,1.378-.332,3.462,3.462,0,0,0,.988-.88l.938.73A3.772,3.772,0,0,1,48.329,18.166Zm-.191-8.052a2.048,2.048,0,0,0-1.561.677,3.288,3.288,0,0,0-.78,1.9h4.5v-.116a2.925,2.925,0,0,0-.631-1.814A1.928,1.928,0,0,0,48.138,10.114Zm10.742,5.5a1.13,1.13,0,0,0-.469-.967,4.514,4.514,0,0,0-1.635-.594,7.731,7.731,0,0,1-1.851-.6,2.633,2.633,0,0,1-1.013-.83,1.986,1.986,0,0,1-.328-1.146,2.33,2.33,0,0,1,.934-1.868A3.647,3.647,0,0,1,56.9,8.853a3.753,3.753,0,0,1,2.478.789,2.5,2.5,0,0,1,.95,2.017H58.789a1.386,1.386,0,0,0-.535-1.087,2.006,2.006,0,0,0-1.349-.457,2.1,2.1,0,0,0-1.312.365,1.15,1.15,0,0,0-.473.955.932.932,0,0,0,.44.838,5.413,5.413,0,0,0,1.59.54,8.283,8.283,0,0,1,1.864.614,2.718,2.718,0,0,1,1.058.859,2.112,2.112,0,0,1,.344,1.224,2.3,2.3,0,0,1-.963,1.93,4.039,4.039,0,0,1-2.5.726,4.523,4.523,0,0,1-1.909-.382,3.105,3.105,0,0,1-1.3-1.067,2.571,2.571,0,0,1-.469-1.482h1.536a1.59,1.59,0,0,0,.618,1.224,2.4,2.4,0,0,0,1.523.452,2.476,2.476,0,0,0,1.4-.353A1.084,1.084,0,0,0,58.88,15.618ZM68,18a3.226,3.226,0,0,1-.216-.946,3.426,3.426,0,0,1-2.557,1.112,3.17,3.17,0,0,1-2.179-.751A2.43,2.43,0,0,1,62.2,15.51a2.539,2.539,0,0,1,1.067-2.179,5.029,5.029,0,0,1,3-.776h1.494v-.706a1.725,1.725,0,0,0-.481-1.282,1.935,1.935,0,0,0-1.419-.477,2.239,2.239,0,0,0-1.378.415,1.223,1.223,0,0,0-.556,1H62.384a2.119,2.119,0,0,1,.477-1.3,3.258,3.258,0,0,1,1.295-.992,4.356,4.356,0,0,1,1.8-.365,3.551,3.551,0,0,1,2.432.776,2.8,2.8,0,0,1,.913,2.137V15.9a5.054,5.054,0,0,0,.315,1.967V18Zm-2.548-1.17a2.7,2.7,0,0,0,1.37-.374,2.259,2.259,0,0,0,.938-.971V13.642h-1.2q-2.822,0-2.822,1.652a1.4,1.4,0,0,0,.481,1.129A1.85,1.85,0,0,0,65.455,16.83ZM76.089,10.4a4.6,4.6,0,0,0-.755-.058,2.024,2.024,0,0,0-2.05,1.287V18H71.748V9.019h1.494l.025,1.038a2.391,2.391,0,0,1,2.142-1.2,1.569,1.569,0,0,1,.681.116Zm5.795,0a4.6,4.6,0,0,0-.755-.058,2.024,2.024,0,0,0-2.05,1.287V18H77.543V9.019h1.494l.025,1.038a2.391,2.391,0,0,1,2.142-1.2,1.569,1.569,0,0,1,.681.116Zm.881,3.03a5.3,5.3,0,0,1,.519-2.374,3.87,3.87,0,0,1,1.444-1.627,3.932,3.932,0,0,1,2.113-.573,3.788,3.788,0,0,1,2.968,1.27A4.886,4.886,0,0,1,90.942,13.5v.108a5.351,5.351,0,0,1-.5,2.353A3.813,3.813,0,0,1,89,17.585a3.977,3.977,0,0,1-2.146.581A3.778,3.778,0,0,1,83.9,16.9a4.861,4.861,0,0,1-1.133-3.362Zm1.544.183a3.842,3.842,0,0,0,.693,2.4A2.349,2.349,0,0,0,88.717,16a4.2,4.2,0,0,0,.689-2.569,3.836,3.836,0,0,0-.7-2.395,2.23,2.23,0,0,0-1.864-.917,2.205,2.205,0,0,0-1.834.9A4.17,4.17,0,0,0,84.309,13.609ZM94.578,18H93.043V5.25h1.536Zm4.168,0H97.211V5.25h1.536Zm8.044,0a3.226,3.226,0,0,1-.216-.946,3.426,3.426,0,0,1-2.557,1.112,3.17,3.17,0,0,1-2.179-.751,2.43,2.43,0,0,1-.851-1.905,2.539,2.539,0,0,1,1.067-2.179,5.029,5.029,0,0,1,3-.776h1.494v-.706a1.725,1.725,0,0,0-.481-1.282,1.935,1.935,0,0,0-1.419-.477,2.239,2.239,0,0,0-1.378.415,1.223,1.223,0,0,0-.556,1h-1.544a2.119,2.119,0,0,1,.477-1.3,3.258,3.258,0,0,1,1.295-.992,4.356,4.356,0,0,1,1.8-.365,3.551,3.551,0,0,1,2.432.776,2.8,2.8,0,0,1,.913,2.137V15.9a5.054,5.054,0,0,0,.315,1.967V18Zm-2.548-1.17a2.7,2.7,0,0,0,1.37-.374,2.259,2.259,0,0,0,.938-.971V13.642h-1.2q-2.822,0-2.822,1.652a1.4,1.4,0,0,0,.481,1.129A1.85,1.85,0,0,0,104.242,16.83Zm5.919-3.4a5.261,5.261,0,0,1,.979-3.324,3.333,3.333,0,0,1,5.063-.178V5.25h1.536V18h-1.411l-.075-.963a3.127,3.127,0,0,1-2.565,1.129,3.068,3.068,0,0,1-2.544-1.278,5.321,5.321,0,0,1-.984-3.337Zm1.536.174A3.984,3.984,0,0,0,112.328,16a2.039,2.039,0,0,0,1.743.863,2.24,2.24,0,0,0,2.133-1.312V11.426a2.257,2.257,0,0,0-2.117-1.27,2.049,2.049,0,0,0-1.76.872A4.386,4.386,0,0,0,111.7,13.609Zm8.061-.183a5.3,5.3,0,0,1,.519-2.374,3.87,3.87,0,0,1,1.444-1.627,3.932,3.932,0,0,1,2.113-.573,3.788,3.788,0,0,1,2.968,1.27,4.886,4.886,0,0,1,1.133,3.378v.108a5.351,5.351,0,0,1-.5,2.353A3.813,3.813,0,0,1,126,17.585a3.977,3.977,0,0,1-2.146.581,3.778,3.778,0,0,1-2.959-1.27,4.861,4.861,0,0,1-1.133-3.362Zm1.544.183a3.842,3.842,0,0,0,.693,2.4A2.349,2.349,0,0,0,125.71,16a4.2,4.2,0,0,0,.689-2.569,3.836,3.836,0,0,0-.7-2.395,2.23,2.23,0,0,0-1.864-.917,2.205,2.205,0,0,0-1.834.9A4.17,4.17,0,0,0,121.3,13.609ZM134.244,10.4a4.6,4.6,0,0,0-.755-.058,2.024,2.024,0,0,0-2.05,1.287V18H129.9V9.019H131.4l.025,1.038a2.391,2.391,0,0,1,2.142-1.2,1.569,1.569,0,0,1,.681.116ZM147.71,18h-7.919V16.9l4.184-4.648a9.939,9.939,0,0,0,1.282-1.714,2.861,2.861,0,0,0,.353-1.365,2.169,2.169,0,0,0-.573-1.552,2,2,0,0,0-1.527-.606,2.372,2.372,0,0,0-1.781.652,2.489,2.489,0,0,0-.635,1.814h-1.536a3.565,3.565,0,0,1,1.075-2.7,3.985,3.985,0,0,1,2.876-1.029,3.829,3.829,0,0,1,2.665.884,3.015,3.015,0,0,1,.979,2.353q0,1.785-2.274,4.25l-3.237,3.511h6.068Z" transform="translate(1010.707 9531.2)" fill="#12263f"/>
    <path id="Path_1033367" data-name="Path 1033367" d="M70.612,12.414H65.375V16.7h6.084V18H63.781V5.914h7.6v1.3h-6V11.11h5.238Zm7.862,3.2a1.131,1.131,0,0,0-.469-.967,4.514,4.514,0,0,0-1.635-.594,7.731,7.731,0,0,1-1.851-.6,2.633,2.633,0,0,1-1.013-.83,1.986,1.986,0,0,1-.328-1.146,2.33,2.33,0,0,1,.934-1.868A3.647,3.647,0,0,1,76.5,8.853a3.753,3.753,0,0,1,2.478.789,2.5,2.5,0,0,1,.95,2.017H78.383a1.386,1.386,0,0,0-.535-1.087,2.006,2.006,0,0,0-1.349-.457,2.1,2.1,0,0,0-1.312.365,1.15,1.15,0,0,0-.473.955.932.932,0,0,0,.44.838,5.413,5.413,0,0,0,1.59.54,8.283,8.283,0,0,1,1.864.614,2.718,2.718,0,0,1,1.058.859,2.112,2.112,0,0,1,.344,1.224,2.3,2.3,0,0,1-.963,1.93,4.039,4.039,0,0,1-2.5.726,4.523,4.523,0,0,1-1.909-.382,3.105,3.105,0,0,1-1.3-1.067,2.571,2.571,0,0,1-.469-1.482h1.536a1.59,1.59,0,0,0,.618,1.224,2.4,2.4,0,0,0,1.523.452,2.476,2.476,0,0,0,1.4-.353A1.084,1.084,0,0,0,78.474,15.618Zm7.181,1.295a2.212,2.212,0,0,0,1.436-.5,1.752,1.752,0,0,0,.681-1.245h1.453a2.785,2.785,0,0,1-.531,1.469,3.5,3.5,0,0,1-1.307,1.112,3.772,3.772,0,0,1-1.731.415,3.7,3.7,0,0,1-2.918-1.224,4.877,4.877,0,0,1-1.083-3.349v-.257A5.407,5.407,0,0,1,82.136,11a3.667,3.667,0,0,1,1.382-1.585,3.926,3.926,0,0,1,2.129-.564,3.6,3.6,0,0,1,2.511.9,3.234,3.234,0,0,1,1.067,2.349H87.772a2.116,2.116,0,0,0-.66-1.432,2.053,2.053,0,0,0-1.465-.56,2.149,2.149,0,0,0-1.814.843,3.957,3.957,0,0,0-.643,2.436v.291a3.878,3.878,0,0,0,.639,2.391A2.16,2.16,0,0,0,85.656,16.913Zm9.68-6.516a4.6,4.6,0,0,0-.755-.058,2.024,2.024,0,0,0-2.05,1.287V18H90.994V9.019h1.494l.025,1.038a2.391,2.391,0,0,1,2.142-1.2,1.569,1.569,0,0,1,.681.116ZM98.457,18H96.922V9.019h1.536ZM96.8,6.636a.917.917,0,0,1,.228-.631.857.857,0,0,1,.677-.257.87.87,0,0,1,.681.257.907.907,0,0,1,.232.631.877.877,0,0,1-.232.623.886.886,0,0,1-.681.249.872.872,0,0,1-.677-.249A.886.886,0,0,1,96.8,6.636Zm11.763,6.973a5.34,5.34,0,0,1-.946,3.308,3.024,3.024,0,0,1-2.54,1.249,3.131,3.131,0,0,1-2.631-1.2L102.368,18h-1.411V5.25h1.536v4.756a3.113,3.113,0,0,1,2.565-1.154,3.042,3.042,0,0,1,2.569,1.237,5.5,5.5,0,0,1,.934,3.387Zm-1.536-.174a4.15,4.15,0,0,0-.606-2.424,2.006,2.006,0,0,0-1.743-.855,2.255,2.255,0,0,0-2.183,1.411v3.885a2.318,2.318,0,0,0,2.2,1.411,2,2,0,0,0,1.718-.855A4.413,4.413,0,0,0,107.025,13.435ZM116.082,18a3.226,3.226,0,0,1-.216-.946,3.426,3.426,0,0,1-2.557,1.112,3.17,3.17,0,0,1-2.179-.751,2.43,2.43,0,0,1-.851-1.905,2.539,2.539,0,0,1,1.067-2.179,5.029,5.029,0,0,1,3-.776h1.494v-.706a1.725,1.725,0,0,0-.481-1.282,1.935,1.935,0,0,0-1.419-.477,2.239,2.239,0,0,0-1.378.415,1.223,1.223,0,0,0-.556,1h-1.544a2.119,2.119,0,0,1,.477-1.3,3.258,3.258,0,0,1,1.295-.992,4.356,4.356,0,0,1,1.8-.365,3.551,3.551,0,0,1,2.432.776,2.8,2.8,0,0,1,.913,2.137V15.9a5.054,5.054,0,0,0,.315,1.967V18Zm-2.548-1.17a2.7,2.7,0,0,0,1.37-.374,2.259,2.259,0,0,0,.938-.971V13.642h-1.2q-2.822,0-2.822,1.652a1.4,1.4,0,0,0,.481,1.129A1.85,1.85,0,0,0,113.534,16.83Z" transform="translate(1009.711 9596.2)" fill="#12263f"/>
    <path id="Path_1033366" data-name="Path 1033366" d="M64.051,12.613a7.494,7.494,0,0,1-2.984-1.448,2.768,2.768,0,0,1-.934-2.121,2.923,2.923,0,0,1,1.141-2.362,4.536,4.536,0,0,1,2.968-.934,4.951,4.951,0,0,1,2.22.481,3.651,3.651,0,0,1,1.511,1.328,3.4,3.4,0,0,1,.535,1.851h-1.6a2.21,2.21,0,0,0-.7-1.729,2.835,2.835,0,0,0-1.967-.629,2.9,2.9,0,0,0-1.839.52,1.734,1.734,0,0,0-.66,1.443,1.56,1.56,0,0,0,.627,1.252A6.147,6.147,0,0,0,64.5,11.2a9.9,9.9,0,0,1,2.357.935,3.577,3.577,0,0,1,1.262,1.191,3.04,3.04,0,0,1,.411,1.6,2.824,2.824,0,0,1-1.146,2.353,4.884,4.884,0,0,1-3.063.884A5.681,5.681,0,0,1,62,17.689a3.911,3.911,0,0,1-1.664-1.307,3.191,3.191,0,0,1-.585-1.884h1.6a2.082,2.082,0,0,0,.809,1.731,3.408,3.408,0,0,0,2.162.635,3.133,3.133,0,0,0,1.934-.515,1.672,1.672,0,0,0,.672-1.4,1.641,1.641,0,0,0-.623-1.374A7.177,7.177,0,0,0,64.051,12.613Zm13.913,1a5.378,5.378,0,0,1-.938,3.3,3.006,3.006,0,0,1-2.54,1.253,3.294,3.294,0,0,1-2.573-1.038v4.325H70.377V9.019h1.4l.075,1a3.163,3.163,0,0,1,2.606-1.162,3.063,3.063,0,0,1,2.561,1.22,5.437,5.437,0,0,1,.942,3.4Zm-1.536-.174a3.968,3.968,0,0,0-.647-2.4A2.086,2.086,0,0,0,74,10.156a2.257,2.257,0,0,0-2.092,1.237v4.292a2.262,2.262,0,0,0,2.108,1.229,2.076,2.076,0,0,0,1.756-.876A4.332,4.332,0,0,0,76.429,13.435Zm3.122-.008a5.3,5.3,0,0,1,.519-2.374,3.87,3.87,0,0,1,1.444-1.627,3.932,3.932,0,0,1,2.113-.573,3.788,3.788,0,0,1,2.968,1.27A4.886,4.886,0,0,1,87.727,13.5v.108a5.351,5.351,0,0,1-.5,2.353,3.813,3.813,0,0,1-1.436,1.623,3.977,3.977,0,0,1-2.146.581,3.778,3.778,0,0,1-2.959-1.27,4.861,4.861,0,0,1-1.133-3.362Zm1.544.183a3.842,3.842,0,0,0,.693,2.4A2.349,2.349,0,0,0,85.5,16a4.2,4.2,0,0,0,.689-2.569,3.836,3.836,0,0,0-.7-2.395,2.23,2.23,0,0,0-1.864-.917,2.205,2.205,0,0,0-1.834.9A4.17,4.17,0,0,0,81.095,13.609Zm10.053-4.59.05,1.129a3.273,3.273,0,0,1,2.689-1.295q2.847,0,2.872,3.212V18H95.224V12.057a2.068,2.068,0,0,0-.444-1.436,1.78,1.78,0,0,0-1.357-.465,2.216,2.216,0,0,0-1.312.4,2.706,2.706,0,0,0-.88,1.046V18H89.7V9.019Zm13.2,6.6a1.131,1.131,0,0,0-.469-.967,4.514,4.514,0,0,0-1.635-.594,7.731,7.731,0,0,1-1.851-.6,2.633,2.633,0,0,1-1.013-.83,1.986,1.986,0,0,1-.328-1.146,2.33,2.33,0,0,1,.934-1.868,3.647,3.647,0,0,1,2.386-.764,3.753,3.753,0,0,1,2.478.789,2.5,2.5,0,0,1,.95,2.017h-1.544a1.386,1.386,0,0,0-.535-1.087,2.006,2.006,0,0,0-1.349-.457,2.1,2.1,0,0,0-1.312.365,1.15,1.15,0,0,0-.473.955.932.932,0,0,0,.44.838,5.413,5.413,0,0,0,1.59.54,8.283,8.283,0,0,1,1.864.614,2.718,2.718,0,0,1,1.058.859,2.112,2.112,0,0,1,.344,1.224,2.3,2.3,0,0,1-.963,1.93,4.039,4.039,0,0,1-2.5.726,4.523,4.523,0,0,1-1.909-.382,3.105,3.105,0,0,1-1.3-1.067,2.571,2.571,0,0,1-.469-1.482h1.536a1.59,1.59,0,0,0,.618,1.224,2.4,2.4,0,0,0,1.523.452,2.476,2.476,0,0,0,1.4-.353A1.084,1.084,0,0,0,104.347,15.618Zm3.172-2.191a5.3,5.3,0,0,1,.519-2.374,3.87,3.87,0,0,1,1.444-1.627,3.932,3.932,0,0,1,2.113-.573,3.788,3.788,0,0,1,2.968,1.27A4.886,4.886,0,0,1,115.7,13.5v.108a5.351,5.351,0,0,1-.5,2.353,3.813,3.813,0,0,1-1.436,1.623,3.977,3.977,0,0,1-2.146.581,3.778,3.778,0,0,1-2.959-1.27,4.861,4.861,0,0,1-1.133-3.362Zm1.544.183a3.842,3.842,0,0,0,.693,2.4A2.349,2.349,0,0,0,113.471,16a4.2,4.2,0,0,0,.689-2.569,3.836,3.836,0,0,0-.7-2.395,2.23,2.23,0,0,0-1.864-.917,2.205,2.205,0,0,0-1.834.9A4.17,4.17,0,0,0,109.063,13.609ZM122,10.4a4.6,4.6,0,0,0-.755-.058,2.024,2.024,0,0,0-2.05,1.287V18h-1.536V9.019h1.494l.025,1.038a2.391,2.391,0,0,1,2.142-1.2,1.569,1.569,0,0,1,.681.116Z" transform="translate(718.159 9596.2)" fill="#12263f"/>
    <path id="Path_1033360" data-name="Path 1033360" d="M34.456,14.837H29.393L28.256,18H26.612L31.227,5.914h1.395L37.245,18H35.61Zm-4.582-1.3h4.109L31.925,7.881ZM32.713,2.677h1.859l-2.225,2.44-1.237,0ZM43.348,13.111H40.509V18h-1.6V5.914h4a4.736,4.736,0,0,1,3.142.93,3.345,3.345,0,0,1,1.1,2.706,3.254,3.254,0,0,1-.61,1.967,3.642,3.642,0,0,1-1.7,1.253l2.839,5.13V18h-1.71Zm-2.839-1.3h2.449a2.762,2.762,0,0,0,1.888-.615,2.081,2.081,0,0,0,.7-1.647,2.191,2.191,0,0,0-.668-1.721,2.829,2.829,0,0,0-1.93-.607h-2.44Zm15.748.606H51.018V16.7H57.1V18H49.425V5.914h7.6v1.3h-6V11.11h5.238ZM65.8,14.837H60.74L59.6,18H57.959L62.574,5.914h1.395L68.592,18H66.957Zm-4.582-1.3H65.33L63.271,7.881ZM74.513,18V5.914h3.412a5.492,5.492,0,0,1,2.789.7A4.716,4.716,0,0,1,82.585,8.6a6.457,6.457,0,0,1,.668,2.955v.772a6.48,6.48,0,0,1-.66,3,4.642,4.642,0,0,1-1.884,1.976A5.842,5.842,0,0,1,77.858,18ZM76.106,7.217V16.7h1.677a3.648,3.648,0,0,0,2.868-1.146,4.737,4.737,0,0,0,1.025-3.265v-.706a4.812,4.812,0,0,0-.967-3.2,3.441,3.441,0,0,0-2.743-1.159Zm16.428,5.2H87.3V16.7h6.084V18H85.7V5.914h7.6v1.3h-6V11.11h5.238Zm15.143-5.2h-3.885V18h-1.585V7.217H98.331v-1.3h9.347Zm6.268,5.894h-2.839V18h-1.6V5.914h4a4.736,4.736,0,0,1,3.142.93,3.345,3.345,0,0,1,1.1,2.706,3.254,3.254,0,0,1-.61,1.967,3.642,3.642,0,0,1-1.7,1.253l2.839,5.13V18h-1.71Zm-2.839-1.3h2.449a2.762,2.762,0,0,0,1.888-.615,2.081,2.081,0,0,0,.7-1.647,2.191,2.191,0,0,0-.668-1.721,2.829,2.829,0,0,0-1.93-.607h-2.44Zm15.59,3.03h-5.063L120.5,18h-1.644l4.615-12.086h1.395L129.485,18H127.85Zm-4.582-1.3h4.109l-2.059-5.653ZM131.155,18V5.914h3.951a4.587,4.587,0,0,1,2.959.813,2.932,2.932,0,0,1,.992,2.407,2.455,2.455,0,0,1-.481,1.5,3.121,3.121,0,0,1-1.312,1.009,2.8,2.8,0,0,1,1.548,1.042,2.99,2.99,0,0,1,.569,1.83,3.232,3.232,0,0,1-1.054,2.557,4.36,4.36,0,0,1-2.98.93Zm1.594-5.653V16.7h2.631a2.534,2.534,0,0,0,1.756-.577,2.026,2.026,0,0,0,.643-1.59q0-2.183-2.374-2.183Zm0-1.278h2.407a2.523,2.523,0,0,0,1.673-.524,1.757,1.757,0,0,0,.627-1.422,1.728,1.728,0,0,0-.581-1.452,2.853,2.853,0,0,0-1.768-.453h-2.357Zm15.706,3.769h-5.063L142.254,18H140.61l4.615-12.086h1.395L151.244,18h-1.635Zm-4.582-1.3h4.109l-2.059-5.653Zm14.1-7.62h1.6v8.558a3.545,3.545,0,0,1-1.042,2.714,3.889,3.889,0,0,1-2.777.979,4,4,0,0,1-2.806-.921,3.327,3.327,0,0,1-1-2.582h1.594a2,2,0,0,0,2.216,2.2,2.137,2.137,0,0,0,1.6-.623,2.412,2.412,0,0,0,.618-1.743Zm13.656,6.433a7.476,7.476,0,0,1-.6,3.1,4.527,4.527,0,0,1-1.693,2.021,4.673,4.673,0,0,1-6.8-2,7.173,7.173,0,0,1-.627-3.009v-.872a7.387,7.387,0,0,1,.606-3.08,4.482,4.482,0,0,1,4.25-2.756,4.685,4.685,0,0,1,2.561.7,4.519,4.519,0,0,1,1.706,2.034,7.513,7.513,0,0,1,.6,3.1Zm-1.585-.78a5.419,5.419,0,0,0-.863-3.3,2.847,2.847,0,0,0-2.416-1.15,2.817,2.817,0,0,0-2.378,1.15,5.308,5.308,0,0,0-.892,3.192v.888a5.427,5.427,0,0,0,.876,3.275,3.069,3.069,0,0,0,4.8.066,5.4,5.4,0,0,0,.872-3.225Z" transform="translate(700.5 9466)" fill="#12263f"/>
    <path id="Path_1033363" data-name="Path 1033363" d="M54.687,13.094a12.834,12.834,0,0,1,.5-3.6,10.465,10.465,0,0,1,1.5-3.138,6.374,6.374,0,0,1,2.067-1.992l.315,1.013a6.611,6.611,0,0,0-1.988,2.839,12.307,12.307,0,0,0-.851,4.275l-.008.706a12.371,12.371,0,0,0,1.17,5.562,6.642,6.642,0,0,0,1.677,2.208l-.315.938a6.579,6.579,0,0,1-2.108-2.059A11.538,11.538,0,0,1,54.687,13.094Zm8.21-7.18,3.951,9.861L70.8,5.914h2.067V18H71.273V13.293l.149-5.08L67.455,18h-1.22L62.275,8.238l.158,5.055V18H60.839V5.914ZM79.21,18.166a3.924,3.924,0,0,1-2.972-1.2,4.452,4.452,0,0,1-1.146-3.208v-.282a5.39,5.39,0,0,1,.51-2.386,3.982,3.982,0,0,1,1.428-1.644,3.59,3.59,0,0,1,1.988-.594,3.364,3.364,0,0,1,2.723,1.154,5,5,0,0,1,.971,3.3v.639H76.628a3.193,3.193,0,0,0,.776,2.146,2.44,2.44,0,0,0,1.888.818,2.675,2.675,0,0,0,1.378-.332,3.462,3.462,0,0,0,.988-.88l.938.73A3.772,3.772,0,0,1,79.21,18.166Zm-.191-8.052a2.048,2.048,0,0,0-1.561.677,3.288,3.288,0,0,0-.78,1.9h4.5v-.116a2.925,2.925,0,0,0-.631-1.814A1.928,1.928,0,0,0,79.019,10.114Zm10.742,5.5a1.131,1.131,0,0,0-.469-.967,4.514,4.514,0,0,0-1.635-.594,7.731,7.731,0,0,1-1.851-.6,2.633,2.633,0,0,1-1.013-.83,1.986,1.986,0,0,1-.328-1.146A2.33,2.33,0,0,1,85.4,9.616a3.647,3.647,0,0,1,2.386-.764,3.753,3.753,0,0,1,2.478.789,2.5,2.5,0,0,1,.95,2.017H89.67a1.386,1.386,0,0,0-.535-1.087,2.006,2.006,0,0,0-1.349-.457,2.1,2.1,0,0,0-1.312.365,1.15,1.15,0,0,0-.473.955.932.932,0,0,0,.44.838,5.413,5.413,0,0,0,1.59.54,8.283,8.283,0,0,1,1.864.614,2.718,2.718,0,0,1,1.058.859A2.112,2.112,0,0,1,91.3,15.51a2.3,2.3,0,0,1-.963,1.93,4.039,4.039,0,0,1-2.5.726,4.523,4.523,0,0,1-1.909-.382,3.105,3.105,0,0,1-1.3-1.067,2.571,2.571,0,0,1-.469-1.482h1.536a1.59,1.59,0,0,0,.618,1.224,2.4,2.4,0,0,0,1.523.452,2.476,2.476,0,0,0,1.4-.353A1.084,1.084,0,0,0,89.761,15.618ZM98.885,18a3.226,3.226,0,0,1-.216-.946,3.426,3.426,0,0,1-2.557,1.112,3.17,3.17,0,0,1-2.179-.751,2.43,2.43,0,0,1-.851-1.905,2.539,2.539,0,0,1,1.067-2.179,5.029,5.029,0,0,1,3-.776h1.494v-.706a1.725,1.725,0,0,0-.481-1.282,1.935,1.935,0,0,0-1.419-.477,2.239,2.239,0,0,0-1.378.415,1.223,1.223,0,0,0-.556,1H93.265a2.119,2.119,0,0,1,.477-1.3,3.258,3.258,0,0,1,1.295-.992,4.356,4.356,0,0,1,1.8-.365,3.551,3.551,0,0,1,2.432.776,2.8,2.8,0,0,1,.913,2.137V15.9a5.054,5.054,0,0,0,.315,1.967V18Zm-2.548-1.17a2.7,2.7,0,0,0,1.37-.374,2.259,2.259,0,0,0,.938-.971V13.642h-1.2q-2.822,0-2.822,1.652a1.4,1.4,0,0,0,.481,1.129A1.85,1.85,0,0,0,96.336,16.83Zm14.271,1.336a3.924,3.924,0,0,1-2.972-1.2,4.452,4.452,0,0,1-1.146-3.208v-.282A5.39,5.39,0,0,1,107,11.09a3.982,3.982,0,0,1,1.428-1.644,3.59,3.59,0,0,1,1.988-.594,3.364,3.364,0,0,1,2.723,1.154,5,5,0,0,1,.971,3.3v.639h-6.084a3.193,3.193,0,0,0,.776,2.146,2.44,2.44,0,0,0,1.888.818,2.675,2.675,0,0,0,1.378-.332,3.462,3.462,0,0,0,.988-.88l.938.73A3.772,3.772,0,0,1,110.607,18.166Zm-.191-8.052a2.048,2.048,0,0,0-1.561.677,3.288,3.288,0,0,0-.78,1.9h4.5v-.116a2.925,2.925,0,0,0-.631-1.814A1.928,1.928,0,0,0,110.417,10.114Zm6.965-1.1.05,1.129a3.273,3.273,0,0,1,2.689-1.295q2.847,0,2.872,3.212V18h-1.536V12.057a2.068,2.068,0,0,0-.444-1.436,1.78,1.78,0,0,0-1.357-.465,2.216,2.216,0,0,0-1.312.4,2.706,2.706,0,0,0-.88,1.046V18h-1.536V9.019Zm20.97-3.1v8.218a3.855,3.855,0,0,1-1.075,2.8,4.332,4.332,0,0,1-2.893,1.22l-.423.017A4.524,4.524,0,0,1,130.8,17.1a3.83,3.83,0,0,1-1.2-2.947V5.914h1.577V14.1a2.764,2.764,0,0,0,.722,2.038,3.305,3.305,0,0,0,4.13,0,2.759,2.759,0,0,0,.718-2.034V5.914Zm5.861,7.263a12.84,12.84,0,0,1-.486,3.549,10.493,10.493,0,0,1-1.486,3.134,6.51,6.51,0,0,1-2.1,2.042l-.324-.938a6.673,6.673,0,0,0,2.054-3.042,13.161,13.161,0,0,0,.793-4.578v-.266a13.665,13.665,0,0,0-.365-3.241,10.94,10.94,0,0,0-1.017-2.685A6.2,6.2,0,0,0,139.822,5.3l.324-.938a6.485,6.485,0,0,1,2.088,2.025,10.516,10.516,0,0,1,1.486,3.129A13.136,13.136,0,0,1,144.213,13.177Z" transform="translate(700.5 9530)" fill="#12263f"/>
    <g id="usuario" transform="translate(390.546 9462.488)">
      <g id="Group_1189235" data-name="Group 1189235" transform="translate(29.32)">
        <g id="Group_1189234" data-name="Group 1189234" transform="translate(0)">
          <path id="Path_1033116" data-name="Path 1033116" d="M117.911,0a7.12,7.12,0,1,0,7.12,7.12A7.139,7.139,0,0,0,117.911,0Z" transform="translate(-110.791)" fill="#19538d"/>
        </g>
      </g>
      <g id="Group_1189237" data-name="Group 1189237" transform="translate(24.165 14.75)">
        <g id="Group_1189236" data-name="Group 1189236" transform="translate(0)">
          <path id="Path_1033117" data-name="Path 1033117" d="M48.66,253.021a6.638,6.638,0,0,0-.715-1.306,8.85,8.85,0,0,0-6.125-3.855,1.311,1.311,0,0,0-.9.218,7.59,7.59,0,0,1-8.955,0,1.167,1.167,0,0,0-.9-.218,8.786,8.786,0,0,0-6.125,3.855,7.654,7.654,0,0,0-.715,1.306.661.661,0,0,0,.031.591,12.405,12.405,0,0,0,.839,1.244,11.818,11.818,0,0,0,1.43,1.617,18.636,18.636,0,0,0,1.43,1.244,14.179,14.179,0,0,0,16.914,0,13.671,13.671,0,0,0,1.43-1.244,14.36,14.36,0,0,0,1.43-1.617,10.9,10.9,0,0,0,.839-1.244A.531.531,0,0,0,48.66,253.021Z" transform="translate(-24.165 -247.841)" fill="#19538d"/>
        </g>
      </g>
    </g>
    <g id="usuario-2" data-name="usuario" transform="translate(973.546 9462.488)">
      <g id="Group_1189235-2" data-name="Group 1189235" transform="translate(29.32)">
        <g id="Group_1189234-2" data-name="Group 1189234" transform="translate(0)">
          <path id="Path_1033116-2" data-name="Path 1033116" d="M117.911,0a7.12,7.12,0,1,0,7.12,7.12A7.139,7.139,0,0,0,117.911,0Z" transform="translate(-110.791)" fill="#19538d"/>
        </g>
      </g>
      <g id="Group_1189237-2" data-name="Group 1189237" transform="translate(24.165 14.75)">
        <g id="Group_1189236-2" data-name="Group 1189236" transform="translate(0)">
          <path id="Path_1033117-2" data-name="Path 1033117" d="M48.66,253.021a6.638,6.638,0,0,0-.715-1.306,8.85,8.85,0,0,0-6.125-3.855,1.311,1.311,0,0,0-.9.218,7.59,7.59,0,0,1-8.955,0,1.167,1.167,0,0,0-.9-.218,8.786,8.786,0,0,0-6.125,3.855,7.654,7.654,0,0,0-.715,1.306.661.661,0,0,0,.031.591,12.405,12.405,0,0,0,.839,1.244,11.818,11.818,0,0,0,1.43,1.617,18.636,18.636,0,0,0,1.43,1.244,14.179,14.179,0,0,0,16.914,0,13.671,13.671,0,0,0,1.43-1.244,14.36,14.36,0,0,0,1.43-1.617,10.9,10.9,0,0,0,.839-1.244A.531.531,0,0,0,48.66,253.021Z" transform="translate(-24.165 -247.841)" fill="#19538d"/>
        </g>
      </g>
    </g>
    <g id="computadora-personal" transform="translate(414.711 9533.577)">
      <path id="Path_1033118" data-name="Path 1033118" d="M0,0H24.547V12.268H0ZM0,0" fill="#19538d"/>
      <path id="Path_1033119" data-name="Path 1033119" d="M24.547,285.879H0v3.7H9.665l-.622,2.408H7.991v1.438h8.566v-1.438H15.5l-.622-2.408h9.665Zm0,0" transform="translate(0 -272.173)" fill="#19538d"/>
    </g>
    <g id="computadora-personal-2" data-name="computadora-personal" transform="translate(997.711 9533.577)">
      <path id="Path_1033118-2" data-name="Path 1033118" d="M0,0H24.547V12.268H0ZM0,0" fill="#19538d"/>
      <path id="Path_1033119-2" data-name="Path 1033119" d="M24.547,285.879H0v3.7H9.665l-.622,2.408H7.991v1.438h8.566v-1.438H15.5l-.622-2.408h9.665Zm0,0" transform="translate(0 -272.173)" fill="#19538d"/>
    </g>
    <g id="escribir" transform="translate(995.729 9580.059)">
      <path id="Path_1033120" data-name="Path 1033120" d="M452.644,189.948h-1.8a.844.844,0,0,0-.844.844v12.375a.844.844,0,0,0,.844.844h1.8a.844.844,0,0,0,.844-.844V190.792A.844.844,0,0,0,452.644,189.948Z" transform="translate(-424.687 -167.96)" fill="#19538d"/>
      <path id="Path_1033121" data-name="Path 1033121" d="M241,16.662l1.406-2.436A1.125,1.125,0,0,0,242,12.69l-.974-.563a1.125,1.125,0,0,0-1.537.412l-1.406,2.436Z" transform="translate(-224.687)" fill="#19538d"/>
      <path id="Path_1033122" data-name="Path 1033122" d="M1,143.441a1.015,1.015,0,0,0,1.375-.385l6.9-11.943a2.25,2.25,0,0,0-1.87.388l-2.389,1.792a6.188,6.188,0,0,0-1.7,1.943L.25,140.752a1.985,1.985,0,0,0,.742,2.683l.01.006Z" transform="translate(0 -112.377)" fill="#19538d"/>
      <path id="Path_1033123" data-name="Path 1033123" d="M102.661,103.008h3.658l5.808-10.06L109.2,91.261l-6.787,11.756C102.5,103.012,102.579,103.008,102.661,103.008Z" transform="translate(-96.656 -74.825)" fill="#19538d"/>
      <path id="Path_1033124" data-name="Path 1033124" d="M18.438,393.75l-.873,1.512a.844.844,0,0,0-.09.228l-.805,3.405a.675.675,0,0,0,1.12.647l2.546-2.4a.844.844,0,0,0,.152-.192l.69-1.2A3.666,3.666,0,0,1,18.438,393.75Z" transform="translate(-15.714 -360.298)" fill="#19538d"/>
      <path id="Path_1033125" data-name="Path 1033125" d="M118.023,430.092h-5.33l-1.114,1.929a1.968,1.968,0,0,0,3.386-1.366,1.969,1.969,0,1,0,3.938,0v-.129C118.7,430.433,118.23,430.195,118.023,430.092Z" transform="translate(-105.303 -394.596)" fill="#19538d"/>
      <path id="Path_1033126" data-name="Path 1033126" d="M83.8,162.6l-4.465,7.734h1.326a.844.844,0,0,1,0,1.688H73.729a1.969,1.969,0,1,0,0,3.938h7.113l.933.466a11.626,11.626,0,0,0,5.173,1.221,12.041,12.041,0,0,0,4.4-.845V165.831h-1.33Z" transform="translate(-67.724 -142.148)" fill="#19538d"/>
    </g>
    <path id="papel_1_" data-name="papel (1)" d="M86.1,26.159v7.9a.9.9,0,0,1-.9.9H77.376a.281.281,0,0,0-.28.28V49.757a.656.656,0,0,0,.656.656H95.514a.656.656,0,0,0,.656-.656V26.535a.656.656,0,0,0-.656-.656H86.385A.281.281,0,0,0,86.1,26.159Zm-1.792,6.723a.281.281,0,0,1-.28.28H79.025a.28.28,0,0,1-.2-.477l5.008-5.044a.28.28,0,0,1,.479.2Zm-2.361,5.655h9.363a.9.9,0,0,1,0,1.793H81.951a.9.9,0,1,1,0-1.793Zm9.363,5.493a.9.9,0,0,1,0,1.792H81.951a.9.9,0,1,1,0-1.792Z" transform="translate(340.308 9567.554)" fill="#19538d" fill-rule="evenodd"/>
    <g id="Layer_2" data-name="Layer 2" transform="translate(703.999 9591.433)">
      <path id="Path_1033131" data-name="Path 1033131" d="M25.824,12.86l-4.633,4.771,1.088,6.677A1.728,1.728,0,0,1,19.733,26.1L14.157,23,8.585,26.1a1.73,1.73,0,0,1-2.546-1.791l1.085-6.683L2.491,12.86a1.731,1.731,0,0,1,.978-2.917L9.8,8.973,12.594,3a1.731,1.731,0,0,1,3.135,0l2.8,5.981,6.324.966a1.731,1.731,0,0,1,.978,2.917Z" fill="#19538d"/>
    </g>
    <g id="layer1" transform="translate(482.766 9039.675)">
      <path id="path4987" d="M8.278,281.125a.873.873,0,0,0-.87.877v5.242a.873.873,0,0,0,.87.87H13.52a.873.873,0,0,0,.87-.87V282a.873.873,0,0,0-.87-.877Z" transform="translate(14.611 0)" fill="#e87e23"/>
      <path id="path4989" d="M7.408,282.184v2.624a.873.873,0,0,0,.87.87H13.52a.873.873,0,0,0,.87-.87v-2.624H7.408Z" transform="translate(14.611 2.437)" fill="#d17120"/>
      <path id="path4991" d="M9.959,292.238a.873.873,0,0,0-.775.476L3.8,303.191a.873.873,0,0,0,.781,1.278H9.959a.874.874,0,0,0,.78-.478l5.384-10.484a.874.874,0,0,0-.78-1.269Zm13.551,0a.873.873,0,0,0-.78,1.269l5.384,10.484a.874.874,0,0,0,.78.478h5.377a.873.873,0,0,0,.781-1.278l-5.384-10.477a.873.873,0,0,0-.774-.476Z" transform="translate(6.083 25.572)" fill="#e87e23"/>
      <path id="path4996" d="M2.462,282.713a.873.873,0,0,0-.877.877v27.949a.873.873,0,0,0,.877.87H46.13a.873.873,0,0,0,.877-.87V283.59a.873.873,0,0,0-.877-.877Z" transform="translate(1.213 3.654)" fill="#ff8a26"/>
      <path id="path4998" d="M3.521,283.772a.873.873,0,0,0-.877.877V309.1a.873.873,0,0,0,.877.87H40.2a.873.873,0,0,0,.877-.87V284.649a.874.874,0,0,0-.877-.877Z" transform="translate(3.649 6.091)" fill="#41c47d"/>
      <path id="path7205" d="M3.521,283.771a.873.873,0,0,0-.877.877V309.1a.874.874,0,0,0,.877.87h.87V286.395a.874.874,0,0,1,.877-.877h35.81v-.87a.874.874,0,0,0-.877-.877Z" transform="translate(3.649 6.089)" fill="#3cb372"/>
      <path id="path7210" d="M14.55,282.713a.873.873,0,0,1,.877.877v27.949a.873.873,0,0,1-.877.87H16.3a.873.873,0,0,0,.877-.87V283.59a.873.873,0,0,0-.877-.877Z" transform="translate(31.046 3.654)" fill="#e87e23"/>
      <path id="path5001" d="M5.109,290.121a.873.873,0,0,0-.877.877v3.495a.874.874,0,0,0,.877.87h6.983a.874.874,0,0,0,.877-.87V291a.874.874,0,0,0-.877-.877Z" transform="translate(7.303 20.7)" fill="#ffcf4d"/>
      <path id="path5007" d="M7.218,292.238a.873.873,0,0,0-.775.476l-1.551,3.018h7.345l1.143-2.224a.874.874,0,0,0-.78-1.269Zm13.551,0a.873.873,0,0,0-.78,1.269l1.143,2.224h7.345l-1.551-3.018a.873.873,0,0,0-.774-.476Z" transform="translate(8.824 25.572)" fill="#d17120"/>
      <path id="path16400" d="M6.084,290.121A.873.873,0,0,1,6.96,291v3.494a.873.873,0,0,1-.877.87H7.83a.873.873,0,0,0,.877-.87V291a.873.873,0,0,0-.877-.877Z" transform="translate(11.564 20.7)" fill="#e8bd46"/>
      <path id="path5009" d="M1.929,296.421a.873.873,0,0,1-.87-.877V292.05a.873.873,0,0,1,.87-.87H49.091a.873.873,0,0,1,.877.87v3.494a.873.873,0,0,1-.877.877Z" transform="translate(0 23.135)" fill="#ff8a26"/>
      <path id="path5011" d="M1.928,291.18a.873.873,0,0,0-.87.87v.877H49.969v-.877a.873.873,0,0,0-.879-.87Z" transform="translate(0 23.137)" fill="#ff9439"/>
      <path id="path7215" d="M15.08,291.18a.873.873,0,0,1,.877.87v3.5a.873.873,0,0,1-.877.877h1.747a.873.873,0,0,0,.877-.877v-3.5a.873.873,0,0,0-.877-.87Z" transform="translate(32.265 23.137)" fill="#e87e23"/>
      <path id="path7220" d="M15.08,291.18a.873.873,0,0,1,.877.87v.877H17.7v-.877a.873.873,0,0,0-.877-.87H15.08Z" transform="translate(32.265 23.137)" fill="#ff8a26"/>
    </g>
    <g id="objetivo" transform="translate(772.19 9319.966)">
      <g id="Group_1189238" data-name="Group 1189238" transform="translate(-4.407 -4.392)">
        <circle id="Ellipse_13735" data-name="Ellipse 13735" cx="22.333" cy="22.333" r="22.333" transform="translate(0 31.579) rotate(-45)" fill="#ff0363"/>
        <path id="Path_1033132" data-name="Path 1033132" d="M46.224,63.386A17.161,17.161,0,1,1,63.386,46.224,17.161,17.161,0,0,1,46.224,63.386Z" transform="translate(-14.638 -14.645)" fill="#f9f2f2"/>
        <path id="Path_1033133" data-name="Path 1033133" d="M53.052,65.043a11.989,11.989,0,1,1,11.991-11.99,11.989,11.989,0,0,1-11.991,11.99Z" transform="translate(-21.467 -21.473)" fill="#ff0363"/>
        <circle id="Ellipse_13736" data-name="Ellipse 13736" cx="6.817" cy="6.817" r="6.817" transform="matrix(0.161, -0.987, 0.987, 0.161, 23.761, 37.209)" fill="#f9f2f2"/>
      </g>
      <g id="Group_1189239" data-name="Group 1189239" transform="translate(0.64 0.649)">
        <path id="Path_1033134" data-name="Path 1033134" d="M46.586,48.621a1.506,1.506,0,0,1-1.063-.451L30.157,32.525a1.509,1.509,0,1,1,2.153-2.114L47.676,46.056a1.508,1.508,0,0,1-1.09,2.565Z" transform="translate(-20.061 -20.195)" fill="#fea53d"/>
        <path id="Path_1033135" data-name="Path 1033135" d="M14.536,7.3l7.5,7.64.142,7.375-7.375-.27-7.5-7.64,7.371.265Z" transform="translate(-7.303 -7.303)" fill="#19538d"/>
      </g>
    </g>
    <g id="documento-comercial" transform="translate(1059.647 9316.075)">
      <g id="Group_1189240" data-name="Group 1189240" transform="translate(18.623 4.501)">
        <path id="Path_1033136" data-name="Path 1033136" d="M64.6,14.686V42.677a2.431,2.431,0,0,1-2.431,2.431H32.077a2.431,2.431,0,0,1-2.431-2.431V6.932A2.431,2.431,0,0,1,32.077,4.5H54.417a2.048,2.048,0,0,1,1.448.6L64,13.238a2.048,2.048,0,0,1,.6,1.448Z" transform="translate(-29.646 -4.501)" fill="#e4e3ff"/>
      </g>
      <g id="Group_1189241" data-name="Group 1189241" transform="translate(18.623 10.935)">
        <path id="Path_1033137" data-name="Path 1033137" d="M64.6,20.821V48.813a2.431,2.431,0,0,1-2.431,2.431H32.077a2.431,2.431,0,0,1-2.431-2.431V48.6h23.4A8.656,8.656,0,0,0,61.7,39.942V17.071l2.3,2.3a2.048,2.048,0,0,1,.6,1.448Z" transform="translate(-29.646 -17.071)" fill="#d0d0f7"/>
      </g>
      <g id="Group_1189242" data-name="Group 1189242" transform="translate(11.724 10.771)">
        <path id="Path_1033138" data-name="Path 1033138" d="M45.058,51.086a2.077,2.077,0,0,1-1.126.333H18.245a2.08,2.08,0,0,1-2.078-2.078V18.822a2.079,2.079,0,0,1,2.078-2.073h4.822V48.655A2.434,2.434,0,0,0,25.5,51.086H45.058Z" transform="translate(-16.167 -16.749)" fill="#e4e3ff"/>
      </g>
      <g id="Group_1189243" data-name="Group 1189243" transform="translate(15.72 10.77)">
        <path id="Path_1033139" data-name="Path 1033139" d="M23.974,16.749h2.9V32.708h-2.9Z" transform="translate(-23.974 -16.749)" fill="#d0d0f7"/>
      </g>
      <g id="Group_1189244" data-name="Group 1189244" transform="translate(7.064 24.118)">
        <path id="Path_1033140" data-name="Path 1033140" d="M22.66,48.243l-3.228-4.552a2.054,2.054,0,0,0-1.675-.866H9.118a2.054,2.054,0,0,0-2.054,2.054V70.293a2.054,2.054,0,0,0,2.054,2.054H46.285a2.054,2.054,0,0,0,2.054-2.054v-20a2.054,2.054,0,0,0-2.054-2.054Z" transform="translate(-7.064 -42.825)" fill="#f9b938"/>
      </g>
      <g id="Group_1189245" data-name="Group 1189245" transform="translate(7.066 29.536)">
        <path id="Path_1033141" data-name="Path 1033141" d="M48.34,55.462v20a2.059,2.059,0,0,1-2.053,2.053H9.12a2.053,2.053,0,0,1-2.053-2.053v-.7H39.609a6.044,6.044,0,0,0,6.044-6.044V53.409h.635a2.059,2.059,0,0,1,2.053,2.053Z" transform="translate(-7.067 -53.409)" fill="#ecb021"/>
      </g>
      <g id="Group_1189246" data-name="Group 1189246" transform="translate(13.834 36.132)">
        <path id="Path_1033142" data-name="Path 1033142" d="M48.024,67.53v9.3A1.235,1.235,0,0,1,46.79,78.06H21.523a1.235,1.235,0,0,1-1.235-1.235v-9.3A1.235,1.235,0,0,1,21.523,66.3H46.79a1.235,1.235,0,0,1,1.235,1.235Z" transform="translate(-20.289 -66.295)" fill="#fc6559"/>
      </g>
      <g id="Group_1189247" data-name="Group 1189247" transform="translate(13.833 36.134)">
        <path id="Path_1033143" data-name="Path 1033143" d="M48.026,67.533v9.3a1.235,1.235,0,0,1-1.239,1.234H21.521a1.234,1.234,0,0,1-1.234-1.234V75.272h21.83a2.7,2.7,0,0,0,2.7-2.7V66.3h1.966a1.235,1.235,0,0,1,1.239,1.234Z" transform="translate(-20.287 -66.299)" fill="#f05543"/>
      </g>
      <g id="Group_1189251" data-name="Group 1189251" transform="translate(23.352 19.284)">
        <g id="Group_1189248" data-name="Group 1189248" transform="translate(0.001)">
          <path id="Path_1033144" data-name="Path 1033144" d="M63.871,34.405H39.4a.512.512,0,0,1,0-1.024H63.871a.512.512,0,1,1,0,1.024Z" transform="translate(-38.885 -33.381)" fill="#474646"/>
        </g>
        <g id="Group_1189249" data-name="Group 1189249" transform="translate(0 3.053)">
          <path id="Path_1033145" data-name="Path 1033145" d="M63.871,40.369H39.4a.512.512,0,1,1,0-1.024H63.871a.512.512,0,1,1,0,1.024Z" transform="translate(-38.884 -39.345)" fill="#474646"/>
        </g>
        <g id="Group_1189250" data-name="Group 1189250" transform="translate(0 6.105)">
          <path id="Path_1033146" data-name="Path 1033146" d="M63.871,46.332H39.4a.512.512,0,1,1,0-1.024H63.871a.512.512,0,1,1,0,1.024Z" transform="translate(-38.884 -45.308)" fill="#474646"/>
        </g>
      </g>
      <g id="Group_1189254" data-name="Group 1189254" transform="translate(16.971 38.493)">
        <g id="Group_1189252" data-name="Group 1189252" transform="translate(2.029)">
          <path id="Path_1033147" data-name="Path 1033147" d="M34.555,71.93H30.893a.512.512,0,1,1,0-1.024h3.662a.512.512,0,1,1,0,1.024Z" transform="translate(-30.381 -70.907)" fill="#fff"/>
        </g>
        <g id="Group_1189253" data-name="Group 1189253">
          <path id="Path_1033148" data-name="Path 1033148" d="M27.211,71.93h-.282a.512.512,0,1,1,0-1.024h.282a.512.512,0,1,1,0,1.024Z" transform="translate(-26.417 -70.907)" fill="#fff"/>
        </g>
      </g>
      <g id="Group_1189260" data-name="Group 1189260" transform="translate(23.864 9.168)">
        <g id="Group_1189255" data-name="Group 1189255" transform="translate(0)">
          <path id="Path_1033149" data-name="Path 1033149" d="M55.706,14.4v4.745a.781.781,0,0,1-.781.781H40.666a.781.781,0,0,1-.781-.781V14.4a.781.781,0,0,1,.781-.781H54.925A.781.781,0,0,1,55.706,14.4Z" transform="translate(-39.885 -13.618)" fill="#00d67f"/>
        </g>
        <g id="Group_1189256" data-name="Group 1189256" transform="translate(0 0)">
          <path id="Path_1033150" data-name="Path 1033150" d="M55.707,14.4v4.745a.783.783,0,0,1-.783.783H40.667a.78.78,0,0,1-.783-.783V18.129H53.091a.78.78,0,0,0,.783-.783V13.619h1.049a.782.782,0,0,1,.783.778Z" transform="translate(-39.884 -13.619)" fill="#00c179"/>
        </g>
        <g id="Group_1189259" data-name="Group 1189259" transform="translate(2.067 1.875)">
          <g id="Group_1189257" data-name="Group 1189257" transform="translate(2.214)">
            <path id="Path_1033151" data-name="Path 1033151" d="M52.051,18.3H48.759a.512.512,0,1,1,0-1.024h3.292a.512.512,0,0,1,0,1.024Z" transform="translate(-48.248 -17.281)" fill="#fff"/>
          </g>
          <g id="Group_1189258" data-name="Group 1189258">
            <path id="Path_1033152" data-name="Path 1033152" d="M44.716,18.3h-.282a.512.512,0,0,1,0-1.024h.282a.512.512,0,0,1,0,1.024Z" transform="translate(-43.922 -17.281)" fill="#fff"/>
          </g>
        </g>
      </g>
      <g id="Group_1189261" data-name="Group 1189261" transform="translate(44.243 4.685)">
        <path id="Path_1033153" data-name="Path 1033153" d="M88.848,14.013H81.231A1.534,1.534,0,0,1,79.7,12.478V4.861a2.093,2.093,0,0,1,.6.415l8.139,8.139a2.093,2.093,0,0,1,.415.6Z" transform="translate(-79.696 -4.861)" fill="#8e8ed2"/>
      </g>
    </g>
    <g id="Mask_Group_1178526" data-name="Mask Group 1178526" transform="translate(0 7647)" clip-path="url(#clip-path)">
      <g id="Group_1189268" data-name="Group 1189268">
        <path id="Línea_3303" data-name="Línea 3303" d="M-1.467,62.061a1.867,1.867,0,0,1-1.325-.549,1.873,1.873,0,0,1,0-2.649L58.863-2.791a1.873,1.873,0,0,1,2.649,0,1.873,1.873,0,0,1,0,2.649L-.142,61.512A1.868,1.868,0,0,1-1.467,62.061Z" transform="translate(331.939 1626.34)" fill="#19538d"/>
        <path id="Línea_3304" data-name="Línea 3304" d="M-2.933,62.468a3.735,3.735,0,0,1-2.649-1.1,3.747,3.747,0,0,1,0-5.3L56.071-5.583a3.747,3.747,0,0,1,5.3,0,3.747,3.747,0,0,1,0,5.3L-.284,61.37A3.735,3.735,0,0,1-2.933,62.468Z" transform="translate(279.151 1664.131)" fill="#19538d"/>
        <g id="Group_1189267" data-name="Group 1189267" transform="translate(255.464 1704.104)">
          <path id="Trazado_998899" data-name="Trazado 998899" d="M26.807,537.842l-1.322-1.322,22.293-22.293a14.842,14.842,0,0,1,10.495-4.347,12.888,12.888,0,0,0,9.173-3.8l14.1-14.1,1.322,1.322-14.1,14.1a14.842,14.842,0,0,1-10.495,4.347,12.888,12.888,0,0,0-9.173,3.8Z" transform="translate(-25.486 -453.647)" fill="#7dd3ff"/>
          <path id="Path_1033170" data-name="Path 1033170" d="M193.042,478.576a3.182,3.182,0,1,0,0,4.5,3.182,3.182,0,0,0,0-4.5" transform="translate(-131.949 -443.953)" fill="#7dd3ff" fill-rule="evenodd"/>
          <path id="Trazado_998907" data-name="Trazado 998907" d="M17.776,367.738l-1.322-1.322L68.421,314.45a12.888,12.888,0,0,0,3.8-9.173v-8.912a14.842,14.842,0,0,1,4.347-10.495l8.333-8.334,1.322,1.322-8.333,8.334a12.888,12.888,0,0,0-3.8,9.173v8.912a14.842,14.842,0,0,1-4.347,10.495Z" transform="translate(7.382 -274.908)" fill="#7dd3ff"/>
          <path id="Path_1033171" data-name="Path 1033171" d="M213.54,270.839a3.182,3.182,0,1,1-4.5,0,3.182,3.182,0,0,1,4.5,0" transform="translate(-118.518 -269.627)" fill="#7dd3ff" fill-rule="evenodd"/>
          <path id="Trazado_998908_-_Contorno" data-name="Trazado 998908 - Contorno" d="M211.072,276.332a3.462,3.462,0,1,1,2.448-1.014A3.44,3.44,0,0,1,211.072,276.332Zm0-6.364a2.9,2.9,0,1,0,2.052.85A2.883,2.883,0,0,0,211.072,269.968Z" transform="translate(-118.3 -269.407)" fill="#7dd3ff"/>
        </g>
      </g>
    </g>
    <g id="Mask_Group_1178527" data-name="Mask Group 1178527" transform="translate(1599.422 11323) rotate(180)" clip-path="url(#clip-path)">
      <g id="Group_1189270" data-name="Group 1189270">
        <path id="Línea_3303-2" data-name="Línea 3303" d="M-1.467,62.061a1.867,1.867,0,0,1-1.325-.549,1.873,1.873,0,0,1,0-2.649L58.863-2.791a1.873,1.873,0,0,1,2.649,0,1.873,1.873,0,0,1,0,2.649L-.142,61.512A1.868,1.868,0,0,1-1.467,62.061Z" transform="translate(331.939 1626.34)" fill="#19538d"/>
        <path id="Línea_3304-2" data-name="Línea 3304" d="M-2.933,62.468a3.735,3.735,0,0,1-2.649-1.1,3.747,3.747,0,0,1,0-5.3L56.071-5.583a3.747,3.747,0,0,1,5.3,0,3.747,3.747,0,0,1,0,5.3L-.284,61.37A3.735,3.735,0,0,1-2.933,62.468Z" transform="translate(279.151 1664.131)" fill="#19538d"/>
        <g id="Group_1189269" data-name="Group 1189269" transform="translate(255.464 1704.104)">
          <path id="Trazado_998899-2" data-name="Trazado 998899" d="M26.807,537.842l-1.322-1.322,22.293-22.293a14.842,14.842,0,0,1,10.495-4.347,12.888,12.888,0,0,0,9.173-3.8l14.1-14.1,1.322,1.322-14.1,14.1a14.842,14.842,0,0,1-10.495,4.347,12.888,12.888,0,0,0-9.173,3.8Z" transform="translate(-25.486 -453.647)" fill="#7dd3ff"/>
          <path id="Path_1033172" data-name="Path 1033172" d="M193.042,478.576a3.182,3.182,0,1,0,0,4.5,3.182,3.182,0,0,0,0-4.5" transform="translate(-131.949 -443.953)" fill="#7dd3ff" fill-rule="evenodd"/>
          <path id="Trazado_998907-2" data-name="Trazado 998907" d="M17.776,367.738l-1.322-1.322L68.421,314.45a12.888,12.888,0,0,0,3.8-9.173v-8.912a14.842,14.842,0,0,1,4.347-10.495l8.333-8.334,1.322,1.322-8.333,8.334a12.888,12.888,0,0,0-3.8,9.173v8.912a14.842,14.842,0,0,1-4.347,10.495Z" transform="translate(7.382 -274.908)" fill="#7dd3ff"/>
          <path id="Path_1033173" data-name="Path 1033173" d="M213.54,270.839a3.182,3.182,0,1,1-4.5,0,3.182,3.182,0,0,1,4.5,0" transform="translate(-118.518 -269.627)" fill="#7dd3ff" fill-rule="evenodd"/>
          <path id="Trazado_998908_-_Contorno-2" data-name="Trazado 998908 - Contorno" d="M211.072,276.332a3.462,3.462,0,1,1,2.448-1.014A3.44,3.44,0,0,1,211.072,276.332Zm0-6.364a2.9,2.9,0,1,0,2.052.85A2.883,2.883,0,0,0,211.072,269.968Z" transform="translate(-118.3 -269.407)" fill="#7dd3ff"/>
        </g>
      </g>
    </g>
  </g>
</svg>
