<svg xmlns="http://www.w3.org/2000/svg" xmlns:xlink="http://www.w3.org/1999/xlink" width="150" height="150" viewBox="0 0 150 150">
  <defs>
    <clipPath id="clip-path">
      <rect id="Rectangle_456267" data-name="Rectangle 456267" width="150" height="150" fill="none"/>
    </clipPath>
  </defs>
  <g id="img12" transform="translate(533.746 8549) rotate(180)">
    <path id="Path_999622" data-name="Path 999622" d="M70.07,0A70.07,70.07,0,1,1,0,70.07,70.071,70.071,0,0,1,70.07,0" transform="translate(388.676 8403.93)" fill="#e1f5ff"/>
    <g id="Group_1179902" data-name="Group 1179902" transform="translate(383.746 8399)">
      <g id="Group_1179905" data-name="Group 1179905" clip-path="url(#clip-path)">
        <path id="Path_999618" data-name="Path 999618" d="M75,0A75,75,0,1,1,0,75,75,75,0,0,1,75,0" fill="none"/>
        <path id="Path_999619" data-name="Path 999619" d="M5.859,59A5.859,5.859,0,1,1,0,64.859,5.86,5.86,0,0,1,5.859,59" transform="translate(0 10.141)" fill="#19538d"/>
        <path id="Path_999620" data-name="Path 999620" d="M21.859,19A5.859,5.859,0,1,1,16,24.859,5.86,5.86,0,0,1,21.859,19" transform="translate(2.75 3.266)" fill="#19538d"/>
        <path id="Path_999621" data-name="Path 999621" d="M74.313,144.625A70.392,70.392,0,0,1,4,74.313H7.516A66.8,66.8,0,1,0,25.572,28.638l-2.564-2.4a70.312,70.312,0,1,1,51.3,118.392" transform="translate(0.688 0.688)" fill="#19538d"/>
        <rect id="Rectangle_456268" data-name="Rectangle 456268" width="150" height="150" fill="none"/>
        <rect id="Rectangle_456269" data-name="Rectangle 456269" width="150" height="150" fill="none"/>
      </g>
    </g>
    <g id="Group_1179903" data-name="Group 1179903" transform="translate(499.019 8515.303) rotate(180)">
      <g id="Group_1099618" data-name="Group 1099618" transform="translate(-0.045 0.303)">
        <rect id="Rectangle_401104" data-name="Rectangle 401104" width="81.001" height="81.977" transform="translate(0)" fill="none"/>
      </g>
      <g id="desarrollo-web_5_" data-name="desarrollo-web (5)" transform="translate(1.801 2.663)">
        <path id="Path_1031565" data-name="Path 1031565" d="M62.578,1.83H14.672A13.353,13.353,0,0,0,1.33,15.172V61.9A13.353,13.353,0,0,0,14.672,75.242H62.578A13.353,13.353,0,0,0,75.92,61.9V15.172A13.353,13.353,0,0,0,62.578,1.83ZM3.591,15.172A11.092,11.092,0,0,1,14.672,4.091H62.578A11.092,11.092,0,0,1,73.659,15.172v3.309H34.468a1.486,1.486,0,0,1-1.013-.4l-5.97-5.605a4.849,4.849,0,0,0-3.321-1.319h-6.5a4.86,4.86,0,0,0-4.852,4.852V17A1.473,1.473,0,0,1,11.34,18.47H3.591ZM73.659,61.9A11.092,11.092,0,0,1,62.578,72.981H14.672A11.092,11.092,0,0,1,3.591,61.9V20.742h7.737a3.734,3.734,0,0,0,3.733-3.733V16.02a2.6,2.6,0,0,1,2.591-2.591h6.5a2.573,2.573,0,0,1,1.778.707l5.97,5.605a3.741,3.741,0,0,0,2.555,1.013H73.647V61.9Z" transform="translate(0 0)" fill="#19538d" stroke="#19538d" stroke-width="1"/>
        <path id="Path_1031566" data-name="Path 1031566" d="M55.734,14.1a3.68,3.68,0,1,0-3.674-3.686A3.684,3.684,0,0,0,55.734,14.1Zm0-5.111A1.419,1.419,0,1,1,54.321,10.4,1.4,1.4,0,0,1,55.734,8.989Z" transform="translate(9.01 0.872)" fill="#19538d" stroke="#19538d" stroke-width="1"/>
        <path id="Path_1031567" data-name="Path 1031567" d="M47.874,14.37A3.68,3.68,0,1,0,44.2,10.684,3.684,3.684,0,0,0,47.874,14.37Zm0-5.111a1.419,1.419,0,1,1-1.413,1.413A1.4,1.4,0,0,1,47.874,9.259Z" transform="translate(7.614 0.92)" fill="#19538d" stroke="#19538d" stroke-width="1"/>
        <path id="Path_1031568" data-name="Path 1031568" d="M40.014,14.64a3.68,3.68,0,1,0-3.674-3.686A3.684,3.684,0,0,0,40.014,14.64Zm0-5.111A1.419,1.419,0,1,1,38.6,10.942,1.4,1.4,0,0,1,40.014,9.529Z" transform="translate(6.218 0.968)" fill="#19538d" stroke="#19538d" stroke-width="1"/>
        <path id="Path_1031569" data-name="Path 1031569" d="M40.171,45.562l-1.1-1.1a15.206,15.206,0,0,0,1.5-3.615H42.1a2.209,2.209,0,0,0,2.214-2.2V35.117A2.219,2.219,0,0,0,42.1,32.9H40.572a15.62,15.62,0,0,0-1.5-3.615l1.1-1.1a2.232,2.232,0,0,0,0-3.121l-2.485-2.485a2.144,2.144,0,0,0-1.554-.648H36.12a2.191,2.191,0,0,0-1.566.648L33.471,23.67a15.159,15.159,0,0,0-3.615-1.507V20.632a2.209,2.209,0,0,0-2.214-2.2H24.12a2.209,2.209,0,0,0-2.214,2.2v1.543a15.159,15.159,0,0,0-3.615,1.507l-1.1-1.1a2.21,2.21,0,0,0-3.121,0l-2.5,2.5a2.221,2.221,0,0,0,0,3.121l1.1,1.1a15.122,15.122,0,0,0-1.5,3.615H9.624A2.219,2.219,0,0,0,7.41,35.129V38.65a2.209,2.209,0,0,0,2.214,2.2h1.543a15.206,15.206,0,0,0,1.5,3.615L11.579,45.55a2.191,2.191,0,0,0-.648,1.566,2.24,2.24,0,0,0,.648,1.566l2.5,2.5a2.21,2.21,0,0,0,3.121,0l1.1-1.1a14.926,14.926,0,0,0,3.615,1.5v1.543a2.209,2.209,0,0,0,2.214,2.2h3.521a2.209,2.209,0,0,0,2.214-2.2V51.58a15.62,15.62,0,0,0,3.615-1.5l1.083,1.1a2.22,2.22,0,0,0,1.566.648h.012a2.192,2.192,0,0,0,1.554-.648l2.5-2.5a2.221,2.221,0,0,0-.012-3.121Zm-1.59-6.076a12.875,12.875,0,0,1-1.872,4.522,1.139,1.139,0,0,0,.141,1.425l1.719,1.649-2.426,2.5-1.719-1.719A1.124,1.124,0,0,0,33,47.717a12.8,12.8,0,0,1-4.522,1.872,1.123,1.123,0,0,0-.907,1.107l.047,2.379-3.474.047V50.7a1.123,1.123,0,0,0-.907-1.107,13.021,13.021,0,0,1-4.522-1.872,1.107,1.107,0,0,0-.624-.188,1.163,1.163,0,0,0-.8.33l-1.649,1.719-2.485-2.426,1.719-1.719a1.139,1.139,0,0,0,.141-1.425,12.929,12.929,0,0,1-1.872-4.522,1.123,1.123,0,0,0-1.107-.907l-2.379.047-.047-3.474H12.05a1.123,1.123,0,0,0,1.107-.907,13.021,13.021,0,0,1,1.872-4.522,1.123,1.123,0,0,0-.141-1.413l-1.719-1.66,2.426-2.5,1.719,1.719a1.139,1.139,0,0,0,1.425.141,12.744,12.744,0,0,1,4.51-1.872,1.123,1.123,0,0,0,.907-1.107l-.047-2.379,3.474-.047v2.426a1.123,1.123,0,0,0,.907,1.107,13.021,13.021,0,0,1,4.522,1.872,1.139,1.139,0,0,0,1.425-.141l1.649-1.719,2.5,2.414-1.719,1.719a1.123,1.123,0,0,0-.141,1.413,12.891,12.891,0,0,1,1.872,4.522,1.123,1.123,0,0,0,1.107.907h2.379l.047,3.415H39.7a1.232,1.232,0,0,0-1.119.942Z" transform="translate(1.08 2.948)" fill="#19538d" stroke="#19538d" stroke-width="1"/>
        <path id="Path_1031570" data-name="Path 1031570" d="M24.276,27.42a7.861,7.861,0,1,0,7.866,7.855A7.87,7.87,0,0,0,24.276,27.42Zm0,13.46a5.6,5.6,0,1,1,5.605-5.605A5.611,5.611,0,0,1,24.276,40.88Z" transform="translate(2.678 4.545)" fill="#19538d" stroke="#19538d" stroke-width="1"/>
        <path id="Path_1031571" data-name="Path 1031571" d="M60.843,46.9h-.907a11.626,11.626,0,0,0-.954-2.308l.648-.648a1.941,1.941,0,0,0,0-2.72l-1.837-1.825a1.908,1.908,0,0,0-1.354-.565,2.017,2.017,0,0,0-1.366.565l-.636.636a11.229,11.229,0,0,0-2.308-.954V38.17A1.922,1.922,0,0,0,50.2,36.25H47.607a1.93,1.93,0,0,0-1.931,1.92v.907a11.626,11.626,0,0,0-2.308.954l-.648-.648a1.919,1.919,0,0,0-2.72,0L38.162,41.22a1.941,1.941,0,0,0,0,2.72l.648.648a11.626,11.626,0,0,0-.954,2.308h-.907a1.92,1.92,0,0,0-1.92,1.92v2.591a1.92,1.92,0,0,0,1.92,1.92h.907a11.626,11.626,0,0,0,.954,2.308l-.636.636a1.933,1.933,0,0,0,0,2.732l1.837,1.837a1.919,1.919,0,0,0,2.72,0l.636-.636a11.667,11.667,0,0,0,2.308.966v.907a1.922,1.922,0,0,0,1.931,1.92H50.2a1.93,1.93,0,0,0,1.931-1.92v-.907a11,11,0,0,0,2.308-.966l.636.648a1.915,1.915,0,0,0,1.366.565h.012a1.868,1.868,0,0,0,1.354-.565l1.849-1.837a1.941,1.941,0,0,0,0-2.72l-.636-.636a11.626,11.626,0,0,0,.954-2.308h.895a1.93,1.93,0,0,0,1.931-1.92V48.839A1.986,1.986,0,0,0,60.843,46.9ZM60.5,51.076H59.053a1.123,1.123,0,0,0-1.107.907,9.052,9.052,0,0,1-1.331,3.227,1.139,1.139,0,0,0,.141,1.425l1.025,1.025-1.366,1.354-1.025-1.025a1.124,1.124,0,0,0-1.425-.141,9.255,9.255,0,0,1-3.227,1.342,1.123,1.123,0,0,0-.907,1.107v1.448h-1.92V60.3a1.123,1.123,0,0,0-.907-1.107,8.9,8.9,0,0,1-3.215-1.342,1.139,1.139,0,0,0-1.425.141l-1.025,1.025-1.354-1.354,1.025-1.036a1.139,1.139,0,0,0,.141-1.425,9.231,9.231,0,0,1-1.331-3.227,1.123,1.123,0,0,0-1.107-.907h-1.46v-1.92h1.46a1.123,1.123,0,0,0,1.107-.907,9.231,9.231,0,0,1,1.331-3.227,1.123,1.123,0,0,0-.141-1.413l-1.025-1.036,1.366-1.354,1.025,1.025a1.139,1.139,0,0,0,1.425.141,9.292,9.292,0,0,1,3.215-1.342,1.123,1.123,0,0,0,.907-1.107V38.476h1.92v1.448a1.123,1.123,0,0,0,.907,1.107,9.038,9.038,0,0,1,3.227,1.342,1.139,1.139,0,0,0,1.425-.141l1.025-1.025,1.354,1.354-1.025,1.025A1.123,1.123,0,0,0,56.616,45a9.682,9.682,0,0,1,1.342,3.227,1.123,1.123,0,0,0,1.107.907h1.448v1.943Z" transform="translate(5.986 6.113)" fill="#19538d" stroke="#19538d" stroke-width="1"/>
        <path id="Path_1031572" data-name="Path 1031572" d="M47.718,42.86a6.076,6.076,0,1,0,6.076,6.076,6.094,6.094,0,0,0-6.076-6.076Zm0,9.9a3.815,3.815,0,1,1,3.827-3.815A3.832,3.832,0,0,1,47.718,52.764Z" transform="translate(7.158 7.287)" fill="#19538d" stroke="#19538d" stroke-width="1"/>
      </g>
    </g>
  </g>
</svg>
