<svg xmlns="http://www.w3.org/2000/svg" xmlns:xlink="http://www.w3.org/1999/xlink" width="150" height="150" viewBox="0 0 150 150">
  <defs>
    <clipPath id="clip-path">
      <rect id="Rectangle_456267" data-name="Rectangle 456267" width="150" height="150" fill="none"/>
    </clipPath>
  </defs>
  <g id="img14" transform="translate(533.746 8549) rotate(180)">
    <path id="Path_999622" data-name="Path 999622" d="M70.07,0A70.07,70.07,0,1,1,0,70.07,70.071,70.071,0,0,1,70.07,0" transform="translate(388.676 8403.93)" fill="#e1f5ff"/>
    <g id="Group_1179902" data-name="Group 1179902" transform="translate(383.746 8399)">
      <g id="Group_1179905" data-name="Group 1179905" clip-path="url(#clip-path)">
        <path id="Path_999618" data-name="Path 999618" d="M75,0A75,75,0,1,1,0,75,75,75,0,0,1,75,0" fill="none"/>
        <path id="Path_999619" data-name="Path 999619" d="M5.859,59A5.859,5.859,0,1,1,0,64.859,5.86,5.86,0,0,1,5.859,59" transform="translate(0 10.141)" fill="#19538d"/>
        <path id="Path_999620" data-name="Path 999620" d="M21.859,19A5.859,5.859,0,1,1,16,24.859,5.86,5.86,0,0,1,21.859,19" transform="translate(2.75 3.266)" fill="#19538d"/>
        <path id="Path_999621" data-name="Path 999621" d="M74.313,144.625A70.392,70.392,0,0,1,4,74.313H7.516A66.8,66.8,0,1,0,25.572,28.638l-2.564-2.4a70.312,70.312,0,1,1,51.3,118.392" transform="translate(0.688 0.688)" fill="#19538d"/>
        <rect id="Rectangle_456268" data-name="Rectangle 456268" width="150" height="150" fill="none"/>
        <rect id="Rectangle_456269" data-name="Rectangle 456269" width="150" height="150" fill="none"/>
      </g>
    </g>
    <g id="Group_1179903" data-name="Group 1179903" transform="translate(499.019 8515.303) rotate(180)">
      <g id="Group_1099618" data-name="Group 1099618" transform="translate(0.014 0.303)">
        <rect id="Rectangle_401104" data-name="Rectangle 401104" width="81.001" height="81.977" transform="translate(0)" fill="none"/>
      </g>
      <g id="concepto" transform="translate(-1.589 -1.23)">
        <path id="Path_1031548" data-name="Path 1031548" d="M53.528,38.137a1.748,1.748,0,1,0-1.748-1.748A1.743,1.743,0,0,0,53.528,38.137Z" transform="translate(13.858 9.146)" fill="#19538d" stroke="#19538d" stroke-width="1"/>
        <path id="Path_1031549" data-name="Path 1031549" d="M12.6,39.219a.768.768,0,0,0,.766-.766V32.366a.766.766,0,1,0-1.531,0v6.087A.768.768,0,0,0,12.6,39.219Z" transform="translate(2.825 8.306)" fill="#19538d" stroke="#19538d" stroke-width="1"/>
        <path id="Path_1031550" data-name="Path 1031550" d="M12.67,40.791a1.11,1.11,0,1,0-1.11-1.11A1.111,1.111,0,0,0,12.67,40.791Z" transform="translate(2.75 10.231)" fill="#19538d" stroke="#19538d" stroke-width="1"/>
        <path id="Path_1031551" data-name="Path 1031551" d="M79.127,50.039a15.547,15.547,0,0,0-6.764-7.223V28.778a5.92,5.92,0,0,0-5.909-5.909H58.427A17.925,17.925,0,0,0,42.156,1.57a17.78,17.78,0,0,0-13.5,4.76,17.984,17.984,0,0,0-5.7,13.106,17.118,17.118,0,0,0,.345,3.433H16.9a5.92,5.92,0,0,0-5.909,5.909V42.816a15.485,15.485,0,0,0-6.764,7.223A25.1,25.1,0,0,0,2.454,67.765a31.168,31.168,0,0,0,2.922,7.491,2.756,2.756,0,0,0-1.353,2.361V79.1a2.761,2.761,0,0,0,2.757,2.757H19.887A2.761,2.761,0,0,0,22.643,79.1v-1.48a2.751,2.751,0,0,0-2.45-2.731,15.962,15.962,0,0,0,1.378-6.7H61.784a16.045,16.045,0,0,0,1.34,6.7,2.757,2.757,0,0,0-2.412,2.731V79.1a2.761,2.761,0,0,0,2.757,2.757H76.574A2.761,2.761,0,0,0,79.331,79.1v-1.48a2.756,2.756,0,0,0-1.353-2.361A31.692,31.692,0,0,0,80.9,67.765a25.1,25.1,0,0,0-1.774-17.726ZM66.454,24.414a4.371,4.371,0,0,1,4.364,4.364v28.88l-6.8-7.619V30.463a3.674,3.674,0,0,0-.651-2.144,3.153,3.153,0,0,0-.472-.574,3.813,3.813,0,0,0-2.718-1.136h-2.91a18.721,18.721,0,0,0,.791-2.2Zm-5.347,23.8a2.813,2.813,0,0,0-2.08.919,4.958,4.958,0,0,0-.549,5.921l3.892,6.253a2.747,2.747,0,0,1-.281.587,2.535,2.535,0,0,1-.281.345,2.279,2.279,0,0,1-1.621.676H22.541a2.291,2.291,0,0,1-1.9-1.021l4.25-6.84a4.96,4.96,0,0,0-.549-5.921,2.81,2.81,0,0,0-4.109-.051V30.463a2.309,2.309,0,0,1,2.31-2.31h2.705A18.171,18.171,0,0,0,29.1,32.926a14.451,14.451,0,0,1,4.747,8.78,2.83,2.83,0,0,0-2.233,2.757,2.792,2.792,0,0,0,.893,2.055,2.792,2.792,0,0,0-.893,2.055,2.821,2.821,0,0,0,2.82,2.82h.37a6.122,6.122,0,0,0,12.149,0h.37a2.821,2.821,0,0,0,2.82-2.82,2.792,2.792,0,0,0-.893-2.055,2.792,2.792,0,0,0,.893-2.055,2.832,2.832,0,0,0-2.221-2.757,15.276,15.276,0,0,1,4.939-8.946,18.1,18.1,0,0,0,3.675-4.594H60.2a2.319,2.319,0,0,1,1.646.689,1.887,1.887,0,0,1,.268.332,2.805,2.805,0,0,1,.294.587,2.667,2.667,0,0,1,.1.7V48.6A2.836,2.836,0,0,0,61.107,48.214ZM21.061,64.141a3.766,3.766,0,0,0,1.468.294H60.176a3.848,3.848,0,0,0,2.208-.7,19.951,19.951,0,0,0-.523,2.91H21.482A22.252,22.252,0,0,0,21.061,64.141ZM47.286,43.16a1.289,1.289,0,0,1,0,2.578H34.422a1.289,1.289,0,0,1,0-2.578H47.286Zm1.289,5.4a1.285,1.285,0,0,1-1.289,1.289H34.448a1.289,1.289,0,1,1,0-2.578H47.286A1.3,1.3,0,0,1,48.575,48.559Zm-3.2,2.833a4.582,4.582,0,0,1-9.035,0ZM29.7,7.466A16.21,16.21,0,0,1,42.041,3.114a16.376,16.376,0,0,1,13.3,23.954c0,.013-.013.013-.013.026A16.633,16.633,0,0,1,51.8,31.611a16.864,16.864,0,0,0-5.475,10.018H35.38a15.939,15.939,0,0,0-5.3-9.865,16.351,16.351,0,0,1-.383-24.3ZM12.523,28.778a4.371,4.371,0,0,1,4.364-4.364h6.764a18.722,18.722,0,0,0,.791,2.2H22.5a3.845,3.845,0,0,0-3.841,3.841V50.766l-6.151,6.879V28.778ZM5.581,50.741a14.727,14.727,0,0,1,5.4-6.2V59.381l-.83.932a.768.768,0,0,0,.064,1.085.8.8,0,0,0,.51.191.775.775,0,0,0,.574-.255l1.034-1.149a.012.012,0,0,1,.013-.013l8.933-9.992a1.315,1.315,0,0,1,1.9-.013,3.421,3.421,0,0,1,.383,4.071l-4.581,7.376a.789.789,0,0,0-.077.676,18.339,18.339,0,0,1,1.11,5.181,14.613,14.613,0,0,1-1.506,7.4H6.908a29.722,29.722,0,0,1-2.986-7.478A23.68,23.68,0,0,1,5.581,50.741ZM21.112,77.617V79.1a1.225,1.225,0,0,1-1.225,1.225H6.781A1.225,1.225,0,0,1,5.556,79.1v-1.48a1.225,1.225,0,0,1,1.225-1.225H19.887A1.225,1.225,0,0,1,21.112,77.617ZM77.787,79.1a1.225,1.225,0,0,1-1.225,1.225H63.455A1.225,1.225,0,0,1,62.23,79.1v-1.48a1.225,1.225,0,0,1,1.225-1.225H76.549a1.225,1.225,0,0,1,1.225,1.225V79.1Zm1.621-11.728a30.02,30.02,0,0,1-2.986,7.478H64.783a14.528,14.528,0,0,1-1.455-7.389,17.907,17.907,0,0,1,1.11-5.181.8.8,0,0,0-.064-.664l-4.581-7.376a3.421,3.421,0,0,1,.37-4.071,1.314,1.314,0,0,1,1.9.013l.638.7,8.308,9.291a.012.012,0,0,0,.013.013l1.034,1.149a.768.768,0,1,0,1.149-1.021l-.83-.932V44.539a14.764,14.764,0,0,1,5.4,6.189,23.662,23.662,0,0,1,1.633,16.641Z" transform="translate(0 0)" fill="#19538d" stroke="#19538d" stroke-width="1"/>
        <path id="Path_1031552" data-name="Path 1031552" d="M25.215,22.037a7.519,7.519,0,0,0,.306.74.387.387,0,0,1-.038.37l-.868,1.289a1.95,1.95,0,0,0,.23,2.45l1.85,1.85a1.933,1.933,0,0,0,2.45.23l1.289-.868a.387.387,0,0,1,.37-.038c.242.115.5.217.74.306a.372.372,0,0,1,.23.281l.294,1.531a1.93,1.93,0,0,0,1.9,1.557h2.616a1.927,1.927,0,0,0,1.889-1.57l.294-1.531a.372.372,0,0,1,.23-.281,7.52,7.52,0,0,0,.74-.306.387.387,0,0,1,.37.038l1.289.868a1.95,1.95,0,0,0,2.45-.23l1.85-1.85a1.933,1.933,0,0,0,.23-2.45l-.868-1.289a.387.387,0,0,1-.038-.37c.115-.242.217-.5.306-.74a.372.372,0,0,1,.281-.23l1.531-.294a1.938,1.938,0,0,0,1.57-1.889V17a1.927,1.927,0,0,0-1.57-1.889l-1.531-.294a.364.364,0,0,1-.281-.242,7.519,7.519,0,0,0-.306-.74.387.387,0,0,1,.038-.37l.868-1.289a1.934,1.934,0,0,0-.23-2.45l-1.85-1.85a1.933,1.933,0,0,0-2.45-.23l-1.289.868a.387.387,0,0,1-.37.038A7.519,7.519,0,0,0,39,8.242a.388.388,0,0,1-.242-.281L38.461,6.43a1.938,1.938,0,0,0-1.889-1.57H33.956a1.951,1.951,0,0,0-1.9,1.57l-.294,1.531a.372.372,0,0,1-.23.281,7.52,7.52,0,0,0-.74.306.387.387,0,0,1-.37-.038l-1.289-.868a1.95,1.95,0,0,0-2.45.23l-1.85,1.85a1.933,1.933,0,0,0-.23,2.45l.868,1.289a.387.387,0,0,1,.038.37c-.115.242-.217.5-.306.74a.372.372,0,0,1-.281.23l-1.531.294a1.938,1.938,0,0,0-1.57,1.889V19.6a1.927,1.927,0,0,0,1.57,1.889l1.531.294a.491.491,0,0,1,.294.255Zm-1.838-2.425V17a.384.384,0,0,1,.319-.383l1.531-.294a1.937,1.937,0,0,0,1.442-1.212,5.612,5.612,0,0,1,.268-.638,1.9,1.9,0,0,0-.166-1.876L25.9,11.3a.389.389,0,0,1,.051-.5l1.85-1.85a.4.4,0,0,1,.5-.051l1.289.868a1.929,1.929,0,0,0,1.876.153c.2-.089.421-.179.638-.268a1.916,1.916,0,0,0,1.212-1.442l.294-1.531a.4.4,0,0,1,.383-.319h2.616a.384.384,0,0,1,.383.319l.294,1.531A1.937,1.937,0,0,0,38.5,9.658a5.613,5.613,0,0,1,.638.268A1.877,1.877,0,0,0,41,9.76l1.289-.868a.389.389,0,0,1,.5.051l1.85,1.85a.4.4,0,0,1,.051.5l-.868,1.289a1.942,1.942,0,0,0-.166,1.863c.089.2.179.421.268.638a1.916,1.916,0,0,0,1.442,1.212l1.531.294a.4.4,0,0,1,.319.383v2.616a.384.384,0,0,1-.319.383l-1.531.294a1.937,1.937,0,0,0-1.442,1.212,5.614,5.614,0,0,1-.268.638,1.9,1.9,0,0,0,.166,1.876l.868,1.289a.389.389,0,0,1-.051.5l-1.85,1.85a.4.4,0,0,1-.5.051L41,26.81a1.942,1.942,0,0,0-1.863-.166c-.2.089-.421.179-.638.268a1.916,1.916,0,0,0-1.212,1.442l-.294,1.531a.4.4,0,0,1-.383.319H33.995a.384.384,0,0,1-.383-.319l-.294-1.531a1.937,1.937,0,0,0-1.212-1.442,5.613,5.613,0,0,1-.638-.268,1.915,1.915,0,0,0-.791-.166,1.97,1.97,0,0,0-1.085.332l-1.289.868a.389.389,0,0,1-.5-.051l-1.85-1.85a.4.4,0,0,1-.051-.5l.868-1.289a1.907,1.907,0,0,0,.153-1.863c-.089-.2-.179-.421-.268-.638a1.916,1.916,0,0,0-1.442-1.212l-1.531-.294a.353.353,0,0,1-.306-.37Z" transform="translate(5.584 0.921)" fill="#19538d" stroke="#19538d" stroke-width="1"/>
        <path id="Path_1031553" data-name="Path 1031553" d="M33.978,24.5A7.478,7.478,0,1,0,26.5,17.018,7.489,7.489,0,0,0,33.978,24.5Zm0-13.425a5.947,5.947,0,1,1-5.947,5.947A5.953,5.953,0,0,1,33.978,11.071Z" transform="translate(6.876 2.214)" fill="#19538d" stroke="#19538d" stroke-width="1"/>
      </g>
    </g>
  </g>
</svg>
