<svg xmlns="http://www.w3.org/2000/svg" width="129" height="127" viewBox="0 0 129 127">
  <g id="img2" transform="translate(-410.059 -604)">
    <rect id="Rectangle_458850" data-name="Rectangle 458850" width="129" height="127" transform="translate(410.059 604)" fill="#68eae0"/>
    <path id="Path_1031230" data-name="Path 1031230" d="M19,18h81.211a12.336,12.336,0,0,1,12.336,12.336v81.211H31.336A12.336,12.336,0,0,1,19,99.211Z" transform="translate(408.721 602.799)" fill="#fff"/>
    <path id="Path_1031235" data-name="Path 1031235" d="M109.821,42.854a5.14,5.14,0,1,1-5.14,5.14,5.14,5.14,0,0,1,5.14-5.14" transform="translate(411.117 603.494)" fill="#19538d"/>
    <path id="Path_1031240" data-name="Path 1031240" d="M80.821,12.854a5.14,5.14,0,1,1-5.14,5.14,5.14,5.14,0,0,1,5.14-5.14" transform="translate(410.307 602.654)" fill="#19538d"/>
    <path id="Path_1031245" data-name="Path 1031245" d="M112.547,48.689v62.857H31.336A12.336,12.336,0,0,1,19,99.211V18H83.1" transform="translate(408.721 602.799)" fill="none" stroke="#19538d" stroke-miterlimit="10" stroke-width="3"/>
    <g id="Group_1188440" data-name="Group 1188440" transform="translate(28.672 -7795.807)">
      <g id="Group_1099776" data-name="Group 1099776" transform="translate(412.387 8428.781)">
        <g id="Group_1099618" data-name="Group 1099618" transform="translate(-0.348 0.025)">
          <rect id="Rectangle_401104" data-name="Rectangle 401104" width="67.943" height="68.761" transform="translate(0)" fill="none"/>
        </g>
        <g id="periodico" transform="translate(0.152 0.075)">
          <path id="Path_1031507" data-name="Path 1031507" d="M62.222,25.872H54.434V7.66a4.716,4.716,0,0,0-4.71-4.71H6.21A4.716,4.716,0,0,0,1.5,7.66V57.824a6.779,6.779,0,0,0,6.782,6.782H59.349c.1,0,.205-.01.39-.021h.01a6.79,6.79,0,0,0,6.392-6.772V29.8a3.928,3.928,0,0,0-3.92-3.93ZM8.292,62.738a4.922,4.922,0,0,1-4.925-4.925V7.66A2.842,2.842,0,0,1,6.21,4.817H49.725A2.842,2.842,0,0,1,52.567,7.66V57.824a6.744,6.744,0,0,0,1.991,4.8l.123.123H8.292Zm55.982-4.915a4.925,4.925,0,1,1-9.85,0V27.74h4.463a3.9,3.9,0,0,0-.6,2.052V45.48a.934.934,0,0,0,1.867,0V29.8a2.052,2.052,0,1,1,4.1,0V57.824Z" transform="translate(0 0)" fill="#19538d"/>
          <path id="Path_1031508" data-name="Path 1031508" d="M9.262,27.213H45.3a2.859,2.859,0,0,0,2.852-2.852V11.832A2.859,2.859,0,0,0,45.3,8.98H9.262A2.859,2.859,0,0,0,6.41,11.832V24.371a2.851,2.851,0,0,0,2.852,2.842ZM8.277,11.832a.985.985,0,0,1,.985-.985H45.3a.985.985,0,0,1,.985.985V24.371a.985.985,0,0,1-.985.985H9.262a.985.985,0,0,1-.985-.985Z" transform="translate(0.128 0.157)" fill="#19538d"/>
          <path id="Path_1031509" data-name="Path 1031509" d="M47.216,30.27H7.344a.934.934,0,1,0,0,1.867H47.227a.934.934,0,1,0-.01-1.867Z" transform="translate(0.128 0.712)" fill="#19538d"/>
          <path id="Path_1031510" data-name="Path 1031510" d="M47.216,35.27H7.344a.934.934,0,0,0,0,1.867H47.227a.934.934,0,1,0-.01-1.867Z" transform="translate(0.128 0.842)" fill="#19538d"/>
          <path id="Path_1031511" data-name="Path 1031511" d="M46.586,48.19H31.544a.934.934,0,0,0,0,1.867H46.6a.934.934,0,1,0-.01-1.867Z" transform="translate(0.759 1.179)" fill="#19538d"/>
          <path id="Path_1031512" data-name="Path 1031512" d="M40.419,53.06H31.954a.934.934,0,0,0,0,1.867h8.465a.934.934,0,0,0,0-1.867Z" transform="translate(0.769 1.306)" fill="#19538d"/>
          <path id="Path_1031513" data-name="Path 1031513" d="M46.586,43.33H31.544a.934.934,0,0,0,0,1.867H46.6a.934.934,0,1,0-.01-1.867Z" transform="translate(0.759 1.052)" fill="#19538d"/>
          <path id="Path_1031514" data-name="Path 1031514" d="M24.1,40.07H9.714a3.3,3.3,0,0,0-3.3,3.3V54.558a3.3,3.3,0,0,0,3.3,3.3H24.1a3.3,3.3,0,0,0,3.3-3.3V43.374A3.308,3.308,0,0,0,24.1,40.07Zm1.436,14.5A1.441,1.441,0,0,1,24.1,56H9.714a1.441,1.441,0,0,1-1.436-1.436V43.384a1.441,1.441,0,0,1,1.436-1.436H24.1a1.441,1.441,0,0,1,1.436,1.436Z" transform="translate(0.128 0.967)" fill="#19538d"/>
          <path id="Path_1031515" data-name="Path 1031515" d="M11.464,44.3a.937.937,0,0,0-.934.934v7.244a.934.934,0,1,0,1.867,0V45.234A.937.937,0,0,0,11.464,44.3Z" transform="translate(0.235 1.077)" fill="#19538d"/>
          <path id="Path_1031516" data-name="Path 1031516" d="M14.934,48.84a.937.937,0,0,0-.934.934v2.6a.934.934,0,1,0,1.867,0v-2.6A.931.931,0,0,0,14.934,48.84Z" transform="translate(0.326 1.196)" fill="#19538d"/>
          <path id="Path_1031517" data-name="Path 1031517" d="M18.394,45.99a.937.937,0,0,0-.934.934v5.52a.934.934,0,1,0,1.867,0v-5.52A.924.924,0,0,0,18.394,45.99Z" transform="translate(0.416 1.121)" fill="#19538d"/>
          <path id="Path_1031518" data-name="Path 1031518" d="M21.864,47.51a.937.937,0,0,0-.934.934V52.4a.934.934,0,0,0,1.867,0V48.444A.937.937,0,0,0,21.864,47.51Z" transform="translate(0.506 1.161)" fill="#19538d"/>
        </g>
      </g>
    </g>
  </g>
</svg>
