<svg xmlns="http://www.w3.org/2000/svg" xmlns:xlink="http://www.w3.org/1999/xlink" width="98" height="98" viewBox="0 0 98 98">
  <defs>
    <clipPath id="clip-path">
      <rect id="Rectangle_456312" data-name="Rectangle 456312" width="98" height="98" transform="translate(0.059 0.059)" fill="none"/>
    </clipPath>
  </defs>
  <g id="img20" transform="translate(-307.117 -10093.059)">
    <g id="Group_1179968" data-name="Group 1179968" transform="translate(307.059 10093)">
      <g id="Group_1179959" data-name="Group 1179959" clip-path="url(#clip-path)">
        <path id="Path_999654" data-name="Path 999654" d="M1.5,5.146H81.261A12.087,12.087,0,0,1,93.377,17.2V96.585H13.616A12.087,12.087,0,0,1,1.5,84.527Z" transform="translate(0.014 0.025)" fill="#fff"/>
      </g>
      <g id="Group_1179960" data-name="Group 1179960">
        <g id="Group_1179956" data-name="Group 1179956" clip-path="url(#clip-path)">
          <path id="Path_999651" data-name="Path 999651" d="M92.229,30a5.024,5.024,0,1,1-5.048,5.024A5.037,5.037,0,0,1,92.229,30" transform="translate(0.84 0.145)" fill="#19538d"/>
          <path id="Path_999652" data-name="Path 999652" d="M63.229,0a5.024,5.024,0,1,1-5.048,5.024A5.037,5.037,0,0,1,63.229,0" transform="translate(0.56 0)" fill="#19538d"/>
          <path id="Path_999653" data-name="Path 999653" d="M93.377,35.144V96.585H13.616A12.087,12.087,0,0,1,1.5,84.527V5.146H64.459" transform="translate(0.014 0.025)" fill="none" stroke="#19538d" stroke-miterlimit="10" stroke-width="3"/>
        </g>
      </g>
    </g>
    <g id="Group_1179969" data-name="Group 1179969" transform="translate(322.757 10111.315)">
      <rect id="Rectangle_456311" data-name="Rectangle 456311" width="64.131" height="64.594" transform="translate(0.07 0.049)" fill="#fff"/>
      <g id="tarea" transform="translate(-19.626 1.048)">
        <path id="Path_1031583" data-name="Path 1031583" d="M214.2,160.5h1.978v1.854H214.2Z" transform="translate(-167.825 -140.657)" fill="#19538d"/>
        <path id="Path_1031584" data-name="Path 1031584" d="M246.2,160.5h1.978v1.854H246.2Z" transform="translate(-195.868 -140.657)" fill="#19538d"/>
        <path id="Path_1031585" data-name="Path 1031585" d="M278.2,160.5h1.978v1.854H278.2Z" transform="translate(-223.912 -140.657)" fill="#19538d"/>
        <path id="Path_1031586" data-name="Path 1031586" d="M88.248,5.934H90.1V3.894h2.04V2.04H90.1V0H88.248V2.04h-2.04V3.894h2.04Z" transform="translate(-55.659)" fill="#19538d"/>
        <path id="Path_1031587" data-name="Path 1031587" d="M150.7,198.311h5.811V192.5H150.7Zm1.854-3.956h2.1v2.1h-2.1Z" transform="translate(-112.175 -168.701)" fill="#19538d"/>
        <path id="Path_1031588" data-name="Path 1031588" d="M150.7,262.311h5.811V256.5H150.7Zm1.854-3.956h2.1v2.1h-2.1Z" transform="translate(-112.175 -224.789)" fill="#19538d"/>
        <path id="Path_1031589" data-name="Path 1031589" d="M150.7,326.311h5.811V320.5H150.7Zm1.854-3.956h2.1v2.1h-2.1Z" transform="translate(-112.175 -280.876)" fill="#19538d"/>
        <path id="Path_1031590" data-name="Path 1031590" d="M247.537,240.5a8.84,8.84,0,1,0,8.84,8.84A8.85,8.85,0,0,0,247.537,240.5Zm0,15.825a6.985,6.985,0,1,1,6.985-6.985A6.993,6.993,0,0,1,247.537,256.325Z" transform="translate(-189.296 -210.767)" fill="#19538d"/>
        <path id="Path_1031591" data-name="Path 1031591" d="M128.113,76.561V40.351a1.918,1.918,0,0,0-1.916-1.916h-9.952V33.922a1.423,1.423,0,0,0-1.422-1.422H99.987a1.423,1.423,0,0,0-1.422,1.422v4.513H88.613A1.918,1.918,0,0,0,86.7,40.351V89.8a1.918,1.918,0,0,0,1.916,1.916H126.2a1.918,1.918,0,0,0,1.916-1.916V85.118l4.018,4.018,4.278-4.279ZM100.42,34.354h13.97v4.08H100.42Zm-1.978,5.934h17.927v4.08H98.442ZM126.259,89.8a.062.062,0,0,1-.062.062H88.613a.062.062,0,0,1-.062-.062V40.351a.062.062,0,0,1,.062-.062h7.974v2.1H90.653V77.329l10.434,10.434h23.07V82.88H122.3v3.029H102.4v-9.89h-9.89V44.245h4.08V44.8a1.423,1.423,0,0,0,1.422,1.422H116.8a1.423,1.423,0,0,0,1.422-1.422v-.556h4.08V55.186h1.854V42.39h-5.934v-2.1H126.2a.062.062,0,0,1,.062.062V62.429a12.817,12.817,0,0,0-11.93-8.17H102.46v1.854h5.24a12.793,12.793,0,1,0,13.279,21.87l5.281,5.281V89.8Zm-32.44-11.93h6.725V84.6Zm30.343-2.64,1.713,1.713L124.219,78.6l-1.713-1.713A12.894,12.894,0,0,0,124.162,75.233ZM114.329,78A10.941,10.941,0,1,1,125.27,67.055,10.954,10.954,0,0,1,114.329,78ZM125.257,73.7a12.755,12.755,0,0,0,1-2.024v3.026Zm.273,6.208,1.656-1.656,6.6,6.6-1.656,1.656Z" transform="translate(-56.088 -28.482)" fill="#19538d"/>
        <path id="Path_1031594" data-name="Path 1031594" d="M441.6,158.311a2.905,2.905,0,1,0-2.905-2.905A2.909,2.909,0,0,0,441.6,158.311Zm0-3.956a1.051,1.051,0,1,1-1.051,1.051A1.052,1.052,0,0,1,441.6,154.354Z" transform="translate(-364.569 -133.646)" fill="#19538d"/>
        <path id="Path_1031595" data-name="Path 1031595" d="M25.6,120.5a2.905,2.905,0,1,0,2.905,2.905A2.909,2.909,0,0,0,25.6,120.5Zm0,3.956a1.051,1.051,0,1,1,1.051-1.051A1.052,1.052,0,0,1,25.6,124.456Z" transform="translate(0 -105.602)" fill="#19538d"/>
        <path id="Path_1031596" data-name="Path 1031596" d="M392.237,21.934h1.854v-2.04h2.04V18.04h-2.04V16h-1.854v2.04H390.2v1.854h2.04Z" transform="translate(-322.066 -14.022)" fill="#19538d"/>
      </g>
    </g>
  </g>
</svg>
