<svg xmlns="http://www.w3.org/2000/svg" xmlns:xlink="http://www.w3.org/1999/xlink" width="396" height="625" viewBox="0 0 396 625">
  <defs>
    <clipPath id="clip-path">
      <rect id="Rectangle_459457" data-name="Rectangle 459457" width="86" height="111" transform="translate(289.711 1648)" fill="#ccf7f4"/>
    </clipPath>
    <clipPath id="clip-path-2">
      <rect id="Rectangle_459458" data-name="Rectangle 459458" width="69" height="89" transform="translate(0 -0.238)" fill="#ccf7f4"/>
    </clipPath>
  </defs>
  <g id="img22_1" transform="translate(-7652 2412)">
    <rect id="Rectangle_459370" data-name="Rectangle 459370" width="396" height="625" transform="translate(7652 -2412)" fill="#f2f9fd"/>
    <path id="Path_1033471" data-name="Path 1033471" d="M33.518,15.742H29.526L28.828,18H25.716L30.148,5.914h2.739L37.353,18H34.224Zm-3.3-2.25h2.6L31.518,9.3Zm10.966,2.266h5.072V18H38.276V5.914h2.914Zm14.129-7.6H51.691V18H48.777V8.164H45.216V5.914h10.1Zm7.14,7.579H58.465L57.768,18H54.655L59.088,5.914h2.739L66.293,18H63.163Zm-3.3-2.25h2.6L60.457,9.3ZM14.6,29.914v7.911a4.546,4.546,0,0,1-.573,2.328,3.71,3.71,0,0,1-1.644,1.5,5.79,5.79,0,0,1-2.532.515,5,5,0,0,1-3.478-1.146,4.085,4.085,0,0,1-1.295-3.138V29.914h2.93v8.027q.05,1.984,1.843,1.984a1.784,1.784,0,0,0,1.37-.5,2.328,2.328,0,0,0,.465-1.619V29.914Zm6.351,7.811H19.373V42H16.459V29.914h4.756a5.309,5.309,0,0,1,3.362.954,3.231,3.231,0,0,1,1.212,2.695,3.924,3.924,0,0,1-.51,2.09A3.623,3.623,0,0,1,23.681,37l2.523,4.88V42H23.083Zm-1.577-2.241h1.843a1.654,1.654,0,0,0,1.249-.437,1.689,1.689,0,0,0,.419-1.219,1.709,1.709,0,0,0-.423-1.227,1.639,1.639,0,0,0-1.245-.445H19.373Zm18.113,5.022a4.685,4.685,0,0,1-1.967,1.2,8.485,8.485,0,0,1-2.839.457,5.062,5.062,0,0,1-3.793-1.453,5.88,5.88,0,0,1-1.519-4.042l-.008-1.046a7.213,7.213,0,0,1,.631-3.117,4.685,4.685,0,0,1,1.805-2.05,5.107,5.107,0,0,1,2.719-.718,5.354,5.354,0,0,1,3.507,1.033,4.379,4.379,0,0,1,1.457,3.084H34.672a2.291,2.291,0,0,0-.647-1.444,2.089,2.089,0,0,0-1.411-.432,1.9,1.9,0,0,0-1.693.93,4.964,4.964,0,0,0-.606,2.656v.73a4.86,4.86,0,0,0,.618,2.719,2.187,2.187,0,0,0,1.947.909,2.448,2.448,0,0,0,1.693-.506V37.542H32.547v-2h4.939Zm9.231-3.636H42.135v2.889h5.412V42H39.222V29.914h8.342v2.25H42.135v2.548h4.582ZM58.871,42h-2.9l-4.283-7.521V42H48.777V29.914h2.914l4.275,7.521V29.914h2.905Zm11.664-4.092a4.414,4.414,0,0,1-.681,2.229,4.108,4.108,0,0,1-1.747,1.5,5.947,5.947,0,0,1-2.569.531,4.746,4.746,0,0,1-3.752-1.552,6.409,6.409,0,0,1-1.37-4.383v-.6a7.316,7.316,0,0,1,.618-3.109,4.686,4.686,0,0,1,1.781-2.059A4.968,4.968,0,0,1,65.5,29.74,5.209,5.209,0,0,1,69.04,30.9a4.575,4.575,0,0,1,1.519,3.192H67.654A2.165,2.165,0,0,0,67.1,32.5a2.287,2.287,0,0,0-1.594-.481,1.74,1.74,0,0,0-1.594.813,5.228,5.228,0,0,0-.531,2.6v.855a5.785,5.785,0,0,0,.486,2.764,1.777,1.777,0,0,0,1.673.83,2.237,2.237,0,0,0,1.536-.473,2.008,2.008,0,0,0,.564-1.5ZM75.059,42H72.154V29.914h2.905Zm8.933-2.258H80L79.3,42H76.189l4.433-12.086h2.739L87.827,42H84.7Zm-3.3-2.25h2.6l-1.3-4.192Z" transform="translate(7752 -1864)" fill="#12263f"/>
    <path id="Path_1033461" data-name="Path 1033461" d="M52.874,15.742H48.881L48.184,18H45.071L49.5,5.914h2.739L56.709,18H53.579Zm-3.3-2.25h2.6L50.873,9.3Zm10.966,2.266h5.072V18H57.631V5.914h2.914Zm14.129-7.6H71.046V18H68.133V8.164H64.572V5.914h10.1Zm7.14,7.579H77.821L77.123,18H74.011L78.443,5.914h2.739L85.648,18H82.519Zm-3.3-2.25h2.6L79.813,9.3ZM11.856,42H8.951V29.914h2.905Zm5.895-12.086,2.7,8.409,2.689-8.409h3.835V42H24.051V39.178l.282-5.777L21.411,42H19.486l-2.93-8.608.282,5.786V42H13.924V29.914ZM31.78,37.9V42H28.866V29.914h4.823a5.617,5.617,0,0,1,2.453.51,3.847,3.847,0,0,1,1.652,1.453,3.967,3.967,0,0,1,.585,2.137,3.5,3.5,0,0,1-1.266,2.826A5.252,5.252,0,0,1,33.639,37.9Zm0-2.25h1.909a1.8,1.8,0,0,0,1.291-.423,1.573,1.573,0,0,0,.444-1.2,1.944,1.944,0,0,0-.457-1.353,1.617,1.617,0,0,0-1.245-.515H31.78Zm18.429.556a7.127,7.127,0,0,1-.656,3.129,4.847,4.847,0,0,1-1.864,2.1,5.189,5.189,0,0,1-2.752.735,5.262,5.262,0,0,1-2.739-.71,4.838,4.838,0,0,1-1.864-2.03,6.922,6.922,0,0,1-.7-3.03v-.681a7.159,7.159,0,0,1,.652-3.134,4.835,4.835,0,0,1,1.868-2.1,5.529,5.529,0,0,1,5.508-.008,4.922,4.922,0,0,1,1.872,2.079,6.953,6.953,0,0,1,.677,3.092ZM47.245,35.7a5.082,5.082,0,0,0-.6-2.735,1.93,1.93,0,0,0-1.722-.934q-2.191,0-2.316,3.287l-.008.888a5.227,5.227,0,0,0,.589,2.731,1.927,1.927,0,0,0,1.751.955,1.9,1.9,0,0,0,1.7-.938,5.084,5.084,0,0,0,.606-2.7Zm9,2.025H54.667V42H51.754V29.914H56.51a5.309,5.309,0,0,1,3.362.954,3.231,3.231,0,0,1,1.212,2.695,3.924,3.924,0,0,1-.51,2.09A3.623,3.623,0,0,1,58.975,37l2.523,4.88V42H58.378Zm-1.577-2.241H56.51a1.654,1.654,0,0,0,1.249-.437,1.689,1.689,0,0,0,.419-1.219,1.709,1.709,0,0,0-.423-1.227,1.639,1.639,0,0,0-1.245-.445H54.667Zm17.292-3.32H68.331V42H65.418V32.164H61.857v-2.25h10.1Zm7.14,7.579H75.106L74.408,42H71.3l4.433-12.086h2.739L82.933,42H79.8Zm-3.3-2.25h2.6L77.1,33.3ZM93.95,42h-2.9l-4.283-7.521V42H83.856V29.914h2.914l4.275,7.521V29.914H93.95Zm11.664-4.092a4.414,4.414,0,0,1-.681,2.229,4.108,4.108,0,0,1-1.747,1.5,5.947,5.947,0,0,1-2.569.531,4.746,4.746,0,0,1-3.752-1.552,6.409,6.409,0,0,1-1.37-4.383v-.6a7.316,7.316,0,0,1,.618-3.109,4.686,4.686,0,0,1,1.781-2.059,4.968,4.968,0,0,1,2.689-.726,5.209,5.209,0,0,1,3.536,1.158,4.575,4.575,0,0,1,1.519,3.192h-2.905a2.165,2.165,0,0,0-.556-1.585,2.287,2.287,0,0,0-1.594-.481,1.74,1.74,0,0,0-1.594.813,5.228,5.228,0,0,0-.531,2.6v.855a5.785,5.785,0,0,0,.486,2.764,1.777,1.777,0,0,0,1.673.83,2.237,2.237,0,0,0,1.536-.473,2.008,2.008,0,0,0,.564-1.5ZM110.138,42h-2.905V29.914h2.905Zm8.933-2.258h-3.993l-.7,2.258h-3.113L115.7,29.914h2.739L122.906,42h-3.129Zm-3.3-2.25h2.6l-1.3-4.192Z" transform="translate(7709 -2386)" fill="#12263f"/>
    <path id="Path_1033462" data-name="Path 1033462" d="M44.365,18V5.914h4.341a6.147,6.147,0,0,1,3.549.855,2.845,2.845,0,0,1,1.216,2.482,2.876,2.876,0,0,1-.432,1.6,2.515,2.515,0,0,1-1.27.979,2.547,2.547,0,0,1,1.453.93,2.7,2.7,0,0,1,.506,1.66A3.2,3.2,0,0,1,52.6,17.091,5.352,5.352,0,0,1,49.271,18Zm2.914-5.138v2.9h1.909A1.816,1.816,0,0,0,50.4,15.4a1.264,1.264,0,0,0,.423-1.017,1.34,1.34,0,0,0-1.5-1.519Zm0-1.909H48.8a2.158,2.158,0,0,0,1.361-.35A1.241,1.241,0,0,0,50.566,9.6a1.3,1.3,0,0,0-.44-1.1,2.355,2.355,0,0,0-1.419-.337H47.279Zm14.959,4.79H58.245L57.548,18H54.435L58.868,5.914h2.739L66.073,18H62.944Zm-3.3-2.25h2.6L60.238,9.3ZM71.81,5.914h2.905v8.292a3.965,3.965,0,0,1-.535,2.059,3.655,3.655,0,0,1-1.494,1.4,4.566,4.566,0,0,1-2.137.5,4.4,4.4,0,0,1-3.071-1,3.62,3.62,0,0,1-1.1-2.822H69.3a2,2,0,0,0,.286,1.2,1.134,1.134,0,0,0,.959.374,1.084,1.084,0,0,0,.934-.452,2.126,2.126,0,0,0,.328-1.266Zm11.647,9.828H79.464L78.767,18H75.654L80.087,5.914h2.739L87.292,18H84.162Zm-3.3-2.25h2.6L81.456,9.3ZM11.856,42H8.951V29.914h2.905Zm5.895-12.086,2.7,8.409,2.689-8.409h3.835V42H24.051V39.178l.282-5.777L21.411,42H19.486l-2.93-8.608.282,5.786V42H13.924V29.914ZM31.78,37.9V42H28.866V29.914h4.823a5.617,5.617,0,0,1,2.453.51,3.847,3.847,0,0,1,1.652,1.453,3.967,3.967,0,0,1,.585,2.137,3.5,3.5,0,0,1-1.266,2.826A5.252,5.252,0,0,1,33.639,37.9Zm0-2.25h1.909a1.8,1.8,0,0,0,1.291-.423,1.573,1.573,0,0,0,.444-1.2,1.944,1.944,0,0,0-.457-1.353,1.617,1.617,0,0,0-1.245-.515H31.78Zm18.429.556a7.127,7.127,0,0,1-.656,3.129,4.847,4.847,0,0,1-1.864,2.1,5.189,5.189,0,0,1-2.752.735,5.262,5.262,0,0,1-2.739-.71,4.838,4.838,0,0,1-1.864-2.03,6.922,6.922,0,0,1-.7-3.03v-.681a7.159,7.159,0,0,1,.652-3.134,4.835,4.835,0,0,1,1.868-2.1,5.529,5.529,0,0,1,5.508-.008,4.922,4.922,0,0,1,1.872,2.079,6.953,6.953,0,0,1,.677,3.092ZM47.245,35.7a5.082,5.082,0,0,0-.6-2.735,1.93,1.93,0,0,0-1.722-.934q-2.191,0-2.316,3.287l-.008.888a5.227,5.227,0,0,0,.589,2.731,1.927,1.927,0,0,0,1.751.955,1.9,1.9,0,0,0,1.7-.938,5.084,5.084,0,0,0,.606-2.7Zm9,2.025H54.667V42H51.754V29.914H56.51a5.309,5.309,0,0,1,3.362.954,3.231,3.231,0,0,1,1.212,2.695,3.924,3.924,0,0,1-.51,2.09A3.623,3.623,0,0,1,58.975,37l2.523,4.88V42H58.378Zm-1.577-2.241H56.51a1.654,1.654,0,0,0,1.249-.437,1.689,1.689,0,0,0,.419-1.219,1.709,1.709,0,0,0-.423-1.227,1.639,1.639,0,0,0-1.245-.445H54.667Zm17.292-3.32H68.331V42H65.418V32.164H61.857v-2.25h10.1Zm7.14,7.579H75.106L74.408,42H71.3l4.433-12.086h2.739L82.933,42H79.8Zm-3.3-2.25h2.6L77.1,33.3ZM93.95,42h-2.9l-4.283-7.521V42H83.856V29.914h2.914l4.275,7.521V29.914H93.95Zm11.664-4.092a4.414,4.414,0,0,1-.681,2.229,4.108,4.108,0,0,1-1.747,1.5,5.947,5.947,0,0,1-2.569.531,4.746,4.746,0,0,1-3.752-1.552,6.409,6.409,0,0,1-1.37-4.383v-.6a7.316,7.316,0,0,1,.618-3.109,4.686,4.686,0,0,1,1.781-2.059,4.968,4.968,0,0,1,2.689-.726,5.209,5.209,0,0,1,3.536,1.158,4.575,4.575,0,0,1,1.519,3.192h-2.905a2.165,2.165,0,0,0-.556-1.585,2.287,2.287,0,0,0-1.594-.481,1.74,1.74,0,0,0-1.594.813,5.228,5.228,0,0,0-.531,2.6v.855a5.785,5.785,0,0,0,.486,2.764,1.777,1.777,0,0,0,1.673.83,2.237,2.237,0,0,0,1.536-.473,2.008,2.008,0,0,0,.564-1.5ZM110.138,42h-2.905V29.914h2.905Zm8.933-2.258h-3.993l-.7,2.258h-3.113L115.7,29.914h2.739L122.906,42h-3.129Zm-3.3-2.25h2.6l-1.3-4.192Z" transform="translate(7887 -2386)" fill="#12263f"/>
    <path id="Path_1033472" data-name="Path 1033472" d="M23.51,18V5.914h4.341a6.147,6.147,0,0,1,3.549.855,2.845,2.845,0,0,1,1.216,2.482,2.876,2.876,0,0,1-.432,1.6,2.515,2.515,0,0,1-1.27.979,2.547,2.547,0,0,1,1.453.93,2.7,2.7,0,0,1,.506,1.66,3.2,3.2,0,0,1-1.125,2.669A5.352,5.352,0,0,1,28.416,18Zm2.914-5.138v2.9h1.909a1.816,1.816,0,0,0,1.212-.361,1.264,1.264,0,0,0,.423-1.017,1.34,1.34,0,0,0-1.5-1.519Zm0-1.909h1.519A2.158,2.158,0,0,0,29.3,10.6,1.241,1.241,0,0,0,29.711,9.6a1.3,1.3,0,0,0-.44-1.1,2.355,2.355,0,0,0-1.419-.337H26.424Zm14.959,4.79H37.39L36.693,18H33.58L38.012,5.914h2.739L45.218,18H42.088Zm-3.3-2.25h2.6L39.382,9.3ZM50.954,5.914H53.86v8.292a3.965,3.965,0,0,1-.535,2.059,3.655,3.655,0,0,1-1.494,1.4,4.566,4.566,0,0,1-2.137.5,4.4,4.4,0,0,1-3.071-1,3.62,3.62,0,0,1-1.1-2.822h2.922a2,2,0,0,0,.286,1.2,1.134,1.134,0,0,0,.959.374,1.084,1.084,0,0,0,.934-.452,2.126,2.126,0,0,0,.328-1.266ZM62.6,15.742H58.609L57.911,18H54.8L59.231,5.914H61.97L66.436,18H63.307Zm-3.3-2.25h2.6L60.6,9.3ZM13.1,29.914v7.911a4.546,4.546,0,0,1-.573,2.328,3.71,3.71,0,0,1-1.644,1.5,5.79,5.79,0,0,1-2.532.515,5,5,0,0,1-3.478-1.146,4.085,4.085,0,0,1-1.295-3.138V29.914h2.93v8.027q.05,1.984,1.843,1.984a1.784,1.784,0,0,0,1.37-.5,2.328,2.328,0,0,0,.465-1.619V29.914Zm6.351,7.811H17.873V42H14.959V29.914h4.756a5.309,5.309,0,0,1,3.362.954,3.231,3.231,0,0,1,1.212,2.695,3.924,3.924,0,0,1-.51,2.09A3.623,3.623,0,0,1,22.181,37l2.523,4.88V42H21.583Zm-1.577-2.241h1.843a1.654,1.654,0,0,0,1.249-.437,1.689,1.689,0,0,0,.419-1.219,1.709,1.709,0,0,0-.423-1.227,1.639,1.639,0,0,0-1.245-.445H17.873Zm18.113,5.022a4.685,4.685,0,0,1-1.967,1.2,8.485,8.485,0,0,1-2.839.457,5.062,5.062,0,0,1-3.793-1.453,5.88,5.88,0,0,1-1.519-4.042l-.008-1.046a7.213,7.213,0,0,1,.631-3.117,4.685,4.685,0,0,1,1.805-2.05,5.107,5.107,0,0,1,2.719-.718,5.354,5.354,0,0,1,3.507,1.033,4.379,4.379,0,0,1,1.457,3.084H33.172a2.291,2.291,0,0,0-.647-1.444,2.089,2.089,0,0,0-1.411-.432,1.9,1.9,0,0,0-1.693.93,4.964,4.964,0,0,0-.606,2.656v.73a4.86,4.86,0,0,0,.618,2.719,2.187,2.187,0,0,0,1.947.909,2.448,2.448,0,0,0,1.693-.506V37.542H31.047v-2h4.939Zm9.231-3.636H40.635v2.889h5.412V42H37.722V29.914h8.342v2.25H40.635v2.548h4.582ZM57.371,42h-2.9l-4.283-7.521V42H47.277V29.914h2.914l4.275,7.521V29.914h2.905Zm11.664-4.092a4.414,4.414,0,0,1-.681,2.229,4.108,4.108,0,0,1-1.747,1.5,5.947,5.947,0,0,1-2.569.531,4.746,4.746,0,0,1-3.752-1.552,6.409,6.409,0,0,1-1.37-4.383v-.6a7.316,7.316,0,0,1,.618-3.109,4.686,4.686,0,0,1,1.781-2.059A4.968,4.968,0,0,1,64,29.74,5.209,5.209,0,0,1,67.54,30.9a4.575,4.575,0,0,1,1.519,3.192H66.154A2.165,2.165,0,0,0,65.6,32.5,2.287,2.287,0,0,0,64,32.022a1.74,1.74,0,0,0-1.594.813,5.228,5.228,0,0,0-.531,2.6v.855a5.785,5.785,0,0,0,.486,2.764,1.777,1.777,0,0,0,1.673.83,2.237,2.237,0,0,0,1.536-.473,2.008,2.008,0,0,0,.564-1.5ZM73.559,42H70.654V29.914h2.905Zm8.933-2.258H78.5L77.8,42H74.689l4.433-12.086h2.739L86.327,42H83.2Zm-3.3-2.25h2.6l-1.3-4.192Z" transform="translate(7911 -1864)" fill="#12263f"/>
    <g id="Group_1189207" data-name="Group 1189207" transform="translate(8278.297 -644.549) rotate(180)">
      <path id="Path_999401" data-name="Path 999401" d="M7.292,0,0,7.293l7.292,7.293h6.124L7.292,8.5V6.124l2.747-2.747L13.417,0Z" transform="translate(406.711 1704.451) rotate(-90)" fill="#1e75cc"/>
      <path id="Path_1033010" data-name="Path 1033010" d="M7.292,0,0,7.293l7.292,7.293h6.124L7.292,8.5V6.124l2.747-2.747L13.417,0Z" transform="translate(421.297 1251.355) rotate(90)" fill="#1e75cc"/>
      <rect id="Rectangle_458934" data-name="Rectangle 458934" width="3.551" height="443.431" transform="translate(412.393 1256.043)" fill="#1e75cc"/>
    </g>
    <rect id="Rectangle_459369" data-name="Rectangle 459369" width="159" height="65" transform="translate(7873 -2335)" fill="#774607"/>
    <rect id="Rectangle_459364" data-name="Rectangle 459364" width="159" height="67" transform="translate(7873 -2107)" fill="#19538d"/>
    <g id="Group_1189301" data-name="Group 1189301">
      <rect id="Rectangle_459368" data-name="Rectangle 459368" width="159" height="71" transform="translate(7695 -2335)" fill="#aa0101"/>
      <rect id="Rectangle_459366" data-name="Rectangle 459366" width="159" height="130" transform="translate(7695 -2268)" fill="#ffd2d2"/>
    </g>
    <g id="Group_1189302" data-name="Group 1189302">
      <rect id="Rectangle_459363" data-name="Rectangle 459363" width="159" height="67" transform="translate(7696 -2107)" fill="#0f654d"/>
      <rect id="Rectangle_459365" data-name="Rectangle 459365" width="159" height="130" transform="translate(7696 -2040)" fill="#c0f6f2"/>
    </g>
    <rect id="Rectangle_459367" data-name="Rectangle 459367" width="159" height="132" transform="translate(7873 -2270)" fill="#fff8d2"/>
    <rect id="Rectangle_459362" data-name="Rectangle 459362" width="159" height="132" transform="translate(7873 -2042)" fill="#c9e8f7"/>
    <path id="Path_1033463" data-name="Path 1033463" d="M34.929,18V5.914h3.893a5.727,5.727,0,0,1,2.88.726,5.105,5.105,0,0,1,2,2.05,6.19,6.19,0,0,1,.726,2.968v.556a6.226,6.226,0,0,1-.7,2.976,5.127,5.127,0,0,1-1.976,2.059A5.6,5.6,0,0,1,38.905,18Zm2.914-9.836v7.6h1.013a2.267,2.267,0,0,0,1.926-.892,4.373,4.373,0,0,0,.672-2.652v-.523a4.337,4.337,0,0,0-.672-2.64,2.306,2.306,0,0,0-1.959-.888Zm12.336,10a4.617,4.617,0,0,1-3.345-1.233,4.257,4.257,0,0,1-1.278-3.208v-.232a5.516,5.516,0,0,1,.51-2.432,3.735,3.735,0,0,1,1.49-1.631,4.5,4.5,0,0,1,2.324-.577,3.888,3.888,0,0,1,2.988,1.175,4.616,4.616,0,0,1,1.1,3.275v1.087H48.4a2.016,2.016,0,0,0,.656,1.187,1.951,1.951,0,0,0,1.312.432,2.514,2.514,0,0,0,2.075-.93l1.278,1.511a3.573,3.573,0,0,1-1.482,1.15A5.007,5.007,0,0,1,50.179,18.166Zm-.315-7.155q-1.229,0-1.461,1.627h2.822v-.216a1.386,1.386,0,0,0-.34-1.042A1.354,1.354,0,0,0,49.863,11.011ZM55.783,18V10.961h-1.3V9.019h1.3v-.3a3.429,3.429,0,0,1,1.179-2.748,4.71,4.71,0,0,1,3.063-.9,10.869,10.869,0,0,1,2.922.481l-.382,2.208L62.1,7.641A7.4,7.4,0,0,0,60.19,7.4q-1.6,0-1.6,1.461v.158h1.76v1.942h-1.76V18Zm8.45,0H61.419V9.019h2.814ZM68.55,9.019l.091,1.054a3.046,3.046,0,0,1,2.565-1.22,2.562,2.562,0,0,1,2.1.838,3.991,3.991,0,0,1,.718,2.523V18H71.215V12.331a1.516,1.516,0,0,0-.274-1,1.267,1.267,0,0,0-1-.32,1.334,1.334,0,0,0-1.22.647V18h-2.8V9.019ZM78.562,18H75.756V9.019h2.806ZM75.59,6.7a1.249,1.249,0,0,1,.432-.979,1.835,1.835,0,0,1,2.241,0,1.249,1.249,0,0,1,.432.979,1.249,1.249,0,0,1-.432.979,1.835,1.835,0,0,1-2.241,0A1.249,1.249,0,0,1,75.59,6.7ZM85.76,11.55l-.921-.066a1.655,1.655,0,0,0-1.693.83V18h-2.8V9.019h2.623l.091,1.154a2.166,2.166,0,0,1,1.967-1.32,2.728,2.728,0,0,1,.78.1ZM25.07,37.426a5.3,5.3,0,0,1,.523-2.395,3.74,3.74,0,0,1,1.5-1.615,4.525,4.525,0,0,1,2.3-.564A4.13,4.13,0,0,1,32.574,34.1a4.794,4.794,0,0,1,1.162,3.4v.1a4.651,4.651,0,0,1-1.166,3.333,4.141,4.141,0,0,1-3.158,1.233,4.188,4.188,0,0,1-3.08-1.15A4.5,4.5,0,0,1,25.079,37.9Zm2.8.174a3.342,3.342,0,0,0,.39,1.826,1.3,1.3,0,0,0,1.154.581q1.494,0,1.527-2.3v-.282q0-2.416-1.544-2.416-1.4,0-1.519,2.083Zm15.482-.017a5.474,5.474,0,0,1-.913,3.4,3.058,3.058,0,0,1-2.573,1.187,2.654,2.654,0,0,1-2.208-1.087L37.539,42H35.032V29.25h2.8v4.491a2.561,2.561,0,0,1,2.017-.888,3.059,3.059,0,0,1,2.59,1.2,5.5,5.5,0,0,1,.913,3.387Zm-2.806-.178a3.651,3.651,0,0,0-.344-1.844,1.161,1.161,0,0,0-1.058-.551,1.339,1.339,0,0,0-1.312.721V39.3a1.347,1.347,0,0,0,1.328.713,1.188,1.188,0,0,0,1.253-.961A6.9,6.9,0,0,0,40.544,37.406Zm7.09-4.387v9.289a3.26,3.26,0,0,1-.913,2.457,3.508,3.508,0,0,1-2.523.863,5.958,5.958,0,0,1-1.32-.141V43.37a5.352,5.352,0,0,0,.789.075,1.024,1.024,0,0,0,1.162-1.154V33.019ZM44.621,30.7a1.249,1.249,0,0,1,.432-.979,1.835,1.835,0,0,1,2.241,0,1.327,1.327,0,0,1,0,1.959,1.835,1.835,0,0,1-2.241,0A1.249,1.249,0,0,1,44.621,30.7ZM53.6,42.166a4.617,4.617,0,0,1-3.345-1.233,4.257,4.257,0,0,1-1.278-3.208v-.232a5.516,5.516,0,0,1,.51-2.432,3.735,3.735,0,0,1,1.49-1.631,4.5,4.5,0,0,1,2.324-.577,3.888,3.888,0,0,1,2.988,1.175,4.616,4.616,0,0,1,1.1,3.275v1.087H51.827a2.016,2.016,0,0,0,.656,1.187,1.951,1.951,0,0,0,1.312.432,2.514,2.514,0,0,0,2.075-.93l1.278,1.511a3.573,3.573,0,0,1-1.482,1.15A5.007,5.007,0,0,1,53.6,42.166Zm-.315-7.155q-1.229,0-1.461,1.627h2.822v-.216a1.386,1.386,0,0,0-.34-1.042A1.354,1.354,0,0,0,53.288,35.011Zm8.526-4.225v2.233h1.478v1.942H61.814V39.07a1.049,1.049,0,0,0,.183.706.98.98,0,0,0,.722.2,4.1,4.1,0,0,0,.7-.05v2a5.163,5.163,0,0,1-1.577.241,2.93,2.93,0,0,1-2.133-.681,2.79,2.79,0,0,1-.689-2.067V34.961H57.871V33.019h1.146V30.786ZM67.385,42H64.579V33.019h2.806ZM64.413,30.7a1.249,1.249,0,0,1,.432-.979,1.835,1.835,0,0,1,2.241,0,1.327,1.327,0,0,1,0,1.959,1.835,1.835,0,0,1-2.241,0A1.249,1.249,0,0,1,64.413,30.7Zm8.318,7.969,1.419-5.653H77.1L74.167,42H71.312l-2.93-8.981h2.955ZM77.5,37.426a5.3,5.3,0,0,1,.523-2.395,3.74,3.74,0,0,1,1.5-1.615,4.525,4.525,0,0,1,2.3-.564A4.13,4.13,0,0,1,85,34.1a4.794,4.794,0,0,1,1.162,3.4v.1A4.651,4.651,0,0,1,85,40.933a4.141,4.141,0,0,1-3.158,1.233,4.188,4.188,0,0,1-3.08-1.15A4.5,4.5,0,0,1,77.505,37.9Zm2.8.174a3.342,3.342,0,0,0,.39,1.826,1.3,1.3,0,0,0,1.154.581q1.494,0,1.527-2.3v-.282q0-2.416-1.544-2.416-1.4,0-1.519,2.083ZM92.14,39.477a.646.646,0,0,0-.374-.573,5.682,5.682,0,0,0-1.419-.448,6.473,6.473,0,0,1-1.727-.61,2.892,2.892,0,0,1-1.038-.917,2.19,2.19,0,0,1-.357-1.237,2.482,2.482,0,0,1,1.021-2.038,4.206,4.206,0,0,1,2.673-.8,4.66,4.66,0,0,1,2.855.805,2.518,2.518,0,0,1,1.079,2.117H92.049q0-1.079-1.137-1.079a1.127,1.127,0,0,0-.739.245.758.758,0,0,0-.3.61.7.7,0,0,0,.365.606,3.451,3.451,0,0,0,1.166.382,10.078,10.078,0,0,1,1.407.357,2.556,2.556,0,0,1,2.025,2.5,2.352,2.352,0,0,1-1.092,2,4.787,4.787,0,0,1-2.826.772,4.885,4.885,0,0,1-2.059-.415,3.442,3.442,0,0,1-1.411-1.129,2.556,2.556,0,0,1-.506-1.5h2.615a1.081,1.081,0,0,0,.415.909,1.707,1.707,0,0,0,1.021.286,1.343,1.343,0,0,0,.859-.232A.743.743,0,0,0,92.14,39.477Z" transform="translate(7715 -2321)" fill="#fff"/>
    <path id="Path_1033467" data-name="Path 1033467" d="M7.094,13.9V18H4.18V5.914H9a5.617,5.617,0,0,1,2.453.51,3.847,3.847,0,0,1,1.652,1.453,3.967,3.967,0,0,1,.585,2.137,3.5,3.5,0,0,1-1.266,2.826A5.252,5.252,0,0,1,8.953,13.9Zm0-2.25H9a1.8,1.8,0,0,0,1.291-.423,1.573,1.573,0,0,0,.444-1.2,1.944,1.944,0,0,0-.457-1.353,1.617,1.617,0,0,0-1.245-.515H7.094ZM18.11,18H15.3V5.25H18.11Zm6.824,0a3.159,3.159,0,0,1-.266-.805,2.6,2.6,0,0,1-2.158.971,3.187,3.187,0,0,1-2.158-.768,2.444,2.444,0,0,1-.888-1.93,2.512,2.512,0,0,1,1.079-2.208,5.5,5.5,0,0,1,3.138-.747h.863v-.475q0-1.243-1.071-1.243a.875.875,0,0,0-1,.984h-2.8a2.508,2.508,0,0,1,1.108-2.114,4.657,4.657,0,0,1,2.826-.813,4.083,4.083,0,0,1,2.714.838,2.915,2.915,0,0,1,1.021,2.3v3.976a4.072,4.072,0,0,0,.382,1.893V18Zm-1.751-1.826a1.56,1.56,0,0,0,.867-.224,1.4,1.4,0,0,0,.494-.506V14.007H23.73q-1.461,0-1.461,1.312a.8.8,0,0,0,.257.618A.931.931,0,0,0,23.183,16.174Zm8.327-7.155.091,1.054a3.046,3.046,0,0,1,2.565-1.22,2.562,2.562,0,0,1,2.1.838,3.991,3.991,0,0,1,.718,2.523V18H34.174V12.331a1.516,1.516,0,0,0-.274-1,1.267,1.267,0,0,0-1-.32,1.334,1.334,0,0,0-1.22.647V18h-2.8V9.019ZM41.521,18H38.715V9.019h2.806ZM38.549,6.7a1.249,1.249,0,0,1,.432-.979,1.835,1.835,0,0,1,2.241,0,1.249,1.249,0,0,1,.432.979,1.249,1.249,0,0,1-.432.979,1.835,1.835,0,0,1-2.241,0A1.249,1.249,0,0,1,38.549,6.7ZM43.938,18V10.961h-1.3V9.019h1.3v-.3a3.429,3.429,0,0,1,1.179-2.748,4.71,4.71,0,0,1,3.063-.9,10.869,10.869,0,0,1,2.922.481l-.382,2.208-.465-.125A7.4,7.4,0,0,0,48.345,7.4q-1.6,0-1.6,1.461v.158H48.5v1.942h-1.76V18Zm8.45,0H49.574V9.019h2.814Zm5.546-1.992a1.244,1.244,0,0,0,.913-.32,1.172,1.172,0,0,0,.315-.892h2.623a3.105,3.105,0,0,1-1.058,2.424A3.937,3.937,0,0,1,58,18.166a3.986,3.986,0,0,1-3.088-1.229,4.841,4.841,0,0,1-1.129-3.4v-.116a5.471,5.471,0,0,1,.5-2.4,3.656,3.656,0,0,1,1.448-1.6,4.319,4.319,0,0,1,2.241-.56,3.887,3.887,0,0,1,2.781.971,3.445,3.445,0,0,1,1.029,2.631H59.162a1.536,1.536,0,0,0-.34-1.071,1.175,1.175,0,0,0-.913-.374q-1.087,0-1.27,1.386a9.781,9.781,0,0,0-.058,1.212,3.842,3.842,0,0,0,.324,1.876A1.121,1.121,0,0,0,57.934,16.008ZM68.07,18a3.159,3.159,0,0,1-.266-.805,2.6,2.6,0,0,1-2.158.971,3.187,3.187,0,0,1-2.158-.768,2.444,2.444,0,0,1-.888-1.93,2.512,2.512,0,0,1,1.079-2.208,5.5,5.5,0,0,1,3.138-.747h.863v-.475q0-1.243-1.071-1.243a.875.875,0,0,0-1,.984h-2.8a2.508,2.508,0,0,1,1.108-2.114,4.657,4.657,0,0,1,2.826-.813,4.083,4.083,0,0,1,2.714.838,2.915,2.915,0,0,1,1.021,2.3v3.976a4.072,4.072,0,0,0,.382,1.893V18Zm-1.751-1.826a1.56,1.56,0,0,0,.867-.224,1.4,1.4,0,0,0,.494-.506V14.007h-.813q-1.461,0-1.461,1.312a.8.8,0,0,0,.257.618A.931.931,0,0,0,66.318,16.174Zm11.19-4.624-.921-.066a1.655,1.655,0,0,0-1.693.83V18H72.1V9.019H74.72l.091,1.154a2.166,2.166,0,0,1,1.967-1.32,2.728,2.728,0,0,1,.78.1Z" transform="translate(7735 -2083)" fill="#fff"/>
    <path id="Path_1033464" data-name="Path 1033464" d="M18.54,5.914v7.911a4.546,4.546,0,0,1-.573,2.328,3.71,3.71,0,0,1-1.644,1.5,5.79,5.79,0,0,1-2.532.515,5,5,0,0,1-3.478-1.146,4.085,4.085,0,0,1-1.295-3.138V5.914h2.93v8.027q.05,1.984,1.843,1.984a1.784,1.784,0,0,0,1.37-.5,2.328,2.328,0,0,0,.465-1.619V5.914ZM25.7,11.55l-.921-.066a1.655,1.655,0,0,0-1.693.83V18h-2.8V9.019h2.623l.091,1.154a2.166,2.166,0,0,1,1.967-1.32,2.728,2.728,0,0,1,.78.1Zm.723,1.893a6.064,6.064,0,0,1,.448-2.407,3.609,3.609,0,0,1,1.287-1.615,3.392,3.392,0,0,1,1.951-.569A2.7,2.7,0,0,1,32.3,9.8l.1-.78h2.54V17.66a3.787,3.787,0,0,1-.552,2.063,3.542,3.542,0,0,1-1.6,1.345,5.873,5.873,0,0,1-2.424.469,5.067,5.067,0,0,1-1.913-.374,3.454,3.454,0,0,1-1.415-.971l1.17-1.644a2.565,2.565,0,0,0,2.059.921A1.666,1.666,0,0,0,32.13,17.56v-.282a2.627,2.627,0,0,1-2.034.888,3.246,3.246,0,0,1-2.656-1.258,5.21,5.21,0,0,1-1.013-3.366Zm2.806.174a3.2,3.2,0,0,0,.415,1.747,1.309,1.309,0,0,0,1.162.643,1.486,1.486,0,0,0,1.32-.606V11.625a1.449,1.449,0,0,0-1.3-.614,1.318,1.318,0,0,0-1.17.668A3.644,3.644,0,0,0,29.233,13.617Zm11.688,4.549a4.617,4.617,0,0,1-3.345-1.233A4.257,4.257,0,0,1,36.3,13.725v-.232a5.516,5.516,0,0,1,.51-2.432A3.735,3.735,0,0,1,38.3,9.429a4.5,4.5,0,0,1,2.324-.577,3.888,3.888,0,0,1,2.988,1.175,4.616,4.616,0,0,1,1.1,3.275v1.087H39.145a2.016,2.016,0,0,0,.656,1.187,1.951,1.951,0,0,0,1.312.432,2.514,2.514,0,0,0,2.075-.93l1.278,1.511a3.573,3.573,0,0,1-1.482,1.15A5.007,5.007,0,0,1,40.922,18.166Zm-.315-7.155q-1.229,0-1.461,1.627h2.822v-.216a1.386,1.386,0,0,0-.34-1.042A1.354,1.354,0,0,0,40.606,11.011Zm7.837-1.992.091,1.054A3.046,3.046,0,0,1,51.1,8.853a2.562,2.562,0,0,1,2.1.838,3.991,3.991,0,0,1,.718,2.523V18H51.108V12.331a1.516,1.516,0,0,0-.274-1,1.267,1.267,0,0,0-1-.32,1.334,1.334,0,0,0-1.22.647V18h-2.8V9.019ZM58.762,6.786V9.019H60.24v1.942H58.762V15.07a1.049,1.049,0,0,0,.183.706.98.98,0,0,0,.722.2,4.1,4.1,0,0,0,.7-.05v2a5.163,5.163,0,0,1-1.577.241,2.93,2.93,0,0,1-2.133-.681,2.79,2.79,0,0,1-.689-2.067V10.961H54.819V9.019h1.146V6.786Zm6.965,11.38a4.617,4.617,0,0,1-3.345-1.233A4.257,4.257,0,0,1,61.1,13.725v-.232a5.516,5.516,0,0,1,.51-2.432A3.735,3.735,0,0,1,63.1,9.429a4.5,4.5,0,0,1,2.324-.577,3.888,3.888,0,0,1,2.988,1.175,4.616,4.616,0,0,1,1.1,3.275v1.087H63.951a2.016,2.016,0,0,0,.656,1.187,1.951,1.951,0,0,0,1.312.432,2.514,2.514,0,0,0,2.075-.93l1.278,1.511a3.573,3.573,0,0,1-1.482,1.15A5.007,5.007,0,0,1,65.727,18.166Zm-.315-7.155q-1.229,0-1.461,1.627h2.822v-.216a1.386,1.386,0,0,0-.34-1.042A1.354,1.354,0,0,0,65.412,11.011Z" transform="translate(7914 -2312)" fill="#fff"/>
    <path id="Path_1033468" data-name="Path 1033468" d="M14.646,12.87H10.064v2.889h5.412V18H7.151V5.914h8.342v2.25H10.064v2.548h4.582ZM19.528,18H16.723V5.25h2.806Zm4.716,0H21.438V9.019h2.806ZM21.272,6.7a1.249,1.249,0,0,1,.432-.979,1.835,1.835,0,0,1,2.241,0,1.249,1.249,0,0,1,.432.979,1.249,1.249,0,0,1-.432.979,1.835,1.835,0,0,1-2.241,0A1.249,1.249,0,0,1,21.272,6.7Zm7.38,2.316.091,1.054a3.088,3.088,0,0,1,2.565-1.22,2.273,2.273,0,0,1,2.3,1.353,2.989,2.989,0,0,1,2.64-1.353q2.731,0,2.806,3.3V18H36.248V12.331a1.712,1.712,0,0,0-.232-1,.989.989,0,0,0-.847-.315,1.325,1.325,0,0,0-1.237.739l.008.116V18H31.135V12.347a1.8,1.8,0,0,0-.224-1.021.987.987,0,0,0-.855-.315,1.342,1.342,0,0,0-1.229.739V18h-2.8V9.019ZM43.645,18H40.839V9.019h2.806ZM40.673,6.7a1.249,1.249,0,0,1,.432-.979,1.835,1.835,0,0,1,2.241,0,1.249,1.249,0,0,1,.432.979,1.249,1.249,0,0,1-.432.979,1.835,1.835,0,0,1-2.241,0A1.249,1.249,0,0,1,40.673,6.7Zm7.306,2.316.091,1.054a3.046,3.046,0,0,1,2.565-1.22,2.562,2.562,0,0,1,2.1.838,3.991,3.991,0,0,1,.718,2.523V18H50.644V12.331a1.516,1.516,0,0,0-.274-1,1.267,1.267,0,0,0-1-.32,1.334,1.334,0,0,0-1.22.647V18h-2.8V9.019ZM60.1,18a3.158,3.158,0,0,1-.266-.805,2.6,2.6,0,0,1-2.158.971,3.187,3.187,0,0,1-2.158-.768,2.444,2.444,0,0,1-.888-1.93,2.512,2.512,0,0,1,1.079-2.208,5.5,5.5,0,0,1,3.138-.747h.863v-.475q0-1.243-1.071-1.243a.875.875,0,0,0-1,.984h-2.8a2.508,2.508,0,0,1,1.108-2.114,4.657,4.657,0,0,1,2.826-.813,4.083,4.083,0,0,1,2.714.838,2.915,2.915,0,0,1,1.021,2.3v3.976a4.072,4.072,0,0,0,.382,1.893V18Zm-1.751-1.826a1.56,1.56,0,0,0,.867-.224,1.4,1.4,0,0,0,.494-.506V14.007H58.9q-1.461,0-1.461,1.312a.8.8,0,0,0,.257.618A.931.931,0,0,0,58.348,16.174Zm11.19-4.624-.921-.066a1.655,1.655,0,0,0-1.693.83V18h-2.8V9.019h2.623l.091,1.154a2.166,2.166,0,0,1,1.967-1.32,2.728,2.728,0,0,1,.78.1Z" transform="translate(7915 -2083)" fill="#fff"/>
    <path id="Path_1033465" data-name="Path 1033465" d="M34.572,18l2.1-12.086,3.544.008a4.03,4.03,0,0,1,2.772.83,2.657,2.657,0,0,1,.805,2.316,3.142,3.142,0,0,1-2.183,2.615,2.25,2.25,0,0,1,1.216,1.079,3.016,3.016,0,0,1,.328,1.685,3.526,3.526,0,0,1-1.312,2.594A4.735,4.735,0,0,1,38.772,18Zm2.54-5.653-.755,4.341,2.465.008a2.953,2.953,0,0,0,1.893-.6A2.356,2.356,0,0,0,41.6,14.46a1.935,1.935,0,0,0-.34-1.524,1.854,1.854,0,0,0-1.436-.58Zm.224-1.278,2.25.008a2.9,2.9,0,0,0,1.781-.541,2.119,2.119,0,0,0,.851-1.489,1.52,1.52,0,0,0-.344-1.331,2.205,2.205,0,0,0-1.5-.491L38,7.217Zm13.1,6.043a3.469,3.469,0,0,1-2.681,1.054,2.238,2.238,0,0,1-1.905-.921,3.524,3.524,0,0,1-.461-2.424l.963-5.8h1.5l-.971,5.827a3.87,3.87,0,0,0-.017.714,1.486,1.486,0,0,0,.357.938,1.218,1.218,0,0,0,.88.365,2.7,2.7,0,0,0,2.49-1.3l1.129-6.541h1.5L51.665,18H50.245Zm3.952-3.619a7.32,7.32,0,0,1,.793-2.552,4.146,4.146,0,0,1,1.444-1.6,3.348,3.348,0,0,1,1.864-.494,2.763,2.763,0,0,1,2.357,1.179l.3-1h1.378l-1.494,8.791a4.37,4.37,0,0,1-1.395,2.752,3.928,3.928,0,0,1-2.847.984,4.043,4.043,0,0,1-1.747-.432,3.322,3.322,0,0,1-1.316-1.137l.855-.921a2.695,2.695,0,0,0,3.964.639,3.084,3.084,0,0,0,.984-1.793l.166-.8a3.4,3.4,0,0,1-2.565,1.063,2.641,2.641,0,0,1-1.457-.452,2.751,2.751,0,0,1-.959-1.237,5.056,5.056,0,0,1-.374-1.805A9.279,9.279,0,0,1,54.388,13.493Zm1.453.85a3.16,3.16,0,0,0,.411,1.836,1.553,1.553,0,0,0,1.316.684,2.721,2.721,0,0,0,2.316-1.318l.706-4.12a1.887,1.887,0,0,0-1.8-1.277,2.331,2.331,0,0,0-2,.995,5.183,5.183,0,0,0-.926,2.777Zm12.229-.908a5.261,5.261,0,0,1,.979-3.324,3.333,3.333,0,0,1,5.063-.178V5.25h1.536V18H74.237l-.075-.963A3.127,3.127,0,0,1,71.6,18.166a3.068,3.068,0,0,1-2.544-1.278,5.321,5.321,0,0,1-.984-3.337Zm1.536.174A3.984,3.984,0,0,0,70.236,16a2.039,2.039,0,0,0,1.743.863,2.24,2.24,0,0,0,2.133-1.312V11.426A2.257,2.257,0,0,0,72,10.156a2.049,2.049,0,0,0-1.76.872A4.386,4.386,0,0,0,69.605,13.609ZM81.8,18.166a3.924,3.924,0,0,1-2.972-1.2,4.452,4.452,0,0,1-1.146-3.208v-.282a5.39,5.39,0,0,1,.51-2.386,3.982,3.982,0,0,1,1.428-1.644,3.59,3.59,0,0,1,1.988-.594,3.364,3.364,0,0,1,2.723,1.154,5,5,0,0,1,.971,3.3v.639H79.219a3.193,3.193,0,0,0,.776,2.146,2.44,2.44,0,0,0,1.888.818,2.675,2.675,0,0,0,1.378-.332,3.462,3.462,0,0,0,.988-.88l.938.73A3.772,3.772,0,0,1,81.8,18.166Zm-.191-8.052a2.048,2.048,0,0,0-1.561.677,3.288,3.288,0,0,0-.78,1.9h4.5v-.116a2.925,2.925,0,0,0-.631-1.814A1.928,1.928,0,0,0,81.609,10.114Zm-52.878,29.5a1.131,1.131,0,0,0-.469-.967,4.514,4.514,0,0,0-1.635-.594,7.731,7.731,0,0,1-1.851-.6,2.633,2.633,0,0,1-1.013-.83,1.986,1.986,0,0,1-.328-1.146,2.33,2.33,0,0,1,.934-1.868,3.647,3.647,0,0,1,2.386-.764,3.753,3.753,0,0,1,2.478.789,2.5,2.5,0,0,1,.95,2.017H28.64a1.386,1.386,0,0,0-.535-1.087,2.006,2.006,0,0,0-1.349-.457,2.1,2.1,0,0,0-1.312.365,1.15,1.15,0,0,0-.473.955.932.932,0,0,0,.44.838,5.413,5.413,0,0,0,1.59.54,8.283,8.283,0,0,1,1.864.614,2.718,2.718,0,0,1,1.058.859,2.112,2.112,0,0,1,.344,1.224,2.3,2.3,0,0,1-.963,1.93,4.039,4.039,0,0,1-2.5.726,4.523,4.523,0,0,1-1.909-.382,3.105,3.105,0,0,1-1.3-1.067,2.571,2.571,0,0,1-.469-1.482h1.536a1.59,1.59,0,0,0,.618,1.224,2.4,2.4,0,0,0,1.523.452,2.476,2.476,0,0,0,1.4-.353A1.084,1.084,0,0,0,28.731,39.618Zm7.306,2.548a3.924,3.924,0,0,1-2.972-1.2,4.452,4.452,0,0,1-1.146-3.208v-.282a5.39,5.39,0,0,1,.51-2.386,3.982,3.982,0,0,1,1.428-1.644,3.59,3.59,0,0,1,1.988-.594,3.364,3.364,0,0,1,2.723,1.154,5,5,0,0,1,.971,3.3v.639H33.455a3.193,3.193,0,0,0,.776,2.146,2.44,2.44,0,0,0,1.888.818,2.675,2.675,0,0,0,1.378-.332,3.462,3.462,0,0,0,.988-.88l.938.73A3.772,3.772,0,0,1,36.037,42.166Zm-.191-8.052a2.048,2.048,0,0,0-1.561.677,3.288,3.288,0,0,0-.78,1.9H38v-.116a2.925,2.925,0,0,0-.631-1.814A1.928,1.928,0,0,0,35.846,34.114Zm5.147,3.32a5.279,5.279,0,0,1,.971-3.341,3.348,3.348,0,0,1,5.138-.079l.075-1h1.4v8.766a3.654,3.654,0,0,1-1.033,2.748,3.814,3.814,0,0,1-2.777,1,4.619,4.619,0,0,1-1.9-.415,3.272,3.272,0,0,1-1.419-1.137l.8-.921a3,3,0,0,0,2.416,1.22,2.353,2.353,0,0,0,1.747-.631,2.411,2.411,0,0,0,.627-1.776V41.1a3.156,3.156,0,0,1-2.515,1.063,3.068,3.068,0,0,1-2.552-1.27A5.55,5.55,0,0,1,40.993,37.435Zm1.544.174A4.027,4.027,0,0,0,43.16,40a2.023,2.023,0,0,0,1.743.867,2.249,2.249,0,0,0,2.133-1.32v-4.1a2.276,2.276,0,0,0-2.117-1.287,2.041,2.041,0,0,0-1.751.872A4.386,4.386,0,0,0,42.537,37.609Zm13.946,3.5a3.262,3.262,0,0,1-2.631,1.054,2.792,2.792,0,0,1-2.187-.834,3.611,3.611,0,0,1-.76-2.469V33.019h1.536v5.8q0,2.042,1.66,2.042a2.3,2.3,0,0,0,2.341-1.312V33.019h1.536V42H56.517Zm8.21-6.715a4.6,4.6,0,0,0-.755-.058,2.024,2.024,0,0,0-2.05,1.287V42H60.353V33.019h1.494l.025,1.038a2.391,2.391,0,0,1,2.142-1.2,1.569,1.569,0,0,1,.681.116ZM67.816,42H66.281V33.019h1.536Zm-1.66-11.364a.917.917,0,0,1,.228-.631.857.857,0,0,1,.677-.257.87.87,0,0,1,.681.257.907.907,0,0,1,.232.631.877.877,0,0,1-.232.623.886.886,0,0,1-.681.249.872.872,0,0,1-.677-.249A.886.886,0,0,1,66.156,30.636Zm3.786,6.8a5.261,5.261,0,0,1,.979-3.324,3.333,3.333,0,0,1,5.063-.178V29.25h1.536V42H76.11l-.075-.963a3.127,3.127,0,0,1-2.565,1.129,3.068,3.068,0,0,1-2.544-1.278,5.321,5.321,0,0,1-.984-3.337Zm1.536.174A3.984,3.984,0,0,0,72.109,40a2.039,2.039,0,0,0,1.743.863,2.24,2.24,0,0,0,2.133-1.312V35.426a2.257,2.257,0,0,0-2.117-1.27,2.049,2.049,0,0,0-1.76.872A4.386,4.386,0,0,0,71.478,37.609ZM85.491,42a3.226,3.226,0,0,1-.216-.946,3.426,3.426,0,0,1-2.557,1.112,3.17,3.17,0,0,1-2.179-.751,2.43,2.43,0,0,1-.851-1.905,2.539,2.539,0,0,1,1.067-2.179,5.029,5.029,0,0,1,3-.776H85.25v-.706a1.725,1.725,0,0,0-.481-1.282,1.935,1.935,0,0,0-1.419-.477,2.239,2.239,0,0,0-1.378.415,1.223,1.223,0,0,0-.556,1H79.871a2.119,2.119,0,0,1,.477-1.3,3.258,3.258,0,0,1,1.295-.992,4.356,4.356,0,0,1,1.8-.365,3.551,3.551,0,0,1,2.432.776,2.8,2.8,0,0,1,.913,2.137V39.9a5.054,5.054,0,0,0,.315,1.967V42Zm-2.548-1.17a2.7,2.7,0,0,0,1.37-.374,2.259,2.259,0,0,0,.938-.971V37.642h-1.2q-2.822,0-2.822,1.652a1.4,1.4,0,0,0,.481,1.129A1.85,1.85,0,0,0,82.942,40.83Zm5.919-3.4a5.261,5.261,0,0,1,.979-3.324,3.333,3.333,0,0,1,5.063-.178V29.25H96.44V42H95.029l-.075-.963a3.127,3.127,0,0,1-2.565,1.129,3.068,3.068,0,0,1-2.544-1.278,5.321,5.321,0,0,1-.984-3.337Zm1.536.174A3.984,3.984,0,0,0,91.028,40a2.039,2.039,0,0,0,1.743.863A2.24,2.24,0,0,0,94.9,39.551V35.426a2.257,2.257,0,0,0-2.117-1.27,2.049,2.049,0,0,0-1.76.872A4.386,4.386,0,0,0,90.4,37.609Zm-67.867,23a7.494,7.494,0,0,1-2.984-1.448,2.768,2.768,0,0,1-.934-2.121,2.923,2.923,0,0,1,1.141-2.362,4.536,4.536,0,0,1,2.968-.934,4.951,4.951,0,0,1,2.22.481,3.651,3.651,0,0,1,1.511,1.328,3.4,3.4,0,0,1,.535,1.851h-1.6a2.21,2.21,0,0,0-.7-1.729,2.835,2.835,0,0,0-1.967-.629,2.9,2.9,0,0,0-1.839.52,1.734,1.734,0,0,0-.66,1.443,1.56,1.56,0,0,0,.627,1.252,6.147,6.147,0,0,0,2.133.936,9.9,9.9,0,0,1,2.357.935A3.577,3.577,0,0,1,26.6,61.327a3.04,3.04,0,0,1,.411,1.6,2.824,2.824,0,0,1-1.146,2.353,4.884,4.884,0,0,1-3.063.884,5.681,5.681,0,0,1-2.324-.477,3.911,3.911,0,0,1-1.664-1.307A3.191,3.191,0,0,1,18.23,62.5h1.6a2.082,2.082,0,0,0,.809,1.731,3.408,3.408,0,0,0,2.162.635,3.133,3.133,0,0,0,1.934-.515,1.672,1.672,0,0,0,.672-1.4,1.641,1.641,0,0,0-.623-1.374A7.177,7.177,0,0,0,22.53,60.613ZM30.525,66H28.989V57.019h1.536Zm-1.66-11.364a.917.917,0,0,1,.228-.631.857.857,0,0,1,.677-.257.87.87,0,0,1,.681.257.907.907,0,0,1,.232.631.877.877,0,0,1-.232.623.886.886,0,0,1-.681.249.872.872,0,0,1-.677-.249A.886.886,0,0,1,28.864,54.636Zm9.389,8.981a1.13,1.13,0,0,0-.469-.967,4.514,4.514,0,0,0-1.635-.594,7.731,7.731,0,0,1-1.851-.6,2.633,2.633,0,0,1-1.013-.83,1.986,1.986,0,0,1-.328-1.146,2.33,2.33,0,0,1,.934-1.868,3.647,3.647,0,0,1,2.386-.764,3.753,3.753,0,0,1,2.478.789,2.5,2.5,0,0,1,.95,2.017H38.162a1.386,1.386,0,0,0-.535-1.087,2.006,2.006,0,0,0-1.349-.457,2.1,2.1,0,0,0-1.312.365,1.15,1.15,0,0,0-.473.955.932.932,0,0,0,.44.838,5.413,5.413,0,0,0,1.59.54,8.283,8.283,0,0,1,1.864.614,2.718,2.718,0,0,1,1.058.859,2.112,2.112,0,0,1,.344,1.224,2.3,2.3,0,0,1-.963,1.93,4.039,4.039,0,0,1-2.5.726,4.523,4.523,0,0,1-1.909-.382,3.105,3.105,0,0,1-1.3-1.067,2.571,2.571,0,0,1-.469-1.482h1.536A1.59,1.59,0,0,0,34.8,64.46a2.4,2.4,0,0,0,1.523.452,2.476,2.476,0,0,0,1.4-.353A1.084,1.084,0,0,0,38.254,63.618Zm5.662-8.774v2.175h1.677v1.187H43.916v5.577a1.247,1.247,0,0,0,.224.81.943.943,0,0,0,.764.27,3.718,3.718,0,0,0,.73-.1V66a4.478,4.478,0,0,1-1.179.165,1.912,1.912,0,0,1-1.552-.623,2.675,2.675,0,0,1-.523-1.768v-5.57H40.745V57.019H42.38V54.844Zm7.239,11.322a3.924,3.924,0,0,1-2.972-1.2,4.452,4.452,0,0,1-1.146-3.208v-.282a5.39,5.39,0,0,1,.51-2.386,3.982,3.982,0,0,1,1.428-1.644,3.59,3.59,0,0,1,1.988-.594,3.364,3.364,0,0,1,2.723,1.154,5,5,0,0,1,.971,3.3v.639H48.573a3.193,3.193,0,0,0,.776,2.146,2.44,2.44,0,0,0,1.888.818,2.675,2.675,0,0,0,1.378-.332,3.462,3.462,0,0,0,.988-.88l.938.73A3.772,3.772,0,0,1,51.155,66.166Zm-.191-8.052a2.048,2.048,0,0,0-1.561.677,3.288,3.288,0,0,0-.78,1.9h4.5v-.116a2.925,2.925,0,0,0-.631-1.814A1.928,1.928,0,0,0,50.964,58.114Zm6.957-1.1.042,1a3.317,3.317,0,0,1,2.665-1.162A2.568,2.568,0,0,1,63.192,58.3a3.4,3.4,0,0,1,1.166-1.046,3.445,3.445,0,0,1,1.7-.4q2.955,0,3,3.129V66H67.525V60.073a2.062,2.062,0,0,0-.44-1.44,1.937,1.937,0,0,0-1.478-.477,2.036,2.036,0,0,0-1.419.51,2.071,2.071,0,0,0-.656,1.374V66H61.989V60.115a1.713,1.713,0,0,0-1.917-1.959A2.055,2.055,0,0,0,58,59.442V66H56.469V57.019ZM76.964,66a3.226,3.226,0,0,1-.216-.946,3.426,3.426,0,0,1-2.557,1.112,3.17,3.17,0,0,1-2.179-.751,2.43,2.43,0,0,1-.851-1.905,2.539,2.539,0,0,1,1.067-2.179,5.029,5.029,0,0,1,3-.776h1.494v-.706a1.725,1.725,0,0,0-.481-1.282,1.935,1.935,0,0,0-1.419-.477,2.239,2.239,0,0,0-1.378.415,1.223,1.223,0,0,0-.556,1H71.345a2.119,2.119,0,0,1,.477-1.3,3.258,3.258,0,0,1,1.295-.992,4.356,4.356,0,0,1,1.8-.365,3.551,3.551,0,0,1,2.432.776,2.8,2.8,0,0,1,.913,2.137V63.9a5.054,5.054,0,0,0,.315,1.967V66Zm-2.548-1.17a2.7,2.7,0,0,0,1.37-.374,2.259,2.259,0,0,0,.938-.971V61.642h-1.2q-2.822,0-2.822,1.652a1.4,1.4,0,0,0,.481,1.129A1.85,1.85,0,0,0,74.416,64.83Zm10.17-3.4a5.261,5.261,0,0,1,.979-3.324,3.333,3.333,0,0,1,5.063-.178V53.25h1.536V66H90.754l-.075-.963a3.127,3.127,0,0,1-2.565,1.129,3.068,3.068,0,0,1-2.544-1.278,5.321,5.321,0,0,1-.984-3.337Zm1.536.174A3.984,3.984,0,0,0,86.753,64a2.039,2.039,0,0,0,1.743.863,2.24,2.24,0,0,0,2.133-1.312V59.426a2.257,2.257,0,0,0-2.117-1.27,2.049,2.049,0,0,0-1.76.872A4.386,4.386,0,0,0,86.122,61.609Zm12.195,4.557a3.924,3.924,0,0,1-2.972-1.2A4.452,4.452,0,0,1,94.2,61.758v-.282a5.39,5.39,0,0,1,.51-2.386,3.982,3.982,0,0,1,1.428-1.644,3.59,3.59,0,0,1,1.988-.594,3.364,3.364,0,0,1,2.723,1.154,5,5,0,0,1,.971,3.3v.639H95.735a3.193,3.193,0,0,0,.776,2.146,2.44,2.44,0,0,0,1.888.818,2.675,2.675,0,0,0,1.378-.332,3.462,3.462,0,0,0,.988-.88l.938.73A3.772,3.772,0,0,1,98.317,66.166Zm-.191-8.052a2.048,2.048,0,0,0-1.561.677,3.288,3.288,0,0,0-.78,1.9h4.5v-.116a2.925,2.925,0,0,0-.631-1.814A1.928,1.928,0,0,0,98.126,58.114ZM19.968,85.609a5.378,5.378,0,0,1-.938,3.3,3.006,3.006,0,0,1-2.54,1.253,3.294,3.294,0,0,1-2.573-1.038v4.325H12.381V81.019h1.4l.075,1a3.163,3.163,0,0,1,2.606-1.162,3.063,3.063,0,0,1,2.561,1.22,5.437,5.437,0,0,1,.942,3.4Zm-1.536-.174a3.968,3.968,0,0,0-.647-2.4,2.086,2.086,0,0,0-1.776-.88,2.257,2.257,0,0,0-2.092,1.237v4.292a2.262,2.262,0,0,0,2.108,1.229,2.076,2.076,0,0,0,1.756-.876A4.332,4.332,0,0,0,18.433,85.435ZM27.506,90a3.226,3.226,0,0,1-.216-.946,3.426,3.426,0,0,1-2.557,1.112,3.17,3.17,0,0,1-2.179-.751A2.43,2.43,0,0,1,21.7,87.51a2.539,2.539,0,0,1,1.067-2.179,5.029,5.029,0,0,1,3-.776h1.494v-.706a1.725,1.725,0,0,0-.481-1.282,1.935,1.935,0,0,0-1.419-.477,2.239,2.239,0,0,0-1.378.415,1.223,1.223,0,0,0-.556,1H21.887a2.119,2.119,0,0,1,.477-1.3,3.258,3.258,0,0,1,1.295-.992,4.356,4.356,0,0,1,1.8-.365,3.551,3.551,0,0,1,2.432.776,2.8,2.8,0,0,1,.913,2.137V87.9a5.054,5.054,0,0,0,.315,1.967V90Zm-2.548-1.17a2.7,2.7,0,0,0,1.37-.374,2.259,2.259,0,0,0,.938-.971V85.642h-1.2q-2.822,0-2.822,1.652a1.4,1.4,0,0,0,.481,1.129A1.85,1.85,0,0,0,24.958,88.83Zm5.928-3.4a5.279,5.279,0,0,1,.971-3.341A3.348,3.348,0,0,1,37,82.015l.075-1h1.4v8.766a3.654,3.654,0,0,1-1.033,2.748,3.814,3.814,0,0,1-2.777,1,4.619,4.619,0,0,1-1.9-.415,3.272,3.272,0,0,1-1.419-1.137l.8-.921a3,3,0,0,0,2.416,1.22,2.353,2.353,0,0,0,1.747-.631,2.411,2.411,0,0,0,.627-1.776V89.1a3.156,3.156,0,0,1-2.515,1.063,3.068,3.068,0,0,1-2.552-1.27A5.55,5.55,0,0,1,30.886,85.435Zm1.544.174A4.027,4.027,0,0,0,33.052,88a2.023,2.023,0,0,0,1.743.867,2.249,2.249,0,0,0,2.133-1.32v-4.1a2.276,2.276,0,0,0-2.117-1.287,2.041,2.041,0,0,0-1.751.872A4.386,4.386,0,0,0,32.43,85.609Zm7.995-.183a5.3,5.3,0,0,1,.519-2.374,3.87,3.87,0,0,1,1.444-1.627,3.932,3.932,0,0,1,2.113-.573,3.788,3.788,0,0,1,2.968,1.27A4.886,4.886,0,0,1,48.6,85.5v.108a5.351,5.351,0,0,1-.5,2.353,3.813,3.813,0,0,1-1.436,1.623,3.977,3.977,0,0,1-2.146.581,3.778,3.778,0,0,1-2.959-1.27,4.861,4.861,0,0,1-1.133-3.362Zm1.544.183a3.842,3.842,0,0,0,.693,2.4A2.349,2.349,0,0,0,46.376,88a4.2,4.2,0,0,0,.689-2.569,3.836,3.836,0,0,0-.7-2.395,2.23,2.23,0,0,0-1.864-.917,2.205,2.205,0,0,0-1.834.9A4.17,4.17,0,0,0,41.968,85.609ZM55.8,87.618a1.13,1.13,0,0,0-.469-.967,4.514,4.514,0,0,0-1.635-.594,7.731,7.731,0,0,1-1.851-.6,2.633,2.633,0,0,1-1.013-.83,1.986,1.986,0,0,1-.328-1.146,2.33,2.33,0,0,1,.934-1.868,3.647,3.647,0,0,1,2.386-.764,3.753,3.753,0,0,1,2.478.789,2.5,2.5,0,0,1,.95,2.017H55.707a1.386,1.386,0,0,0-.535-1.087,2.006,2.006,0,0,0-1.349-.457,2.1,2.1,0,0,0-1.312.365,1.15,1.15,0,0,0-.473.955.932.932,0,0,0,.44.838,5.413,5.413,0,0,0,1.59.54,8.283,8.283,0,0,1,1.864.614,2.718,2.718,0,0,1,1.058.859,2.112,2.112,0,0,1,.344,1.224,2.3,2.3,0,0,1-.963,1.93,4.039,4.039,0,0,1-2.5.726,4.523,4.523,0,0,1-1.909-.382,3.105,3.105,0,0,1-1.3-1.067,2.571,2.571,0,0,1-.469-1.482h1.536a1.59,1.59,0,0,0,.618,1.224,2.4,2.4,0,0,0,1.523.452,2.476,2.476,0,0,0,1.4-.353A1.084,1.084,0,0,0,55.8,87.618ZM67.23,88.913a2.212,2.212,0,0,0,1.436-.5,1.752,1.752,0,0,0,.681-1.245H70.8a2.785,2.785,0,0,1-.531,1.469,3.5,3.5,0,0,1-1.307,1.112,3.772,3.772,0,0,1-1.731.415,3.7,3.7,0,0,1-2.918-1.224,4.877,4.877,0,0,1-1.083-3.349v-.257A5.407,5.407,0,0,1,63.711,83a3.667,3.667,0,0,1,1.382-1.585,3.926,3.926,0,0,1,2.129-.564,3.6,3.6,0,0,1,2.511.9A3.234,3.234,0,0,1,70.8,84.106H69.347a2.116,2.116,0,0,0-.66-1.432,2.053,2.053,0,0,0-1.465-.56,2.149,2.149,0,0,0-1.814.843,3.957,3.957,0,0,0-.643,2.436v.291a3.878,3.878,0,0,0,.639,2.391A2.16,2.16,0,0,0,67.23,88.913ZM78.114,90a3.226,3.226,0,0,1-.216-.946,3.426,3.426,0,0,1-2.557,1.112,3.17,3.17,0,0,1-2.179-.751,2.43,2.43,0,0,1-.851-1.905,2.539,2.539,0,0,1,1.067-2.179,5.029,5.029,0,0,1,3-.776h1.494v-.706a1.725,1.725,0,0,0-.481-1.282,1.935,1.935,0,0,0-1.419-.477,2.239,2.239,0,0,0-1.378.415,1.223,1.223,0,0,0-.556,1H72.494a2.119,2.119,0,0,1,.477-1.3,3.258,3.258,0,0,1,1.295-.992,4.356,4.356,0,0,1,1.8-.365,3.551,3.551,0,0,1,2.432.776,2.8,2.8,0,0,1,.913,2.137V87.9a5.054,5.054,0,0,0,.315,1.967V90Zm-2.548-1.17a2.7,2.7,0,0,0,1.37-.374,2.259,2.259,0,0,0,.938-.971V85.642h-1.2q-2.822,0-2.822,1.652a1.4,1.4,0,0,0,.481,1.129A1.85,1.85,0,0,0,75.565,88.83ZM83.527,90H81.983V81.019h1.544Zm.017-12.742H85.4L83.178,79.7l-1.237,0Zm2.184,8.176a5.261,5.261,0,0,1,.979-3.324,3.333,3.333,0,0,1,5.063-.178V77.25h1.536V90H91.9l-.075-.963a3.127,3.127,0,0,1-2.565,1.129,3.068,3.068,0,0,1-2.544-1.278,5.321,5.321,0,0,1-.984-3.337Zm1.536.174A3.984,3.984,0,0,0,87.894,88a2.039,2.039,0,0,0,1.743.863,2.24,2.24,0,0,0,2.133-1.312V83.426a2.257,2.257,0,0,0-2.117-1.27,2.049,2.049,0,0,0-1.76.872A4.386,4.386,0,0,0,87.263,85.609Zm8.061-.183a5.3,5.3,0,0,1,.519-2.374,3.87,3.87,0,0,1,1.444-1.627,3.932,3.932,0,0,1,2.113-.573,3.788,3.788,0,0,1,2.968,1.27A4.886,4.886,0,0,1,103.5,85.5v.108a5.351,5.351,0,0,1-.5,2.353,3.813,3.813,0,0,1-1.436,1.623,3.977,3.977,0,0,1-2.146.581,3.778,3.778,0,0,1-2.959-1.27,4.861,4.861,0,0,1-1.133-3.362Zm1.544.183a3.842,3.842,0,0,0,.693,2.4A2.349,2.349,0,0,0,101.276,88a4.2,4.2,0,0,0,.689-2.569,3.836,3.836,0,0,0-.7-2.395,2.23,2.23,0,0,0-1.864-.917,2.205,2.205,0,0,0-1.834.9A4.17,4.17,0,0,0,96.868,85.609Zm8.634,3.586a.962.962,0,0,1,.237-.664.9.9,0,0,1,.71-.266.928.928,0,0,1,.718.266.942.942,0,0,1,.245.664.891.891,0,0,1-.245.639.945.945,0,0,1-.718.257.854.854,0,0,1-.946-.9Z" transform="translate(7715 -2249)" fill="#12263f"/>
    <path id="Path_1033469" data-name="Path 1033469" d="M46.733,18h-1.6L39.047,8.687V18h-1.6V5.914h1.6l6.1,9.355V5.914h1.585Zm8.177-.888a3.262,3.262,0,0,1-2.631,1.054,2.792,2.792,0,0,1-2.187-.834,3.611,3.611,0,0,1-.76-2.469V9.019h1.536v5.8q0,2.042,1.66,2.042a2.3,2.3,0,0,0,2.341-1.312V9.019H56.4V18H54.944Zm7.6,1.054a3.924,3.924,0,0,1-2.972-1.2,4.452,4.452,0,0,1-1.146-3.208v-.282a5.39,5.39,0,0,1,.51-2.386,3.982,3.982,0,0,1,1.428-1.644,3.59,3.59,0,0,1,1.988-.594,3.364,3.364,0,0,1,2.723,1.154,5,5,0,0,1,.971,3.3v.639H59.925a3.193,3.193,0,0,0,.776,2.146,2.44,2.44,0,0,0,1.888.818,2.675,2.675,0,0,0,1.378-.332,3.462,3.462,0,0,0,.988-.88l.938.73A3.772,3.772,0,0,1,62.507,18.166Zm-.191-8.052a2.048,2.048,0,0,0-1.561.677,3.288,3.288,0,0,0-.78,1.9h4.5v-.116a2.925,2.925,0,0,0-.631-1.814A1.928,1.928,0,0,0,62.316,10.114Zm8.368,5.8,2.225-6.9h1.569L71.257,18h-1.17L66.833,9.019H68.4ZM81.418,18a3.226,3.226,0,0,1-.216-.946,3.426,3.426,0,0,1-2.557,1.112,3.17,3.17,0,0,1-2.179-.751,2.43,2.43,0,0,1-.851-1.905,2.539,2.539,0,0,1,1.067-2.179,5.029,5.029,0,0,1,3-.776h1.494v-.706a1.725,1.725,0,0,0-.481-1.282,1.935,1.935,0,0,0-1.419-.477A2.239,2.239,0,0,0,77.9,10.5a1.223,1.223,0,0,0-.556,1H75.8a2.119,2.119,0,0,1,.477-1.3,3.258,3.258,0,0,1,1.295-.992,4.356,4.356,0,0,1,1.8-.365,3.551,3.551,0,0,1,2.432.776,2.8,2.8,0,0,1,.913,2.137V15.9a5.054,5.054,0,0,0,.315,1.967V18ZM78.87,16.83a2.7,2.7,0,0,0,1.37-.374,2.259,2.259,0,0,0,.938-.971V13.642h-1.2q-2.822,0-2.822,1.652a1.4,1.4,0,0,0,.481,1.129A1.85,1.85,0,0,0,78.87,16.83ZM8.068,42V34.206H6.649V33.019H8.068V32.1a3.058,3.058,0,0,1,.772-2.233,2.916,2.916,0,0,1,2.183-.789,4.055,4.055,0,0,1,1.054.14l-.083,1.238a4.41,4.41,0,0,0-.83-.075,1.5,1.5,0,0,0-1.154.437A1.773,1.773,0,0,0,9.6,32.069v.949h1.917v1.187H9.6V42ZM18.8,41.112a3.262,3.262,0,0,1-2.631,1.054,2.792,2.792,0,0,1-2.187-.834,3.611,3.611,0,0,1-.76-2.469V33.019h1.536v5.8q0,2.042,1.66,2.042a2.3,2.3,0,0,0,2.341-1.312V33.019H20.3V42H18.835Zm5.322-8.093.05,1.129a3.273,3.273,0,0,1,2.689-1.295q2.847,0,2.872,3.212V42H28.2V36.057a2.068,2.068,0,0,0-.444-1.436,1.78,1.78,0,0,0-1.357-.465,2.216,2.216,0,0,0-1.312.4,2.706,2.706,0,0,0-.88,1.046V42H22.671V33.019ZM35.7,40.913a2.212,2.212,0,0,0,1.436-.5,1.752,1.752,0,0,0,.681-1.245h1.453a2.785,2.785,0,0,1-.531,1.469,3.5,3.5,0,0,1-1.307,1.112,3.772,3.772,0,0,1-1.731.415,3.7,3.7,0,0,1-2.918-1.224A4.877,4.877,0,0,1,31.7,37.592v-.257A5.407,5.407,0,0,1,32.176,35a3.667,3.667,0,0,1,1.382-1.585,3.926,3.926,0,0,1,2.129-.564,3.6,3.6,0,0,1,2.511.9,3.234,3.234,0,0,1,1.067,2.349H37.813a2.116,2.116,0,0,0-.66-1.432,2.053,2.053,0,0,0-1.465-.56,2.149,2.149,0,0,0-1.814.843,3.957,3.957,0,0,0-.643,2.436v.291a3.878,3.878,0,0,0,.639,2.391A2.16,2.16,0,0,0,35.7,40.913ZM42.7,42H41.167V33.019H42.7Zm-1.66-11.364a.917.917,0,0,1,.228-.631.857.857,0,0,1,.677-.257.87.87,0,0,1,.681.257.907.907,0,0,1,.232.631.877.877,0,0,1-.232.623.886.886,0,0,1-.681.249.872.872,0,0,1-.677-.249A.886.886,0,0,1,41.043,30.636Zm3.753,6.79a5.3,5.3,0,0,1,.519-2.374,3.87,3.87,0,0,1,1.444-1.627,3.932,3.932,0,0,1,2.113-.573,3.788,3.788,0,0,1,2.968,1.27A4.886,4.886,0,0,1,52.972,37.5v.108a5.351,5.351,0,0,1-.5,2.353,3.813,3.813,0,0,1-1.436,1.623,3.977,3.977,0,0,1-2.146.581,3.778,3.778,0,0,1-2.959-1.27A4.861,4.861,0,0,1,44.8,37.534Zm1.544.183a3.842,3.842,0,0,0,.693,2.4A2.349,2.349,0,0,0,50.747,40a4.2,4.2,0,0,0,.689-2.569,3.836,3.836,0,0,0-.7-2.395,2.23,2.23,0,0,0-1.864-.917,2.205,2.205,0,0,0-1.834.9A4.17,4.17,0,0,0,46.34,37.609Zm10.053-4.59.05,1.129a3.273,3.273,0,0,1,2.689-1.295q2.847,0,2.872,3.212V42H60.468V36.057a2.068,2.068,0,0,0-.444-1.436,1.78,1.78,0,0,0-1.357-.465,2.216,2.216,0,0,0-1.312.4,2.706,2.706,0,0,0-.88,1.046V42H54.94V33.019ZM69.907,42a3.226,3.226,0,0,1-.216-.946,3.426,3.426,0,0,1-2.557,1.112,3.17,3.17,0,0,1-2.179-.751,2.43,2.43,0,0,1-.851-1.905,2.539,2.539,0,0,1,1.067-2.179,5.029,5.029,0,0,1,3-.776h1.494v-.706a1.725,1.725,0,0,0-.481-1.282,1.935,1.935,0,0,0-1.419-.477,2.239,2.239,0,0,0-1.378.415,1.223,1.223,0,0,0-.556,1H64.288a2.119,2.119,0,0,1,.477-1.3,3.258,3.258,0,0,1,1.295-.992,4.356,4.356,0,0,1,1.8-.365,3.551,3.551,0,0,1,2.432.776,2.8,2.8,0,0,1,.913,2.137V39.9a5.054,5.054,0,0,0,.315,1.967V42Zm-2.548-1.17a2.7,2.7,0,0,0,1.37-.374,2.259,2.259,0,0,0,.938-.971V37.642h-1.2q-2.822,0-2.822,1.652a1.4,1.4,0,0,0,.481,1.129A1.85,1.85,0,0,0,67.359,40.83ZM75.321,42H73.785V29.25h1.536Zm4.168,0H77.953V33.019h1.536Zm-1.66-11.364a.917.917,0,0,1,.228-.631.857.857,0,0,1,.677-.257.87.87,0,0,1,.681.257.907.907,0,0,1,.232.631.877.877,0,0,1-.232.623.886.886,0,0,1-.681.249.872.872,0,0,1-.677-.249A.886.886,0,0,1,77.828,30.636Zm3.786,6.8a5.261,5.261,0,0,1,.979-3.324,3.333,3.333,0,0,1,5.063-.178V29.25h1.536V42H87.782l-.075-.963a3.127,3.127,0,0,1-2.565,1.129A3.068,3.068,0,0,1,82.6,40.888a5.321,5.321,0,0,1-.984-3.337Zm1.536.174A3.984,3.984,0,0,0,83.781,40a2.039,2.039,0,0,0,1.743.863,2.24,2.24,0,0,0,2.133-1.312V35.426a2.257,2.257,0,0,0-2.117-1.27,2.049,2.049,0,0,0-1.76.872A4.386,4.386,0,0,0,83.15,37.609ZM97.163,42a3.226,3.226,0,0,1-.216-.946,3.426,3.426,0,0,1-2.557,1.112,3.17,3.17,0,0,1-2.179-.751,2.43,2.43,0,0,1-.851-1.905,2.539,2.539,0,0,1,1.067-2.179,5.029,5.029,0,0,1,3-.776h1.494v-.706a1.725,1.725,0,0,0-.481-1.282,1.935,1.935,0,0,0-1.419-.477,2.239,2.239,0,0,0-1.378.415,1.223,1.223,0,0,0-.556,1H91.543a2.119,2.119,0,0,1,.477-1.3,3.258,3.258,0,0,1,1.295-.992,4.356,4.356,0,0,1,1.8-.365,3.551,3.551,0,0,1,2.432.776,2.8,2.8,0,0,1,.913,2.137V39.9a5.054,5.054,0,0,0,.315,1.967V42Zm-2.548-1.17a2.7,2.7,0,0,0,1.37-.374,2.259,2.259,0,0,0,.938-.971V37.642h-1.2q-2.822,0-2.822,1.652a1.4,1.4,0,0,0,.481,1.129A1.85,1.85,0,0,0,94.615,40.83Zm5.919-3.4a5.261,5.261,0,0,1,.979-3.324,3.333,3.333,0,0,1,5.063-.178V29.25h1.536V42H106.7l-.075-.963a3.127,3.127,0,0,1-2.565,1.129,3.068,3.068,0,0,1-2.544-1.278,5.321,5.321,0,0,1-.984-3.337Zm1.536.174A3.984,3.984,0,0,0,102.7,40a2.039,2.039,0,0,0,1.743.863,2.24,2.24,0,0,0,2.133-1.312V35.426a2.257,2.257,0,0,0-2.117-1.27,2.049,2.049,0,0,0-1.76.872A4.386,4.386,0,0,0,102.07,37.609Zm8.5,3.586a.962.962,0,0,1,.237-.664.9.9,0,0,1,.71-.266.928.928,0,0,1,.718.266.942.942,0,0,1,.245.664.891.891,0,0,1-.245.639.945.945,0,0,1-.718.257.854.854,0,0,1-.946-.9ZM4.291,66H2.7V53.914H4.291Zm4.168-8.981.05,1.129A3.273,3.273,0,0,1,11.2,56.853q2.847,0,2.872,3.212V66H12.534V60.057a2.068,2.068,0,0,0-.444-1.436,1.78,1.78,0,0,0-1.357-.465,2.216,2.216,0,0,0-1.312.4,2.706,2.706,0,0,0-.88,1.046V66H7.006V57.019Zm10.053-2.175v2.175h1.677v1.187H18.512v5.577a1.247,1.247,0,0,0,.224.81.943.943,0,0,0,.764.27,3.718,3.718,0,0,0,.73-.1V66a4.478,4.478,0,0,1-1.179.165,1.912,1.912,0,0,1-1.552-.623,2.675,2.675,0,0,1-.523-1.768v-5.57H15.341V57.019h1.635V54.844Zm7.239,11.322a3.924,3.924,0,0,1-2.972-1.2,4.452,4.452,0,0,1-1.146-3.208v-.282a5.39,5.39,0,0,1,.51-2.386,3.982,3.982,0,0,1,1.428-1.644,3.59,3.59,0,0,1,1.988-.594,3.364,3.364,0,0,1,2.723,1.154,5,5,0,0,1,.971,3.3v.639H23.17a3.193,3.193,0,0,0,.776,2.146,2.44,2.44,0,0,0,1.888.818,2.675,2.675,0,0,0,1.378-.332,3.462,3.462,0,0,0,.988-.88l.938.73A3.772,3.772,0,0,1,25.751,66.166Zm-.191-8.052A2.048,2.048,0,0,0,24,58.791a3.288,3.288,0,0,0-.78,1.9h4.5v-.116a2.925,2.925,0,0,0-.631-1.814A1.928,1.928,0,0,0,25.56,58.114Zm5.147,3.32a5.279,5.279,0,0,1,.971-3.341,3.348,3.348,0,0,1,5.138-.079l.075-1h1.4v8.766a3.654,3.654,0,0,1-1.033,2.748,3.814,3.814,0,0,1-2.777,1,4.619,4.619,0,0,1-1.9-.415,3.272,3.272,0,0,1-1.419-1.137l.8-.921a3,3,0,0,0,2.416,1.22,2.353,2.353,0,0,0,1.747-.631,2.411,2.411,0,0,0,.627-1.776V65.1a3.156,3.156,0,0,1-2.515,1.063,3.068,3.068,0,0,1-2.552-1.27A5.55,5.55,0,0,1,30.708,61.435Zm1.544.174A4.027,4.027,0,0,0,32.874,64a2.023,2.023,0,0,0,1.743.867,2.249,2.249,0,0,0,2.133-1.32v-4.1a2.276,2.276,0,0,0-2.117-1.287,2.041,2.041,0,0,0-1.751.872A4.386,4.386,0,0,0,32.252,61.609ZM44.994,58.4a4.6,4.6,0,0,0-.755-.058,2.024,2.024,0,0,0-2.05,1.287V66H40.653V57.019h1.494l.025,1.038a2.391,2.391,0,0,1,2.142-1.2,1.569,1.569,0,0,1,.681.116ZM51.661,66a3.226,3.226,0,0,1-.216-.946,3.426,3.426,0,0,1-2.557,1.112,3.17,3.17,0,0,1-2.179-.751,2.43,2.43,0,0,1-.851-1.905,2.539,2.539,0,0,1,1.067-2.179,5.029,5.029,0,0,1,3-.776H51.42v-.706a1.725,1.725,0,0,0-.481-1.282,1.935,1.935,0,0,0-1.419-.477,2.239,2.239,0,0,0-1.378.415,1.223,1.223,0,0,0-.556,1H46.041a2.119,2.119,0,0,1,.477-1.3,3.258,3.258,0,0,1,1.295-.992,4.356,4.356,0,0,1,1.8-.365,3.551,3.551,0,0,1,2.432.776,2.8,2.8,0,0,1,.913,2.137V63.9a5.054,5.054,0,0,0,.315,1.967V66Zm-2.548-1.17a2.7,2.7,0,0,0,1.37-.374,2.259,2.259,0,0,0,.938-.971V61.642h-1.2q-2.822,0-2.822,1.652a1.4,1.4,0,0,0,.481,1.129A1.85,1.85,0,0,0,49.113,64.83Zm9.9.083a2.212,2.212,0,0,0,1.436-.5,1.752,1.752,0,0,0,.681-1.245h1.453a2.785,2.785,0,0,1-.531,1.469,3.5,3.5,0,0,1-1.307,1.112,3.772,3.772,0,0,1-1.731.415,3.7,3.7,0,0,1-2.918-1.224,4.877,4.877,0,0,1-1.083-3.349v-.257A5.407,5.407,0,0,1,55.489,59a3.667,3.667,0,0,1,1.382-1.585A3.926,3.926,0,0,1,59,56.853a3.6,3.6,0,0,1,2.511.9,3.234,3.234,0,0,1,1.067,2.349H61.125a2.116,2.116,0,0,0-.66-1.432A2.053,2.053,0,0,0,59,58.114a2.149,2.149,0,0,0-1.814.843,3.957,3.957,0,0,0-.643,2.436v.291a3.878,3.878,0,0,0,.639,2.391A2.16,2.16,0,0,0,59.008,64.913ZM66.015,66H64.479V57.019h1.536Zm-1.66-11.364a.917.917,0,0,1,.228-.631.857.857,0,0,1,.677-.257.87.87,0,0,1,.681.257.907.907,0,0,1,.232.631.877.877,0,0,1-.232.623.886.886,0,0,1-.681.249.872.872,0,0,1-.677-.249A.886.886,0,0,1,64.355,54.636Zm3.753,6.79a5.3,5.3,0,0,1,.519-2.374,3.87,3.87,0,0,1,1.444-1.627,3.932,3.932,0,0,1,2.113-.573,3.788,3.788,0,0,1,2.968,1.27A4.886,4.886,0,0,1,76.284,61.5v.108a5.351,5.351,0,0,1-.5,2.353,3.813,3.813,0,0,1-1.436,1.623,3.977,3.977,0,0,1-2.146.581,3.778,3.778,0,0,1-2.959-1.27,4.861,4.861,0,0,1-1.133-3.362Zm1.544.183a3.842,3.842,0,0,0,.693,2.4A2.349,2.349,0,0,0,74.059,64a4.2,4.2,0,0,0,.689-2.569,3.836,3.836,0,0,0-.7-2.395,2.23,2.23,0,0,0-1.864-.917,2.205,2.205,0,0,0-1.834.9A4.17,4.17,0,0,0,69.652,61.609Zm3.229-8.359H74.74l-2.225,2.44-1.237,0ZM79.7,57.019l.05,1.129a3.273,3.273,0,0,1,2.689-1.295q2.847,0,2.872,3.212V66H83.781V60.057a2.068,2.068,0,0,0-.444-1.436,1.78,1.78,0,0,0-1.357-.465,2.216,2.216,0,0,0-1.312.4,2.706,2.706,0,0,0-.88,1.046V66H78.252V57.019Zm15.823,7.894a2.212,2.212,0,0,0,1.436-.5,1.752,1.752,0,0,0,.681-1.245H99.1a2.785,2.785,0,0,1-.531,1.469,3.5,3.5,0,0,1-1.307,1.112,3.772,3.772,0,0,1-1.731.415,3.7,3.7,0,0,1-2.918-1.224,4.877,4.877,0,0,1-1.083-3.349v-.257A5.407,5.407,0,0,1,92.009,59a3.667,3.667,0,0,1,1.382-1.585,3.926,3.926,0,0,1,2.129-.564,3.6,3.6,0,0,1,2.511.9A3.234,3.234,0,0,1,99.1,60.106H97.645a2.116,2.116,0,0,0-.66-1.432,2.053,2.053,0,0,0-1.465-.56,2.149,2.149,0,0,0-1.814.843,3.957,3.957,0,0,0-.643,2.436v.291a3.878,3.878,0,0,0,.639,2.391A2.16,2.16,0,0,0,95.528,64.913Zm4.932-3.486a5.3,5.3,0,0,1,.519-2.374,3.87,3.87,0,0,1,1.444-1.627,3.932,3.932,0,0,1,2.113-.573,3.788,3.788,0,0,1,2.968,1.27,4.886,4.886,0,0,1,1.133,3.378v.108a5.351,5.351,0,0,1-.5,2.353,3.813,3.813,0,0,1-1.436,1.623,3.977,3.977,0,0,1-2.146.581,3.778,3.778,0,0,1-2.959-1.27,4.861,4.861,0,0,1-1.133-3.362Zm1.544.183a3.842,3.842,0,0,0,.693,2.4A2.349,2.349,0,0,0,106.411,64a4.2,4.2,0,0,0,.689-2.569,3.836,3.836,0,0,0-.7-2.395,2.23,2.23,0,0,0-1.864-.917,2.205,2.205,0,0,0-1.834.9A4.17,4.17,0,0,0,102,61.609Zm10.053-4.59.05,1.129a3.273,3.273,0,0,1,2.689-1.295q2.847,0,2.872,3.212V66h-1.536V60.057a2.068,2.068,0,0,0-.444-1.436,1.78,1.78,0,0,0-1.357-.465,2.216,2.216,0,0,0-1.312.4,2.706,2.706,0,0,0-.88,1.046V66H110.6V57.019Zm-60.206,27.4H46.613V88.7H52.7V90H45.02V77.914h7.6v1.3h-6V83.11h5.238Zm7.306.7H56.318V90h-1.6V77.914h4a4.736,4.736,0,0,1,3.142.93,3.345,3.345,0,0,1,1.1,2.706,3.254,3.254,0,0,1-.61,1.967,3.642,3.642,0,0,1-1.7,1.253L63.49,89.9V90H61.78Zm-2.839-1.3h2.449a2.762,2.762,0,0,0,1.888-.615,2.081,2.081,0,0,0,.7-1.647,2.191,2.191,0,0,0-.668-1.721,2.829,2.829,0,0,0-1.93-.607h-2.44Zm10.51,1.461V90H65.234V77.914h4.458A4.478,4.478,0,0,1,72.8,78.927a3.433,3.433,0,0,1,1.125,2.681,3.388,3.388,0,0,1-1.1,2.71,4.678,4.678,0,0,1-3.15.95Zm0-1.3h2.864a2.863,2.863,0,0,0,1.959-.6,2.2,2.2,0,0,0,.681-1.742,2.277,2.277,0,0,0-.681-1.73,2.682,2.682,0,0,0-1.868-.674H66.828ZM73.1,89.195a.962.962,0,0,1,.237-.664.9.9,0,0,1,.71-.266.928.928,0,0,1,.718.266.942.942,0,0,1,.245.664.891.891,0,0,1-.245.639.945.945,0,0,1-.718.257.854.854,0,0,1-.946-.9Z" transform="translate(7716 -2021)" fill="#12263f"/>
    <path id="Path_1033466" data-name="Path 1033466" d="M13,13.269V18H11.4V5.914h4.458a4.478,4.478,0,0,1,3.109,1.013,3.433,3.433,0,0,1,1.125,2.681,3.388,3.388,0,0,1-1.1,2.71,4.678,4.678,0,0,1-3.15.95Zm0-1.3h2.864a2.863,2.863,0,0,0,1.959-.6A2.2,2.2,0,0,0,18.5,9.62a2.277,2.277,0,0,0-.681-1.73,2.682,2.682,0,0,0-1.868-.674H13ZM26.269,10.4a4.6,4.6,0,0,0-.755-.058,2.024,2.024,0,0,0-2.05,1.287V18H21.928V9.019h1.494l.025,1.038a2.391,2.391,0,0,1,2.142-1.2,1.569,1.569,0,0,1,.681.116Zm5.181,7.77a3.924,3.924,0,0,1-2.972-1.2,4.452,4.452,0,0,1-1.146-3.208v-.282a5.39,5.39,0,0,1,.51-2.386,3.982,3.982,0,0,1,1.428-1.644,3.59,3.59,0,0,1,1.988-.594,3.364,3.364,0,0,1,2.723,1.154,5,5,0,0,1,.971,3.3v.639H28.869a3.193,3.193,0,0,0,.776,2.146,2.44,2.44,0,0,0,1.888.818,2.675,2.675,0,0,0,1.378-.332,3.462,3.462,0,0,0,.988-.88l.938.73A3.772,3.772,0,0,1,31.45,18.166Zm-.191-8.052a2.048,2.048,0,0,0-1.561.677,3.288,3.288,0,0,0-.78,1.9h4.5v-.116a2.925,2.925,0,0,0-.631-1.814A1.928,1.928,0,0,0,31.259,10.114ZM42,15.618a1.13,1.13,0,0,0-.469-.967,4.514,4.514,0,0,0-1.635-.594,7.731,7.731,0,0,1-1.851-.6,2.633,2.633,0,0,1-1.013-.83,1.986,1.986,0,0,1-.328-1.146,2.33,2.33,0,0,1,.934-1.868,3.647,3.647,0,0,1,2.386-.764,3.753,3.753,0,0,1,2.478.789,2.5,2.5,0,0,1,.95,2.017H41.91a1.386,1.386,0,0,0-.535-1.087,2.006,2.006,0,0,0-1.349-.457,2.1,2.1,0,0,0-1.312.365,1.15,1.15,0,0,0-.473.955.932.932,0,0,0,.44.838,5.413,5.413,0,0,0,1.59.54,8.283,8.283,0,0,1,1.864.614,2.718,2.718,0,0,1,1.058.859,2.112,2.112,0,0,1,.344,1.224,2.3,2.3,0,0,1-.963,1.93,4.039,4.039,0,0,1-2.5.726,4.523,4.523,0,0,1-1.909-.382,3.105,3.105,0,0,1-1.3-1.067,2.571,2.571,0,0,1-.469-1.482h1.536a1.59,1.59,0,0,0,.618,1.224,2.4,2.4,0,0,0,1.523.452,2.476,2.476,0,0,0,1.4-.353A1.084,1.084,0,0,0,42,15.618Zm7.306,2.548a3.924,3.924,0,0,1-2.972-1.2,4.452,4.452,0,0,1-1.146-3.208v-.282a5.39,5.39,0,0,1,.51-2.386,3.982,3.982,0,0,1,1.428-1.644,3.59,3.59,0,0,1,1.988-.594,3.364,3.364,0,0,1,2.723,1.154,5,5,0,0,1,.971,3.3v.639H46.726a3.193,3.193,0,0,0,.776,2.146,2.44,2.44,0,0,0,1.888.818,2.675,2.675,0,0,0,1.378-.332,3.462,3.462,0,0,0,.988-.88l.938.73A3.772,3.772,0,0,1,49.307,18.166Zm-.191-8.052a2.048,2.048,0,0,0-1.561.677,3.288,3.288,0,0,0-.78,1.9h4.5v-.116a2.925,2.925,0,0,0-.631-1.814A1.928,1.928,0,0,0,49.116,10.114Zm6.965-1.1.05,1.129a3.273,3.273,0,0,1,2.689-1.295q2.847,0,2.872,3.212V18H60.157V12.057a2.068,2.068,0,0,0-.444-1.436,1.78,1.78,0,0,0-1.357-.465,2.216,2.216,0,0,0-1.312.4,2.706,2.706,0,0,0-.88,1.046V18H54.629V9.019ZM66.135,6.844V9.019h1.677v1.187H66.135v5.577a1.247,1.247,0,0,0,.224.81.943.943,0,0,0,.764.27,3.718,3.718,0,0,0,.73-.1V18a4.478,4.478,0,0,1-1.179.165,1.912,1.912,0,0,1-1.552-.623,2.675,2.675,0,0,1-.523-1.768v-5.57H62.964V9.019H64.6V6.844ZM75.192,18a3.226,3.226,0,0,1-.216-.946,3.426,3.426,0,0,1-2.557,1.112,3.17,3.17,0,0,1-2.179-.751,2.43,2.43,0,0,1-.851-1.905,2.539,2.539,0,0,1,1.067-2.179,5.029,5.029,0,0,1,3-.776h1.494v-.706a1.725,1.725,0,0,0-.481-1.282,1.935,1.935,0,0,0-1.419-.477,2.239,2.239,0,0,0-1.378.415,1.223,1.223,0,0,0-.556,1H69.572a2.119,2.119,0,0,1,.477-1.3,3.258,3.258,0,0,1,1.295-.992,4.356,4.356,0,0,1,1.8-.365,3.551,3.551,0,0,1,2.432.776,2.8,2.8,0,0,1,.913,2.137V15.9a5.054,5.054,0,0,0,.315,1.967V18Zm-2.548-1.17a2.7,2.7,0,0,0,1.37-.374,2.259,2.259,0,0,0,.938-.971V13.642h-1.2q-2.822,0-2.822,1.652a1.4,1.4,0,0,0,.481,1.129A1.85,1.85,0,0,0,72.644,16.83Zm9.9.083a2.212,2.212,0,0,0,1.436-.5,1.752,1.752,0,0,0,.681-1.245h1.453a2.785,2.785,0,0,1-.531,1.469,3.5,3.5,0,0,1-1.307,1.112,3.772,3.772,0,0,1-1.731.415,3.7,3.7,0,0,1-2.918-1.224,4.877,4.877,0,0,1-1.083-3.349v-.257A5.407,5.407,0,0,1,79.02,11,3.667,3.667,0,0,1,80.4,9.417a3.926,3.926,0,0,1,2.129-.564,3.6,3.6,0,0,1,2.511.9,3.234,3.234,0,0,1,1.067,2.349H84.656A2.116,2.116,0,0,0,84,10.675a2.053,2.053,0,0,0-1.465-.56,2.149,2.149,0,0,0-1.814.843,3.957,3.957,0,0,0-.643,2.436v.291a3.878,3.878,0,0,0,.639,2.391A2.16,2.16,0,0,0,82.539,16.913ZM89.546,18H88.01V9.019h1.536ZM87.886,6.636a.917.917,0,0,1,.228-.631.857.857,0,0,1,.677-.257.87.87,0,0,1,.681.257.907.907,0,0,1,.232.631.877.877,0,0,1-.232.623.886.886,0,0,1-.681.249.872.872,0,0,1-.677-.249A.886.886,0,0,1,87.886,6.636Zm3.753,6.79a5.3,5.3,0,0,1,.519-2.374A3.87,3.87,0,0,1,93.6,9.425a3.932,3.932,0,0,1,2.113-.573,3.788,3.788,0,0,1,2.968,1.27A4.886,4.886,0,0,1,99.815,13.5v.108a5.351,5.351,0,0,1-.5,2.353,3.813,3.813,0,0,1-1.436,1.623,3.977,3.977,0,0,1-2.146.581,3.778,3.778,0,0,1-2.959-1.27,4.861,4.861,0,0,1-1.133-3.362Zm1.544.183a3.842,3.842,0,0,0,.693,2.4A2.349,2.349,0,0,0,97.59,16a4.2,4.2,0,0,0,.689-2.569,3.836,3.836,0,0,0-.7-2.395,2.23,2.23,0,0,0-1.864-.917,2.205,2.205,0,0,0-1.834.9A4.17,4.17,0,0,0,93.183,13.609ZM96.412,5.25h1.859L96.046,7.69l-1.237,0Zm6.824,3.769.05,1.129a3.273,3.273,0,0,1,2.689-1.295q2.847,0,2.872,3.212V18h-1.536V12.057a2.068,2.068,0,0,0-.444-1.436,1.78,1.78,0,0,0-1.357-.465,2.216,2.216,0,0,0-1.312.4,2.706,2.706,0,0,0-.88,1.046V18h-1.536V9.019Zm-73.694,24,.042,1a3.317,3.317,0,0,1,2.665-1.162A2.568,2.568,0,0,1,34.812,34.3a3.4,3.4,0,0,1,1.166-1.046,3.445,3.445,0,0,1,1.7-.4q2.955,0,3,3.129V42H39.145V36.073a2.062,2.062,0,0,0-.44-1.44,1.937,1.937,0,0,0-1.478-.477,2.036,2.036,0,0,0-1.419.51,2.071,2.071,0,0,0-.656,1.374V42H33.609V36.115a1.713,1.713,0,0,0-1.917-1.959,2.055,2.055,0,0,0-2.067,1.287V42H28.089V33.019ZM48.584,42a3.226,3.226,0,0,1-.216-.946,3.426,3.426,0,0,1-2.557,1.112,3.17,3.17,0,0,1-2.179-.751,2.43,2.43,0,0,1-.851-1.905,2.539,2.539,0,0,1,1.067-2.179,5.029,5.029,0,0,1,3-.776h1.494v-.706a1.725,1.725,0,0,0-.481-1.282,1.935,1.935,0,0,0-1.419-.477,2.239,2.239,0,0,0-1.378.415,1.223,1.223,0,0,0-.556,1H42.965a2.119,2.119,0,0,1,.477-1.3,3.258,3.258,0,0,1,1.295-.992,4.356,4.356,0,0,1,1.8-.365,3.551,3.551,0,0,1,2.432.776,2.8,2.8,0,0,1,.913,2.137V39.9a5.054,5.054,0,0,0,.315,1.967V42Zm-2.548-1.17a2.7,2.7,0,0,0,1.37-.374,2.259,2.259,0,0,0,.938-.971V37.642h-1.2q-2.822,0-2.822,1.652a1.4,1.4,0,0,0,.481,1.129A1.85,1.85,0,0,0,46.036,40.83Zm7.746-7.811.05,1.129a3.273,3.273,0,0,1,2.689-1.295q2.847,0,2.872,3.212V42H57.857V36.057a2.068,2.068,0,0,0-.444-1.436,1.78,1.78,0,0,0-1.357-.465,2.216,2.216,0,0,0-1.312.4,2.706,2.706,0,0,0-.88,1.046V42H52.329V33.019Zm5.08-3.5a2.064,2.064,0,0,1-.51,1.453,1.658,1.658,0,0,1-1.274.556,1.87,1.87,0,0,1-.589-.083,3.18,3.18,0,0,1-.652-.34,2.822,2.822,0,0,0-.581-.311,1.422,1.422,0,0,0-.411-.054.762.762,0,0,0-.581.261.948.948,0,0,0-.241.668l-1.029-.058a2.167,2.167,0,0,1,.5-1.469,1.611,1.611,0,0,1,1.274-.581,1.548,1.548,0,0,1,.523.083,3.811,3.811,0,0,1,.631.324,3.712,3.712,0,0,0,.61.315,1.4,1.4,0,0,0,.469.075.743.743,0,0,0,.594-.282.99.99,0,0,0,.237-.656ZM67.3,42a3.226,3.226,0,0,1-.216-.946,3.426,3.426,0,0,1-2.557,1.112,3.17,3.17,0,0,1-2.179-.751,2.43,2.43,0,0,1-.851-1.905,2.539,2.539,0,0,1,1.067-2.179,5.029,5.029,0,0,1,3-.776h1.494v-.706a1.725,1.725,0,0,0-.481-1.282,1.935,1.935,0,0,0-1.419-.477,2.239,2.239,0,0,0-1.378.415,1.223,1.223,0,0,0-.556,1H61.677a2.119,2.119,0,0,1,.477-1.3,3.258,3.258,0,0,1,1.295-.992,4.356,4.356,0,0,1,1.8-.365,3.551,3.551,0,0,1,2.432.776,2.8,2.8,0,0,1,.913,2.137V39.9a5.054,5.054,0,0,0,.315,1.967V42Zm-2.548-1.17a2.7,2.7,0,0,0,1.37-.374,2.259,2.259,0,0,0,.938-.971V37.642h-1.2q-2.822,0-2.822,1.652a1.4,1.4,0,0,0,.481,1.129A1.85,1.85,0,0,0,64.748,40.83Zm7.746-7.811.05,1.129a3.273,3.273,0,0,1,2.689-1.295q2.847,0,2.872,3.212V42H76.569V36.057a2.068,2.068,0,0,0-.444-1.436,1.78,1.78,0,0,0-1.357-.465,2.216,2.216,0,0,0-1.312.4,2.706,2.706,0,0,0-.88,1.046V42H71.041V33.019ZM86.008,42a3.226,3.226,0,0,1-.216-.946,3.426,3.426,0,0,1-2.557,1.112,3.17,3.17,0,0,1-2.179-.751,2.43,2.43,0,0,1-.851-1.905,2.539,2.539,0,0,1,1.067-2.179,5.029,5.029,0,0,1,3-.776h1.494v-.706a1.725,1.725,0,0,0-.481-1.282,1.935,1.935,0,0,0-1.419-.477,2.239,2.239,0,0,0-1.378.415,1.223,1.223,0,0,0-.556,1H80.389a2.119,2.119,0,0,1,.477-1.3,3.258,3.258,0,0,1,1.295-.992,4.356,4.356,0,0,1,1.8-.365,3.551,3.551,0,0,1,2.432.776,2.8,2.8,0,0,1,.913,2.137V39.9a5.054,5.054,0,0,0,.315,1.967V42ZM83.46,40.83a2.7,2.7,0,0,0,1.37-.374,2.259,2.259,0,0,0,.938-.971V37.642h-1.2q-2.822,0-2.822,1.652a1.4,1.4,0,0,0,.481,1.129A1.85,1.85,0,0,0,83.46,40.83Zm6.326.365a.962.962,0,0,1,.237-.664.9.9,0,0,1,.71-.266.928.928,0,0,1,.718.266.942.942,0,0,1,.245.664.891.891,0,0,1-.245.639.945.945,0,0,1-.718.257.854.854,0,0,1-.946-.9ZM8.154,62.837H3.091L1.953,66H.31L4.925,53.914H6.32L10.943,66H9.308Zm-4.582-1.3H7.681L5.622,55.881ZM16.713,58.4a4.6,4.6,0,0,0-.755-.058,2.024,2.024,0,0,0-2.05,1.287V66H12.372V57.019h1.494l.025,1.038a2.391,2.391,0,0,1,2.142-1.2,1.569,1.569,0,0,1,.681.116Zm5.795,0a4.6,4.6,0,0,0-.755-.058,2.024,2.024,0,0,0-2.05,1.287V66H18.167V57.019h1.494l.025,1.038a2.391,2.391,0,0,1,2.142-1.2,1.569,1.569,0,0,1,.681.116Zm5.181,7.77a3.924,3.924,0,0,1-2.972-1.2,4.452,4.452,0,0,1-1.146-3.208v-.282a5.39,5.39,0,0,1,.51-2.386,3.982,3.982,0,0,1,1.428-1.644,3.59,3.59,0,0,1,1.988-.594,3.364,3.364,0,0,1,2.723,1.154,5,5,0,0,1,.971,3.3v.639H25.107a3.193,3.193,0,0,0,.776,2.146,2.44,2.44,0,0,0,1.888.818,2.675,2.675,0,0,0,1.378-.332,3.462,3.462,0,0,0,.988-.88l.938.73A3.772,3.772,0,0,1,27.689,66.166ZM27.5,58.114a2.048,2.048,0,0,0-1.561.677,3.288,3.288,0,0,0-.78,1.9h4.5v-.116a2.925,2.925,0,0,0-.631-1.814A1.928,1.928,0,0,0,27.5,58.114Zm5.147,3.32a5.279,5.279,0,0,1,.971-3.341,3.348,3.348,0,0,1,5.138-.079l.075-1h1.4v8.766A3.654,3.654,0,0,1,39.2,68.532a3.814,3.814,0,0,1-2.777,1,4.619,4.619,0,0,1-1.9-.415A3.272,3.272,0,0,1,33.1,67.984l.8-.921a3,3,0,0,0,2.416,1.22,2.353,2.353,0,0,0,1.747-.631,2.411,2.411,0,0,0,.627-1.776V65.1a3.156,3.156,0,0,1-2.515,1.063,3.068,3.068,0,0,1-2.552-1.27A5.55,5.55,0,0,1,32.645,61.435Zm1.544.174A4.027,4.027,0,0,0,34.812,64a2.023,2.023,0,0,0,1.743.867,2.249,2.249,0,0,0,2.133-1.32v-4.1a2.276,2.276,0,0,0-2.117-1.287,2.041,2.041,0,0,0-1.751.872A4.386,4.386,0,0,0,34.189,61.609ZM44.259,66H42.724V53.25h1.536ZM52.3,66a3.226,3.226,0,0,1-.216-.946,3.426,3.426,0,0,1-2.557,1.112,3.17,3.17,0,0,1-2.179-.751A2.43,2.43,0,0,1,46.5,63.51a2.539,2.539,0,0,1,1.067-2.179,5.029,5.029,0,0,1,3-.776h1.494v-.706a1.725,1.725,0,0,0-.481-1.282,1.935,1.935,0,0,0-1.419-.477,2.239,2.239,0,0,0-1.378.415,1.223,1.223,0,0,0-.556,1H46.684a2.119,2.119,0,0,1,.477-1.3,3.258,3.258,0,0,1,1.295-.992,4.356,4.356,0,0,1,1.8-.365,3.551,3.551,0,0,1,2.432.776,2.8,2.8,0,0,1,.913,2.137V63.9a5.054,5.054,0,0,0,.315,1.967V66Zm-2.548-1.17a2.7,2.7,0,0,0,1.37-.374,2.259,2.259,0,0,0,.938-.971V61.642h-1.2q-2.822,0-2.822,1.652a1.4,1.4,0,0,0,.481,1.129A1.85,1.85,0,0,0,49.755,64.83ZM60.39,58.4a4.6,4.6,0,0,0-.755-.058,2.024,2.024,0,0,0-2.05,1.287V66H56.048V57.019h1.494l.025,1.038a2.391,2.391,0,0,1,2.142-1.2,1.569,1.569,0,0,1,.681.116Zm8.768-3.553-.382,2.175h1.635L70.2,58.206H68.576l-.938,5.586a1.948,1.948,0,0,0-.008.4.633.633,0,0,0,.706.647,4.3,4.3,0,0,0,.73-.083l-.116,1.253a4.087,4.087,0,0,1-1.1.149,1.569,1.569,0,0,1-1.345-.66,2.552,2.552,0,0,1-.349-1.731l.913-5.562H65.488l.208-1.187h1.585l.382-2.175Zm4.766,8.89,3.2-6.715h1.66L73.45,67.494q-1.112,2.183-2.855,2.158a4.892,4.892,0,0,1-.9-.149l.133-1.245.39.042a1.969,1.969,0,0,0,1.233-.32,2.945,2.945,0,0,0,.917-1.141l.54-1.029L71.35,57.019h1.569Zm12.842-2.183a7.126,7.126,0,0,1-.739,2.465,4.2,4.2,0,0,1-1.419,1.639,3.249,3.249,0,0,1-1.876.519A2.991,2.991,0,0,1,80.34,65.12l-.805,4.333h-1.5l2.158-12.435,1.361-.008-.166,1a3.407,3.407,0,0,1,2.665-1.162,2.505,2.505,0,0,1,2.017.955,4.2,4.2,0,0,1,.764,2.54,8.939,8.939,0,0,1-.042,1.029Zm-1.478-.17.042-.7a3.154,3.154,0,0,0-.461-1.853,1.62,1.62,0,0,0-1.332-.676,2.664,2.664,0,0,0-2.25,1.235l-.755,4.3a1.879,1.879,0,0,0,1.818,1.227,2.363,2.363,0,0,0,1.905-.875A5.076,5.076,0,0,0,85.288,61.381ZM93,56.853a3.237,3.237,0,0,1,1.934.614,3.49,3.49,0,0,1,1.191,1.648,5.1,5.1,0,0,1,.261,2.3l-.017.183a6.041,6.041,0,0,1-.78,2.37,4.578,4.578,0,0,1-1.61,1.648,3.927,3.927,0,0,1-2.167.556,3.243,3.243,0,0,1-1.93-.614A3.411,3.411,0,0,1,88.7,63.925a5.239,5.239,0,0,1-.266-2.266,6.12,6.12,0,0,1,.755-2.507,4.685,4.685,0,0,1,1.623-1.722A3.881,3.881,0,0,1,93,56.853Zm-3.055,4.814a5.1,5.1,0,0,0,0,1.087,2.664,2.664,0,0,0,.585,1.561,1.757,1.757,0,0,0,1.341.606,2.394,2.394,0,0,0,1.378-.369,3.1,3.1,0,0,0,1.063-1.191,5.016,5.016,0,0,0,.556-1.768,7.962,7.962,0,0,0,.025-1.287,2.765,2.765,0,0,0-.606-1.585,1.8,1.8,0,0,0-1.345-.614,2.448,2.448,0,0,0-1.976.913,4.511,4.511,0,0,0-1,2.457Zm16.438,4.5a3.924,3.924,0,0,1-2.972-1.2,4.452,4.452,0,0,1-1.146-3.208v-.282a5.39,5.39,0,0,1,.51-2.386,3.982,3.982,0,0,1,1.428-1.644,3.59,3.59,0,0,1,1.988-.594,3.364,3.364,0,0,1,2.723,1.154,5,5,0,0,1,.971,3.3v.639H103.8a3.193,3.193,0,0,0,.776,2.146,2.44,2.44,0,0,0,1.888.818,2.675,2.675,0,0,0,1.378-.332,3.462,3.462,0,0,0,.988-.88l.938.73A3.772,3.772,0,0,1,106.383,66.166Zm-.191-8.052a2.048,2.048,0,0,0-1.561.677,3.288,3.288,0,0,0-.78,1.9h4.5v-.116a2.925,2.925,0,0,0-.631-1.814A1.928,1.928,0,0,0,106.192,58.114Zm6.965-1.1.05,1.129a3.273,3.273,0,0,1,2.689-1.295q2.847,0,2.872,3.212V66h-1.536V60.057a2.068,2.068,0,0,0-.444-1.436,1.78,1.78,0,0,0-1.357-.465,2.216,2.216,0,0,0-1.312.4,2.706,2.706,0,0,0-.88,1.046V66H111.7V57.019ZM39.74,82.114a3.48,3.48,0,0,1,2.714-1.253,2.187,2.187,0,0,1,1.872.867,3.418,3.418,0,0,1,.452,2.386L43.8,90H42.3l.988-5.91a3.154,3.154,0,0,0,.008-.755,1.241,1.241,0,0,0-1.37-1.187,2.764,2.764,0,0,0-2.374,1.444L38.437,90h-1.5l2.216-12.75h1.5Zm11.39-1.262a3.237,3.237,0,0,1,1.934.614,3.49,3.49,0,0,1,1.191,1.648,5.1,5.1,0,0,1,.261,2.3l-.017.183a6.041,6.041,0,0,1-.78,2.37,4.578,4.578,0,0,1-1.61,1.648,3.927,3.927,0,0,1-2.167.556,3.243,3.243,0,0,1-1.93-.614,3.411,3.411,0,0,1-1.183-1.627,5.239,5.239,0,0,1-.266-2.266,6.12,6.12,0,0,1,.755-2.507,4.685,4.685,0,0,1,1.623-1.722A3.881,3.881,0,0,1,51.13,80.853Zm-3.055,4.814a5.1,5.1,0,0,0,0,1.087,2.664,2.664,0,0,0,.585,1.561A1.757,1.757,0,0,0,50,88.921a2.394,2.394,0,0,0,1.378-.369,3.1,3.1,0,0,0,1.063-1.191A5.016,5.016,0,0,0,53,85.592a7.963,7.963,0,0,0,.025-1.287,2.765,2.765,0,0,0-.606-1.585,1.8,1.8,0,0,0-1.345-.614,2.448,2.448,0,0,0-1.976.913,4.511,4.511,0,0,0-1,2.457Zm10.56-4.657-.191,1a3.512,3.512,0,0,1,2.731-1.162,2.771,2.771,0,0,1,1.448.39,1.914,1.914,0,0,1,.818,1.054,3.708,3.708,0,0,1,2.98-1.444,2.375,2.375,0,0,1,1.984.9,3.232,3.232,0,0,1,.473,2.341L67.89,90H66.4l.979-5.918a3.127,3.127,0,0,0,0-.789q-.158-1.129-1.478-1.154a2.269,2.269,0,0,0-1.49.51,2.361,2.361,0,0,0-.859,1.382L62.528,90H61.017l1-5.91a1.9,1.9,0,0,0-.278-1.419,1.463,1.463,0,0,0-1.2-.515A2.46,2.46,0,0,0,58.3,83.434L57.165,90h-1.5l1.561-8.981Zm15.5,9.156a3.238,3.238,0,0,1-2.623-1.237,4.256,4.256,0,0,1-.8-3.08l.042-.357a5.976,5.976,0,0,1,.793-2.44,4.611,4.611,0,0,1,1.59-1.664,3.709,3.709,0,0,1,2.025-.535,2.856,2.856,0,0,1,2.175.921,3.789,3.789,0,0,1,.863,2.407,7.035,7.035,0,0,1-.033,1.079l-.091.689H72.207a3.034,3.034,0,0,0,.4,2.075,1.907,1.907,0,0,0,1.648.888,3.2,3.2,0,0,0,2.457-1.2l.863.73a3.951,3.951,0,0,1-1.457,1.274A4.129,4.129,0,0,1,74.133,90.166Zm.955-8.06a2.195,2.195,0,0,0-1.623.631,4.484,4.484,0,0,0-1.1,1.951l4.366.008.033-.133a2.457,2.457,0,0,0-.336-1.739A1.581,1.581,0,0,0,75.088,82.106Zm4.957,7.089a.962.962,0,0,1,.237-.664.9.9,0,0,1,.71-.266.928.928,0,0,1,.718.266.942.942,0,0,1,.245.664.891.891,0,0,1-.245.639.945.945,0,0,1-.718.257.854.854,0,0,1-.946-.9Z" transform="translate(7893 -2251)" fill="#12263f"/>
    <path id="Path_1033470" data-name="Path 1033470" d="M41.452,12.347a7.476,7.476,0,0,1-.6,3.1,4.527,4.527,0,0,1-1.693,2.021,4.673,4.673,0,0,1-6.8-2,7.174,7.174,0,0,1-.627-3.009v-.872a7.388,7.388,0,0,1,.606-3.08,4.482,4.482,0,0,1,4.25-2.756,4.685,4.685,0,0,1,2.561.7,4.519,4.519,0,0,1,1.706,2.034,7.513,7.513,0,0,1,.6,3.1Zm-1.585-.78A5.419,5.419,0,0,0,39,8.267a2.847,2.847,0,0,0-2.416-1.15,2.817,2.817,0,0,0-2.378,1.15,5.308,5.308,0,0,0-.892,3.192v.888a5.427,5.427,0,0,0,.876,3.275,3.069,3.069,0,0,0,4.8.066,5.4,5.4,0,0,0,.872-3.225Zm8.119-1.17a4.6,4.6,0,0,0-.755-.058,2.024,2.024,0,0,0-2.05,1.287V18H43.645V9.019h1.494l.025,1.038a2.391,2.391,0,0,1,2.142-1.2,1.569,1.569,0,0,1,.681.116Zm1.088,3.038a5.279,5.279,0,0,1,.971-3.341,3.348,3.348,0,0,1,5.138-.079l.075-1h1.4v8.766a3.654,3.654,0,0,1-1.033,2.748,3.814,3.814,0,0,1-2.777,1,4.619,4.619,0,0,1-1.9-.415,3.272,3.272,0,0,1-1.419-1.137l.8-.921a3,3,0,0,0,2.416,1.22,2.353,2.353,0,0,0,1.747-.631,2.411,2.411,0,0,0,.627-1.776V17.1A3.156,3.156,0,0,1,52.6,18.166,3.068,3.068,0,0,1,50.05,16.9,5.55,5.55,0,0,1,49.074,13.435Zm1.544.174A4.027,4.027,0,0,0,51.241,16a2.023,2.023,0,0,0,1.743.867,2.249,2.249,0,0,0,2.133-1.32v-4.1A2.276,2.276,0,0,0,53,10.156a2.041,2.041,0,0,0-1.751.872A4.386,4.386,0,0,0,50.618,13.609ZM64.565,18a3.226,3.226,0,0,1-.216-.946,3.426,3.426,0,0,1-2.557,1.112,3.17,3.17,0,0,1-2.179-.751,2.43,2.43,0,0,1-.851-1.905,2.539,2.539,0,0,1,1.067-2.179,5.029,5.029,0,0,1,3-.776h1.494v-.706a1.725,1.725,0,0,0-.481-1.282,1.935,1.935,0,0,0-1.419-.477,2.239,2.239,0,0,0-1.378.415,1.223,1.223,0,0,0-.556,1H58.945a2.119,2.119,0,0,1,.477-1.3,3.258,3.258,0,0,1,1.295-.992,4.356,4.356,0,0,1,1.8-.365,3.551,3.551,0,0,1,2.432.776,2.8,2.8,0,0,1,.913,2.137V15.9a5.054,5.054,0,0,0,.315,1.967V18Zm-2.548-1.17a2.7,2.7,0,0,0,1.37-.374,2.259,2.259,0,0,0,.938-.971V13.642h-1.2q-2.822,0-2.822,1.652a1.4,1.4,0,0,0,.481,1.129A1.85,1.85,0,0,0,62.016,16.83Zm7.746-7.811.05,1.129A3.273,3.273,0,0,1,72.5,8.853q2.847,0,2.872,3.212V18H73.838V12.057a2.068,2.068,0,0,0-.444-1.436,1.78,1.78,0,0,0-1.357-.465,2.216,2.216,0,0,0-1.312.4,2.706,2.706,0,0,0-.88,1.046V18H68.309V9.019ZM79.4,18H77.865V9.019H79.4ZM77.74,6.636a.917.917,0,0,1,.228-.631.857.857,0,0,1,.677-.257.87.87,0,0,1,.681.257.907.907,0,0,1,.232.631.877.877,0,0,1-.232.623.886.886,0,0,1-.681.249.872.872,0,0,1-.677-.249A.886.886,0,0,1,77.74,6.636Zm5.6,10.11H88.6V18h-7.13V16.871l4.956-6.583H81.543V9.019h6.807v1.087ZM95.912,18a3.226,3.226,0,0,1-.216-.946,3.426,3.426,0,0,1-2.557,1.112,3.17,3.17,0,0,1-2.179-.751,2.43,2.43,0,0,1-.851-1.905,2.539,2.539,0,0,1,1.067-2.179,5.029,5.029,0,0,1,3-.776h1.494v-.706a1.725,1.725,0,0,0-.481-1.282,1.935,1.935,0,0,0-1.419-.477,2.239,2.239,0,0,0-1.378.415,1.223,1.223,0,0,0-.556,1H90.293a2.119,2.119,0,0,1,.477-1.3,3.258,3.258,0,0,1,1.295-.992,4.356,4.356,0,0,1,1.8-.365,3.551,3.551,0,0,1,2.432.776,2.8,2.8,0,0,1,.913,2.137V15.9a5.054,5.054,0,0,0,.315,1.967V18Zm-2.548-1.17a2.7,2.7,0,0,0,1.37-.374,2.259,2.259,0,0,0,.938-.971V13.642h-1.2q-2.822,0-2.822,1.652a1.4,1.4,0,0,0,.481,1.129A1.85,1.85,0,0,0,93.364,16.83ZM104,10.4a4.6,4.6,0,0,0-.755-.058,2.024,2.024,0,0,0-2.05,1.287V18H99.657V9.019h1.494l.025,1.038a2.391,2.391,0,0,1,2.142-1.2,1.569,1.569,0,0,1,.681.116ZM9.88,42a3.226,3.226,0,0,1-.216-.946,3.426,3.426,0,0,1-2.557,1.112,3.17,3.17,0,0,1-2.179-.751,2.43,2.43,0,0,1-.851-1.905,2.539,2.539,0,0,1,1.067-2.179,5.029,5.029,0,0,1,3-.776H9.64v-.706a1.725,1.725,0,0,0-.481-1.282,1.935,1.935,0,0,0-1.419-.477,2.239,2.239,0,0,0-1.378.415,1.223,1.223,0,0,0-.556,1H4.261a2.119,2.119,0,0,1,.477-1.3,3.258,3.258,0,0,1,1.295-.992,4.356,4.356,0,0,1,1.8-.365,3.551,3.551,0,0,1,2.432.776,2.8,2.8,0,0,1,.913,2.137V39.9a5.054,5.054,0,0,0,.315,1.967V42ZM7.332,40.83a2.7,2.7,0,0,0,1.37-.374,2.259,2.259,0,0,0,.938-.971V37.642h-1.2q-2.822,0-2.822,1.652A1.4,1.4,0,0,0,6.1,40.423,1.85,1.85,0,0,0,7.332,40.83ZM17.966,34.4a4.6,4.6,0,0,0-.755-.058,2.024,2.024,0,0,0-2.05,1.287V42H13.625V33.019h1.494l.025,1.038a2.391,2.391,0,0,1,2.142-1.2,1.569,1.569,0,0,1,.681.116Zm4.9,6.516a2.212,2.212,0,0,0,1.436-.5,1.752,1.752,0,0,0,.681-1.245h1.453a2.785,2.785,0,0,1-.531,1.469A3.5,3.5,0,0,1,24.6,41.751a3.772,3.772,0,0,1-1.731.415,3.7,3.7,0,0,1-2.918-1.224,4.877,4.877,0,0,1-1.083-3.349v-.257A5.407,5.407,0,0,1,19.345,35a3.667,3.667,0,0,1,1.382-1.585,3.926,3.926,0,0,1,2.129-.564,3.6,3.6,0,0,1,2.511.9,3.234,3.234,0,0,1,1.067,2.349H24.982a2.116,2.116,0,0,0-.66-1.432,2.053,2.053,0,0,0-1.465-.56,2.149,2.149,0,0,0-1.814.843,3.957,3.957,0,0,0-.643,2.436v.291a3.878,3.878,0,0,0,.639,2.391A2.16,2.16,0,0,0,22.865,40.913Zm6.874-6.807A3.265,3.265,0,0,1,32.4,32.853q2.847,0,2.872,3.212V42H33.732V36.057a2.068,2.068,0,0,0-.444-1.436,1.78,1.78,0,0,0-1.357-.465,2.216,2.216,0,0,0-1.312.4,2.706,2.706,0,0,0-.88,1.046V42H28.2V29.25h1.536ZM39.278,42H37.742V33.019h1.536Zm-1.66-11.364a.917.917,0,0,1,.228-.631.857.857,0,0,1,.677-.257.87.87,0,0,1,.681.257.907.907,0,0,1,.232.631.877.877,0,0,1-.232.623.886.886,0,0,1-.681.249.872.872,0,0,1-.677-.249A.886.886,0,0,1,37.617,30.636Zm7.123,9.28,2.225-6.9h1.569L45.313,42h-1.17l-3.254-8.981h1.569Zm4.782-2.49a5.3,5.3,0,0,1,.519-2.374,3.87,3.87,0,0,1,1.444-1.627,3.932,3.932,0,0,1,2.113-.573,3.788,3.788,0,0,1,2.968,1.27A4.886,4.886,0,0,1,57.7,37.5v.108a5.351,5.351,0,0,1-.5,2.353,3.813,3.813,0,0,1-1.436,1.623,3.977,3.977,0,0,1-2.146.581,3.778,3.778,0,0,1-2.959-1.27,4.861,4.861,0,0,1-1.133-3.362Zm1.544.183a3.842,3.842,0,0,0,.693,2.4A2.349,2.349,0,0,0,55.474,40a4.2,4.2,0,0,0,.689-2.569,3.836,3.836,0,0,0-.7-2.395,2.23,2.23,0,0,0-1.864-.917,2.205,2.205,0,0,0-1.834.9A4.17,4.17,0,0,0,51.067,37.609ZM64.9,39.618a1.131,1.131,0,0,0-.469-.967,4.514,4.514,0,0,0-1.635-.594,7.731,7.731,0,0,1-1.851-.6,2.633,2.633,0,0,1-1.013-.83,1.986,1.986,0,0,1-.328-1.146,2.33,2.33,0,0,1,.934-1.868,3.647,3.647,0,0,1,2.386-.764,3.753,3.753,0,0,1,2.478.789,2.5,2.5,0,0,1,.95,2.017H64.805a1.386,1.386,0,0,0-.535-1.087,2.006,2.006,0,0,0-1.349-.457,2.1,2.1,0,0,0-1.312.365,1.15,1.15,0,0,0-.473.955.932.932,0,0,0,.44.838,5.413,5.413,0,0,0,1.59.54,8.283,8.283,0,0,1,1.864.614,2.718,2.718,0,0,1,1.058.859,2.112,2.112,0,0,1,.344,1.224,2.3,2.3,0,0,1-.963,1.93,4.039,4.039,0,0,1-2.5.726,4.523,4.523,0,0,1-1.909-.382,3.105,3.105,0,0,1-1.3-1.067,2.571,2.571,0,0,1-.469-1.482h1.536a1.59,1.59,0,0,0,.618,1.224,2.4,2.4,0,0,0,1.523.452,2.476,2.476,0,0,0,1.4-.353A1.084,1.084,0,0,0,64.9,39.618Zm3.612,1.577a.962.962,0,0,1,.237-.664.9.9,0,0,1,.71-.266.928.928,0,0,1,.718.266.942.942,0,0,1,.245.664.891.891,0,0,1-.245.639.945.945,0,0,1-.718.257.854.854,0,0,1-.946-.9Zm13.408-4.084H79.077V42h-1.6V29.914h4a4.736,4.736,0,0,1,3.142.93,3.345,3.345,0,0,1,1.1,2.706,3.254,3.254,0,0,1-.61,1.967,3.642,3.642,0,0,1-1.7,1.253l2.839,5.13V42h-1.71Zm-2.839-1.3h2.449a2.762,2.762,0,0,0,1.888-.615,2.081,2.081,0,0,0,.7-1.647,2.191,2.191,0,0,0-.668-1.721,2.829,2.829,0,0,0-1.93-.607h-2.44Zm12.4,6.358a3.924,3.924,0,0,1-2.972-1.2,4.452,4.452,0,0,1-1.146-3.208v-.282a5.39,5.39,0,0,1,.51-2.386A3.982,3.982,0,0,1,89.3,33.446a3.59,3.59,0,0,1,1.988-.594,3.364,3.364,0,0,1,2.723,1.154,5,5,0,0,1,.971,3.3v.639H88.9a3.193,3.193,0,0,0,.776,2.146,2.44,2.44,0,0,0,1.888.818,2.675,2.675,0,0,0,1.378-.332,3.462,3.462,0,0,0,.988-.88l.938.73A3.772,3.772,0,0,1,91.48,42.166Zm-.191-8.052a2.048,2.048,0,0,0-1.561.677,3.288,3.288,0,0,0-.78,1.9h4.5v-.116a2.925,2.925,0,0,0-.631-1.814A1.928,1.928,0,0,0,91.289,34.114Zm8.368,5.8,2.225-6.9h1.569L100.23,42h-1.17l-3.254-8.981h1.569ZM106.639,42H105.1V33.019h1.536Zm-1.66-11.364a.917.917,0,0,1,.228-.631.857.857,0,0,1,.677-.257.87.87,0,0,1,.681.257.907.907,0,0,1,.232.631.877.877,0,0,1-.232.623.886.886,0,0,1-.681.249.872.872,0,0,1-.677-.249A.886.886,0,0,1,104.979,30.636Zm9.389,8.981a1.131,1.131,0,0,0-.469-.967,4.514,4.514,0,0,0-1.635-.594,7.731,7.731,0,0,1-1.851-.6,2.633,2.633,0,0,1-1.013-.83,1.986,1.986,0,0,1-.328-1.146,2.33,2.33,0,0,1,.934-1.868,3.647,3.647,0,0,1,2.386-.764,3.753,3.753,0,0,1,2.478.789,2.5,2.5,0,0,1,.95,2.017h-1.544a1.386,1.386,0,0,0-.535-1.087,2.006,2.006,0,0,0-1.349-.457,2.1,2.1,0,0,0-1.312.365,1.15,1.15,0,0,0-.473.955.932.932,0,0,0,.44.838,5.413,5.413,0,0,0,1.59.54,8.283,8.283,0,0,1,1.864.614,2.718,2.718,0,0,1,1.058.859,2.112,2.112,0,0,1,.344,1.224,2.3,2.3,0,0,1-.963,1.93,4.039,4.039,0,0,1-2.5.726,4.523,4.523,0,0,1-1.909-.382,3.105,3.105,0,0,1-1.3-1.067,2.571,2.571,0,0,1-.469-1.482H110.3a1.59,1.59,0,0,0,.618,1.224,2.4,2.4,0,0,0,1.523.452,2.476,2.476,0,0,0,1.4-.353A1.084,1.084,0,0,0,114.368,39.618ZM123.492,42a3.226,3.226,0,0,1-.216-.946,3.426,3.426,0,0,1-2.557,1.112,3.17,3.17,0,0,1-2.179-.751,2.43,2.43,0,0,1-.851-1.905,2.539,2.539,0,0,1,1.067-2.179,5.029,5.029,0,0,1,3-.776h1.494v-.706a1.725,1.725,0,0,0-.481-1.282,1.935,1.935,0,0,0-1.419-.477,2.239,2.239,0,0,0-1.378.415,1.223,1.223,0,0,0-.556,1h-1.544a2.119,2.119,0,0,1,.477-1.3,3.258,3.258,0,0,1,1.295-.992,4.356,4.356,0,0,1,1.8-.365,3.551,3.551,0,0,1,2.432.776,2.8,2.8,0,0,1,.913,2.137V39.9a5.054,5.054,0,0,0,.315,1.967V42Zm-2.548-1.17a2.7,2.7,0,0,0,1.37-.374,2.259,2.259,0,0,0,.938-.971V37.642h-1.2q-2.822,0-2.822,1.652a1.4,1.4,0,0,0,.481,1.129A1.85,1.85,0,0,0,120.943,40.83ZM131.578,34.4a4.6,4.6,0,0,0-.755-.058,2.024,2.024,0,0,0-2.05,1.287V42h-1.536V33.019h1.494l.025,1.038a2.391,2.391,0,0,1,2.142-1.2,1.569,1.569,0,0,1,.681.116ZM36.833,57.019l.042,1a3.317,3.317,0,0,1,2.665-1.162A2.568,2.568,0,0,1,42.1,58.3a3.4,3.4,0,0,1,1.166-1.046,3.445,3.445,0,0,1,1.7-.4q2.955,0,3,3.129V66H46.437V60.073a2.062,2.062,0,0,0-.44-1.44,1.937,1.937,0,0,0-1.478-.477,2.036,2.036,0,0,0-1.419.51,2.071,2.071,0,0,0-.656,1.374V66H40.9V60.115a1.713,1.713,0,0,0-1.917-1.959,2.055,2.055,0,0,0-2.067,1.287V66H35.381V57.019Zm17.225,9.147a3.924,3.924,0,0,1-2.972-1.2,4.452,4.452,0,0,1-1.146-3.208v-.282a5.39,5.39,0,0,1,.51-2.386,3.982,3.982,0,0,1,1.428-1.644,3.59,3.59,0,0,1,1.988-.594,3.364,3.364,0,0,1,2.723,1.154,5,5,0,0,1,.971,3.3v.639H51.477a3.193,3.193,0,0,0,.776,2.146,2.44,2.44,0,0,0,1.888.818,2.675,2.675,0,0,0,1.378-.332,3.462,3.462,0,0,0,.988-.88l.938.73A3.772,3.772,0,0,1,54.059,66.166Zm-.191-8.052a2.048,2.048,0,0,0-1.561.677,3.288,3.288,0,0,0-.78,1.9h4.5v-.116a2.925,2.925,0,0,0-.631-1.814A1.928,1.928,0,0,0,53.868,58.114Zm.747-4.864h1.859l-2.225,2.44-1.237,0Zm6.849,1.594v2.175h1.677v1.187H61.464v5.577a1.247,1.247,0,0,0,.224.81.943.943,0,0,0,.764.27,3.718,3.718,0,0,0,.73-.1V66A4.478,4.478,0,0,1,62,66.166a1.912,1.912,0,0,1-1.552-.623,2.675,2.675,0,0,1-.523-1.768v-5.57H58.293V57.019h1.635V54.844ZM69.317,58.4a4.6,4.6,0,0,0-.755-.058,2.024,2.024,0,0,0-2.05,1.287V66H64.976V57.019H66.47l.025,1.038a2.391,2.391,0,0,1,2.142-1.2,1.569,1.569,0,0,1,.681.116ZM72.439,66H70.9V57.019h1.536Zm-1.66-11.364a.917.917,0,0,1,.228-.631.857.857,0,0,1,.677-.257.87.87,0,0,1,.681.257.907.907,0,0,1,.232.631.877.877,0,0,1-.232.623.886.886,0,0,1-.681.249.872.872,0,0,1-.677-.249A.886.886,0,0,1,70.779,54.636Zm7.762,10.276a2.212,2.212,0,0,0,1.436-.5,1.752,1.752,0,0,0,.681-1.245h1.453a2.785,2.785,0,0,1-.531,1.469,3.5,3.5,0,0,1-1.307,1.112,3.772,3.772,0,0,1-1.731.415,3.7,3.7,0,0,1-2.918-1.224,4.877,4.877,0,0,1-1.083-3.349v-.257A5.407,5.407,0,0,1,75.022,59,3.667,3.667,0,0,1,76.4,57.417a3.926,3.926,0,0,1,2.129-.564,3.6,3.6,0,0,1,2.511.9,3.234,3.234,0,0,1,1.067,2.349H80.658A2.116,2.116,0,0,0,80,58.675a2.053,2.053,0,0,0-1.465-.56,2.149,2.149,0,0,0-1.814.843,3.957,3.957,0,0,0-.643,2.436v.291a3.878,3.878,0,0,0,.639,2.391A2.16,2.16,0,0,0,78.542,64.913ZM89.425,66a3.226,3.226,0,0,1-.216-.946,3.426,3.426,0,0,1-2.557,1.112,3.17,3.17,0,0,1-2.179-.751,2.43,2.43,0,0,1-.851-1.905,2.539,2.539,0,0,1,1.067-2.179,5.029,5.029,0,0,1,3-.776h1.494v-.706a1.725,1.725,0,0,0-.481-1.282,1.935,1.935,0,0,0-1.419-.477,2.239,2.239,0,0,0-1.378.415,1.223,1.223,0,0,0-.556,1H83.805a2.119,2.119,0,0,1,.477-1.3,3.258,3.258,0,0,1,1.295-.992,4.356,4.356,0,0,1,1.8-.365,3.551,3.551,0,0,1,2.432.776,2.8,2.8,0,0,1,.913,2.137V63.9a5.054,5.054,0,0,0,.315,1.967V66Zm-2.548-1.17a2.7,2.7,0,0,0,1.37-.374,2.259,2.259,0,0,0,.938-.971V61.642h-1.2q-2.822,0-2.822,1.652a1.4,1.4,0,0,0,.481,1.129A1.85,1.85,0,0,0,86.877,64.83ZM98.4,63.618a1.131,1.131,0,0,0-.469-.967,4.514,4.514,0,0,0-1.635-.594,7.731,7.731,0,0,1-1.851-.6,2.633,2.633,0,0,1-1.013-.83,1.986,1.986,0,0,1-.328-1.146,2.33,2.33,0,0,1,.934-1.868,3.647,3.647,0,0,1,2.386-.764,3.753,3.753,0,0,1,2.478.789,2.5,2.5,0,0,1,.95,2.017H98.308a1.386,1.386,0,0,0-.535-1.087,2.006,2.006,0,0,0-1.349-.457,2.1,2.1,0,0,0-1.312.365,1.15,1.15,0,0,0-.473.955.932.932,0,0,0,.44.838,5.413,5.413,0,0,0,1.59.54,8.283,8.283,0,0,1,1.864.614,2.718,2.718,0,0,1,1.058.859,2.112,2.112,0,0,1,.344,1.224,2.3,2.3,0,0,1-.963,1.93,4.039,4.039,0,0,1-2.5.726,4.523,4.523,0,0,1-1.909-.382,3.105,3.105,0,0,1-1.3-1.067,2.571,2.571,0,0,1-.469-1.482h1.536a1.59,1.59,0,0,0,.618,1.224,2.4,2.4,0,0,0,1.523.452,2.476,2.476,0,0,0,1.4-.353A1.084,1.084,0,0,0,98.4,63.618Zm-63.931,17.4.042,1a3.317,3.317,0,0,1,2.665-1.162A2.568,2.568,0,0,1,39.739,82.3,3.4,3.4,0,0,1,40.9,81.251a3.445,3.445,0,0,1,1.7-.4q2.955,0,3,3.129V90H44.072V84.073a2.062,2.062,0,0,0-.44-1.44,1.937,1.937,0,0,0-1.478-.477,2.036,2.036,0,0,0-1.419.51,2.071,2.071,0,0,0-.656,1.374V90H38.535V84.115a1.713,1.713,0,0,0-1.917-1.959,2.055,2.055,0,0,0-2.067,1.287V90H33.015V81.019Zm17.225,9.147a3.924,3.924,0,0,1-2.972-1.2,4.452,4.452,0,0,1-1.146-3.208v-.282a5.39,5.39,0,0,1,.51-2.386,3.982,3.982,0,0,1,1.428-1.644,3.59,3.59,0,0,1,1.988-.594,3.364,3.364,0,0,1,2.723,1.154,5,5,0,0,1,.971,3.3v.639H49.111a3.193,3.193,0,0,0,.776,2.146,2.44,2.44,0,0,0,1.888.818,2.675,2.675,0,0,0,1.378-.332,3.462,3.462,0,0,0,.988-.88l.938.73A3.772,3.772,0,0,1,51.693,90.166ZM51.5,82.114a2.048,2.048,0,0,0-1.561.677,3.288,3.288,0,0,0-.78,1.9h4.5v-.116a2.925,2.925,0,0,0-.631-1.814A1.929,1.929,0,0,0,51.5,82.114Zm6.965-1.1.05,1.129a3.273,3.273,0,0,1,2.689-1.295q2.847,0,2.872,3.212V90H62.543V84.057a2.068,2.068,0,0,0-.444-1.436,1.78,1.78,0,0,0-1.357-.465,2.216,2.216,0,0,0-1.312.4,2.706,2.706,0,0,0-.88,1.046V90H57.015V81.019Zm7.563,4.408a5.3,5.3,0,0,1,.519-2.374,3.87,3.87,0,0,1,1.444-1.627,3.932,3.932,0,0,1,2.113-.573,3.788,3.788,0,0,1,2.968,1.27A4.886,4.886,0,0,1,74.207,85.5v.108a5.351,5.351,0,0,1-.5,2.353,3.813,3.813,0,0,1-1.436,1.623,3.977,3.977,0,0,1-2.146.581,3.778,3.778,0,0,1-2.959-1.27,4.861,4.861,0,0,1-1.133-3.362Zm1.544.183a3.842,3.842,0,0,0,.693,2.4A2.349,2.349,0,0,0,71.982,88a4.2,4.2,0,0,0,.689-2.569,3.836,3.836,0,0,0-.7-2.395,2.23,2.23,0,0,0-1.864-.917,2.205,2.205,0,0,0-1.834.9A4.17,4.17,0,0,0,67.574,85.609ZM80.516,82.4a4.6,4.6,0,0,0-.755-.058,2.024,2.024,0,0,0-2.05,1.287V90H76.175V81.019h1.494l.025,1.038a2.391,2.391,0,0,1,2.142-1.2,1.569,1.569,0,0,1,.681.116Zm5.181,7.77a3.924,3.924,0,0,1-2.972-1.2,4.452,4.452,0,0,1-1.146-3.208v-.282a5.39,5.39,0,0,1,.51-2.386,3.982,3.982,0,0,1,1.428-1.644,3.59,3.59,0,0,1,1.988-.594,3.364,3.364,0,0,1,2.723,1.154,5,5,0,0,1,.971,3.3v.639H83.115a3.193,3.193,0,0,0,.776,2.146,2.44,2.44,0,0,0,1.888.818,2.675,2.675,0,0,0,1.378-.332,3.462,3.462,0,0,0,.988-.88l.938.73A3.772,3.772,0,0,1,85.7,90.166Zm-.191-8.052a2.048,2.048,0,0,0-1.561.677,3.288,3.288,0,0,0-.78,1.9h4.5v-.116a2.925,2.925,0,0,0-.631-1.814A1.929,1.929,0,0,0,85.506,82.114Zm10.742,5.5a1.131,1.131,0,0,0-.469-.967,4.514,4.514,0,0,0-1.635-.594,7.731,7.731,0,0,1-1.851-.6,2.633,2.633,0,0,1-1.013-.83,1.986,1.986,0,0,1-.328-1.146,2.33,2.33,0,0,1,.934-1.868,3.647,3.647,0,0,1,2.386-.764,3.753,3.753,0,0,1,2.478.789,2.5,2.5,0,0,1,.95,2.017H96.157a1.386,1.386,0,0,0-.535-1.087,2.006,2.006,0,0,0-1.349-.457,2.1,2.1,0,0,0-1.312.365,1.15,1.15,0,0,0-.473.955.932.932,0,0,0,.44.838,5.413,5.413,0,0,0,1.59.54,8.283,8.283,0,0,1,1.864.614,2.718,2.718,0,0,1,1.058.859,2.112,2.112,0,0,1,.344,1.224,2.3,2.3,0,0,1-.963,1.93,4.039,4.039,0,0,1-2.5.726,4.523,4.523,0,0,1-1.909-.382,3.105,3.105,0,0,1-1.3-1.067,2.571,2.571,0,0,1-.469-1.482h1.536A1.59,1.59,0,0,0,92.8,88.46a2.4,2.4,0,0,0,1.523.452,2.476,2.476,0,0,0,1.4-.353A1.084,1.084,0,0,0,96.248,87.618Zm3.612,1.577a.962.962,0,0,1,.237-.664.9.9,0,0,1,.71-.266.928.928,0,0,1,.718.266.942.942,0,0,1,.245.664.891.891,0,0,1-.245.639.945.945,0,0,1-.718.257.854.854,0,0,1-.946-.9Z" transform="translate(7885 -2022)" fill="#12263f"/>
    <circle id="Ellipse_13727" data-name="Ellipse 13727" cx="16.5" cy="16.5" r="16.5" transform="translate(7658 -2025)" fill="#64067a"/>
    <circle id="Ellipse_13739" data-name="Ellipse 13739" cx="16.5" cy="16.5" r="16.5" transform="translate(7872 -1864)" fill="#64067a"/>
    <circle id="Ellipse_13738" data-name="Ellipse 13738" cx="16.5" cy="16.5" r="16.5" transform="translate(7658 -2253)" fill="#64067a"/>
    <circle id="Ellipse_13740" data-name="Ellipse 13740" cx="16.5" cy="16.5" r="16.5" transform="translate(7704 -1864)" fill="#64067a"/>
    <g id="Group_1189209" data-name="Group 1189209" transform="translate(6430.23 -1709.448) rotate(-90)">
      <path id="Path_999401-2" data-name="Path 999401" d="M6.474,0,0,7.293l6.474,7.293h5.437L6.474,8.5V6.124L8.912,3.377l3-3.377Z" transform="translate(406.711 1609.769) rotate(-90)" fill="#1e75cc"/>
      <path id="Path_1033010-2" data-name="Path 1033010" d="M6.474,0,0,7.293l6.474,7.293h5.437L6.474,8.5V6.124L8.912,3.377l3-3.377Z" transform="translate(421.297 1251.355) rotate(90)" fill="#1e75cc"/>
      <rect id="Rectangle_458934-2" data-name="Rectangle 458934" width="3.551" height="349.833" transform="translate(412.393 1255.517)" fill="#1e75cc"/>
    </g>
    <g id="Mask_Group_1178540" data-name="Mask Group 1178540" transform="translate(7362.289 -4060)" clip-path="url(#clip-path)">
      <g id="Group_1189298" data-name="Group 1189298" transform="translate(265.879 1630.603)">
        <path id="Línea_3303" data-name="Línea 3303" d="M-2.036,42.17a1.3,1.3,0,0,1-.922-.382,1.3,1.3,0,0,1,0-1.844l42.9-42.9a1.3,1.3,0,0,1,1.844,0,1.3,1.3,0,0,1,0,1.844l-42.9,42.9A1.3,1.3,0,0,1-2.036,42.17Z" transform="translate(54.233 3.34)" fill="#19538d"/>
        <path id="Línea_3304" data-name="Línea 3304" d="M-4.073,41.437a2.6,2.6,0,0,1-1.844-.764,2.607,2.607,0,0,1,0-3.687l42.9-42.9a2.607,2.607,0,0,1,3.687,0,2.607,2.607,0,0,1,0,3.687l-42.9,42.9A2.6,2.6,0,0,1-4.073,41.437Z" transform="translate(18.515 30.653)" fill="#19538d"/>
        <g id="Group_1189297" data-name="Group 1189297" transform="translate(0 56.437)">
          <path id="Trazado_998899" data-name="Trazado 998899" d="M26.406,523.893l-.92-.92L41,507.461a10.328,10.328,0,0,1,7.3-3.025,8.968,8.968,0,0,0,6.383-2.644l9.814-9.814.92.92L55.6,502.711a10.328,10.328,0,0,1-7.3,3.025,8.968,8.968,0,0,0-6.383,2.644Z" transform="translate(-25.486 -465.305)" fill="#7dd3ff"/>
          <path id="Path_1033200" data-name="Path 1033200" d="M191.39,478.292a2.214,2.214,0,1,0,0,3.131,2.214,2.214,0,0,0,0-3.131" transform="translate(-148.877 -454.199)" fill="#7dd3ff" fill-rule="evenodd"/>
          <path id="Trazado_998907" data-name="Trazado 998907" d="M17.375,340.3l-.92-.92,36.161-36.161a8.968,8.968,0,0,0,2.644-6.383v-6.2a10.328,10.328,0,0,1,3.025-7.3l5.8-5.8.92.92-5.8,5.8a8.968,8.968,0,0,0-2.644,6.383v6.2a10.328,10.328,0,0,1-3.025,7.3Z" transform="translate(0.132 -275.707)" fill="#7dd3ff"/>
          <path id="Path_1033201" data-name="Path 1033201" d="M211.888,270.555a2.214,2.214,0,1,1-3.131,0,2.214,2.214,0,0,1,3.131,0" transform="translate(-145.765 -269.712)" fill="#7dd3ff" fill-rule="evenodd"/>
          <path id="Trazado_998908_-_Contorno" data-name="Trazado 998908 - Contorno" d="M210.019,274.226a2.409,2.409,0,1,1,1.7-.706A2.394,2.394,0,0,1,210.019,274.226Zm0-4.428a2.019,2.019,0,1,0,1.428.591A2.006,2.006,0,0,0,210.019,269.8Z" transform="translate(-145.462 -269.407)" fill="#7dd3ff"/>
        </g>
      </g>
    </g>
    <g id="Mask_Group_1178541" data-name="Mask Group 1178541" transform="translate(8048 -1787.238) rotate(180)" clip-path="url(#clip-path-2)">
      <g id="Group_1189300" data-name="Group 1189300" transform="translate(-19.013 -13.879)">
        <path id="Línea_3303-2" data-name="Línea 3303" d="M1.04,36.308A1.04,1.04,0,0,1,.3,34.532L34.532.3A1.04,1.04,0,0,1,36,1.775L1.775,36A1.037,1.037,0,0,1,1.04,36.308Z" transform="translate(40.602)" fill="#19538d"/>
        <path id="Línea_3304-2" data-name="Línea 3304" d="M2.08,38.388A2.08,2.08,0,0,1,.609,34.837L34.837.609a2.08,2.08,0,0,1,2.942,2.942L3.551,37.779A2.074,2.074,0,0,1,2.08,38.388Z" transform="translate(9.442 19.126)" fill="#19538d"/>
        <g id="Group_1189299" data-name="Group 1189299" transform="translate(0 45.025)">
          <path id="Trazado_998899-2" data-name="Trazado 998899" d="M.734,25.462,0,24.728,12.376,12.352A8.24,8.24,0,0,1,18.2,9.939a7.155,7.155,0,0,0,5.093-2.109L31.124,0l.734.734L24.029,8.563A8.24,8.24,0,0,1,18.2,10.977a7.155,7.155,0,0,0-5.093,2.109Z" transform="translate(0 21.28)" fill="#7dd3ff"/>
          <path id="Path_1033202" data-name="Path 1033202" d="M3.016.517a1.766,1.766,0,1,0,0,2.5,1.767,1.767,0,0,0,0-2.5" transform="translate(30.901 18.704)" fill="#7dd3ff" fill-rule="evenodd"/>
          <path id="Trazado_998907-2" data-name="Trazado 998907" d="M.734,50.076,0,49.342,28.849,20.493A7.155,7.155,0,0,0,30.959,15.4V10.453a8.239,8.239,0,0,1,2.413-5.826L38,0l.734.734L34.106,5.36A7.155,7.155,0,0,0,32,10.453V15.4a8.24,8.24,0,0,1-2.413,5.826Z" transform="translate(13.233 1.46)" fill="#7dd3ff"/>
          <path id="Path_1033203" data-name="Path 1033203" d="M3.016.517a1.767,1.767,0,1,1-2.5,0,1.767,1.767,0,0,1,2.5,0" transform="translate(49.737 0.156)" fill="#7dd3ff" fill-rule="evenodd"/>
          <path id="Trazado_998908_-_Contorno-2" data-name="Trazado 998908 - Contorno" d="M1.921,3.844A1.922,1.922,0,0,1,.562.563,1.922,1.922,0,0,1,3.28,3.281,1.91,1.91,0,0,1,1.921,3.844Zm0-3.533A1.611,1.611,0,0,0,.782,3.061,1.611,1.611,0,0,0,3.06.783,1.6,1.6,0,0,0,1.921.311Z" transform="translate(49.582)" fill="#7dd3ff"/>
        </g>
      </g>
    </g>
    <path id="Path_1033475" data-name="Path 1033475" d="M9.25,18H.816V16.174L4.7,12.09a4.637,4.637,0,0,0,1.436-2.6A1.807,1.807,0,0,0,5.8,8.3,1.215,1.215,0,0,0,4.809,7.9a1.23,1.23,0,0,0-1.038.544,2.234,2.234,0,0,0-.4,1.357H.567a3.969,3.969,0,0,1,.556-2.054A3.9,3.9,0,0,1,2.667,6.271,4.586,4.586,0,0,1,4.875,5.74a4.512,4.512,0,0,1,3.017.9,3.23,3.23,0,0,1,1.058,2.6,3.773,3.773,0,0,1-.266,1.39,6.1,6.1,0,0,1-.826,1.419,20.805,20.805,0,0,1-1.805,1.988l-1.561,1.8H9.25Z" transform="translate(7669 -2018)" fill="#fff"/>
    <path id="Path_1033473" data-name="Path 1033473" d="M9.25,18H.816V16.174L4.7,12.09a4.637,4.637,0,0,0,1.436-2.6A1.807,1.807,0,0,0,5.8,8.3,1.215,1.215,0,0,0,4.809,7.9a1.23,1.23,0,0,0-1.038.544,2.234,2.234,0,0,0-.4,1.357H.567a3.969,3.969,0,0,1,.556-2.054A3.9,3.9,0,0,1,2.667,6.271,4.586,4.586,0,0,1,4.875,5.74a4.512,4.512,0,0,1,3.017.9,3.23,3.23,0,0,1,1.058,2.6,3.773,3.773,0,0,1-.266,1.39,6.1,6.1,0,0,1-.826,1.419,20.805,20.805,0,0,1-1.805,1.988l-1.561,1.8H9.25Z" transform="translate(7883 -1857)" fill="#fff"/>
    <path id="Path_1033476" data-name="Path 1033476" d="M7.017,18H4.211V9.068l-2.756.805V7.749l5.3-1.834h.257Z" transform="translate(7669 -2246)" fill="#fff"/>
    <path id="Path_1033474" data-name="Path 1033474" d="M7.017,18H4.211V9.068l-2.756.805V7.749l5.3-1.834h.257Z" transform="translate(7715 -1857)" fill="#fff"/>
  </g>
</svg>
