<svg xmlns="http://www.w3.org/2000/svg" width="129" height="127" viewBox="0 0 129 127">
  <g id="img4" transform="translate(-410.059 -948)">
    <rect id="Rectangle_458852" data-name="Rectangle 458852" width="129" height="127" transform="translate(410.059 948)" fill="#68eae0"/>
    <path id="Path_1031232" data-name="Path 1031232" d="M19,18h81.211a12.336,12.336,0,0,1,12.336,12.336v81.211H31.336A12.336,12.336,0,0,1,19,99.211Z" transform="translate(408.711 947)" fill="#fff"/>
    <path id="Path_1031237" data-name="Path 1031237" d="M109.821,42.854a5.14,5.14,0,1,1-5.14,5.14,5.14,5.14,0,0,1,5.14-5.14" transform="translate(411.117 947.494)" fill="#19538d"/>
    <path id="Path_1031242" data-name="Path 1031242" d="M80.821,12.854a5.14,5.14,0,1,1-5.14,5.14,5.14,5.14,0,0,1,5.14-5.14" transform="translate(410.307 946.654)" fill="#19538d"/>
    <path id="Path_1031247" data-name="Path 1031247" d="M112.547,48.689v62.857H31.336A12.336,12.336,0,0,1,19,99.211V18H83.1" transform="translate(408.721 946.799)" fill="none" stroke="#19538d" stroke-miterlimit="10" stroke-width="3"/>
    <g id="Group_1188442" data-name="Group 1188442" transform="translate(28.324 -7451.781)">
      <g id="Group_1099776" data-name="Group 1099776" transform="translate(412.387 8428.781)">
        <g id="Group_1099618" data-name="Group 1099618" transform="translate(0 0)">
          <rect id="Rectangle_401104" data-name="Rectangle 401104" width="67.943" height="68.761" transform="translate(0)" fill="none"/>
        </g>
        <g id="tablero-de-escritura" transform="translate(0.977 1.593)">
          <path id="Path_1031534" data-name="Path 1031534" d="M60.03,12.07H57.34V9.72a2.053,2.053,0,0,0-2.05-2.05H51.86A3.5,3.5,0,0,0,48.37,4.4H23.02a2.3,2.3,0,0,1-2.29-2.29.6.6,0,0,0-1.2,0,3.5,3.5,0,0,0,3.5,3.5H48.38a2.289,2.289,0,0,1,2.27,2.07h-3.4A2.053,2.053,0,0,0,45.2,9.73v2.34H5.97A4.475,4.475,0,0,0,1.5,16.54v28.9a4.443,4.443,0,0,0,3.22,4.28,3.853,3.853,0,0,0,1.14,2.5l.86.86a2.714,2.714,0,0,1,.8,1.9v1.63H7.07a1.592,1.592,0,0,0-1.11.46,1.55,1.55,0,0,0-.46,1.11l.01,4.75A1.571,1.571,0,0,0,7.08,64.5l16.65-.05a1.592,1.592,0,0,0,1.11-.46,1.55,1.55,0,0,0,.46-1.11l-.01-4.75a1.571,1.571,0,0,0-1.57-1.56h-.68v-1.9a2.793,2.793,0,0,1,.3-1.24l1.82-3.53H40.83l1.82,3.52a2.752,2.752,0,0,1,.31,1.25l-.01,1.89h-.68a1.571,1.571,0,0,0-1.57,1.56l-.01,4.75a1.571,1.571,0,0,0,1.57,1.57l16.65.05a1.571,1.571,0,0,0,1.57-1.56l.01-4.75a1.571,1.571,0,0,0-1.57-1.57h-.44V54.98a2.654,2.654,0,0,1,.8-1.91l.85-.86a3.925,3.925,0,0,0,1.14-2.5,4.443,4.443,0,0,0,3.22-4.28V16.53a4.458,4.458,0,0,0-4.46-4.46ZM46.4,9.72a.839.839,0,0,1,.84-.84h8.05a.839.839,0,0,1,.84.84v2.34H46.4ZM8.94,34.76v1.56a2.72,2.72,0,0,0-1.54-.47,2.591,2.591,0,0,0-.83.15V33.51a.359.359,0,0,1,.36-.36H9.46A2.785,2.785,0,0,0,8.94,34.76ZM23.73,57.77a.359.359,0,0,1,.36.36l.01,4.75a.376.376,0,0,1-.37.37l-16.64.04a.359.359,0,0,1-.36-.36l-.01-4.75a.376.376,0,0,1,.37-.37Zm-1.46-4.89a3.876,3.876,0,0,0-.43,1.8v1.89l-13.12.04V54.98a3.907,3.907,0,0,0-1.15-2.75l-.86-.87a2.669,2.669,0,0,1-.79-1.9L5.88,38.61a1.552,1.552,0,0,1,.44-1.09,1.627,1.627,0,0,1,1.09-.46,1.545,1.545,0,0,1,1.54,1.53v.03l.01,4.13a.6.6,0,1,0,1.2-.01l-.01-4.15v-.02l-.01-3.81a1.559,1.559,0,0,1,.45-1.1,1.513,1.513,0,0,1,1.08-.45,1.6,1.6,0,0,1,1.08.45,1.536,1.536,0,0,1,.45,1.09l.01,4.15a.6.6,0,1,0,1.2-.01l-.01-4.15-.01-3.03a1.511,1.511,0,0,1,.44-1.08,1.569,1.569,0,0,1,1.1-.46h.01a1.536,1.536,0,0,1,1.09.45,1.49,1.49,0,0,1,.45,1.07v.02l.02,7.18a.6.6,0,1,0,1.2-.01v-7.2l-.01-2.25v-.02L18.68,27a1.552,1.552,0,0,1,.44-1.09,1.627,1.627,0,0,1,1.09-.46,1.541,1.541,0,0,1,1.54,1.54l.05,14.99a.612.612,0,0,0,.43.58.594.594,0,0,0,.68-.25l3.64-5.54A2.553,2.553,0,0,1,30,36a.928.928,0,0,1,.35,1.22ZM17.48,27l.01,1.82H16.6a.359.359,0,0,1-.36-.36V25.44a.359.359,0,0,1,.36-.36h1.66A2.716,2.716,0,0,0,17.48,27Zm12.99,7.88a3.743,3.743,0,0,0-4.59.79V33.51a.359.359,0,0,1,.36-.36H30.1a.365.365,0,0,1,.36.36v1.37Zm7.82,10.08H27.71l1.93-3.74h6.72ZM25.78,48.69l1.3-2.52H38.91l1.3,2.52Zm33.4,9.23a.363.363,0,0,1,.11.26l-.01,4.75a.359.359,0,0,1-.36.36l-16.65-.05a.376.376,0,0,1-.37-.37l.01-4.75a.359.359,0,0,1,.36-.36l16.65.05a.471.471,0,0,1,.26.11Zm.11-6.56-.85.86a3.848,3.848,0,0,0-1.15,2.76v1.63l-13.12-.04.01-1.89a3.923,3.923,0,0,0-.44-1.8L35.66,37.23a.906.906,0,0,1-.1-.48.779.779,0,0,1,.04-.21c0-.01.01-.01.01-.02a.774.774,0,0,1,.07-.16c.01-.01.02-.03.03-.04a.58.58,0,0,1,.1-.12c.01-.01.02-.03.04-.04a1.01,1.01,0,0,1,.16-.13,2.679,2.679,0,0,1,1.34-.37c.11,0,.21.01.32.02a2.553,2.553,0,0,1,1.39.64,1.594,1.594,0,0,1,.13.13l.09.09a2.348,2.348,0,0,1,.19.25l.5.76a.01.01,0,0,0,.01.01l2.24,3.41.89,1.36a.489.489,0,0,0,.12.13c.01.01.03.02.04.03a1.091,1.091,0,0,0,.11.06c.02.01.03.01.05.02.04.01.08.02.13.03a.06.06,0,0,1,.04.01h.01a.985.985,0,0,0,.17-.02.517.517,0,0,0,.13-.06c.01-.01.03-.01.05-.02l.06-.06a.462.462,0,0,0,.07-.07.2.2,0,0,0,.04-.08.247.247,0,0,0,.04-.09.628.628,0,0,0,.03-.19V40.66l.04-13.63a1.539,1.539,0,0,1,1.53-1.54,1.572,1.572,0,0,1,1.08.44,1.6,1.6,0,0,1,.45,1.1l-.01,4.7-.02,7.18a.617.617,0,0,0,.6.61.6.6,0,0,0,.6-.6l.02-7.19a1.539,1.539,0,0,1,1.54-1.53h.01a1.528,1.528,0,0,1,1.08.44,1.545,1.545,0,0,1,.45,1.1v.84l-.01,2.19v.02l-.01,4.13a.617.617,0,0,0,.6.61.6.6,0,0,0,.6-.6l.01-4.15v-.01a1.536,1.536,0,0,1,1.53-1.53h.01a1.536,1.536,0,0,1,1.09.45,1.577,1.577,0,0,1,.45,1.1l-.01,3.83-.01,4.15a.617.617,0,0,0,.6.61.6.6,0,0,0,.6-.6l.01-4.15a1.552,1.552,0,0,1,1.53-1.54,1.572,1.572,0,0,1,1.08.44,1.6,1.6,0,0,1,.45,1.11l-.03,10.85a2.568,2.568,0,0,1-.77,1.87ZM35.53,34.87V33.51a.359.359,0,0,1,.36-.36h3.86a.365.365,0,0,1,.36.36v2.16c-.07-.08-.15-.15-.22-.22l-.05-.05a3.917,3.917,0,0,0-.33-.27.673.673,0,0,0-.11-.07c-.08-.05-.17-.11-.25-.16a1.009,1.009,0,0,0-.15-.07,2.557,2.557,0,0,0-.24-.11c-.05-.02-.11-.04-.16-.06a2.413,2.413,0,0,0-.25-.08.936.936,0,0,0-.16-.04,2.741,2.741,0,0,0-.28-.05.675.675,0,0,0-.14-.02,3.108,3.108,0,0,0-.43-.03h-.03a3.866,3.866,0,0,0-.48.03.5.5,0,0,1-.12.02c-.12.02-.24.04-.36.07l-.2.06c-.09.03-.18.06-.27.1-.07.03-.13.06-.19.09a.639.639,0,0,0-.16.06Zm14.24-6.42a.359.359,0,0,1-.36.36h-.9L48.52,27a2.782,2.782,0,0,0-.77-1.93h1.66a.359.359,0,0,1,.36.36ZM59.43,36a2.652,2.652,0,0,0-.84-.15,2.688,2.688,0,0,0-1.53.47l.01-1.56a2.724,2.724,0,0,0-.53-1.61h.6a2.3,2.3,0,0,1,2.29,2.29Zm3.86,9.43a3.225,3.225,0,0,1-2,2.99l.03-9.82a2.722,2.722,0,0,0-.69-1.82V35.43a3.5,3.5,0,0,0-3.5-3.5H52.78V31.7a2.714,2.714,0,0,0-.8-1.95,2.793,2.793,0,0,0-1.15-.67,1.534,1.534,0,0,0,.14-.64V25.42a1.566,1.566,0,0,0-1.57-1.57H45.54a1.556,1.556,0,0,0-1.44.95,2.748,2.748,0,0,0-1.07,2.16L43,39.97l-1.83-2.78a1.517,1.517,0,0,0,.15-.66V33.51a1.566,1.566,0,0,0-1.57-1.57H35.9a1.566,1.566,0,0,0-1.57,1.57v3.02a1.355,1.355,0,0,0,.02.2,2.134,2.134,0,0,0,.23,1.04l1.16,2.24H30.27l1.16-2.24a2.074,2.074,0,0,0,.23-1.16c0-.03.02-.06.02-.09V33.5a1.566,1.566,0,0,0-1.57-1.57H26.25a1.566,1.566,0,0,0-1.57,1.57v3.02a1.635,1.635,0,0,0,.15.66L23,39.97l-.04-12.98a2.753,2.753,0,0,0-1.07-2.17,1.556,1.556,0,0,0-1.44-.95H16.59a1.566,1.566,0,0,0-1.57,1.57v3.02a1.534,1.534,0,0,0,.14.64,2.8,2.8,0,0,0-1.16.68,2.773,2.773,0,0,0-.79,1.94v.76a2.719,2.719,0,0,0-1.52-.46h-.01c-.12,0-.24.02-.36.03a1.559,1.559,0,0,0-.53-.1H6.93a1.566,1.566,0,0,0-1.57,1.57v3.02a1.635,1.635,0,0,0,.02.22,2.8,2.8,0,0,0-.72,1.86l.03,9.82a3.235,3.235,0,0,1-2-2.99V16.55a3.261,3.261,0,0,1,3.26-3.26H60.02a3.261,3.261,0,0,1,3.26,3.26V45.43Z" fill="#19538d" stroke="#19538d" stroke-width="0.3"/>
          <path id="Path_1031535" data-name="Path 1031535" d="M10.79,23.87H6.93a1.566,1.566,0,0,0-1.57,1.57v3.02a1.566,1.566,0,0,0,1.57,1.57h3.86a1.566,1.566,0,0,0,1.57-1.57V25.44A1.566,1.566,0,0,0,10.79,23.87Zm.37,4.58a.359.359,0,0,1-.36.36H6.93a.359.359,0,0,1-.36-.36V25.43a.359.359,0,0,1,.36-.36h3.86a.359.359,0,0,1,.36.36v3.02Z" fill="#19538d" stroke="#19538d" stroke-width="0.3"/>
          <path id="Path_1031536" data-name="Path 1031536" d="M30.1,23.87H26.24a1.566,1.566,0,0,0-1.57,1.57v3.02a1.566,1.566,0,0,0,1.57,1.57H30.1a1.566,1.566,0,0,0,1.57-1.57V25.44A1.566,1.566,0,0,0,30.1,23.87Zm.36,4.58a.359.359,0,0,1-.36.36H26.24a.359.359,0,0,1-.36-.36V25.43a.359.359,0,0,1,.36-.36H30.1a.359.359,0,0,1,.36.36Z" fill="#19538d" stroke="#19538d" stroke-width="0.3"/>
          <path id="Path_1031537" data-name="Path 1031537" d="M39.76,23.87H35.9a1.566,1.566,0,0,0-1.57,1.57v3.02a1.566,1.566,0,0,0,1.57,1.57h3.86a1.566,1.566,0,0,0,1.57-1.57V25.44A1.573,1.573,0,0,0,39.76,23.87Zm.36,4.58a.359.359,0,0,1-.36.36H35.9a.359.359,0,0,1-.36-.36V25.43a.359.359,0,0,1,.36-.36h3.86a.359.359,0,0,1,.36.36Z" fill="#19538d" stroke="#19538d" stroke-width="0.3"/>
          <path id="Path_1031538" data-name="Path 1031538" d="M59.07,23.87H55.2a1.566,1.566,0,0,0-1.57,1.57v3.02a1.566,1.566,0,0,0,1.57,1.57h3.86a1.566,1.566,0,0,0,1.57-1.57V25.44A1.564,1.564,0,0,0,59.07,23.87Zm.36,4.58a.359.359,0,0,1-.36.36H55.2a.359.359,0,0,1-.36-.36V25.43a.359.359,0,0,1,.36-.36h3.86a.359.359,0,0,1,.36.36v3.02Z" fill="#19538d" stroke="#19538d" stroke-width="0.3"/>
          <path id="Path_1031539" data-name="Path 1031539" d="M10.79,15.79H6.93a1.566,1.566,0,0,0-1.57,1.57v3.02a1.566,1.566,0,0,0,1.57,1.57h3.86a1.566,1.566,0,0,0,1.57-1.57V17.36a1.573,1.573,0,0,0-1.57-1.57Zm.37,4.59a.359.359,0,0,1-.36.36H6.93a.359.359,0,0,1-.36-.36V17.36A.359.359,0,0,1,6.93,17h3.86a.359.359,0,0,1,.36.36v3.02Z" fill="#19538d" stroke="#19538d" stroke-width="0.3"/>
          <path id="Path_1031540" data-name="Path 1031540" d="M20.45,15.79H16.59a1.566,1.566,0,0,0-1.57,1.57v3.02a1.566,1.566,0,0,0,1.57,1.57h3.86a1.566,1.566,0,0,0,1.57-1.57V17.36a1.579,1.579,0,0,0-1.57-1.57Zm.36,4.59a.359.359,0,0,1-.36.36H16.59a.359.359,0,0,1-.36-.36V17.36a.359.359,0,0,1,.36-.36h3.86a.359.359,0,0,1,.36.36Z" fill="#19538d" stroke="#19538d" stroke-width="0.3"/>
          <path id="Path_1031541" data-name="Path 1031541" d="M30.1,15.79H26.24a1.566,1.566,0,0,0-1.57,1.57v3.02a1.566,1.566,0,0,0,1.57,1.57H30.1a1.566,1.566,0,0,0,1.57-1.57V17.36a1.573,1.573,0,0,0-1.57-1.57Zm.36,4.59a.359.359,0,0,1-.36.36H26.24a.359.359,0,0,1-.36-.36V17.36a.359.359,0,0,1,.36-.36H30.1a.359.359,0,0,1,.36.36Z" fill="#19538d" stroke="#19538d" stroke-width="0.3"/>
          <path id="Path_1031542" data-name="Path 1031542" d="M39.76,15.79H35.9a1.566,1.566,0,0,0-1.57,1.57v3.02a1.566,1.566,0,0,0,1.57,1.57h3.86a1.566,1.566,0,0,0,1.57-1.57V17.36a1.579,1.579,0,0,0-1.57-1.57Zm.36,4.59a.359.359,0,0,1-.36.36H35.9a.359.359,0,0,1-.36-.36V17.36A.359.359,0,0,1,35.9,17h3.86a.359.359,0,0,1,.36.36Z" fill="#19538d" stroke="#19538d" stroke-width="0.3"/>
          <path id="Path_1031543" data-name="Path 1031543" d="M49.41,15.79H45.55a1.566,1.566,0,0,0-1.57,1.57v3.02a1.566,1.566,0,0,0,1.57,1.57h3.86a1.566,1.566,0,0,0,1.57-1.57V17.36a1.573,1.573,0,0,0-1.57-1.57Zm.36,4.59a.359.359,0,0,1-.36.36H45.55a.359.359,0,0,1-.36-.36V17.36a.359.359,0,0,1,.36-.36h3.86a.359.359,0,0,1,.36.36Z" fill="#19538d" stroke="#19538d" stroke-width="0.3"/>
          <path id="Path_1031544" data-name="Path 1031544" d="M59.07,15.79H55.2a1.566,1.566,0,0,0-1.57,1.57v3.02a1.566,1.566,0,0,0,1.57,1.57h3.86a1.566,1.566,0,0,0,1.57-1.57V17.36a1.571,1.571,0,0,0-1.56-1.57Zm.36,4.59a.359.359,0,0,1-.36.36H55.2a.359.359,0,0,1-.36-.36V17.36A.359.359,0,0,1,55.2,17h3.86a.359.359,0,0,1,.36.36v3.02Z" fill="#19538d" stroke="#19538d" stroke-width="0.3"/>
        </g>
      </g>
    </g>
  </g>
</svg>
