<svg xmlns="http://www.w3.org/2000/svg" xmlns:xlink="http://www.w3.org/1999/xlink" width="96" height="96" viewBox="0 0 96 96">
  <defs>
    <clipPath id="clip-path">
      <rect id="Rectangle_456267" data-name="Rectangle 456267" width="96" height="96" fill="none"/>
    </clipPath>
  </defs>
  <g id="img4" transform="translate(479.746 8495) rotate(180)">
    <path id="Path_999622" data-name="Path 999622" d="M43.07,0A43.07,43.07,0,1,1,0,43.07,43.071,43.071,0,0,1,43.07,0" transform="translate(388.676 8403.93)" fill="#e3fbf9"/>
    <g id="Group_1179902" data-name="Group 1179902" transform="translate(383.746 8399)">
      <g id="Group_1179905" data-name="Group 1179905" clip-path="url(#clip-path)">
        <path id="Path_999618" data-name="Path 999618" d="M48,0A48,48,0,1,1,0,48,48,48,0,0,1,48,0" fill="none"/>
        <path id="Path_999619" data-name="Path 999619" d="M3.75,59A3.75,3.75,0,1,1,0,62.75,3.75,3.75,0,0,1,3.75,59" transform="translate(0 -14.75)" fill="#0f654d"/>
        <path id="Path_999620" data-name="Path 999620" d="M19.75,19A3.75,3.75,0,1,1,16,22.75,3.75,3.75,0,0,1,19.75,19" transform="translate(-4 -4.75)" fill="#0f654d"/>
        <path id="Path_999621" data-name="Path 999621" d="M49,94A45.051,45.051,0,0,1,4,49H6.25A42.75,42.75,0,1,0,17.806,19.768l-1.641-1.539A45,45,0,1,1,49,94" transform="translate(-1 -1)" fill="#0f654d"/>
        <rect id="Rectangle_456268" data-name="Rectangle 456268" width="96" height="96" fill="none"/>
        <rect id="Rectangle_456269" data-name="Rectangle 456269" width="96" height="96" fill="none"/>
      </g>
    </g>
    <g id="Group_1179903" data-name="Group 1179903" transform="translate(458.745 8474.508) rotate(180)">
      <g id="Group_1099618" data-name="Group 1099618" transform="translate(-0.036 -0.492)">
        <rect id="Rectangle_401104" data-name="Rectangle 401104" width="54.153" height="54.806" transform="translate(0)" fill="none"/>
      </g>
      <g id="paso-a-paso" transform="translate(-19.801 -0.493)">
        <g id="Group_1189051" data-name="Group 1189051" transform="translate(21.765 0)">
          <path id="Trazado_1032540" data-name="Trazado 1032540" d="M28.385,13.239A6.62,6.62,0,1,1,35,6.62a6.559,6.559,0,0,1-.65,2.864.807.807,0,1,1-1.455-.7,4.958,4.958,0,0,0,.491-2.165,5.006,5.006,0,1,0-5.006,5.006,4.952,4.952,0,0,0,2.239-.529.807.807,0,1,1,.723,1.443A6.552,6.552,0,0,1,28.385,13.239Z" transform="translate(-21.765 0)" fill="#0f654d"/>
          <path id="Elipse_13711" data-name="Elipse 13711" d="M1.975-.5A2.473,2.473,0,0,1,4.449,1.975,2.473,2.473,0,0,1,1.975,4.449,2.473,2.473,0,0,1-.5,1.975,2.473,2.473,0,0,1,1.975-.5Zm0,4.842A2.367,2.367,0,1,0-.392,1.975,2.37,2.37,0,0,0,1.975,4.342Z" transform="translate(4.645 4.645)" fill="#0f654d"/>
          <path id="Elipse_13712" data-name="Elipse 13712" d="M-4.272-7.5A3.231,3.231,0,0,1-1.044-4.272,3.231,3.231,0,0,1-4.272-1.044,3.231,3.231,0,0,1-7.5-4.272,3.231,3.231,0,0,1-4.272-7.5Zm0,4.842A1.616,1.616,0,0,0-2.658-4.272,1.616,1.616,0,0,0-4.272-5.886,1.616,1.616,0,0,0-5.886-4.272,1.616,1.616,0,0,0-4.272-2.658Z" transform="translate(10.892 10.892)" fill="#0f654d"/>
          <path id="Línea_3398" data-name="Línea 3398" d="M2.769-5.886H-6.693A.807.807,0,0,1-7.5-6.693.807.807,0,0,1-6.693-7.5H2.769a.807.807,0,0,1,.807.807A.807.807,0,0,1,2.769-5.886Z" transform="translate(19.126 13.313)" fill="#0f654d"/>
          <path id="Elipse_13713" data-name="Elipse 13713" d="M-3.238-7.5A4.267,4.267,0,0,1,1.025-3.238,4.267,4.267,0,0,1-3.238,1.025,4.267,4.267,0,0,1-7.5-3.238,4.267,4.267,0,0,1-3.238-7.5Zm0,6.911A2.652,2.652,0,0,0-.589-3.238,2.652,2.652,0,0,0-3.238-5.886,2.652,2.652,0,0,0-5.886-3.238,2.652,2.652,0,0,0-3.238-.589Z" transform="translate(28.587 9.857)" fill="#0f654d"/>
          <path id="Elipse_13714" data-name="Elipse 13714" d="M-3.238-7.5A4.267,4.267,0,0,1,1.025-3.238,4.267,4.267,0,0,1-3.238,1.025,4.267,4.267,0,0,1-7.5-3.238,4.267,4.267,0,0,1-3.238-7.5Zm0,6.911A2.652,2.652,0,0,0-.589-3.238,2.652,2.652,0,0,0-3.238-5.886,2.652,2.652,0,0,0-5.886-3.238,2.652,2.652,0,0,0-3.238-.589Z" transform="translate(47.318 9.857)" fill="#0f654d"/>
          <path id="Trazado_1032541" data-name="Trazado 1032541" d="M76.6,238.785a.806.806,0,0,1,.308.061l7.463,3.081a1.13,1.13,0,0,1,0,2.089L76.9,247.1a.807.807,0,0,1-1.115-.746v-6.759a.807.807,0,0,1,.807-.807Zm6.071,4.186L77.4,240.8v4.346Z" transform="translate(-69.977 -213.093)" fill="#0f654d"/>
          <path id="Línea_3399" data-name="Línea 3399" d="M5.126-5.886H-6.693A.807.807,0,0,1-7.5-6.693.807.807,0,0,1-6.693-7.5H5.126a.807.807,0,0,1,.807.807A.807.807,0,0,1,5.126-5.886Z" transform="translate(35.498 13.313)" fill="#0f654d"/>
          <path id="Trazado_1032542" data-name="Trazado 1032542" d="M28.385,402.189a6.62,6.62,0,1,1,2.455-12.767.807.807,0,1,1-.6,1.5,5.008,5.008,0,1,0,2.465,2.123.807.807,0,0,1,1.392-.816,6.619,6.619,0,0,1-5.713,9.962Z" transform="translate(-21.765 -347.101)" fill="#0f654d"/>
          <path id="Elipse_13715" data-name="Elipse 13715" d="M1.975-.5A2.473,2.473,0,0,1,4.449,1.975,2.473,2.473,0,0,1,1.975,4.449,2.473,2.473,0,0,1-.5,1.975,2.473,2.473,0,0,1,1.975-.5Zm0,4.842A2.367,2.367,0,1,0-.392,1.975,2.37,2.37,0,0,0,1.975,4.342Z" transform="translate(4.645 46.494)" fill="#0f654d"/>
          <path id="Elipse_13716" data-name="Elipse 13716" d="M-4.272-7.5A3.231,3.231,0,0,1-1.044-4.272,3.231,3.231,0,0,1-4.272-1.044,3.231,3.231,0,0,1-7.5-4.272,3.231,3.231,0,0,1-4.272-7.5Zm0,4.842A1.616,1.616,0,0,0-2.658-4.272,1.616,1.616,0,0,0-4.272-5.886,1.616,1.616,0,0,0-5.886-4.272,1.616,1.616,0,0,0-4.272-2.658Z" transform="translate(10.892 52.74)" fill="#0f654d"/>
          <path id="Línea_3400" data-name="Línea 3400" d="M2.769-5.886H-6.693A.807.807,0,0,1-7.5-6.693.807.807,0,0,1-6.693-7.5H2.769a.807.807,0,0,1,.807.807A.807.807,0,0,1,2.769-5.886Z" transform="translate(19.126 55.161)" fill="#0f654d"/>
          <path id="Elipse_13717" data-name="Elipse 13717" d="M-3.238-7.5A4.267,4.267,0,0,1,1.025-3.238,4.267,4.267,0,0,1-3.238,1.025,4.267,4.267,0,0,1-7.5-3.238,4.267,4.267,0,0,1-3.238-7.5Zm0,6.911A2.652,2.652,0,0,0-.589-3.238,2.652,2.652,0,0,0-3.238-5.886,2.652,2.652,0,0,0-5.886-3.238,2.652,2.652,0,0,0-3.238-.589Z" transform="translate(28.587 51.706)" fill="#0f654d"/>
          <path id="Elipse_13718" data-name="Elipse 13718" d="M-3.238-7.5A4.267,4.267,0,0,1,1.025-3.238,4.267,4.267,0,0,1-3.238,1.025,4.267,4.267,0,0,1-7.5-3.238,4.267,4.267,0,0,1-3.238-7.5Zm0,6.911A2.652,2.652,0,0,0-.589-3.238,2.652,2.652,0,0,0-3.238-5.886,2.652,2.652,0,0,0-5.886-3.238,2.652,2.652,0,0,0-3.238-.589Z" transform="translate(47.318 51.706)" fill="#0f654d"/>
          <path id="Línea_3401" data-name="Línea 3401" d="M5.126-5.886H-6.693A.807.807,0,0,1-7.5-6.693.807.807,0,0,1-6.693-7.5H5.126a.807.807,0,0,1,.807.807A.807.807,0,0,1,5.126-5.886Z" transform="translate(35.498 55.161)" fill="#0f654d"/>
          <path id="Trazado_1032543" data-name="Trazado 1032543" d="M376.682,207.713a6.638,6.638,0,0,1-6.6-6.151.807.807,0,0,1,.4-.755l.528-.3-.35-.2a.807.807,0,0,1-.377-.906,6.62,6.62,0,0,1,12.682-.384.807.807,0,0,1-1.532.508,5.007,5.007,0,0,0-9.4-.288l.508.293a1.13,1.13,0,0,1,0,1.957l-.794.458a5.005,5.005,0,0,0,9.653.823.807.807,0,0,1,1.522.538A6.63,6.63,0,0,1,376.682,207.713Z" transform="translate(-332.603 -173.55)" fill="#0f654d"/>
          <path id="Elipse_13719" data-name="Elipse 13719" d="M1.975-.5A2.473,2.473,0,0,1,4.449,1.975,2.473,2.473,0,0,1,1.975,4.449,2.473,2.473,0,0,1-.5,1.975,2.473,2.473,0,0,1,1.975-.5Zm0,4.842A2.367,2.367,0,1,0-.392,1.975,2.37,2.37,0,0,0,1.975,4.342Z" transform="translate(42.105 25.569)" fill="#0f654d"/>
          <path id="Elipse_13720" data-name="Elipse 13720" d="M-4.272-7.5A3.231,3.231,0,0,1-1.044-4.272,3.231,3.231,0,0,1-4.272-1.044,3.231,3.231,0,0,1-7.5-4.272,3.231,3.231,0,0,1-4.272-7.5Zm0,4.842A1.616,1.616,0,0,0-2.658-4.272,1.616,1.616,0,0,0-4.272-5.886,1.616,1.616,0,0,0-5.886-4.272,1.616,1.616,0,0,0-4.272-2.658Z" transform="translate(48.352 31.816)" fill="#0f654d"/>
          <path id="Trazado_1032544" data-name="Trazado 1032544" d="M183.756,172.5h14.955a1.885,1.885,0,0,1,1.883,1.883v3.226l3.993,2.305a1.13,1.13,0,0,1,0,1.957l-3.993,2.306v4.409a1.885,1.885,0,0,1-1.883,1.883H183.756a1.885,1.885,0,0,1-1.883-1.883v-14.2A1.885,1.885,0,0,1,183.756,172.5Zm19.3,8.392-3.509-2.026a1.133,1.133,0,0,1-.565-.978v-3.505a.269.269,0,0,0-.269-.269H183.756a.269.269,0,0,0-.269.269v14.2a.269.269,0,0,0,.269.269h14.955a.269.269,0,0,0,.269-.269V183.9a1.133,1.133,0,0,1,.565-.978Z" transform="translate(-164.646 -153.94)" fill="#0f654d"/>
          <g id="Group_1189050" data-name="Group 1189050" transform="translate(21.692 23.216)">
            <path id="Línea_3402" data-name="Línea 3402" d="M1.484-5.886H-6.693A.807.807,0,0,1-7.5-6.693.807.807,0,0,1-6.693-7.5H1.484a.807.807,0,0,1,.807.807A.807.807,0,0,1,1.484-5.886Z" transform="translate(7.5 7.5)" fill="#0f654d"/>
            <path id="Línea_3403" data-name="Línea 3403" d="M1.484-5.886H-6.693A.807.807,0,0,1-7.5-6.693.807.807,0,0,1-6.693-7.5H1.484a.807.807,0,0,1,.807.807A.807.807,0,0,1,1.484-5.886Z" transform="translate(7.5 11.021)" fill="#0f654d"/>
            <path id="Línea_3404" data-name="Línea 3404" d="M-1.975-5.886H-6.693A.807.807,0,0,1-7.5-6.693.807.807,0,0,1-6.693-7.5h4.718a.807.807,0,0,1,.807.807A.807.807,0,0,1-1.975-5.886Z" transform="translate(7.5 14.542)" fill="#0f654d"/>
          </g>
          <path id="Línea_3405" data-name="Línea 3405" d="M-6.693,10.271A.807.807,0,0,1-7.5,9.464V-6.693A.807.807,0,0,1-6.693-7.5a.807.807,0,0,1,.807.807V9.464A.807.807,0,0,1-6.693,10.271Z" transform="translate(13.313 33.192)" fill="#0f654d"/>
        </g>
        <path id="Línea_3406" data-name="Línea 3406" d="M-6.693,5.77A.807.807,0,0,1-7.5,4.963V-6.693A.807.807,0,0,1-6.693-7.5a.807.807,0,0,1,.807.807V4.963A.807.807,0,0,1-6.693,5.77Z" transform="translate(72.538 40.05)" fill="#0f654d"/>
        <path id="Línea_3407" data-name="Línea 3407" d="M-6.693,5.77A.807.807,0,0,1-7.5,4.963V-6.693A.807.807,0,0,1-6.693-7.5a.807.807,0,0,1,.807.807V4.963A.807.807,0,0,1-6.693,5.77Z" transform="translate(72.538 16.768)" fill="#0f654d"/>
      </g>
    </g>
  </g>
</svg>
