<svg xmlns="http://www.w3.org/2000/svg" xmlns:xlink="http://www.w3.org/1999/xlink" width="160" height="160" viewBox="0 0 160 160">
  <defs>
    <clipPath id="clip-path">
      <rect id="Rectangle_456312" data-name="Rectangle 456312" width="160" height="160" fill="none"/>
    </clipPath>
  </defs>
  <g id="img5" transform="translate(-1027.711 -1328.646)">
    <g id="Group_1188737" data-name="Group 1188737" transform="translate(605.652 -8106.354)">
      <g id="Group_1179959" data-name="Group 1179959" transform="translate(422.059 9435)" clip-path="url(#clip-path)">
        <path id="Path_999654" data-name="Path 999654" d="M1.5,5.146H131.567a19.711,19.711,0,0,1,19.757,19.663V154.256H21.257A19.711,19.711,0,0,1,1.5,134.593Z" transform="translate(0.97 3.287)" fill="#fff"/>
      </g>
      <g id="Group_1179960" data-name="Group 1179960" transform="translate(422.059 9435)">
        <g id="Group_1179956" data-name="Group 1179956" clip-path="url(#clip-path)">
          <path id="Path_999651" data-name="Path 999651" d="M95.413,30a8.193,8.193,0,1,1-8.232,8.193A8.213,8.213,0,0,1,95.413,30" transform="translate(56.355 19.158)" fill="#19538d"/>
          <path id="Path_999652" data-name="Path 999652" d="M66.413,0a8.193,8.193,0,1,1-8.232,8.193A8.213,8.213,0,0,1,66.413,0" transform="translate(37.609 0)" fill="#19538d"/>
          <path id="Path_999653" data-name="Path 999653" d="M151.324,54.064V154.256H21.257A19.711,19.711,0,0,1,1.5,134.593V5.146H104.167" transform="translate(0.97 3.287)" fill="none" stroke="#19538d" stroke-miterlimit="10" stroke-width="4"/>
        </g>
      </g>
      <g id="Group_1179961" data-name="Group 1179961" transform="translate(-608)">
        <rect id="Rectangle_456311" data-name="Rectangle 456311" width="109.239" height="110.028" transform="translate(1050.059 9463)" fill="#fff"/>
        <g id="libro_3_" data-name="libro (3)" transform="translate(1056.536 9470.354)">
          <g id="Page-1_27_" transform="translate(0.013)">
            <g id="_x30_28---Book-Check" transform="translate(0)">
              <path id="Shape_210_" d="M83.246,91.77a1.66,1.66,0,0,0-1.66,1.66v6.641a1.66,1.66,0,1,0,3.321,0V93.43A1.66,1.66,0,0,0,83.246,91.77Z" transform="translate(-68.304 -76.827)" fill="#19538d"/>
              <path id="Shape_209_" d="M83.246,214.13a1.66,1.66,0,0,0-1.66,1.66v6.641a1.66,1.66,0,0,0,3.321,0V215.79A1.66,1.66,0,0,0,83.246,214.13Z" transform="translate(-68.304 -179.263)" fill="#19538d"/>
              <path id="Shape_208_" d="M83.246,336.489a1.66,1.66,0,0,0-1.66,1.66v6.641a1.66,1.66,0,0,0,3.321,0v-6.641A1.66,1.66,0,0,0,83.246,336.489Z" transform="translate(-68.304 -281.699)" fill="#19538d"/>
              <path id="Shape_207_" d="M83.246,458.849a1.66,1.66,0,0,0-1.66,1.66v6.641a1.66,1.66,0,0,0,3.321,0v-6.641A1.66,1.66,0,0,0,83.246,458.849Z" transform="translate(-68.304 -384.135)" fill="#19538d"/>
              <path id="Shape_206_" d="M134.23,482.655h6.641a1.66,1.66,0,1,0,0-3.321H134.23a1.66,1.66,0,1,0,0,3.321Z" transform="translate(-110.986 -401.284)" fill="#19538d"/>
              <path id="Shape_205_" d="M222.445,479.334H215.8a1.66,1.66,0,1,0,0,3.321h6.641a1.66,1.66,0,1,0,0-3.321Z" transform="translate(-179.276 -401.284)" fill="#19538d"/>
              <path id="Shape_204_" d="M134.23,431.671h23.244a1.66,1.66,0,1,0,0-3.321H134.23a1.66,1.66,0,1,0,0,3.321Z" transform="translate(-110.986 -358.602)" fill="#19538d"/>
              <path id="Shape_203_" d="M134.23,380.688h16.6a1.66,1.66,0,1,0,0-3.321h-16.6a1.66,1.66,0,0,0,0,3.321Z" transform="translate(-110.986 -315.921)" fill="#19538d"/>
              <path id="Shape_202_" d="M285.285,377.368h-8.3a1.66,1.66,0,1,0,0,3.321h8.3a1.66,1.66,0,0,0,0-3.321Z" transform="translate(-230.494 -315.921)" fill="#19538d"/>
              <path id="Shape_200_" d="M164.351,104.44a21.584,21.584,0,1,0-21.584-21.584A21.584,21.584,0,0,0,164.351,104.44Zm0-39.848a18.263,18.263,0,1,1-18.263,18.263A18.263,18.263,0,0,1,164.351,64.593Z" transform="translate(-119.522 -51.295)" fill="#19538d"/>
              <path id="Shape_199_" d="M95.825,36.339a5.1,5.1,0,0,0-7.043,0l-4.7,4.7-1.058,1.058V8.3a8.312,8.312,0,0,0-8.3-8.3H14.956a8.312,8.312,0,0,0-8.3,8.3v4.981H4.994A4.981,4.981,0,0,0,.013,18.263v3.321a4.981,4.981,0,0,0,4.981,4.981h1.66v6.641H4.994A4.981,4.981,0,0,0,.013,38.187v3.321a4.981,4.981,0,0,0,4.981,4.981h1.66V53.13H4.994A4.981,4.981,0,0,0,.013,58.111v3.321a4.981,4.981,0,0,0,4.981,4.981h1.66v6.641H4.994A4.981,4.981,0,0,0,.013,78.035v3.321a4.981,4.981,0,0,0,4.981,4.981h1.66v4.981a8.311,8.311,0,0,0,8.3,8.3H74.727a8.311,8.311,0,0,0,8.3-8.3V60.877l5.75-5.755,4.7-4.7,4.7-4.7a4.981,4.981,0,0,0,0-7.043ZM87.606,51.6l-4.7-4.7.485-.485,1.863-1.863,4.7,4.7Zm-7.4,7.4-.023.023L59.429,79.778l-4.7-4.7L80.563,49.253l4.7,4.7ZM52.906,77.95,56.558,81.6l-6.7,3.047ZM4.994,23.244a1.66,1.66,0,0,1-1.66-1.66V18.263a1.66,1.66,0,0,1,1.66-1.66h1.66v6.641Zm0,19.924a1.66,1.66,0,0,1-1.66-1.66V38.187a1.66,1.66,0,0,1,1.66-1.66h1.66v6.641Zm0,19.924a1.66,1.66,0,0,1-1.66-1.66V58.111a1.66,1.66,0,0,1,1.66-1.66h1.66v6.641Zm0,19.924a1.66,1.66,0,0,1-1.66-1.66V78.035a1.66,1.66,0,0,1,1.66-1.66h1.66v6.641Zm74.714,8.3A4.981,4.981,0,0,1,74.727,96.3H14.956a4.981,4.981,0,0,1-4.981-4.981V8.3a4.981,4.981,0,0,1,4.981-4.981H74.727A4.981,4.981,0,0,1,79.708,8.3V45.413l-28.5,28.5a1.669,1.669,0,0,0-.332.487L45.448,86.336H23.258a1.66,1.66,0,0,0,0,3.321H46.517a1.659,1.659,0,0,0,.664-.144h.02l12.916-5.874a1.663,1.663,0,0,0,.487-.332L79.708,64.2V91.317ZM95.825,43.384,92.3,46.905l-4.7-4.7,3.523-3.525a1.7,1.7,0,0,1,2.348,0l2.348,2.349a1.66,1.66,0,0,1,0,2.348Z" transform="translate(-0.013)" fill="#19538d"/>
              <rect id="Rectangle_459060" data-name="Rectangle 459060" width="4" height="25" rx="2" transform="matrix(0.799, 0.602, -0.602, 0.799, 51.451, 20.375)" fill="#19538d"/>
              <rect id="Rectangle_459061" data-name="Rectangle 459061" width="4" height="25" rx="2" transform="translate(53.508 41.387) rotate(150)" fill="#19538d"/>
            </g>
          </g>
        </g>
      </g>
    </g>
  </g>
</svg>
