<svg xmlns="http://www.w3.org/2000/svg" xmlns:xlink="http://www.w3.org/1999/xlink" width="96" height="96" viewBox="0 0 96 96">
  <defs>
    <clipPath id="clip-path">
      <rect id="Rectangle_456267" data-name="Rectangle 456267" width="96" height="96" fill="none"/>
    </clipPath>
  </defs>
  <g id="img8" transform="translate(479.746 8495) rotate(180)">
    <path id="Path_999622" data-name="Path 999622" d="M43.07,0A43.07,43.07,0,1,1,0,43.07,43.071,43.071,0,0,1,43.07,0" transform="translate(388.676 8403.93)" fill="#e3fbf9"/>
    <g id="Group_1179902" data-name="Group 1179902" transform="translate(383.746 8399)">
      <g id="Group_1179905" data-name="Group 1179905" clip-path="url(#clip-path)">
        <path id="Path_999618" data-name="Path 999618" d="M48,0A48,48,0,1,1,0,48,48,48,0,0,1,48,0" fill="none"/>
        <path id="Path_999619" data-name="Path 999619" d="M3.75,59A3.75,3.75,0,1,1,0,62.75,3.75,3.75,0,0,1,3.75,59" transform="translate(0 -14.75)" fill="#0f654d"/>
        <path id="Path_999620" data-name="Path 999620" d="M19.75,19A3.75,3.75,0,1,1,16,22.75,3.75,3.75,0,0,1,19.75,19" transform="translate(-4 -4.75)" fill="#0f654d"/>
        <path id="Path_999621" data-name="Path 999621" d="M49,94A45.051,45.051,0,0,1,4,49H6.25A42.75,42.75,0,1,0,17.806,19.768l-1.641-1.539A45,45,0,1,1,49,94" transform="translate(-1 -1)" fill="#0f654d"/>
        <rect id="Rectangle_456268" data-name="Rectangle 456268" width="96" height="96" fill="none"/>
        <rect id="Rectangle_456269" data-name="Rectangle 456269" width="96" height="96" fill="none"/>
      </g>
    </g>
    <g id="Group_1179903" data-name="Group 1179903" transform="translate(458.745 8474.508) rotate(180)">
      <g id="Group_1099618" data-name="Group 1099618" transform="translate(0 0)">
        <rect id="Rectangle_401104" data-name="Rectangle 401104" width="54.153" height="54.806" transform="translate(0)" fill="none"/>
      </g>
      <g id="decision" transform="translate(0.252 -0.001)">
        <path id="Path_1032510" data-name="Path 1032510" d="M221.72,302.115h1.788v-3.024l1.294-.647-.8-1.6-1.388.695-1.389-.695-.8,1.6,1.294.647Zm0,0" transform="translate(-195.789 -263.667)" fill="#0f654d"/>
        <path id="Path_1032511" data-name="Path 1032511" d="M128,241.039c0,3.072,6.488,4.471,12.517,4.471s12.517-1.4,12.517-4.471c0-2.587-4.52-3.665-7.153-4.075v-4.313L147.18,232a.9.9,0,0,0,.495-.8v-5.365a3.583,3.583,0,0,0-3.08-3.542,4.39,4.39,0,0,0,.4-1.822,4.471,4.471,0,1,0-8.941,0,4.389,4.389,0,0,0,.4,1.822,3.583,3.583,0,0,0-3.079,3.542V231.2a.9.9,0,0,0,.494.8l1.294.647v4.313c-2.633.41-7.153,1.489-7.153,4.075Zm7.153-15.2a1.79,1.79,0,0,1,1.788-1.788h1.233a.893.893,0,0,0,.588-1.566,2.648,2.648,0,0,1-.927-2.01,2.682,2.682,0,1,1,5.365,0,2.643,2.643,0,0,1-.928,2.009.894.894,0,0,0,.589,1.567H144.1a1.79,1.79,0,0,1,1.788,1.788v4.812l-1.294.647a.893.893,0,0,0-.494.8v8.047h-7.153V232.1a.9.9,0,0,0-.495-.8l-1.294-.647Zm.894,16.094h8.941a.894.894,0,0,0,.894-.894v-2.263c3.772.624,5.365,1.749,5.365,2.263,0,.946-4.074,2.682-10.729,2.682s-10.729-1.736-10.729-2.682c0-.513,1.592-1.639,5.365-2.263v2.263A.894.894,0,0,0,136.051,241.933Zm0,0" transform="translate(-113.697 -191.862)" fill="#0f654d"/>
        <path id="Path_1032512" data-name="Path 1032512" d="M152.069,10.179a.9.9,0,0,0,.826.552h3.576V23.248h1.788V9.836a.894.894,0,0,0-.894-.894h-2.313l6.783-6.783,6.783,6.783h-3.206a.894.894,0,0,0-.894.894V23.248h1.788V10.731h4.471a.894.894,0,0,0,.632-1.526L162.468.263a.892.892,0,0,0-1.264,0L152.263,9.2a.894.894,0,0,0-.194.974Zm0,0" transform="translate(-135.012)" fill="#0f654d"/>
        <path id="Path_1032513" data-name="Path 1032513" d="M9.2,211.4a.894.894,0,0,0,.632.262.879.879,0,0,0,.342-.068.9.9,0,0,0,.552-.826V207.2h7.153v-1.788H9.837a.894.894,0,0,0-.894.894v2.312l-6.783-6.783,6.783-6.783v3.206a.894.894,0,0,0,.894.894h8.047v-1.788H10.731V192.89a.894.894,0,0,0-1.526-.632L.263,201.2a.893.893,0,0,0,0,1.264Zm0,0" transform="translate(0 -170.536)" fill="#0f654d"/>
        <path id="Path_1032514" data-name="Path 1032514" d="M337.623,201.2l-8.941-8.941a.894.894,0,0,0-1.526.632v3.576H320v1.788h8.047a.894.894,0,0,0,.894-.894v-2.312l6.783,6.783-6.783,6.783v-3.206a.894.894,0,0,0-.894-.894H320V206.3h7.153v4.471a.894.894,0,0,0,.551.826.879.879,0,0,0,.343.068.894.894,0,0,0,.632-.262l8.941-8.941A.893.893,0,0,0,337.623,201.2Zm0,0" transform="translate(-284.238 -170.537)" fill="#0f654d"/>
        <path id="Path_1032515" data-name="Path 1032515" d="M232,184h1.788v1.788H232Zm0,0" transform="translate(-206.074 -163.438)" fill="#0f654d"/>
        <path id="Path_1032516" data-name="Path 1032516" d="M136,272h1.788v1.788H136Zm0,0" transform="translate(-120.803 -241.603)" fill="#0f654d"/>
        <path id="Path_1032517" data-name="Path 1032517" d="M328,272h1.788v1.788H328Zm0,0" transform="translate(-291.344 -241.603)" fill="#0f654d"/>
      </g>
    </g>
  </g>
</svg>
