<svg xmlns="http://www.w3.org/2000/svg" xmlns:xlink="http://www.w3.org/1999/xlink" width="96" height="96" viewBox="0 0 96 96">
  <defs>
    <clipPath id="clip-path">
      <rect id="Rectangle_456267" data-name="Rectangle 456267" width="96" height="96" fill="none"/>
    </clipPath>
  </defs>
  <g id="img9" transform="translate(479.746 8495) rotate(180)">
    <path id="Path_999622" data-name="Path 999622" d="M43.07,0A43.07,43.07,0,1,1,0,43.07,43.071,43.071,0,0,1,43.07,0" transform="translate(388.676 8403.93)" fill="#e3fbf9"/>
    <g id="Group_1179902" data-name="Group 1179902" transform="translate(383.746 8399)">
      <g id="Group_1179905" data-name="Group 1179905" clip-path="url(#clip-path)">
        <path id="Path_999618" data-name="Path 999618" d="M48,0A48,48,0,1,1,0,48,48,48,0,0,1,48,0" fill="none"/>
        <path id="Path_999619" data-name="Path 999619" d="M3.75,59A3.75,3.75,0,1,1,0,62.75,3.75,3.75,0,0,1,3.75,59" transform="translate(0 -14.75)" fill="#0f654d"/>
        <path id="Path_999620" data-name="Path 999620" d="M19.75,19A3.75,3.75,0,1,1,16,22.75,3.75,3.75,0,0,1,19.75,19" transform="translate(-4 -4.75)" fill="#0f654d"/>
        <path id="Path_999621" data-name="Path 999621" d="M49,94A45.051,45.051,0,0,1,4,49H6.25A42.75,42.75,0,1,0,17.806,19.768l-1.641-1.539A45,45,0,1,1,49,94" transform="translate(-1 -1)" fill="#0f654d"/>
        <rect id="Rectangle_456268" data-name="Rectangle 456268" width="96" height="96" fill="none"/>
        <rect id="Rectangle_456269" data-name="Rectangle 456269" width="96" height="96" fill="none"/>
      </g>
    </g>
    <g id="Group_1179903" data-name="Group 1179903" transform="translate(458.745 8474.508) rotate(180)">
      <g id="Group_1099618" data-name="Group 1099618" transform="translate(0 0)">
        <rect id="Rectangle_401104" data-name="Rectangle 401104" width="54.153" height="54.806" transform="translate(0)" fill="none"/>
      </g>
      <g id="reglamento" transform="translate(0.336 0)">
        <g id="Group_1189052" data-name="Group 1189052" transform="translate(12.396 1)">
          <path id="Path_1032584" data-name="Path 1032584" d="M44.643,47.3H18.786A4.2,4.2,0,0,1,14.6,43.109V20.043a.821.821,0,0,1,1.642,0V43.109a2.557,2.557,0,0,0,2.545,2.545H44.643a2.557,2.557,0,0,0,2.545-2.545V5.186a2.557,2.557,0,0,0-2.545-2.545H18.786a2.557,2.557,0,0,0-2.545,2.545.821.821,0,0,1-1.642,0A4.2,4.2,0,0,1,18.786,1H44.643a4.2,4.2,0,0,1,4.186,4.186V43.109A4.2,4.2,0,0,1,44.643,47.3Z" transform="translate(-14.6 -1)" fill="#0f654d"/>
        </g>
        <g id="Group_1189053" data-name="Group 1189053" transform="translate(15.082 7.156)">
          <path id="Path_1032585" data-name="Path 1032585" d="M47.855,54.877h-.41L21.671,52.5a4.221,4.221,0,0,1-3.776-4.6v-.082a.747.747,0,0,1,.328-.657A.638.638,0,0,1,18.88,47c.164,0,.328.082.493.082H45.229a2.557,2.557,0,0,0,2.545-2.545V9.321a.745.745,0,0,1,.246-.575.932.932,0,0,1,.657-.246l3.037.246a4.213,4.213,0,0,1,3.858,4.515L52.124,51.019a4.277,4.277,0,0,1-1.478,2.873,4.817,4.817,0,0,1-2.791.985ZM19.537,48.639a2.7,2.7,0,0,0,2.3,2.216l25.774,2.38a2.538,2.538,0,0,0,2.791-2.3l3.448-37.759a2.538,2.538,0,0,0-2.3-2.791l-2.134-.164V44.535a4.2,4.2,0,0,1-4.186,4.186H19.537Z" transform="translate(-17.871 -8.5)" fill="#0f654d"/>
        </g>
        <g id="Group_1189054" data-name="Group 1189054" transform="translate(2.401 46.74)">
          <path id="Path_1032586" data-name="Path 1032586" d="M5.605,63.517a.789.789,0,0,1-.739-.493l-2.38-5.171A.808.808,0,0,1,3.964,57.2l1.642,3.612L7.247,57.2a.808.808,0,0,1,1.478.657l-2.38,5.171A.789.789,0,0,1,5.605,63.517Z" transform="translate(-2.423 -56.723)" fill="#0f654d"/>
        </g>
        <g id="Group_1189055" data-name="Group 1189055" transform="translate(2.3 22.875)">
          <path id="Path_1032587" data-name="Path 1032587" d="M8.046,53.137H3.121a.776.776,0,0,1-.821-.821V29.907a1.947,1.947,0,0,1,1.313-1.888,5.658,5.658,0,0,1,4.022,0,2.152,2.152,0,0,1,1.313,1.888V52.316A1.044,1.044,0,0,1,8.046,53.137ZM3.942,51.5H7.225V29.907a.451.451,0,0,0-.246-.41,3.653,3.653,0,0,0-2.791,0,.451.451,0,0,0-.246.41Z" transform="translate(-2.3 -27.65)" fill="#0f654d"/>
        </g>
        <g id="Group_1189056" data-name="Group 1189056" transform="translate(2.3 22.875)">
          <path id="Path_1032588" data-name="Path 1032588" d="M8.046,32.616H3.121A.776.776,0,0,1,2.3,31.8V29.907a1.947,1.947,0,0,1,1.313-1.888,5.658,5.658,0,0,1,4.022,0,2.152,2.152,0,0,1,1.313,1.888V31.8A.956.956,0,0,1,8.046,32.616Zm-4.1-1.642H7.225V29.907a.451.451,0,0,0-.246-.41,4.077,4.077,0,0,0-2.791,0,.451.451,0,0,0-.246.41Z" transform="translate(-2.3 -27.65)" fill="#0f654d"/>
        </g>
        <g id="Group_1189063" data-name="Group 1189063" transform="translate(16.418 4.817)">
          <g id="Group_1189057" data-name="Group 1189057" transform="translate(0 17.853)">
            <path id="Path_1032589" data-name="Path 1032589" d="M31.32,32.325h-11A.776.776,0,0,1,19.5,31.5V30.191A2.768,2.768,0,0,1,22.291,27.4h6.977a2.768,2.768,0,0,1,2.791,2.791V31.5A.679.679,0,0,1,31.32,32.325ZM21.142,30.683H30.5v-.493a1.122,1.122,0,0,0-1.149-1.149H22.373a1.122,1.122,0,0,0-1.149,1.149v.493Z" transform="translate(-19.5 -27.4)" fill="#0f654d"/>
          </g>
          <g id="Group_1189062" data-name="Group 1189062" transform="translate(5.048)">
            <g id="Group_1189058" data-name="Group 1189058" transform="translate(2.339 2.339)">
              <path id="Path_1032590" data-name="Path 1032590" d="M33.507,20.074a.745.745,0,0,1-.575-.246l-4.186-4.186a.793.793,0,0,1,0-1.149l5.746-5.746a.793.793,0,0,1,1.149,0l4.186,4.186a.793.793,0,0,1,0,1.149l-5.746,5.746a.887.887,0,0,1-.575.246Zm-3.119-5.007L33.425,18.1l4.6-4.6L34.985,10.47Z" transform="translate(-28.5 -8.5)" fill="#0f654d"/>
            </g>
            <g id="Group_1189059" data-name="Group 1189059" transform="translate(0 7.634)">
              <path id="Path_1032591" data-name="Path 1032591" d="M32.011,23.528a2.107,2.107,0,0,1-1.478-.575l-4.268-4.268a2.081,2.081,0,0,1,0-2.955l.164-.164a2.081,2.081,0,0,1,2.955,0l4.268,4.268a2.081,2.081,0,0,1,0,2.955l-.164.164a2.107,2.107,0,0,1-1.478.575Zm-4.186-6.9a.622.622,0,0,0-.328.164l-.164.164a.5.5,0,0,0,0,.657L31.6,21.886a.5.5,0,0,0,.657,0l.164-.164a.5.5,0,0,0,0-.657L28.154,16.8A.328.328,0,0,0,27.825,16.633Z" transform="translate(-25.65 -14.95)" fill="#0f654d"/>
            </g>
            <g id="Group_1189060" data-name="Group 1189060" transform="translate(7.675)">
              <path id="Path_1032592" data-name="Path 1032592" d="M41.32,14.228a2.107,2.107,0,0,1-1.478-.575L35.575,9.385A1.978,1.978,0,0,1,35,7.907a2.36,2.36,0,0,1,.575-1.478l.164-.164a2.081,2.081,0,0,1,2.955,0l4.268,4.268a2.081,2.081,0,0,1,0,2.955l-.164.164A2.107,2.107,0,0,1,41.32,14.228Zm-4.186-6.9a.622.622,0,0,0-.328.164l-.082.082a.41.41,0,0,0,0,.657L40.992,12.5a.5.5,0,0,0,.657,0l.164-.164a.5.5,0,0,0,0-.657l-4.35-4.268A.494.494,0,0,0,37.134,7.333Z" transform="translate(-35 -5.65)" fill="#0f654d"/>
            </g>
            <g id="Group_1189061" data-name="Group 1189061" transform="translate(8.332 8.414)">
              <path id="Path_1032593" data-name="Path 1032593" d="M45.814,28.623a2.5,2.5,0,0,1-1.97-.9l-7.8-8.373a.793.793,0,0,1,0-1.149L38.1,16.146a.793.793,0,0,1,1.149,0l8.373,7.8a2.948,2.948,0,0,1,.9,1.97,2.3,2.3,0,0,1-.821,1.97,2.989,2.989,0,0,1-1.888.739Zm-8.044-9.85,7.223,7.8a.891.891,0,0,0,.739.328.8.8,0,0,0,.739-.328,1,1,0,0,0,.328-.739,1.04,1.04,0,0,0-.328-.739l-7.8-7.223Z" transform="translate(-35.8 -15.9)" fill="#0f654d"/>
            </g>
          </g>
        </g>
        <g id="Group_1189069" data-name="Group 1189069" transform="translate(16.501 30.304)">
          <g id="Group_1189066" data-name="Group 1189066">
            <g id="Group_1189064" data-name="Group 1189064">
              <path id="Path_1032594" data-name="Path 1032594" d="M21.816,42.528a.745.745,0,0,1-.575-.246l-1.4-1.4A.813.813,0,1,1,21,39.737l.821.821,3.612-3.612A.813.813,0,0,1,26.577,38.1l-4.186,4.186a.745.745,0,0,1-.575.246Z" transform="translate(-19.6 -36.7)" fill="#0f654d"/>
            </g>
            <g id="Group_1189065" data-name="Group 1189065" transform="translate(0 6.074)">
              <path id="Path_1032595" data-name="Path 1032595" d="M21.816,50.01a.745.745,0,0,1-.575-.246l-1.4-1.4A.813.813,0,1,1,21,47.219l.821.821,3.612-3.694A.813.813,0,1,1,26.577,45.5l-4.186,4.268a.745.745,0,0,1-.575.246Z" transform="translate(-19.6 -44.1)" fill="#0f654d"/>
            </g>
          </g>
          <g id="Group_1189067" data-name="Group 1189067" transform="translate(9.604 1.478)">
            <path id="Path_1032596" data-name="Path 1032596" d="M46.814,40.142H32.121a.821.821,0,0,1,0-1.642H46.814a.821.821,0,0,1,0,1.642Z" transform="translate(-31.3 -38.5)" fill="#0f654d"/>
          </g>
          <g id="Group_1189068" data-name="Group 1189068" transform="translate(9.604 8.29)">
            <path id="Path_1032597" data-name="Path 1032597" d="M46.814,48.442H32.121a.821.821,0,1,1,0-1.642H46.814a.821.821,0,1,1,0,1.642Z" transform="translate(-31.3 -46.8)" fill="#0f654d"/>
          </g>
        </g>
        <g id="Group_1189073" data-name="Group 1189073" transform="translate(2.3 3.955)">
          <g id="Group_1189070" data-name="Group 1189070" transform="translate(0 0)">
            <path id="Path_1032598" data-name="Path 1032598" d="M10.919,21.92a8.66,8.66,0,1,1,8.619-8.7,8.688,8.688,0,0,1-8.619,8.7Zm0-15.678A6.977,6.977,0,1,0,17.9,13.219a6.971,6.971,0,0,0-6.977-6.977Z" transform="translate(-2.3 -4.6)" fill="#0f654d"/>
          </g>
          <g id="Group_1189072" data-name="Group 1189072" transform="translate(3.16 4.391)">
            <g id="Group_1189071" data-name="Group 1189071">
              <path id="Path_1032599" data-name="Path 1032599" d="M9.967,18.856a2.243,2.243,0,0,1-1.56-.657L6.766,16.558a2.283,2.283,0,0,1,0-3.119,2.283,2.283,0,0,1,3.119,0l.082.082,2.955-2.955a2.206,2.206,0,0,1,3.119,3.119L11.526,18.2a2.243,2.243,0,0,1-1.56.657Zm-1.642-4.35a.627.627,0,0,0-.41.164.548.548,0,0,0,0,.821l1.642,1.642a.548.548,0,0,0,.821,0l4.515-4.515a.58.58,0,0,0-.821-.821l-3.53,3.53a.793.793,0,0,1-1.149,0l-.657-.657a.627.627,0,0,0-.41-.164Z" transform="translate(-6.15 -9.95)" fill="#0f654d"/>
            </g>
          </g>
        </g>
      </g>
    </g>
  </g>
</svg>
