<svg xmlns="http://www.w3.org/2000/svg" xmlns:xlink="http://www.w3.org/1999/xlink" width="396" height="740" viewBox="0 0 396 740">
  <defs>
    <clipPath id="clip-path">
      <rect id="Rectangle_458969" data-name="Rectangle 458969" width="70" height="91" transform="translate(289.711 1648)" fill="#ccf7f4"/>
    </clipPath>
  </defs>
  <g id="img9_1" transform="translate(5084 7439)">
    <rect id="Rectangle_458948" data-name="Rectangle 458948" width="396" height="740" transform="translate(-5084 -7439)" fill="#c0f6f2"/>
    <g id="Mask_Group_1178515" data-name="Mask Group 1178515" transform="translate(-5373.711 -9087)" clip-path="url(#clip-path)">
      <g id="Group_1188622" data-name="Group 1188622" transform="translate(270.144 1633.717)">
        <path id="Línea_3303" data-name="Línea 3303" d="M-2.27,34.025a1.067,1.067,0,0,1-.757-.313,1.07,1.07,0,0,1,0-1.514L32.2-3.027a1.07,1.07,0,0,1,1.514,0,1.07,1.07,0,0,1,0,1.514L-1.513,33.712A1.067,1.067,0,0,1-2.27,34.025Z" transform="translate(45.125 3.34)" fill="#19538d"/>
        <path id="Línea_3304" data-name="Línea 3304" d="M-4.539,32.826A2.134,2.134,0,0,1-6.053,32.2a2.141,2.141,0,0,1,0-3.027L29.172-6.053a2.141,2.141,0,0,1,3.027,0,2.141,2.141,0,0,1,0,3.027L-3.026,32.2A2.134,2.134,0,0,1-4.539,32.826Z" transform="translate(16.397 26.363)" fill="#19538d"/>
        <g id="Group_1188621" data-name="Group 1188621" transform="translate(0 46.337)">
          <path id="Trazado_998899" data-name="Trazado 998899" d="M26.241,518.181l-.755-.755L38.223,504.69a8.48,8.48,0,0,1,6-2.483,7.363,7.363,0,0,0,5.241-2.171l8.058-8.058.755.755-8.058,8.058a8.48,8.48,0,0,1-6,2.484,7.363,7.363,0,0,0-5.241,2.171Z" transform="translate(-25.486 -470.078)" fill="#fff"/>
          <path id="Path_1031623" data-name="Path 1031623" d="M190.713,478.176a1.818,1.818,0,1,0,0,2.571,1.818,1.818,0,0,0,0-2.571" transform="translate(-155.809 -458.395)" fill="#fff" fill-rule="evenodd"/>
          <path id="Trazado_998907" data-name="Trazado 998907" d="M17.21,329.071l-.755-.755,29.69-29.69a7.363,7.363,0,0,0,2.171-5.241v-5.092a8.479,8.479,0,0,1,2.484-6l4.761-4.761.755.755-4.761,4.761a7.363,7.363,0,0,0-2.171,5.241v5.092a8.48,8.48,0,0,1-2.483,6Z" transform="translate(-2.836 -276.035)" fill="#fff"/>
          <path id="Path_1031624" data-name="Path 1031624" d="M211.211,270.439a1.818,1.818,0,1,1-2.571,0,1.818,1.818,0,0,1,2.571,0" transform="translate(-156.922 -269.747)" fill="#fff" fill-rule="evenodd"/>
          <path id="Trazado_998908_-_Contorno" data-name="Trazado 998908 - Contorno" d="M209.588,273.363a1.978,1.978,0,1,1,1.4-.579A1.965,1.965,0,0,1,209.588,273.363Zm0-3.636a1.658,1.658,0,1,0,1.172.486A1.647,1.647,0,0,0,209.588,269.727Z" transform="translate(-156.585 -269.407)" fill="#fff"/>
        </g>
      </g>
    </g>
    <path id="Path_1033288" data-name="Path 1033288" d="M-140.458-4.342V0h-3.085V-12.8h5.106a5.948,5.948,0,0,1,2.6.541,4.074,4.074,0,0,1,1.749,1.538,4.2,4.2,0,0,1,.62,2.263,3.7,3.7,0,0,1-1.34,2.993,5.561,5.561,0,0,1-3.678,1.121Zm0-2.382h2.021a1.906,1.906,0,0,0,1.367-.448,1.665,1.665,0,0,0,.47-1.266,2.059,2.059,0,0,0-.483-1.433,1.712,1.712,0,0,0-1.318-.545h-2.057Zm14.292-.105-.976-.07a1.752,1.752,0,0,0-1.793.879V0H-131.9V-9.51h2.777l.1,1.222a2.294,2.294,0,0,1,2.083-1.4,2.888,2.888,0,0,1,.826.105Zm.423,1.986a5.613,5.613,0,0,1,.554-2.536A3.96,3.96,0,0,1-123.6-9.088a4.791,4.791,0,0,1,2.435-.6A4.373,4.373,0,0,1-117.8-8.363a5.076,5.076,0,0,1,1.23,3.6v.105A4.925,4.925,0,0,1-117.8-1.129,4.384,4.384,0,0,1-121.147.176a4.434,4.434,0,0,1-3.261-1.217,4.761,4.761,0,0,1-1.327-3.3Zm2.962.185a3.538,3.538,0,0,0,.413,1.934,1.376,1.376,0,0,0,1.222.615q1.582,0,1.617-2.435v-.3q0-2.558-1.635-2.558-1.485,0-1.608,2.206ZM-111.2-2.109a1.317,1.317,0,0,0,.967-.338,1.241,1.241,0,0,0,.334-.945h2.777a3.288,3.288,0,0,1-1.121,2.566,4.168,4.168,0,0,1-2.887,1,4.22,4.22,0,0,1-3.27-1.3,5.125,5.125,0,0,1-1.2-3.6v-.123a5.792,5.792,0,0,1,.532-2.544,3.872,3.872,0,0,1,1.534-1.7,4.573,4.573,0,0,1,2.373-.593,4.116,4.116,0,0,1,2.944,1.028,3.647,3.647,0,0,1,1.09,2.786H-109.9A1.626,1.626,0,0,0-110.256-7a1.244,1.244,0,0,0-.967-.4q-1.151,0-1.345,1.468a10.357,10.357,0,0,0-.062,1.283,4.068,4.068,0,0,0,.343,1.986A1.187,1.187,0,0,0-111.2-2.109ZM-101.22.176a4.889,4.889,0,0,1-3.542-1.305,4.507,4.507,0,0,1-1.354-3.4v-.246a5.84,5.84,0,0,1,.541-2.575A3.955,3.955,0,0,1-104-9.075a4.763,4.763,0,0,1,2.461-.611,4.117,4.117,0,0,1,3.164,1.244,4.887,4.887,0,0,1,1.16,3.467v1.151H-103.1a2.135,2.135,0,0,0,.694,1.257,2.066,2.066,0,0,0,1.389.457,2.662,2.662,0,0,0,2.2-.984l1.354,1.6A3.784,3.784,0,0,1-99.036-.277,5.3,5.3,0,0,1-101.22.176Zm-.334-7.576q-1.3,0-1.547,1.723h2.988v-.229a1.467,1.467,0,0,0-.36-1.1A1.434,1.434,0,0,0-101.554-7.4ZM-91-2.672a.684.684,0,0,0-.4-.606,6.016,6.016,0,0,0-1.5-.475A6.853,6.853,0,0,1-94.724-4.4a3.062,3.062,0,0,1-1.1-.971A2.319,2.319,0,0,1-96.2-6.68a2.628,2.628,0,0,1,1.081-2.158,4.453,4.453,0,0,1,2.83-.848,4.934,4.934,0,0,1,3.023.853,2.666,2.666,0,0,1,1.143,2.241h-2.971q0-1.143-1.2-1.143a1.194,1.194,0,0,0-.782.259.8.8,0,0,0-.316.646.737.737,0,0,0,.387.642,3.654,3.654,0,0,0,1.235.4,10.671,10.671,0,0,1,1.49.378A2.706,2.706,0,0,1-88.141-2.76,2.491,2.491,0,0,1-89.3-.642a5.068,5.068,0,0,1-2.993.817,5.172,5.172,0,0,1-2.18-.439,3.645,3.645,0,0,1-1.494-1.2A2.707,2.707,0,0,1-96.5-3.05h2.769a1.145,1.145,0,0,0,.439.962,1.808,1.808,0,0,0,1.081.3,1.422,1.422,0,0,0,.91-.246A.787.787,0,0,0-91-2.672Zm3.912-2.171a5.613,5.613,0,0,1,.554-2.536A3.96,3.96,0,0,1-84.94-9.088a4.791,4.791,0,0,1,2.435-.6A4.373,4.373,0,0,1-79.14-8.363a5.076,5.076,0,0,1,1.23,3.6v.105a4.925,4.925,0,0,1-1.235,3.529A4.384,4.384,0,0,1-82.488.176a4.434,4.434,0,0,1-3.261-1.217,4.761,4.761,0,0,1-1.327-3.3Zm2.962.185a3.538,3.538,0,0,0,.413,1.934,1.376,1.376,0,0,0,1.222.615q1.582,0,1.617-2.435v-.3q0-2.558-1.635-2.558-1.485,0-1.608,2.206Zm11.718-.167a5.809,5.809,0,0,1,.976-3.56,3.211,3.211,0,0,1,2.725-1.3,2.731,2.731,0,0,1,2.145,1V-13.5h2.971V0h-2.663L-66.4-1.02a2.8,2.8,0,0,1-2.32,1.2,3.205,3.205,0,0,1-2.689-1.3A5.993,5.993,0,0,1-72.405-4.825Zm2.962.185q0,2.531,1.477,2.531a1.458,1.458,0,0,0,1.406-.826V-6.557A1.419,1.419,0,0,0-67.949-7.4q-1.371,0-1.485,2.215ZM-57.26.176A4.889,4.889,0,0,1-60.8-1.129a4.507,4.507,0,0,1-1.354-3.4v-.246a5.84,5.84,0,0,1,.541-2.575,3.955,3.955,0,0,1,1.578-1.727,4.763,4.763,0,0,1,2.461-.611,4.117,4.117,0,0,1,3.164,1.244,4.887,4.887,0,0,1,1.16,3.467v1.151h-5.889a2.135,2.135,0,0,0,.694,1.257,2.066,2.066,0,0,0,1.389.457,2.662,2.662,0,0,0,2.2-.984l1.354,1.6A3.784,3.784,0,0,1-55.076-.277,5.3,5.3,0,0,1-57.26.176ZM-57.594-7.4q-1.3,0-1.547,1.723h2.988v-.229a1.467,1.467,0,0,0-.36-1.1A1.434,1.434,0,0,0-57.594-7.4ZM-44.365,0h-2.971V-9.51h2.971Zm-3.146-11.962A1.322,1.322,0,0,1-47.054-13a1.724,1.724,0,0,1,1.187-.4,1.724,1.724,0,0,1,1.187.4,1.322,1.322,0,0,1,.457,1.037,1.322,1.322,0,0,1-.457,1.037,1.724,1.724,0,0,1-1.187.4,1.724,1.724,0,0,1-1.187-.4A1.322,1.322,0,0,1-47.511-11.962Zm7.735,2.452.1,1.116a3.225,3.225,0,0,1,2.716-1.292,2.713,2.713,0,0,1,2.219.888,4.226,4.226,0,0,1,.76,2.672V0h-2.971V-6a1.6,1.6,0,0,0-.29-1.059A1.342,1.342,0,0,0-38.3-7.4a1.413,1.413,0,0,0-1.292.686V0h-2.962V-9.51Zm7.129,4.685a6.421,6.421,0,0,1,.475-2.549A3.821,3.821,0,0,1-30.81-9.083a3.591,3.591,0,0,1,2.065-.6,2.855,2.855,0,0,1,2.32,1l.105-.826h2.689V-.36a4.009,4.009,0,0,1-.584,2.184,3.75,3.75,0,0,1-1.692,1.424,6.219,6.219,0,0,1-2.566.5,5.365,5.365,0,0,1-2.026-.4A3.657,3.657,0,0,1-32,2.32L-30.757.58a2.716,2.716,0,0,0,2.18.976A1.764,1.764,0,0,0-26.609-.466v-.3a2.781,2.781,0,0,1-2.153.94,3.437,3.437,0,0,1-2.812-1.332A5.517,5.517,0,0,1-32.647-4.72Zm2.971.185a3.383,3.383,0,0,0,.439,1.85,1.386,1.386,0,0,0,1.23.681,1.573,1.573,0,0,0,1.4-.642v-4a1.534,1.534,0,0,0-1.38-.65,1.4,1.4,0,0,0-1.239.708A3.858,3.858,0,0,0-29.676-4.641ZM-17.3.176a4.889,4.889,0,0,1-3.542-1.305,4.507,4.507,0,0,1-1.354-3.4v-.246a5.84,5.84,0,0,1,.541-2.575,3.955,3.955,0,0,1,1.578-1.727,4.763,4.763,0,0,1,2.461-.611,4.117,4.117,0,0,1,3.164,1.244,4.887,4.887,0,0,1,1.16,3.467v1.151h-5.889a2.135,2.135,0,0,0,.694,1.257,2.066,2.066,0,0,0,1.389.457,2.662,2.662,0,0,0,2.2-.984l1.354,1.6A3.784,3.784,0,0,1-15.116-.277,5.3,5.3,0,0,1-17.3.176ZM-17.634-7.4q-1.3,0-1.547,1.723h2.988v-.229a1.467,1.467,0,0,0-.36-1.1A1.434,1.434,0,0,0-17.634-7.4Zm8.3-2.109.1,1.116A3.225,3.225,0,0,1-6.524-9.686,2.713,2.713,0,0,1-4.3-8.8a4.226,4.226,0,0,1,.76,2.672V0H-6.515V-6A1.6,1.6,0,0,0-6.8-7.062,1.342,1.342,0,0,0-7.86-7.4a1.413,1.413,0,0,0-1.292.686V0h-2.962V-9.51ZM1.265,0H-1.706V-9.51H1.265ZM-1.882-11.962A1.322,1.322,0,0,1-1.425-13a1.724,1.724,0,0,1,1.187-.4A1.724,1.724,0,0,1,.948-13a1.322,1.322,0,0,1,.457,1.037,1.322,1.322,0,0,1-.457,1.037,1.724,1.724,0,0,1-1.187.4,1.724,1.724,0,0,1-1.187-.4A1.322,1.322,0,0,1-1.882-11.962ZM7.734.176A4.889,4.889,0,0,1,4.192-1.129a4.507,4.507,0,0,1-1.354-3.4v-.246a5.84,5.84,0,0,1,.541-2.575A3.955,3.955,0,0,1,4.957-9.075a4.763,4.763,0,0,1,2.461-.611,4.117,4.117,0,0,1,3.164,1.244,4.887,4.887,0,0,1,1.16,3.467v1.151H5.854a2.135,2.135,0,0,0,.694,1.257,2.066,2.066,0,0,0,1.389.457,2.662,2.662,0,0,0,2.2-.984l1.354,1.6A3.784,3.784,0,0,1,9.918-.277,5.3,5.3,0,0,1,7.734.176ZM7.4-7.4q-1.3,0-1.547,1.723H8.842v-.229a1.467,1.467,0,0,0-.36-1.1A1.434,1.434,0,0,0,7.4-7.4Zm11.33.571-.976-.07a1.752,1.752,0,0,0-1.793.879V0H13V-9.51h2.777l.1,1.222a2.294,2.294,0,0,1,2.083-1.4,2.888,2.888,0,0,1,.826.105ZM23.073,0H20.094V-9.51h2.979ZM21.966-13.324h3.129l-2.443,2.76-2.417,0ZM30.378,0A3.344,3.344,0,0,1,30.1-.853,2.754,2.754,0,0,1,27.812.176a3.374,3.374,0,0,1-2.285-.813,2.588,2.588,0,0,1-.94-2.043,2.66,2.66,0,0,1,1.143-2.338,5.821,5.821,0,0,1,3.322-.791h.914v-.5q0-1.316-1.134-1.316a.927.927,0,0,0-1.055,1.042H24.815a2.655,2.655,0,0,1,1.173-2.239,4.931,4.931,0,0,1,2.993-.86,4.323,4.323,0,0,1,2.874.888,3.086,3.086,0,0,1,1.081,2.435v4.21a4.311,4.311,0,0,0,.4,2V0ZM28.524-1.934a1.652,1.652,0,0,0,.918-.237,1.487,1.487,0,0,0,.523-.536V-4.228H29.1q-1.547,0-1.547,1.389a.848.848,0,0,0,.272.655A.986.986,0,0,0,28.524-1.934Zm10.25-2.892a5.809,5.809,0,0,1,.976-3.56,3.211,3.211,0,0,1,2.725-1.3,2.731,2.731,0,0,1,2.145,1V-13.5h2.971V0H44.926l-.149-1.02a2.8,2.8,0,0,1-2.32,1.2,3.205,3.205,0,0,1-2.689-1.3A5.993,5.993,0,0,1,38.774-4.825Zm2.962.185q0,2.531,1.477,2.531a1.458,1.458,0,0,0,1.406-.826V-6.557A1.419,1.419,0,0,0,43.23-7.4q-1.371,0-1.485,2.215ZM53.918.176a4.889,4.889,0,0,1-3.542-1.305,4.507,4.507,0,0,1-1.354-3.4v-.246a5.84,5.84,0,0,1,.541-2.575,3.955,3.955,0,0,1,1.578-1.727A4.763,4.763,0,0,1,53.6-9.686a4.117,4.117,0,0,1,3.164,1.244,4.887,4.887,0,0,1,1.16,3.467v1.151H52.038a2.135,2.135,0,0,0,.694,1.257,2.066,2.066,0,0,0,1.389.457,2.662,2.662,0,0,0,2.2-.984l1.354,1.6A3.784,3.784,0,0,1,56.1-.277,5.3,5.3,0,0,1,53.918.176ZM53.584-7.4q-1.3,0-1.547,1.723h2.988v-.229a1.467,1.467,0,0,0-.36-1.1A1.434,1.434,0,0,0,53.584-7.4Zm15.858.571-.976-.07a1.752,1.752,0,0,0-1.793.879V0H63.712V-9.51h2.777l.1,1.222a2.294,2.294,0,0,1,2.083-1.4,2.888,2.888,0,0,1,.826.105Zm5.714,7a4.889,4.889,0,0,1-3.542-1.305,4.507,4.507,0,0,1-1.354-3.4v-.246A5.84,5.84,0,0,1,70.8-7.348a3.955,3.955,0,0,1,1.578-1.727,4.763,4.763,0,0,1,2.461-.611A4.117,4.117,0,0,1,78-8.442a4.887,4.887,0,0,1,1.16,3.467v1.151H73.275a2.135,2.135,0,0,0,.694,1.257,2.066,2.066,0,0,0,1.389.457,2.662,2.662,0,0,0,2.2-.984l1.354,1.6A3.784,3.784,0,0,1,77.34-.277,5.3,5.3,0,0,1,75.156.176ZM74.822-7.4q-1.3,0-1.547,1.723h2.988v-.229a1.467,1.467,0,0,0-.36-1.1A1.434,1.434,0,0,0,74.822-7.4Zm5.2,2.549A5.709,5.709,0,0,1,81.011-8.4a3.233,3.233,0,0,1,2.716-1.283,2.761,2.761,0,0,1,2.338,1.2l.211-1.02h2.566V3.656H85.871V-.791a2.757,2.757,0,0,1-2.162.967,3.2,3.2,0,0,1-2.685-1.305A6.027,6.027,0,0,1,80.026-4.852Zm2.962.185q0,2.558,1.477,2.558a1.43,1.43,0,0,0,1.406-.773V-6.645A1.4,1.4,0,0,0,84.482-7.4Q83.1-7.4,83-5.194ZM96.225-1.028a3.054,3.054,0,0,1-2.54,1.2,3,3,0,0,1-2.369-.91,3.826,3.826,0,0,1-.8-2.615V-9.51h2.962v6.179a1.065,1.065,0,0,0,1.187,1.222,1.548,1.548,0,0,0,1.45-.729V-9.51h2.979V0H96.313ZM103.882,0h-2.971V-9.51h2.971Zm-3.146-11.962A1.322,1.322,0,0,1,101.192-13a1.724,1.724,0,0,1,1.187-.4,1.724,1.724,0,0,1,1.187.4,1.322,1.322,0,0,1,.457,1.037,1.322,1.322,0,0,1-.457,1.037,1.724,1.724,0,0,1-1.187.4,1.724,1.724,0,0,1-1.187-.4A1.322,1.322,0,0,1,100.735-11.962Zm9.994,9.29a.684.684,0,0,0-.4-.606,6.016,6.016,0,0,0-1.5-.475A6.853,6.853,0,0,1,107-4.4a3.062,3.062,0,0,1-1.1-.971,2.319,2.319,0,0,1-.378-1.31,2.628,2.628,0,0,1,1.081-2.158,4.453,4.453,0,0,1,2.83-.848,4.934,4.934,0,0,1,3.023.853A2.666,2.666,0,0,1,113.6-6.592h-2.971q0-1.143-1.2-1.143a1.194,1.194,0,0,0-.782.259.8.8,0,0,0-.316.646.737.737,0,0,0,.387.642,3.654,3.654,0,0,0,1.235.4,10.671,10.671,0,0,1,1.49.378,2.706,2.706,0,0,1,2.145,2.646A2.491,2.491,0,0,1,112.43-.642a5.068,5.068,0,0,1-2.993.817,5.172,5.172,0,0,1-2.18-.439,3.645,3.645,0,0,1-1.494-1.2,2.707,2.707,0,0,1-.536-1.591H108a1.145,1.145,0,0,0,.439.962,1.808,1.808,0,0,0,1.081.3,1.422,1.422,0,0,0,.91-.246A.787.787,0,0,0,110.729-2.672ZM118.14,0h-2.971V-9.51h2.971Zm-3.146-11.962A1.322,1.322,0,0,1,115.45-13a1.724,1.724,0,0,1,1.187-.4,1.724,1.724,0,0,1,1.187.4,1.322,1.322,0,0,1,.457,1.037,1.322,1.322,0,0,1-.457,1.037,1.724,1.724,0,0,1-1.187.4,1.724,1.724,0,0,1-1.187-.4A1.322,1.322,0,0,1,114.993-11.962Zm8.465.088V-9.51h1.564v2.057h-1.564V-3.1a1.111,1.111,0,0,0,.193.747,1.037,1.037,0,0,0,.765.211,4.345,4.345,0,0,0,.738-.053V-.079a5.466,5.466,0,0,1-1.67.255,3.1,3.1,0,0,1-2.259-.721,2.954,2.954,0,0,1-.729-2.188v-4.72h-1.213V-9.51H120.5v-2.364Zm2.137,7.031a5.613,5.613,0,0,1,.554-2.536,3.96,3.96,0,0,1,1.591-1.709,4.791,4.791,0,0,1,2.435-.6,4.373,4.373,0,0,1,3.366,1.323,5.076,5.076,0,0,1,1.23,3.6v.105a4.925,4.925,0,0,1-1.235,3.529A4.384,4.384,0,0,1,130.192.176a4.434,4.434,0,0,1-3.261-1.217,4.761,4.761,0,0,1-1.327-3.3Zm2.962.185a3.538,3.538,0,0,0,.413,1.934,1.376,1.376,0,0,0,1.222.615q1.582,0,1.617-2.435v-.3q0-2.558-1.635-2.558-1.485,0-1.608,2.206ZM141.1-2.672a.684.684,0,0,0-.4-.606,6.016,6.016,0,0,0-1.5-.475,6.853,6.853,0,0,1-1.828-.646,3.062,3.062,0,0,1-1.1-.971,2.319,2.319,0,0,1-.378-1.31,2.628,2.628,0,0,1,1.081-2.158,4.453,4.453,0,0,1,2.83-.848,4.934,4.934,0,0,1,3.023.853,2.666,2.666,0,0,1,1.143,2.241H141q0-1.143-1.2-1.143a1.194,1.194,0,0,0-.782.259.8.8,0,0,0-.316.646.737.737,0,0,0,.387.642,3.654,3.654,0,0,0,1.235.4,10.671,10.671,0,0,1,1.49.378,2.706,2.706,0,0,1,2.145,2.646A2.491,2.491,0,0,1,142.8-.642a5.068,5.068,0,0,1-2.993.817,5.172,5.172,0,0,1-2.18-.439,3.645,3.645,0,0,1-1.494-1.2A2.707,2.707,0,0,1,135.6-3.05h2.769a1.145,1.145,0,0,0,.439.962,1.808,1.808,0,0,0,1.081.3,1.422,1.422,0,0,0,.91-.246A.787.787,0,0,0,141.1-2.672Z" transform="translate(-4886 -7388)" fill="#12263f"/>
    <rect id="Rectangle_458968" data-name="Rectangle 458968" width="292" height="3" transform="translate(-5032 -7371)" fill="#82c0ff"/>
    <g id="Rectangle_458978" data-name="Rectangle 458978" transform="translate(-5057 -7338)" fill="#e1ffe9" stroke="#1e75cc" stroke-width="2" stroke-dasharray="4">
      <rect width="138" height="142" stroke="none"/>
      <rect x="1" y="1" width="136" height="140" fill="none"/>
    </g>
    <g id="Rectangle_458974" data-name="Rectangle 458974" transform="translate(-4853 -7338)" fill="#e1ffe9" stroke="#1e75cc" stroke-width="2" stroke-dasharray="4">
      <rect width="138" height="142" stroke="none"/>
      <rect x="1" y="1" width="136" height="140" fill="none"/>
    </g>
    <g id="Rectangle_458975" data-name="Rectangle 458975" transform="translate(-4853 -7136)" fill="#e1ffe9" stroke="#1e75cc" stroke-width="2" stroke-dasharray="4">
      <rect width="138" height="142" stroke="none"/>
      <rect x="1" y="1" width="136" height="140" fill="none"/>
    </g>
    <g id="Rectangle_458970" data-name="Rectangle 458970" transform="translate(-5057 -6934)" fill="#e1ffe9" stroke="#1e75cc" stroke-width="2" stroke-dasharray="4">
      <rect width="138" height="142" stroke="none"/>
      <rect x="1" y="1" width="136" height="140" fill="none"/>
    </g>
    <g id="Rectangle_458971" data-name="Rectangle 458971" transform="translate(-4853 -6934)" fill="#e1ffe9" stroke="#1e75cc" stroke-width="2" stroke-dasharray="4">
      <rect width="138" height="142" stroke="none"/>
      <rect x="1" y="1" width="136" height="140" fill="none"/>
    </g>
    <path id="Path_1033292" data-name="Path 1033292" d="M14.553,12.414H9.315V16.7H15.4V18H7.722V5.914h7.6v1.3h-6V11.11h5.238Zm4.085-3.4.05,1.129a3.273,3.273,0,0,1,2.689-1.295q2.847,0,2.872,3.212V18H22.714V12.057a2.068,2.068,0,0,0-.444-1.436,1.78,1.78,0,0,0-1.357-.465,2.216,2.216,0,0,0-1.312.4,2.706,2.706,0,0,0-.88,1.046V18H17.185V9.019ZM28.691,6.844V9.019h1.677v1.187H28.691v5.577a1.247,1.247,0,0,0,.224.81.943.943,0,0,0,.764.27,3.718,3.718,0,0,0,.73-.1V18a4.478,4.478,0,0,1-1.179.165,1.912,1.912,0,0,1-1.552-.623,2.675,2.675,0,0,1-.523-1.768v-5.57H25.52V9.019h1.635V6.844ZM36.545,10.4a4.6,4.6,0,0,0-.755-.058,2.024,2.024,0,0,0-2.05,1.287V18H32.2V9.019H33.7l.025,1.038a2.391,2.391,0,0,1,2.142-1.2,1.569,1.569,0,0,1,.681.116Zm5.181,7.77a3.924,3.924,0,0,1-2.972-1.2,4.452,4.452,0,0,1-1.146-3.208v-.282a5.39,5.39,0,0,1,.51-2.386,3.982,3.982,0,0,1,1.428-1.644,3.59,3.59,0,0,1,1.988-.594,3.364,3.364,0,0,1,2.723,1.154,5,5,0,0,1,.971,3.3v.639H39.144a3.193,3.193,0,0,0,.776,2.146,2.44,2.44,0,0,0,1.888.818,2.675,2.675,0,0,0,1.378-.332,3.462,3.462,0,0,0,.988-.88l.938.73A3.772,3.772,0,0,1,41.726,18.166Zm-.191-8.052a2.048,2.048,0,0,0-1.561.677,3.288,3.288,0,0,0-.78,1.9h4.5v-.116a2.925,2.925,0,0,0-.631-1.814A1.928,1.928,0,0,0,41.535,10.114Zm8.368,5.8,2.225-6.9H53.7L50.476,18h-1.17L46.051,9.019H47.62ZM56.885,18H55.349V9.019h1.536ZM55.225,6.636a.917.917,0,0,1,.228-.631.857.857,0,0,1,.677-.257.87.87,0,0,1,.681.257.907.907,0,0,1,.232.631.877.877,0,0,1-.232.623.886.886,0,0,1-.681.249.872.872,0,0,1-.677-.249A.886.886,0,0,1,55.225,6.636Zm9.389,8.981a1.131,1.131,0,0,0-.469-.967,4.514,4.514,0,0,0-1.635-.594,7.731,7.731,0,0,1-1.851-.6,2.633,2.633,0,0,1-1.013-.83,1.986,1.986,0,0,1-.328-1.146,2.33,2.33,0,0,1,.934-1.868,3.647,3.647,0,0,1,2.386-.764,3.753,3.753,0,0,1,2.478.789,2.5,2.5,0,0,1,.95,2.017H64.522a1.386,1.386,0,0,0-.535-1.087,2.006,2.006,0,0,0-1.349-.457,2.1,2.1,0,0,0-1.312.365,1.15,1.15,0,0,0-.473.955.932.932,0,0,0,.44.838,5.413,5.413,0,0,0,1.59.54,8.283,8.283,0,0,1,1.864.614,2.718,2.718,0,0,1,1.058.859,2.112,2.112,0,0,1,.344,1.224,2.3,2.3,0,0,1-.963,1.93,4.039,4.039,0,0,1-2.5.726,4.523,4.523,0,0,1-1.909-.382,3.105,3.105,0,0,1-1.3-1.067,2.571,2.571,0,0,1-.469-1.482h1.536a1.59,1.59,0,0,0,.618,1.224,2.4,2.4,0,0,0,1.523.452,2.476,2.476,0,0,0,1.4-.353A1.084,1.084,0,0,0,64.614,15.618Zm5.662-8.774V9.019h1.677v1.187H70.276v5.577a1.247,1.247,0,0,0,.224.81.943.943,0,0,0,.764.27,3.718,3.718,0,0,0,.73-.1V18a4.478,4.478,0,0,1-1.179.165,1.912,1.912,0,0,1-1.552-.623,2.675,2.675,0,0,1-.523-1.768v-5.57H67.105V9.019H68.74V6.844ZM79.333,18a3.226,3.226,0,0,1-.216-.946,3.426,3.426,0,0,1-2.557,1.112,3.17,3.17,0,0,1-2.179-.751,2.43,2.43,0,0,1-.851-1.905A2.539,2.539,0,0,1,74.6,13.331a5.029,5.029,0,0,1,3-.776h1.494v-.706a1.725,1.725,0,0,0-.481-1.282,1.935,1.935,0,0,0-1.419-.477,2.239,2.239,0,0,0-1.378.415,1.223,1.223,0,0,0-.556,1H73.713a2.119,2.119,0,0,1,.477-1.3,3.258,3.258,0,0,1,1.295-.992,4.356,4.356,0,0,1,1.8-.365,3.551,3.551,0,0,1,2.432.776,2.8,2.8,0,0,1,.913,2.137V15.9a5.054,5.054,0,0,0,.315,1.967V18Zm-2.548-1.17a2.7,2.7,0,0,0,1.37-.374,2.259,2.259,0,0,0,.938-.971V13.642h-1.2q-2.822,0-2.822,1.652a1.4,1.4,0,0,0,.481,1.129A1.85,1.85,0,0,0,76.785,16.83Zm11.522-1.212a1.131,1.131,0,0,0-.469-.967,4.514,4.514,0,0,0-1.635-.594,7.731,7.731,0,0,1-1.851-.6,2.633,2.633,0,0,1-1.013-.83,1.986,1.986,0,0,1-.328-1.146,2.33,2.33,0,0,1,.934-1.868,3.647,3.647,0,0,1,2.386-.764,3.753,3.753,0,0,1,2.478.789,2.5,2.5,0,0,1,.95,2.017H88.216a1.386,1.386,0,0,0-.535-1.087,2.006,2.006,0,0,0-1.349-.457,2.1,2.1,0,0,0-1.312.365,1.15,1.15,0,0,0-.473.955.932.932,0,0,0,.44.838,5.413,5.413,0,0,0,1.59.54,8.283,8.283,0,0,1,1.864.614,2.718,2.718,0,0,1,1.058.859,2.112,2.112,0,0,1,.344,1.224,2.3,2.3,0,0,1-.963,1.93,4.039,4.039,0,0,1-2.5.726,4.523,4.523,0,0,1-1.909-.382,3.105,3.105,0,0,1-1.3-1.067,2.571,2.571,0,0,1-.469-1.482H84.24a1.59,1.59,0,0,0,.618,1.224,2.4,2.4,0,0,0,1.523.452,2.476,2.476,0,0,0,1.4-.353A1.084,1.084,0,0,0,88.307,15.618Zm-71.068,20.8H12V40.7h6.084V42H10.408V29.914H18v1.3H12V35.11h5.238Zm4.085-3.4.05,1.129a3.273,3.273,0,0,1,2.689-1.295q2.847,0,2.872,3.212V42H25.4V36.057a2.068,2.068,0,0,0-.444-1.436,1.78,1.78,0,0,0-1.357-.465,2.216,2.216,0,0,0-1.312.4,2.706,2.706,0,0,0-.88,1.046V42H19.872V33.019ZM32.9,40.913a2.212,2.212,0,0,0,1.436-.5,1.752,1.752,0,0,0,.681-1.245h1.453a2.785,2.785,0,0,1-.531,1.469,3.5,3.5,0,0,1-1.307,1.112,3.772,3.772,0,0,1-1.731.415,3.7,3.7,0,0,1-2.918-1.224A4.877,4.877,0,0,1,28.9,37.592v-.257A5.407,5.407,0,0,1,29.377,35a3.667,3.667,0,0,1,1.382-1.585,3.926,3.926,0,0,1,2.129-.564,3.6,3.6,0,0,1,2.511.9,3.234,3.234,0,0,1,1.067,2.349H35.013a2.116,2.116,0,0,0-.66-1.432,2.053,2.053,0,0,0-1.465-.56,2.149,2.149,0,0,0-1.814.843,3.957,3.957,0,0,0-.643,2.436v.291a3.878,3.878,0,0,0,.639,2.391A2.16,2.16,0,0,0,32.9,40.913Zm10.883.2a3.262,3.262,0,0,1-2.631,1.054,2.792,2.792,0,0,1-2.187-.834,3.611,3.611,0,0,1-.76-2.469V33.019h1.536v5.8q0,2.042,1.66,2.042a2.3,2.3,0,0,0,2.341-1.312V33.019h1.536V42H43.813Zm7.6,1.054a3.924,3.924,0,0,1-2.972-1.2,4.452,4.452,0,0,1-1.146-3.208v-.282a5.39,5.39,0,0,1,.51-2.386A3.982,3.982,0,0,1,49.2,33.446a3.59,3.59,0,0,1,1.988-.594,3.364,3.364,0,0,1,2.723,1.154,5,5,0,0,1,.971,3.3v.639H48.795a3.193,3.193,0,0,0,.776,2.146,2.44,2.44,0,0,0,1.888.818,2.675,2.675,0,0,0,1.378-.332,3.462,3.462,0,0,0,.988-.88l.938.73A3.772,3.772,0,0,1,51.376,42.166Zm-.191-8.052a2.048,2.048,0,0,0-1.561.677,3.288,3.288,0,0,0-.78,1.9h4.5v-.116a2.925,2.925,0,0,0-.631-1.814A1.928,1.928,0,0,0,51.185,34.114Zm10.742,5.5a1.13,1.13,0,0,0-.469-.967,4.514,4.514,0,0,0-1.635-.594,7.731,7.731,0,0,1-1.851-.6,2.633,2.633,0,0,1-1.013-.83,1.986,1.986,0,0,1-.328-1.146,2.33,2.33,0,0,1,.934-1.868,3.647,3.647,0,0,1,2.386-.764,3.753,3.753,0,0,1,2.478.789,2.5,2.5,0,0,1,.95,2.017H61.836a1.386,1.386,0,0,0-.535-1.087,2.006,2.006,0,0,0-1.349-.457,2.1,2.1,0,0,0-1.312.365,1.15,1.15,0,0,0-.473.955.932.932,0,0,0,.44.838,5.413,5.413,0,0,0,1.59.54,8.283,8.283,0,0,1,1.864.614,2.718,2.718,0,0,1,1.058.859,2.112,2.112,0,0,1,.344,1.224,2.3,2.3,0,0,1-.963,1.93,4.039,4.039,0,0,1-2.5.726,4.523,4.523,0,0,1-1.909-.382,3.105,3.105,0,0,1-1.3-1.067,2.571,2.571,0,0,1-.469-1.482H57.86a1.59,1.59,0,0,0,.618,1.224A2.4,2.4,0,0,0,60,40.913a2.476,2.476,0,0,0,1.4-.353A1.084,1.084,0,0,0,61.928,39.618Zm5.662-8.774v2.175h1.677v1.187H67.59v5.577a1.247,1.247,0,0,0,.224.81.943.943,0,0,0,.764.27,3.718,3.718,0,0,0,.73-.1V42a4.478,4.478,0,0,1-1.179.165,1.912,1.912,0,0,1-1.552-.623,2.675,2.675,0,0,1-.523-1.768v-5.57H64.419V33.019h1.635V30.844ZM76.647,42a3.226,3.226,0,0,1-.216-.946,3.426,3.426,0,0,1-2.557,1.112,3.17,3.17,0,0,1-2.179-.751,2.43,2.43,0,0,1-.851-1.905,2.539,2.539,0,0,1,1.067-2.179,5.029,5.029,0,0,1,3-.776h1.494v-.706a1.725,1.725,0,0,0-.481-1.282,1.935,1.935,0,0,0-1.419-.477,2.239,2.239,0,0,0-1.378.415,1.223,1.223,0,0,0-.556,1H71.027a2.119,2.119,0,0,1,.477-1.3,3.258,3.258,0,0,1,1.295-.992,4.356,4.356,0,0,1,1.8-.365,3.551,3.551,0,0,1,2.432.776,2.8,2.8,0,0,1,.913,2.137V39.9a5.054,5.054,0,0,0,.315,1.967V42ZM74.1,40.83a2.7,2.7,0,0,0,1.37-.374,2.259,2.259,0,0,0,.938-.971V37.642H75.2q-2.822,0-2.822,1.652a1.4,1.4,0,0,0,.481,1.129A1.85,1.85,0,0,0,74.1,40.83Zm11.522-1.212a1.131,1.131,0,0,0-.469-.967,4.514,4.514,0,0,0-1.635-.594,7.731,7.731,0,0,1-1.851-.6,2.633,2.633,0,0,1-1.013-.83,1.986,1.986,0,0,1-.328-1.146,2.33,2.33,0,0,1,.934-1.868,3.647,3.647,0,0,1,2.386-.764,3.753,3.753,0,0,1,2.478.789,2.5,2.5,0,0,1,.95,2.017H85.53a1.386,1.386,0,0,0-.535-1.087,2.006,2.006,0,0,0-1.349-.457,2.1,2.1,0,0,0-1.312.365,1.15,1.15,0,0,0-.473.955.932.932,0,0,0,.44.838,5.413,5.413,0,0,0,1.59.54,8.283,8.283,0,0,1,1.864.614,2.718,2.718,0,0,1,1.058.859,2.112,2.112,0,0,1,.344,1.224,2.3,2.3,0,0,1-.963,1.93,4.039,4.039,0,0,1-2.5.726,4.523,4.523,0,0,1-1.909-.382,3.105,3.105,0,0,1-1.3-1.067,2.571,2.571,0,0,1-.469-1.482h1.536a1.59,1.59,0,0,0,.618,1.224,2.4,2.4,0,0,0,1.523.452,2.476,2.476,0,0,0,1.4-.353A1.084,1.084,0,0,0,85.621,39.618ZM11.81,60.347a7.476,7.476,0,0,1-.6,3.1,4.527,4.527,0,0,1-1.693,2.021,4.659,4.659,0,0,1-2.557.7,4.619,4.619,0,0,1-2.532-.7,4.635,4.635,0,0,1-1.714-2,7.174,7.174,0,0,1-.627-3.009v-.872A7.388,7.388,0,0,1,2.7,56.5,4.619,4.619,0,0,1,4.41,54.458a4.6,4.6,0,0,1,2.536-.71,4.685,4.685,0,0,1,2.561.7,4.519,4.519,0,0,1,1.706,2.034,7.513,7.513,0,0,1,.6,3.1Zm-1.585-.78a5.419,5.419,0,0,0-.863-3.3,2.847,2.847,0,0,0-2.416-1.15,2.817,2.817,0,0,0-2.378,1.15,5.308,5.308,0,0,0-.892,3.192v.888a5.427,5.427,0,0,0,.876,3.275,2.829,2.829,0,0,0,2.411,1.191,2.817,2.817,0,0,0,2.391-1.125,5.4,5.4,0,0,0,.872-3.225Zm11.381,2.042a5.34,5.34,0,0,1-.946,3.308,3.024,3.024,0,0,1-2.54,1.249,3.131,3.131,0,0,1-2.631-1.2L15.413,66H14V53.25h1.536v4.756A3.113,3.113,0,0,1,18.1,56.853a3.042,3.042,0,0,1,2.569,1.237,5.5,5.5,0,0,1,.934,3.387Zm-1.536-.174a4.15,4.15,0,0,0-.606-2.424,2.006,2.006,0,0,0-1.743-.855,2.255,2.255,0,0,0-2.183,1.411v3.885a2.318,2.318,0,0,0,2.2,1.411,2,2,0,0,0,1.718-.855A4.413,4.413,0,0,0,20.07,61.435Zm8.742,2.183a1.131,1.131,0,0,0-.469-.967,4.514,4.514,0,0,0-1.635-.594,7.731,7.731,0,0,1-1.851-.6,2.633,2.633,0,0,1-1.013-.83,1.986,1.986,0,0,1-.328-1.146,2.33,2.33,0,0,1,.934-1.868,3.647,3.647,0,0,1,2.386-.764,3.753,3.753,0,0,1,2.478.789,2.5,2.5,0,0,1,.95,2.017H28.72a1.386,1.386,0,0,0-.535-1.087,2.006,2.006,0,0,0-1.349-.457,2.1,2.1,0,0,0-1.312.365,1.15,1.15,0,0,0-.473.955.932.932,0,0,0,.44.838,5.413,5.413,0,0,0,1.59.54,8.283,8.283,0,0,1,1.864.614A2.718,2.718,0,0,1,30,62.285a2.112,2.112,0,0,1,.344,1.224,2.3,2.3,0,0,1-.963,1.93,4.039,4.039,0,0,1-2.5.726,4.523,4.523,0,0,1-1.909-.382,3.105,3.105,0,0,1-1.3-1.067,2.571,2.571,0,0,1-.469-1.482h1.536a1.59,1.59,0,0,0,.618,1.224,2.4,2.4,0,0,0,1.523.452,2.476,2.476,0,0,0,1.4-.353A1.084,1.084,0,0,0,28.812,63.618Zm7.306,2.548a3.924,3.924,0,0,1-2.972-1.2A4.452,4.452,0,0,1,32,61.758v-.282a5.39,5.39,0,0,1,.51-2.386,3.982,3.982,0,0,1,1.428-1.644,3.59,3.59,0,0,1,1.988-.594,3.364,3.364,0,0,1,2.723,1.154,5,5,0,0,1,.971,3.3v.639H33.536a3.193,3.193,0,0,0,.776,2.146,2.44,2.44,0,0,0,1.888.818,2.675,2.675,0,0,0,1.378-.332,3.462,3.462,0,0,0,.988-.88l.938.73A3.772,3.772,0,0,1,36.117,66.166Zm-.191-8.052a2.048,2.048,0,0,0-1.561.677,3.288,3.288,0,0,0-.78,1.9h4.5v-.116a2.925,2.925,0,0,0-.631-1.814A1.928,1.928,0,0,0,35.926,58.114Zm9.854.282a4.6,4.6,0,0,0-.755-.058,2.024,2.024,0,0,0-2.05,1.287V66H41.439V57.019h1.494l.025,1.038a2.391,2.391,0,0,1,2.142-1.2,1.569,1.569,0,0,1,.681.116Zm4.566,5.52,2.225-6.9H54.14L50.92,66h-1.17L46.5,57.019h1.569ZM61.081,66a3.226,3.226,0,0,1-.216-.946,3.426,3.426,0,0,1-2.557,1.112,3.17,3.17,0,0,1-2.179-.751,2.43,2.43,0,0,1-.851-1.905,2.539,2.539,0,0,1,1.067-2.179,5.029,5.029,0,0,1,3-.776H60.84v-.706a1.725,1.725,0,0,0-.481-1.282,1.935,1.935,0,0,0-1.419-.477,2.239,2.239,0,0,0-1.378.415,1.223,1.223,0,0,0-.556,1H55.461a2.119,2.119,0,0,1,.477-1.3,3.258,3.258,0,0,1,1.295-.992,4.356,4.356,0,0,1,1.8-.365,3.551,3.551,0,0,1,2.432.776,2.8,2.8,0,0,1,.913,2.137V63.9a5.054,5.054,0,0,0,.315,1.967V66Zm-2.548-1.17a2.7,2.7,0,0,0,1.37-.374,2.259,2.259,0,0,0,.938-.971V61.642h-1.2q-2.822,0-2.822,1.652a1.4,1.4,0,0,0,.481,1.129A1.85,1.85,0,0,0,58.532,64.83Zm9.9.083a2.212,2.212,0,0,0,1.436-.5,1.752,1.752,0,0,0,.681-1.245H72a2.785,2.785,0,0,1-.531,1.469,3.5,3.5,0,0,1-1.307,1.112,3.772,3.772,0,0,1-1.731.415,3.7,3.7,0,0,1-2.918-1.224,4.877,4.877,0,0,1-1.083-3.349v-.257A5.407,5.407,0,0,1,64.908,59a3.667,3.667,0,0,1,1.382-1.585,3.926,3.926,0,0,1,2.129-.564,3.6,3.6,0,0,1,2.511.9A3.234,3.234,0,0,1,72,60.106H70.545a2.116,2.116,0,0,0-.66-1.432,2.053,2.053,0,0,0-1.465-.56,2.149,2.149,0,0,0-1.814.843,3.957,3.957,0,0,0-.643,2.436v.291a3.878,3.878,0,0,0,.639,2.391A2.16,2.16,0,0,0,68.428,64.913ZM75.435,66H73.9V57.019h1.536Zm-1.66-11.364A.917.917,0,0,1,74,54.005a.857.857,0,0,1,.677-.257.87.87,0,0,1,.681.257.907.907,0,0,1,.232.631.877.877,0,0,1-.232.623.886.886,0,0,1-.681.249A.872.872,0,0,1,74,55.259.886.886,0,0,1,73.775,54.636Zm3.753,6.79a5.3,5.3,0,0,1,.519-2.374,3.87,3.87,0,0,1,1.444-1.627,3.932,3.932,0,0,1,2.113-.573,3.788,3.788,0,0,1,2.968,1.27A4.886,4.886,0,0,1,85.7,61.5v.108a5.351,5.351,0,0,1-.5,2.353,3.813,3.813,0,0,1-1.436,1.623,3.977,3.977,0,0,1-2.146.581,3.778,3.778,0,0,1-2.959-1.27,4.861,4.861,0,0,1-1.133-3.362Zm1.544.183a3.842,3.842,0,0,0,.693,2.4A2.349,2.349,0,0,0,83.479,64a4.2,4.2,0,0,0,.689-2.569,3.836,3.836,0,0,0-.7-2.395,2.23,2.23,0,0,0-1.864-.917,2.205,2.205,0,0,0-1.834.9A4.17,4.17,0,0,0,79.072,61.609ZM82.3,53.25H84.16l-2.225,2.44-1.237,0Zm6.824,3.769.05,1.129a3.273,3.273,0,0,1,2.689-1.295q2.847,0,2.872,3.212V66H93.2V60.057a2.068,2.068,0,0,0-.444-1.436,1.78,1.78,0,0,0-1.357-.465,2.216,2.216,0,0,0-1.312.4,2.706,2.706,0,0,0-.88,1.046V66H87.672V57.019Z" transform="translate(-5036 -7284)" fill="#12263f"/>
    <path id="Path_1033291" data-name="Path 1033291" d="M17.672,18V5.914h3.412a5.492,5.492,0,0,1,2.789.7A4.716,4.716,0,0,1,25.744,8.6a6.457,6.457,0,0,1,.668,2.955v.772a6.48,6.48,0,0,1-.66,3,4.642,4.642,0,0,1-1.884,1.976A5.842,5.842,0,0,1,21.017,18ZM19.265,7.217V16.7h1.677A3.648,3.648,0,0,0,23.81,15.55a4.737,4.737,0,0,0,1.025-3.265v-.706a4.812,4.812,0,0,0-.967-3.2,3.441,3.441,0,0,0-2.743-1.159ZM32.348,18.166a3.924,3.924,0,0,1-2.972-1.2,4.452,4.452,0,0,1-1.146-3.208v-.282a5.39,5.39,0,0,1,.51-2.386,3.982,3.982,0,0,1,1.428-1.644,3.59,3.59,0,0,1,1.988-.594,3.364,3.364,0,0,1,2.723,1.154,5,5,0,0,1,.971,3.3v.639H29.767a3.193,3.193,0,0,0,.776,2.146,2.44,2.44,0,0,0,1.888.818,2.675,2.675,0,0,0,1.378-.332,3.462,3.462,0,0,0,.988-.88l.938.73A3.772,3.772,0,0,1,32.348,18.166Zm-.191-8.052a2.048,2.048,0,0,0-1.561.677,3.288,3.288,0,0,0-.78,1.9h4.5v-.116a2.925,2.925,0,0,0-.631-1.814A1.928,1.928,0,0,0,32.157,10.114Zm7.6-3.271V9.019H41.43v1.187H39.754v5.577a1.247,1.247,0,0,0,.224.81.943.943,0,0,0,.764.27,3.718,3.718,0,0,0,.73-.1V18a4.478,4.478,0,0,1-1.179.165,1.912,1.912,0,0,1-1.552-.623,2.675,2.675,0,0,1-.523-1.768v-5.57H36.583V9.019h1.635V6.844Zm7.239,11.322a3.924,3.924,0,0,1-2.972-1.2,4.452,4.452,0,0,1-1.146-3.208v-.282a5.39,5.39,0,0,1,.51-2.386,3.982,3.982,0,0,1,1.428-1.644A3.59,3.59,0,0,1,46.8,8.853a3.364,3.364,0,0,1,2.723,1.154,5,5,0,0,1,.971,3.3v.639H44.411a3.193,3.193,0,0,0,.776,2.146,2.44,2.44,0,0,0,1.888.818,2.675,2.675,0,0,0,1.378-.332,3.462,3.462,0,0,0,.988-.88l.938.73A3.772,3.772,0,0,1,46.993,18.166ZM46.8,10.114a2.048,2.048,0,0,0-1.561.677,3.288,3.288,0,0,0-.78,1.9h4.5v-.116a2.925,2.925,0,0,0-.631-1.814A1.928,1.928,0,0,0,46.8,10.114Zm9.115,6.8a2.212,2.212,0,0,0,1.436-.5,1.752,1.752,0,0,0,.681-1.245h1.453a2.785,2.785,0,0,1-.531,1.469,3.5,3.5,0,0,1-1.307,1.112,3.772,3.772,0,0,1-1.731.415A3.7,3.7,0,0,1,53,16.942a4.877,4.877,0,0,1-1.083-3.349v-.257A5.407,5.407,0,0,1,52.4,11,3.667,3.667,0,0,1,53.78,9.417a3.926,3.926,0,0,1,2.129-.564,3.6,3.6,0,0,1,2.511.9,3.234,3.234,0,0,1,1.067,2.349H58.034a2.116,2.116,0,0,0-.66-1.432,2.053,2.053,0,0,0-1.465-.56,2.149,2.149,0,0,0-1.814.843,3.957,3.957,0,0,0-.643,2.436v.291a3.878,3.878,0,0,0,.639,2.391A2.16,2.16,0,0,0,55.917,16.913ZM63.339,6.844V9.019h1.677v1.187H63.339v5.577a1.247,1.247,0,0,0,.224.81.943.943,0,0,0,.764.27,3.718,3.718,0,0,0,.73-.1V18a4.478,4.478,0,0,1-1.179.165,1.912,1.912,0,0,1-1.552-.623,2.675,2.675,0,0,1-.523-1.768v-5.57H60.168V9.019H61.8V6.844ZM72.4,18a3.226,3.226,0,0,1-.216-.946,3.426,3.426,0,0,1-2.557,1.112,3.17,3.17,0,0,1-2.179-.751,2.43,2.43,0,0,1-.851-1.905,2.539,2.539,0,0,1,1.067-2.179,5.029,5.029,0,0,1,3-.776h1.494v-.706a1.725,1.725,0,0,0-.481-1.282,1.935,1.935,0,0,0-1.419-.477,2.239,2.239,0,0,0-1.378.415,1.223,1.223,0,0,0-.556,1H66.777a2.119,2.119,0,0,1,.477-1.3,3.258,3.258,0,0,1,1.295-.992,4.356,4.356,0,0,1,1.8-.365,3.551,3.551,0,0,1,2.432.776,2.8,2.8,0,0,1,.913,2.137V15.9a5.054,5.054,0,0,0,.315,1.967V18Zm-2.548-1.17a2.7,2.7,0,0,0,1.37-.374,2.259,2.259,0,0,0,.938-.971V13.642h-1.2q-2.822,0-2.822,1.652a1.4,1.4,0,0,0,.481,1.129A1.85,1.85,0,0,0,69.848,16.83ZM80.482,10.4a4.6,4.6,0,0,0-.755-.058,2.024,2.024,0,0,0-2.05,1.287V18H76.141V9.019h1.494l.025,1.038a2.391,2.391,0,0,1,2.142-1.2,1.569,1.569,0,0,1,.681.116ZM20.29,38.165a4.447,4.447,0,0,1-1.415,2.959,4.638,4.638,0,0,1-3.167,1.042,4.259,4.259,0,0,1-3.432-1.536,6.178,6.178,0,0,1-1.291-4.109V35.359a6.886,6.886,0,0,1,.6-2.963,4.5,4.5,0,0,1,1.706-1.963,4.75,4.75,0,0,1,2.557-.685,4.367,4.367,0,0,1,3.088,1.075A4.5,4.5,0,0,1,20.29,33.8h-1.6a3.472,3.472,0,0,0-.9-2.1,2.725,2.725,0,0,0-1.938-.649,2.851,2.851,0,0,0-2.395,1.13,5.187,5.187,0,0,0-.867,3.215v1.171a5.332,5.332,0,0,0,.822,3.132,2.655,2.655,0,0,0,2.3,1.163,3.067,3.067,0,0,0,2.038-.6,3.34,3.34,0,0,0,.942-2.1Zm1.57-.739a5.3,5.3,0,0,1,.519-2.374,3.87,3.87,0,0,1,1.444-1.627,3.932,3.932,0,0,1,2.113-.573,3.788,3.788,0,0,1,2.968,1.27A4.886,4.886,0,0,1,30.036,37.5v.108a5.351,5.351,0,0,1-.5,2.353A3.813,3.813,0,0,1,28.1,41.585a3.977,3.977,0,0,1-2.146.581,3.778,3.778,0,0,1-2.959-1.27,4.861,4.861,0,0,1-1.133-3.362Zm1.544.183a3.842,3.842,0,0,0,.693,2.4A2.349,2.349,0,0,0,27.811,40a4.2,4.2,0,0,0,.689-2.569,3.836,3.836,0,0,0-.7-2.395,2.23,2.23,0,0,0-1.864-.917,2.205,2.205,0,0,0-1.834.9A4.17,4.17,0,0,0,23.4,37.609Zm10.053-4.59.05,1.129A3.273,3.273,0,0,1,36.2,32.853q2.847,0,2.872,3.212V42H37.533V36.057a2.068,2.068,0,0,0-.444-1.436,1.78,1.78,0,0,0-1.357-.465,2.216,2.216,0,0,0-1.312.4,2.706,2.706,0,0,0-.88,1.046V42H32V33.019Zm13.581-2.474a10.924,10.924,0,0,0-1.66-.166q-1.66,0-1.66,1.749v.891h1.917v1.187H43.718V42H42.182V34.206H40.763V33.019h1.419v-.979a2.93,2.93,0,0,1,.805-2.2,3.145,3.145,0,0,1,2.266-.764,20.919,20.919,0,0,1,3.32.506V42H47.038ZM52.792,42H51.256V33.019h1.536Zm-1.66-11.364a.917.917,0,0,1,.228-.631.857.857,0,0,1,.677-.257.87.87,0,0,1,.681.257.907.907,0,0,1,.232.631.877.877,0,0,1-.232.623.886.886,0,0,1-.681.249.872.872,0,0,1-.677-.249A.886.886,0,0,1,51.131,30.636Zm7.762,10.276a2.212,2.212,0,0,0,1.436-.5,1.752,1.752,0,0,0,.681-1.245h1.453a2.785,2.785,0,0,1-.531,1.469,3.5,3.5,0,0,1-1.307,1.112,3.772,3.772,0,0,1-1.731.415,3.7,3.7,0,0,1-2.918-1.224,4.877,4.877,0,0,1-1.083-3.349v-.257A5.407,5.407,0,0,1,55.374,35a3.667,3.667,0,0,1,1.382-1.585,3.926,3.926,0,0,1,2.129-.564,3.6,3.6,0,0,1,2.511.9,3.234,3.234,0,0,1,1.067,2.349H61.01a2.116,2.116,0,0,0-.66-1.432,2.053,2.053,0,0,0-1.465-.56,2.149,2.149,0,0,0-1.814.843,3.957,3.957,0,0,0-.643,2.436v.291a3.878,3.878,0,0,0,.639,2.391A2.16,2.16,0,0,0,58.894,40.913Zm7.422-10.069v2.175h1.677v1.187H66.315v5.577a1.247,1.247,0,0,0,.224.81.943.943,0,0,0,.764.27,3.718,3.718,0,0,0,.73-.1V42a4.478,4.478,0,0,1-1.179.165,1.912,1.912,0,0,1-1.552-.623,2.675,2.675,0,0,1-.523-1.768v-5.57H63.145V33.019H64.78V30.844Zm2.939,6.583a5.3,5.3,0,0,1,.519-2.374,3.87,3.87,0,0,1,1.444-1.627,3.932,3.932,0,0,1,2.113-.573,3.788,3.788,0,0,1,2.968,1.27A4.886,4.886,0,0,1,77.431,37.5v.108a5.351,5.351,0,0,1-.5,2.353,3.813,3.813,0,0,1-1.436,1.623,3.977,3.977,0,0,1-2.146.581,3.778,3.778,0,0,1-2.959-1.27,4.861,4.861,0,0,1-1.133-3.362Zm1.544.183a3.842,3.842,0,0,0,.693,2.4A2.349,2.349,0,0,0,75.207,40a4.2,4.2,0,0,0,.689-2.569,3.836,3.836,0,0,0-.7-2.395,2.23,2.23,0,0,0-1.864-.917,2.205,2.205,0,0,0-1.834.9A4.17,4.17,0,0,0,70.8,37.609Zm13.83,2.009a1.131,1.131,0,0,0-.469-.967,4.514,4.514,0,0,0-1.635-.594,7.731,7.731,0,0,1-1.851-.6,2.633,2.633,0,0,1-1.013-.83,1.986,1.986,0,0,1-.328-1.146,2.33,2.33,0,0,1,.934-1.868,3.647,3.647,0,0,1,2.386-.764,3.753,3.753,0,0,1,2.478.789,2.5,2.5,0,0,1,.95,2.017H84.538A1.386,1.386,0,0,0,84,34.571a2.006,2.006,0,0,0-1.349-.457,2.1,2.1,0,0,0-1.312.365,1.15,1.15,0,0,0-.473.955.932.932,0,0,0,.44.838,5.413,5.413,0,0,0,1.59.54,8.283,8.283,0,0,1,1.864.614,2.718,2.718,0,0,1,1.058.859,2.112,2.112,0,0,1,.344,1.224,2.3,2.3,0,0,1-.963,1.93,4.039,4.039,0,0,1-2.5.726,4.523,4.523,0,0,1-1.909-.382,3.105,3.105,0,0,1-1.3-1.067,2.571,2.571,0,0,1-.469-1.482h1.536a1.59,1.59,0,0,0,.618,1.224,2.4,2.4,0,0,0,1.523.452,2.476,2.476,0,0,0,1.4-.353A1.084,1.084,0,0,0,84.629,39.618Zm-65.1,21.651V66H17.933V53.914H22.39A4.478,4.478,0,0,1,25.5,54.927a3.433,3.433,0,0,1,1.125,2.681,3.388,3.388,0,0,1-1.1,2.71,4.678,4.678,0,0,1-3.15.95Zm0-1.3H22.39a2.863,2.863,0,0,0,1.959-.6,2.2,2.2,0,0,0,.681-1.742,2.277,2.277,0,0,0-.681-1.73,2.682,2.682,0,0,0-1.868-.674H19.526ZM32.8,58.4a4.6,4.6,0,0,0-.755-.058,2.024,2.024,0,0,0-2.05,1.287V66H28.459V57.019h1.494l.025,1.038a2.391,2.391,0,0,1,2.142-1.2,1.569,1.569,0,0,1,.681.116ZM35.922,66H34.387V57.019h1.536Zm-1.66-11.364a.917.917,0,0,1,.228-.631.857.857,0,0,1,.677-.257.87.87,0,0,1,.681.257.907.907,0,0,1,.232.631.877.877,0,0,1-.232.623.886.886,0,0,1-.681.249.872.872,0,0,1-.677-.249A.886.886,0,0,1,34.262,54.636Zm3.753,6.79a5.3,5.3,0,0,1,.519-2.374,3.87,3.87,0,0,1,1.444-1.627,3.932,3.932,0,0,1,2.113-.573,3.788,3.788,0,0,1,2.968,1.27A4.886,4.886,0,0,1,46.191,61.5v.108a5.351,5.351,0,0,1-.5,2.353,3.813,3.813,0,0,1-1.436,1.623,3.977,3.977,0,0,1-2.146.581,3.778,3.778,0,0,1-2.959-1.27,4.861,4.861,0,0,1-1.133-3.362Zm1.544.183a3.842,3.842,0,0,0,.693,2.4A2.349,2.349,0,0,0,43.967,64a4.2,4.2,0,0,0,.689-2.569,3.836,3.836,0,0,0-.7-2.395,2.23,2.23,0,0,0-1.864-.917,2.205,2.205,0,0,0-1.834.9A4.17,4.17,0,0,0,39.559,61.609ZM52.5,58.4a4.6,4.6,0,0,0-.755-.058,2.024,2.024,0,0,0-2.05,1.287V66H48.16V57.019h1.494l.025,1.038a2.391,2.391,0,0,1,2.142-1.2,1.569,1.569,0,0,1,.681.116ZM55.623,66H54.087V57.019h1.536Zm-1.66-11.364a.917.917,0,0,1,.228-.631.857.857,0,0,1,.677-.257.87.87,0,0,1,.681.257.907.907,0,0,1,.232.631.877.877,0,0,1-.232.623.886.886,0,0,1-.681.249.872.872,0,0,1-.677-.249A.886.886,0,0,1,53.963,54.636Zm5.6,10.11h5.254V66h-7.13V64.871l4.956-6.583H57.766v-1.27h6.807v1.087ZM72.135,66a3.226,3.226,0,0,1-.216-.946,3.426,3.426,0,0,1-2.557,1.112,3.17,3.17,0,0,1-2.179-.751,2.43,2.43,0,0,1-.851-1.905A2.539,2.539,0,0,1,67.4,61.331a5.029,5.029,0,0,1,3-.776h1.494v-.706a1.725,1.725,0,0,0-.481-1.282,1.935,1.935,0,0,0-1.419-.477,2.239,2.239,0,0,0-1.378.415,1.223,1.223,0,0,0-.556,1H66.516a2.119,2.119,0,0,1,.477-1.3,3.258,3.258,0,0,1,1.295-.992,4.356,4.356,0,0,1,1.8-.365,3.551,3.551,0,0,1,2.432.776,2.8,2.8,0,0,1,.913,2.137V63.9a5.054,5.054,0,0,0,.315,1.967V66Zm-2.548-1.17a2.7,2.7,0,0,0,1.37-.374,2.259,2.259,0,0,0,.938-.971V61.642h-1.2q-2.822,0-2.822,1.652a1.4,1.4,0,0,0,.481,1.129A1.85,1.85,0,0,0,69.587,64.83ZM80.221,58.4a4.6,4.6,0,0,0-.755-.058,2.024,2.024,0,0,0-2.05,1.287V66H75.88V57.019h1.494l.025,1.038a2.391,2.391,0,0,1,2.142-1.2,1.569,1.569,0,0,1,.681.116Z" transform="translate(-4832 -7284)" fill="#12263f"/>
    <path id="Path_1033294" data-name="Path 1033294" d="M5.736,18V5.914H9.147a5.492,5.492,0,0,1,2.789.7A4.716,4.716,0,0,1,13.808,8.6a6.457,6.457,0,0,1,.668,2.955v.772a6.48,6.48,0,0,1-.66,3,4.642,4.642,0,0,1-1.884,1.976A5.842,5.842,0,0,1,9.081,18ZM7.329,7.217V16.7H9.006a3.648,3.648,0,0,0,2.868-1.146A4.737,4.737,0,0,0,12.9,12.285v-.706a4.812,4.812,0,0,0-.967-3.2A3.441,3.441,0,0,0,9.189,7.217Zm8.949,6.209a5.3,5.3,0,0,1,.519-2.374,3.87,3.87,0,0,1,1.444-1.627,3.932,3.932,0,0,1,2.113-.573,3.788,3.788,0,0,1,2.968,1.27A4.886,4.886,0,0,1,24.455,13.5v.108a5.351,5.351,0,0,1-.5,2.353,3.813,3.813,0,0,1-1.436,1.623,3.977,3.977,0,0,1-2.146.581,3.778,3.778,0,0,1-2.959-1.27,4.861,4.861,0,0,1-1.133-3.362Zm1.544.183a3.842,3.842,0,0,0,.693,2.4A2.349,2.349,0,0,0,22.23,16a4.2,4.2,0,0,0,.689-2.569,3.836,3.836,0,0,0-.7-2.395,2.23,2.23,0,0,0-1.864-.917,2.205,2.205,0,0,0-1.834.9A4.17,4.17,0,0,0,17.822,13.609Zm12.2,3.3a2.212,2.212,0,0,0,1.436-.5,1.752,1.752,0,0,0,.681-1.245h1.453a2.785,2.785,0,0,1-.531,1.469,3.5,3.5,0,0,1-1.307,1.112,3.772,3.772,0,0,1-1.731.415,3.7,3.7,0,0,1-2.918-1.224,4.877,4.877,0,0,1-1.083-3.349v-.257A5.407,5.407,0,0,1,26.506,11a3.667,3.667,0,0,1,1.382-1.585,3.926,3.926,0,0,1,2.129-.564,3.6,3.6,0,0,1,2.511.9,3.234,3.234,0,0,1,1.067,2.349H32.142a2.116,2.116,0,0,0-.66-1.432,2.053,2.053,0,0,0-1.465-.56,2.149,2.149,0,0,0-1.814.843,3.957,3.957,0,0,0-.643,2.436v.291a3.878,3.878,0,0,0,.639,2.391A2.16,2.16,0,0,0,30.026,16.913Zm10.883.2a3.262,3.262,0,0,1-2.631,1.054,2.792,2.792,0,0,1-2.187-.834,3.611,3.611,0,0,1-.76-2.469V9.019h1.536v5.8q0,2.042,1.66,2.042a2.3,2.3,0,0,0,2.341-1.312V9.019H42.4V18H40.942Zm5.313-8.093.042,1a3.317,3.317,0,0,1,2.665-1.162A2.568,2.568,0,0,1,51.493,10.3,3.4,3.4,0,0,1,52.66,9.251a3.445,3.445,0,0,1,1.7-.4q2.955,0,3,3.129V18H55.826V12.073a2.062,2.062,0,0,0-.44-1.44,1.937,1.937,0,0,0-1.478-.477,2.036,2.036,0,0,0-1.419.51,2.071,2.071,0,0,0-.656,1.374V18H50.29V12.115a1.713,1.713,0,0,0-1.917-1.959,2.055,2.055,0,0,0-2.067,1.287V18H44.77V9.019Zm17.225,9.147a3.924,3.924,0,0,1-2.972-1.2,4.452,4.452,0,0,1-1.146-3.208v-.282a5.39,5.39,0,0,1,.51-2.386,3.982,3.982,0,0,1,1.428-1.644,3.59,3.59,0,0,1,1.988-.594,3.364,3.364,0,0,1,2.723,1.154,5,5,0,0,1,.971,3.3v.639H60.866a3.193,3.193,0,0,0,.776,2.146,2.44,2.44,0,0,0,1.888.818,2.675,2.675,0,0,0,1.378-.332,3.462,3.462,0,0,0,.988-.88l.938.73A3.772,3.772,0,0,1,63.448,18.166Zm-.191-8.052a2.048,2.048,0,0,0-1.561.677,3.288,3.288,0,0,0-.78,1.9h4.5v-.116a2.925,2.925,0,0,0-.631-1.814A1.928,1.928,0,0,0,63.257,10.114Zm6.965-1.1.05,1.129a3.273,3.273,0,0,1,2.689-1.295q2.847,0,2.872,3.212V18H74.3V12.057a2.068,2.068,0,0,0-.444-1.436,1.78,1.78,0,0,0-1.357-.465,2.216,2.216,0,0,0-1.312.4A2.706,2.706,0,0,0,70.3,11.6V18H68.769V9.019ZM80.275,6.844V9.019h1.677v1.187H80.275v5.577a1.247,1.247,0,0,0,.224.81.943.943,0,0,0,.764.27,3.718,3.718,0,0,0,.73-.1V18a4.478,4.478,0,0,1-1.179.165,1.912,1.912,0,0,1-1.552-.623,2.675,2.675,0,0,1-.523-1.768v-5.57H77.1V9.019H78.74V6.844ZM89.332,18a3.226,3.226,0,0,1-.216-.946,3.426,3.426,0,0,1-2.557,1.112,3.17,3.17,0,0,1-2.179-.751,2.43,2.43,0,0,1-.851-1.905A2.539,2.539,0,0,1,84.6,13.331a5.029,5.029,0,0,1,3-.776h1.494v-.706a1.725,1.725,0,0,0-.481-1.282,1.935,1.935,0,0,0-1.419-.477,2.239,2.239,0,0,0-1.378.415,1.223,1.223,0,0,0-.556,1H83.713a2.119,2.119,0,0,1,.477-1.3,3.258,3.258,0,0,1,1.295-.992,4.356,4.356,0,0,1,1.8-.365,3.551,3.551,0,0,1,2.432.776,2.8,2.8,0,0,1,.913,2.137V15.9a5.054,5.054,0,0,0,.315,1.967V18Zm-2.548-1.17a2.7,2.7,0,0,0,1.37-.374,2.259,2.259,0,0,0,.938-.971V13.642h-1.2q-2.822,0-2.822,1.652a1.4,1.4,0,0,0,.481,1.129A1.85,1.85,0,0,0,86.784,16.83ZM97.418,10.4a4.6,4.6,0,0,0-.755-.058,2.024,2.024,0,0,0-2.05,1.287V18H93.077V9.019h1.494l.025,1.038a2.391,2.391,0,0,1,2.142-1.2,1.569,1.569,0,0,1,.681.116ZM3.971,42V34.206H2.552V33.019H3.971V32.1a3.058,3.058,0,0,1,.772-2.233,2.916,2.916,0,0,1,2.183-.789,4.055,4.055,0,0,1,1.054.14L7.9,30.454a4.41,4.41,0,0,0-.83-.075,1.5,1.5,0,0,0-1.154.437,1.773,1.773,0,0,0-.407,1.253v.949H7.424v1.187H5.507V42Zm4.782-4.574a5.3,5.3,0,0,1,.519-2.374,3.87,3.87,0,0,1,1.444-1.627,3.932,3.932,0,0,1,2.113-.573,3.788,3.788,0,0,1,2.968,1.27A4.886,4.886,0,0,1,16.93,37.5v.108a5.351,5.351,0,0,1-.5,2.353,3.813,3.813,0,0,1-1.436,1.623,3.977,3.977,0,0,1-2.146.581A3.778,3.778,0,0,1,9.886,40.9a4.861,4.861,0,0,1-1.133-3.362Zm1.544.183a3.842,3.842,0,0,0,.693,2.4,2.218,2.218,0,0,0,1.855.9A2.2,2.2,0,0,0,14.705,40a4.2,4.2,0,0,0,.689-2.569,3.836,3.836,0,0,0-.7-2.395,2.23,2.23,0,0,0-1.864-.917,2.205,2.205,0,0,0-1.834.9A4.17,4.17,0,0,0,10.3,37.609ZM23.239,34.4a4.6,4.6,0,0,0-.755-.058,2.024,2.024,0,0,0-2.05,1.287V42H18.9V33.019h1.494l.025,1.038a2.391,2.391,0,0,1,2.142-1.2,1.569,1.569,0,0,1,.681.116Zm2.9-1.378.042,1a3.317,3.317,0,0,1,2.665-1.162A2.568,2.568,0,0,1,31.408,34.3a3.4,3.4,0,0,1,1.166-1.046,3.445,3.445,0,0,1,1.7-.4q2.955,0,3,3.129V42H35.741V36.073a2.062,2.062,0,0,0-.44-1.44,1.937,1.937,0,0,0-1.478-.477,2.036,2.036,0,0,0-1.419.51,2.071,2.071,0,0,0-.656,1.374V42H30.2V36.115a1.713,1.713,0,0,0-1.917-1.959,2.055,2.055,0,0,0-2.067,1.287V42H24.685V33.019ZM45.18,42a3.226,3.226,0,0,1-.216-.946,3.426,3.426,0,0,1-2.557,1.112,3.17,3.17,0,0,1-2.179-.751,2.43,2.43,0,0,1-.851-1.905,2.539,2.539,0,0,1,1.067-2.179,5.029,5.029,0,0,1,3-.776h1.494v-.706a1.725,1.725,0,0,0-.481-1.282,1.935,1.935,0,0,0-1.419-.477,2.239,2.239,0,0,0-1.378.415,1.223,1.223,0,0,0-.556,1H39.561a2.119,2.119,0,0,1,.477-1.3,3.258,3.258,0,0,1,1.295-.992,4.356,4.356,0,0,1,1.8-.365,3.551,3.551,0,0,1,2.432.776,2.8,2.8,0,0,1,.913,2.137V39.9a5.054,5.054,0,0,0,.315,1.967V42Zm-2.548-1.17A2.7,2.7,0,0,0,44,40.456a2.259,2.259,0,0,0,.938-.971V37.642h-1.2q-2.822,0-2.822,1.652a1.4,1.4,0,0,0,.481,1.129A1.85,1.85,0,0,0,42.632,40.83ZM50.593,42H49.058V29.25h1.536Zm3.944-8.981.042,1a3.317,3.317,0,0,1,2.665-1.162A2.568,2.568,0,0,1,59.808,34.3a3.4,3.4,0,0,1,1.166-1.046,3.445,3.445,0,0,1,1.7-.4q2.955,0,3,3.129V42H64.141V36.073a2.062,2.062,0,0,0-.44-1.44,1.937,1.937,0,0,0-1.478-.477,2.036,2.036,0,0,0-1.419.51,2.071,2.071,0,0,0-.656,1.374V42H58.6V36.115a1.713,1.713,0,0,0-1.917-1.959,2.055,2.055,0,0,0-2.067,1.287V42H53.084V33.019Zm17.225,9.147a3.924,3.924,0,0,1-2.972-1.2,4.452,4.452,0,0,1-1.146-3.208v-.282a5.39,5.39,0,0,1,.51-2.386,3.982,3.982,0,0,1,1.428-1.644,3.59,3.59,0,0,1,1.988-.594,3.364,3.364,0,0,1,2.723,1.154,5,5,0,0,1,.971,3.3v.639H69.181a3.193,3.193,0,0,0,.776,2.146,2.44,2.44,0,0,0,1.888.818,2.675,2.675,0,0,0,1.378-.332,3.462,3.462,0,0,0,.988-.88l.938.73A3.772,3.772,0,0,1,71.762,42.166Zm-.191-8.052a2.048,2.048,0,0,0-1.561.677,3.288,3.288,0,0,0-.78,1.9h4.5v-.116a2.925,2.925,0,0,0-.631-1.814A1.928,1.928,0,0,0,71.571,34.114Zm6.965-1.1.05,1.129a3.273,3.273,0,0,1,2.689-1.295q2.847,0,2.872,3.212V42H82.612V36.057a2.068,2.068,0,0,0-.444-1.436,1.78,1.78,0,0,0-1.357-.465,2.216,2.216,0,0,0-1.312.4,2.706,2.706,0,0,0-.88,1.046V42H77.084V33.019ZM88.59,30.844v2.175h1.677v1.187H88.59v5.577a1.247,1.247,0,0,0,.224.81.943.943,0,0,0,.764.27,3.718,3.718,0,0,0,.73-.1V42a4.478,4.478,0,0,1-1.179.165,1.912,1.912,0,0,1-1.552-.623,2.675,2.675,0,0,1-.523-1.768v-5.57H85.419V33.019h1.635V30.844Zm7.239,11.322a3.924,3.924,0,0,1-2.972-1.2,4.452,4.452,0,0,1-1.146-3.208v-.282a5.39,5.39,0,0,1,.51-2.386,3.982,3.982,0,0,1,1.428-1.644,3.59,3.59,0,0,1,1.988-.594,3.364,3.364,0,0,1,2.723,1.154,5,5,0,0,1,.971,3.3v.639H93.248a3.193,3.193,0,0,0,.776,2.146,2.44,2.44,0,0,0,1.888.818,2.675,2.675,0,0,0,1.378-.332,3.462,3.462,0,0,0,.988-.88l.938.73A3.772,3.772,0,0,1,95.829,42.166Zm-.191-8.052a2.048,2.048,0,0,0-1.561.677,3.288,3.288,0,0,0-.78,1.9h4.5v-.116a2.925,2.925,0,0,0-.631-1.814A1.928,1.928,0,0,0,95.638,34.114ZM15.7,61.094a12.834,12.834,0,0,1,.5-3.6,10.465,10.465,0,0,1,1.5-3.138,6.374,6.374,0,0,1,2.067-1.992l.315,1.013A6.611,6.611,0,0,0,18.1,56.213a12.307,12.307,0,0,0-.851,4.275l-.008.706a12.371,12.371,0,0,0,1.17,5.562,6.642,6.642,0,0,0,1.677,2.208l-.315.938a6.579,6.579,0,0,1-2.108-2.059A11.538,11.538,0,0,1,15.7,61.094Zm9.713-.481a7.494,7.494,0,0,1-2.984-1.448,2.768,2.768,0,0,1-.934-2.121,2.923,2.923,0,0,1,1.141-2.362,4.536,4.536,0,0,1,2.968-.934,4.951,4.951,0,0,1,2.22.481,3.651,3.651,0,0,1,1.511,1.328,3.4,3.4,0,0,1,.535,1.851h-1.6a2.21,2.21,0,0,0-.7-1.729,2.835,2.835,0,0,0-1.967-.629,2.9,2.9,0,0,0-1.839.52,1.734,1.734,0,0,0-.66,1.443,1.56,1.56,0,0,0,.627,1.252,6.147,6.147,0,0,0,2.133.936,9.9,9.9,0,0,1,2.357.935,3.577,3.577,0,0,1,1.262,1.191,3.04,3.04,0,0,1,.411,1.6,2.824,2.824,0,0,1-1.146,2.353,4.884,4.884,0,0,1-3.063.884,5.681,5.681,0,0,1-2.324-.477A3.911,3.911,0,0,1,21.7,64.381a3.191,3.191,0,0,1-.585-1.884h1.6a2.082,2.082,0,0,0,.809,1.731,3.408,3.408,0,0,0,2.162.635,3.133,3.133,0,0,0,1.934-.515,1.672,1.672,0,0,0,.672-1.4,1.641,1.641,0,0,0-.623-1.374A7.177,7.177,0,0,0,25.414,60.613Zm11,.5H33.575V66h-1.6V53.914h4a4.736,4.736,0,0,1,3.142.93,3.345,3.345,0,0,1,1.1,2.706,3.254,3.254,0,0,1-.61,1.967,3.642,3.642,0,0,1-1.7,1.253l2.839,5.13V66h-1.71Zm-2.839-1.3h2.449a2.762,2.762,0,0,0,1.888-.615,2.081,2.081,0,0,0,.7-1.647,2.191,2.191,0,0,0-.668-1.721,2.829,2.829,0,0,0-1.93-.607h-2.44Zm12.477.805a7.494,7.494,0,0,1-2.984-1.448,2.768,2.768,0,0,1-.934-2.121,2.923,2.923,0,0,1,1.141-2.362,4.536,4.536,0,0,1,2.968-.934,4.951,4.951,0,0,1,2.22.481,3.651,3.651,0,0,1,1.511,1.328,3.4,3.4,0,0,1,.535,1.851h-1.6a2.21,2.21,0,0,0-.7-1.729,2.835,2.835,0,0,0-1.967-.629,2.9,2.9,0,0,0-1.839.52,1.734,1.734,0,0,0-.66,1.443,1.56,1.56,0,0,0,.627,1.252A6.147,6.147,0,0,0,46.5,59.2a9.9,9.9,0,0,1,2.357.935,3.577,3.577,0,0,1,1.262,1.191,3.04,3.04,0,0,1,.411,1.6,2.824,2.824,0,0,1-1.146,2.353,4.884,4.884,0,0,1-3.063.884A5.681,5.681,0,0,1,44,65.689a3.911,3.911,0,0,1-1.664-1.307,3.191,3.191,0,0,1-.585-1.884h1.6a2.082,2.082,0,0,0,.809,1.731,3.408,3.408,0,0,0,2.162.635,3.133,3.133,0,0,0,1.934-.515,1.672,1.672,0,0,0,.672-1.4,1.641,1.641,0,0,0-.623-1.374A7.178,7.178,0,0,0,46.052,60.613Zm6.633,6.425h-1.32l5.047-13.124h1.312ZM68.956,66h-1.6V60.414H61.261V66H59.668V53.914h1.594v5.2h6.093v-5.2h1.6ZM80.337,53.914v8.218a3.855,3.855,0,0,1-1.075,2.8,4.332,4.332,0,0,1-2.893,1.22l-.423.017A4.524,4.524,0,0,1,72.784,65.1a3.83,3.83,0,0,1-1.2-2.947V53.914h1.577V62.1a2.521,2.521,0,0,0,2.781,2.764,2.794,2.794,0,0,0,2.071-.722,2.759,2.759,0,0,0,.718-2.034V53.914ZM86.2,61.177a12.84,12.84,0,0,1-.486,3.549,10.493,10.493,0,0,1-1.486,3.134,6.51,6.51,0,0,1-2.1,2.042l-.324-.938a6.673,6.673,0,0,0,2.054-3.042,13.161,13.161,0,0,0,.793-4.578v-.266a13.665,13.665,0,0,0-.365-3.241,10.94,10.94,0,0,0-1.017-2.685A6.2,6.2,0,0,0,81.808,53.3l.324-.938a6.485,6.485,0,0,1,2.088,2.025A10.516,10.516,0,0,1,85.7,57.517,13.136,13.136,0,0,1,86.2,61.177Z" transform="translate(-4835 -7082)" fill="#12263f"/>
    <path id="Path_1033297" data-name="Path 1033297" d="M23.573,14.165a4.447,4.447,0,0,1-1.415,2.959,4.638,4.638,0,0,1-3.167,1.042,4.259,4.259,0,0,1-3.432-1.536,6.178,6.178,0,0,1-1.291-4.109V11.359a6.886,6.886,0,0,1,.6-2.963,4.5,4.5,0,0,1,1.706-1.963,4.75,4.75,0,0,1,2.557-.685A4.367,4.367,0,0,1,22.22,6.823,4.5,4.5,0,0,1,23.573,9.8h-1.6a3.472,3.472,0,0,0-.9-2.1,2.725,2.725,0,0,0-1.938-.649,2.851,2.851,0,0,0-2.395,1.13A5.187,5.187,0,0,0,15.87,11.4v1.171a5.332,5.332,0,0,0,.822,3.132,2.655,2.655,0,0,0,2.3,1.163,3.067,3.067,0,0,0,2.038-.6,3.34,3.34,0,0,0,.942-2.1Zm1.57-.739a5.3,5.3,0,0,1,.519-2.374,3.87,3.87,0,0,1,1.444-1.627,3.932,3.932,0,0,1,2.113-.573,3.788,3.788,0,0,1,2.968,1.27A4.886,4.886,0,0,1,33.319,13.5v.108a5.351,5.351,0,0,1-.5,2.353,3.813,3.813,0,0,1-1.436,1.623,3.977,3.977,0,0,1-2.146.581,3.778,3.778,0,0,1-2.959-1.27,4.861,4.861,0,0,1-1.133-3.362Zm1.544.183a3.842,3.842,0,0,0,.693,2.4A2.349,2.349,0,0,0,31.094,16a4.2,4.2,0,0,0,.689-2.569,3.836,3.836,0,0,0-.7-2.395,2.23,2.23,0,0,0-1.864-.917,2.205,2.205,0,0,0-1.834.9A4.17,4.17,0,0,0,26.687,13.609ZM36.74,9.019l.05,1.129a3.273,3.273,0,0,1,2.689-1.295q2.847,0,2.872,3.212V18H40.816V12.057a2.068,2.068,0,0,0-.444-1.436,1.78,1.78,0,0,0-1.357-.465,2.216,2.216,0,0,0-1.312.4,2.706,2.706,0,0,0-.88,1.046V18H35.287V9.019ZM46.793,6.844V9.019H48.47v1.187H46.793v5.577a1.247,1.247,0,0,0,.224.81.943.943,0,0,0,.764.27,3.718,3.718,0,0,0,.73-.1V18a4.478,4.478,0,0,1-1.179.165,1.912,1.912,0,0,1-1.552-.623,2.675,2.675,0,0,1-.523-1.768v-5.57H43.622V9.019h1.635V6.844ZM54.647,10.4a4.6,4.6,0,0,0-.755-.058,2.024,2.024,0,0,0-2.05,1.287V18H50.305V9.019H51.8l.025,1.038a2.391,2.391,0,0,1,2.142-1.2,1.569,1.569,0,0,1,.681.116Zm.881,3.03a5.3,5.3,0,0,1,.519-2.374,3.87,3.87,0,0,1,1.444-1.627A3.932,3.932,0,0,1,59.6,8.853a3.788,3.788,0,0,1,2.968,1.27A4.886,4.886,0,0,1,63.7,13.5v.108a5.351,5.351,0,0,1-.5,2.353,3.813,3.813,0,0,1-1.436,1.623,3.977,3.977,0,0,1-2.146.581,3.778,3.778,0,0,1-2.959-1.27,4.861,4.861,0,0,1-1.133-3.362Zm1.544.183a3.842,3.842,0,0,0,.693,2.4A2.349,2.349,0,0,0,61.479,16a4.2,4.2,0,0,0,.689-2.569,3.836,3.836,0,0,0-.7-2.395,2.23,2.23,0,0,0-1.864-.917,2.205,2.205,0,0,0-1.834.9A4.17,4.17,0,0,0,57.072,13.609ZM67.341,18H65.8V5.25h1.536Zm8.044,0a3.226,3.226,0,0,1-.216-.946,3.426,3.426,0,0,1-2.557,1.112,3.17,3.17,0,0,1-2.179-.751,2.43,2.43,0,0,1-.851-1.905,2.539,2.539,0,0,1,1.067-2.179,5.029,5.029,0,0,1,3-.776h1.494v-.706a1.725,1.725,0,0,0-.481-1.282,1.935,1.935,0,0,0-1.419-.477,2.239,2.239,0,0,0-1.378.415,1.223,1.223,0,0,0-.556,1H69.765a2.119,2.119,0,0,1,.477-1.3,3.258,3.258,0,0,1,1.295-.992,4.356,4.356,0,0,1,1.8-.365,3.551,3.551,0,0,1,2.432.776,2.8,2.8,0,0,1,.913,2.137V15.9A5.054,5.054,0,0,0,77,17.867V18Zm-2.548-1.17a2.7,2.7,0,0,0,1.37-.374,2.259,2.259,0,0,0,.938-.971V13.642h-1.2q-2.822,0-2.822,1.652a1.4,1.4,0,0,0,.481,1.129A1.85,1.85,0,0,0,72.837,16.83ZM83.471,10.4a4.6,4.6,0,0,0-.755-.058,2.024,2.024,0,0,0-2.05,1.287V18H79.13V9.019h1.494l.025,1.038a2.391,2.391,0,0,1,2.142-1.2,1.569,1.569,0,0,1,.681.116ZM27.123,38.165a4.447,4.447,0,0,1-1.415,2.959,4.638,4.638,0,0,1-3.167,1.042,4.259,4.259,0,0,1-3.432-1.536,6.178,6.178,0,0,1-1.291-4.109V35.359a6.886,6.886,0,0,1,.6-2.963,4.5,4.5,0,0,1,1.706-1.963,4.75,4.75,0,0,1,2.557-.685,4.367,4.367,0,0,1,3.088,1.075A4.5,4.5,0,0,1,27.123,33.8h-1.6a3.472,3.472,0,0,0-.9-2.1,2.725,2.725,0,0,0-1.938-.649,2.851,2.851,0,0,0-2.395,1.13A5.187,5.187,0,0,0,19.42,35.4v1.171a5.332,5.332,0,0,0,.822,3.132,2.655,2.655,0,0,0,2.3,1.163,3.067,3.067,0,0,0,2.038-.6,3.34,3.34,0,0,0,.942-2.1ZM34.645,42a3.226,3.226,0,0,1-.216-.946,3.426,3.426,0,0,1-2.557,1.112,3.17,3.17,0,0,1-2.179-.751,2.43,2.43,0,0,1-.851-1.905,2.539,2.539,0,0,1,1.067-2.179,5.029,5.029,0,0,1,3-.776H34.4v-.706a1.725,1.725,0,0,0-.481-1.282,1.935,1.935,0,0,0-1.419-.477,2.239,2.239,0,0,0-1.378.415,1.223,1.223,0,0,0-.556,1H29.025a2.119,2.119,0,0,1,.477-1.3,3.258,3.258,0,0,1,1.295-.992,4.356,4.356,0,0,1,1.8-.365,3.551,3.551,0,0,1,2.432.776,2.8,2.8,0,0,1,.913,2.137V39.9a5.054,5.054,0,0,0,.315,1.967V42ZM32.1,40.83a2.7,2.7,0,0,0,1.37-.374,2.259,2.259,0,0,0,.938-.971V37.642H33.2q-2.822,0-2.822,1.652a1.4,1.4,0,0,0,.481,1.129A1.85,1.85,0,0,0,32.1,40.83Zm7.737-7.811.042,1a3.317,3.317,0,0,1,2.665-1.162A2.568,2.568,0,0,1,45.1,34.3a3.4,3.4,0,0,1,1.166-1.046,3.445,3.445,0,0,1,1.7-.4q2.955,0,3,3.129V42H49.437V36.073a2.062,2.062,0,0,0-.44-1.44,1.937,1.937,0,0,0-1.478-.477,2.036,2.036,0,0,0-1.419.51,2.071,2.071,0,0,0-.656,1.374V42H43.9V36.115a1.713,1.713,0,0,0-1.917-1.959,2.055,2.055,0,0,0-2.067,1.287V42H38.381V33.019Zm21.1,4.59a5.34,5.34,0,0,1-.946,3.308,3.024,3.024,0,0,1-2.54,1.249,3.131,3.131,0,0,1-2.631-1.2L54.743,42H53.332V29.25h1.536v4.756a3.113,3.113,0,0,1,2.565-1.154A3.042,3.042,0,0,1,60,34.089a5.5,5.5,0,0,1,.934,3.387ZM59.4,37.435a4.15,4.15,0,0,0-.606-2.424,2.006,2.006,0,0,0-1.743-.855,2.255,2.255,0,0,0-2.183,1.411v3.885a2.318,2.318,0,0,0,2.2,1.411,2,2,0,0,0,1.718-.855A4.413,4.413,0,0,0,59.4,37.435ZM64.58,42H63.044V33.019H64.58ZM62.92,30.636a.917.917,0,0,1,.228-.631.857.857,0,0,1,.677-.257.87.87,0,0,1,.681.257.907.907,0,0,1,.232.631.877.877,0,0,1-.232.623.886.886,0,0,1-.681.249.872.872,0,0,1-.677-.249A.886.886,0,0,1,62.92,30.636Zm3.753,6.79a5.3,5.3,0,0,1,.519-2.374,3.87,3.87,0,0,1,1.444-1.627,3.932,3.932,0,0,1,2.113-.573,3.788,3.788,0,0,1,2.968,1.27A4.886,4.886,0,0,1,74.849,37.5v.108a5.351,5.351,0,0,1-.5,2.353,3.813,3.813,0,0,1-1.436,1.623,3.977,3.977,0,0,1-2.146.581,3.778,3.778,0,0,1-2.959-1.27,4.861,4.861,0,0,1-1.133-3.362Zm1.544.183a3.842,3.842,0,0,0,.693,2.4A2.349,2.349,0,0,0,72.625,40a4.2,4.2,0,0,0,.689-2.569,3.836,3.836,0,0,0-.7-2.395,2.23,2.23,0,0,0-1.864-.917,2.205,2.205,0,0,0-1.834.9A4.17,4.17,0,0,0,68.217,37.609Zm13.83,2.009a1.131,1.131,0,0,0-.469-.967,4.514,4.514,0,0,0-1.635-.594,7.731,7.731,0,0,1-1.851-.6,2.633,2.633,0,0,1-1.013-.83,1.986,1.986,0,0,1-.328-1.146,2.33,2.33,0,0,1,.934-1.868,3.647,3.647,0,0,1,2.386-.764,3.753,3.753,0,0,1,2.478.789,2.5,2.5,0,0,1,.95,2.017H81.956a1.386,1.386,0,0,0-.535-1.087,2.006,2.006,0,0,0-1.349-.457,2.1,2.1,0,0,0-1.312.365,1.15,1.15,0,0,0-.473.955.932.932,0,0,0,.44.838,5.413,5.413,0,0,0,1.59.54,8.283,8.283,0,0,1,1.864.614,2.718,2.718,0,0,1,1.058.859,2.112,2.112,0,0,1,.344,1.224,2.3,2.3,0,0,1-.963,1.93,4.039,4.039,0,0,1-2.5.726,4.523,4.523,0,0,1-1.909-.382,3.105,3.105,0,0,1-1.3-1.067,2.571,2.571,0,0,1-.469-1.482H77.98A1.59,1.59,0,0,0,78.6,40.46a2.4,2.4,0,0,0,1.523.452,2.476,2.476,0,0,0,1.4-.353A1.084,1.084,0,0,0,82.047,39.618Zm-70.126,15.6H8.037V66H6.451V55.217H2.575v-1.3h9.347ZM17.235,58.4a4.6,4.6,0,0,0-.755-.058,2.024,2.024,0,0,0-2.05,1.287V66H12.893V57.019h1.494l.025,1.038a2.391,2.391,0,0,1,2.142-1.2,1.569,1.569,0,0,1,.681.116ZM23.9,66a3.226,3.226,0,0,1-.216-.946,3.426,3.426,0,0,1-2.557,1.112,3.17,3.17,0,0,1-2.179-.751A2.43,2.43,0,0,1,18.1,63.51a2.539,2.539,0,0,1,1.067-2.179,5.029,5.029,0,0,1,3-.776h1.494v-.706a1.725,1.725,0,0,0-.481-1.282,1.935,1.935,0,0,0-1.419-.477,2.239,2.239,0,0,0-1.378.415,1.223,1.223,0,0,0-.556,1H18.282a2.119,2.119,0,0,1,.477-1.3,3.258,3.258,0,0,1,1.295-.992,4.356,4.356,0,0,1,1.8-.365,3.551,3.551,0,0,1,2.432.776,2.8,2.8,0,0,1,.913,2.137V63.9a5.054,5.054,0,0,0,.315,1.967V66Zm-2.548-1.17a2.7,2.7,0,0,0,1.37-.374,2.259,2.259,0,0,0,.938-.971V61.642h-1.2q-2.822,0-2.822,1.652a1.4,1.4,0,0,0,.481,1.129A1.85,1.85,0,0,0,21.353,64.83Zm7.737-.083h5.254V66h-7.13V64.871l4.956-6.583H27.289v-1.27H34.1v1.087ZM41.659,66a3.226,3.226,0,0,1-.216-.946,3.426,3.426,0,0,1-2.557,1.112,3.17,3.17,0,0,1-2.179-.751,2.43,2.43,0,0,1-.851-1.905,2.539,2.539,0,0,1,1.067-2.179,5.029,5.029,0,0,1,3-.776h1.494v-.706a1.725,1.725,0,0,0-.481-1.282,1.935,1.935,0,0,0-1.419-.477,2.239,2.239,0,0,0-1.378.415,1.223,1.223,0,0,0-.556,1H36.039a2.119,2.119,0,0,1,.477-1.3,3.258,3.258,0,0,1,1.295-.992,4.356,4.356,0,0,1,1.8-.365,3.551,3.551,0,0,1,2.432.776,2.8,2.8,0,0,1,.913,2.137V63.9a5.054,5.054,0,0,0,.315,1.967V66ZM39.11,64.83a2.7,2.7,0,0,0,1.37-.374,2.259,2.259,0,0,0,.938-.971V61.642h-1.2q-2.822,0-2.822,1.652a1.4,1.4,0,0,0,.481,1.129A1.85,1.85,0,0,0,39.11,64.83Zm13.9-3.221a5.34,5.34,0,0,1-.946,3.308,3.024,3.024,0,0,1-2.54,1.249,3.131,3.131,0,0,1-2.631-1.2L46.814,66H45.4V53.25h1.536v4.756A3.113,3.113,0,0,1,49.5,56.853a3.042,3.042,0,0,1,2.569,1.237,5.5,5.5,0,0,1,.934,3.387Zm-1.536-.174a4.15,4.15,0,0,0-.606-2.424,2.006,2.006,0,0,0-1.743-.855,2.255,2.255,0,0,0-2.183,1.411v3.885a2.318,2.318,0,0,0,2.2,1.411,2,2,0,0,0,1.718-.855A4.413,4.413,0,0,0,51.471,61.435ZM56.652,66H55.116V57.019h1.536Zm-1.66-11.364a.917.917,0,0,1,.228-.631.857.857,0,0,1,.677-.257.87.87,0,0,1,.681.257.907.907,0,0,1,.232.631.877.877,0,0,1-.232.623.886.886,0,0,1-.681.249.872.872,0,0,1-.677-.249A.886.886,0,0,1,54.992,54.636ZM60.82,66H59.284V53.25H60.82Zm4.168,0H63.452V57.019h1.536Zm-1.66-11.364a.917.917,0,0,1,.228-.631.857.857,0,0,1,.677-.257.87.87,0,0,1,.681.257.907.907,0,0,1,.232.631.877.877,0,0,1-.232.623.886.886,0,0,1-.681.249.872.872,0,0,1-.677-.249A.886.886,0,0,1,63.328,54.636Zm3.786,6.8a5.261,5.261,0,0,1,.979-3.324,3.333,3.333,0,0,1,5.063-.178V53.25h1.536V66H73.281l-.075-.963a3.127,3.127,0,0,1-2.565,1.129A3.068,3.068,0,0,1,68.1,64.888a5.321,5.321,0,0,1-.984-3.337Zm1.536.174A3.984,3.984,0,0,0,69.28,64a2.039,2.039,0,0,0,1.743.863,2.24,2.24,0,0,0,2.133-1.312V59.426a2.257,2.257,0,0,0-2.117-1.27,2.049,2.049,0,0,0-1.76.872A4.386,4.386,0,0,0,68.649,61.609ZM82.662,66a3.226,3.226,0,0,1-.216-.946,3.426,3.426,0,0,1-2.557,1.112,3.17,3.17,0,0,1-2.179-.751,2.43,2.43,0,0,1-.851-1.905,2.539,2.539,0,0,1,1.067-2.179,5.029,5.029,0,0,1,3-.776h1.494v-.706a1.725,1.725,0,0,0-.481-1.282,1.935,1.935,0,0,0-1.419-.477,2.239,2.239,0,0,0-1.378.415,1.223,1.223,0,0,0-.556,1H77.043a2.119,2.119,0,0,1,.477-1.3,3.258,3.258,0,0,1,1.295-.992,4.356,4.356,0,0,1,1.8-.365,3.551,3.551,0,0,1,2.432.776,2.8,2.8,0,0,1,.913,2.137V63.9a5.054,5.054,0,0,0,.315,1.967V66Zm-2.548-1.17a2.7,2.7,0,0,0,1.37-.374,2.259,2.259,0,0,0,.938-.971V61.642h-1.2q-2.822,0-2.822,1.652a1.4,1.4,0,0,0,.481,1.129A1.85,1.85,0,0,0,80.114,64.83Zm5.919-3.4a5.261,5.261,0,0,1,.979-3.324,3.333,3.333,0,0,1,5.063-.178V53.25h1.536V66H92.2l-.075-.963a3.127,3.127,0,0,1-2.565,1.129,3.068,3.068,0,0,1-2.544-1.278,5.321,5.321,0,0,1-.984-3.337Zm1.536.174A3.984,3.984,0,0,0,88.2,64a2.039,2.039,0,0,0,1.743.863,2.24,2.24,0,0,0,2.133-1.312V59.426a2.257,2.257,0,0,0-2.117-1.27,2.049,2.049,0,0,0-1.76.872A4.386,4.386,0,0,0,87.569,61.609Z" transform="translate(-5036 -6880)" fill="#12263f"/>
    <path id="Path_1033298" data-name="Path 1033298" d="M16.412,13.111H13.573V18h-1.6V5.914h4a4.736,4.736,0,0,1,3.142.93,3.345,3.345,0,0,1,1.1,2.706,3.254,3.254,0,0,1-.61,1.967,3.642,3.642,0,0,1-1.7,1.253l2.839,5.13V18h-1.71Zm-2.839-1.3h2.449a2.762,2.762,0,0,0,1.888-.615,2.081,2.081,0,0,0,.7-1.647,2.191,2.191,0,0,0-.668-1.721,2.829,2.829,0,0,0-1.93-.607h-2.44Zm12.4,6.358A3.924,3.924,0,0,1,23,16.967a4.452,4.452,0,0,1-1.146-3.208v-.282a5.39,5.39,0,0,1,.51-2.386A3.982,3.982,0,0,1,23.8,9.446a3.59,3.59,0,0,1,1.988-.594,3.364,3.364,0,0,1,2.723,1.154,5,5,0,0,1,.971,3.3v.639H23.394a3.193,3.193,0,0,0,.776,2.146,2.44,2.44,0,0,0,1.888.818,2.675,2.675,0,0,0,1.378-.332,3.462,3.462,0,0,0,.988-.88l.938.73A3.772,3.772,0,0,1,25.976,18.166Zm-.191-8.052a2.048,2.048,0,0,0-1.561.677,3.288,3.288,0,0,0-.78,1.9h4.5v-.116a2.925,2.925,0,0,0-.631-1.814A1.928,1.928,0,0,0,25.785,10.114Zm8.368,5.8,2.225-6.9h1.569L34.726,18h-1.17L30.3,9.019H31.87ZM41.135,18H39.6V9.019h1.536ZM39.475,6.636a.917.917,0,0,1,.228-.631.857.857,0,0,1,.677-.257.87.87,0,0,1,.681.257.907.907,0,0,1,.232.631.877.877,0,0,1-.232.623.886.886,0,0,1-.681.249.872.872,0,0,1-.677-.249A.886.886,0,0,1,39.475,6.636Zm9.389,8.981a1.13,1.13,0,0,0-.469-.967,4.514,4.514,0,0,0-1.635-.594,7.731,7.731,0,0,1-1.851-.6,2.633,2.633,0,0,1-1.013-.83,1.986,1.986,0,0,1-.328-1.146A2.33,2.33,0,0,1,44.5,9.616a3.647,3.647,0,0,1,2.386-.764,3.753,3.753,0,0,1,2.478.789,2.5,2.5,0,0,1,.95,2.017H48.773a1.386,1.386,0,0,0-.535-1.087,2.006,2.006,0,0,0-1.349-.457,2.1,2.1,0,0,0-1.312.365,1.15,1.15,0,0,0-.473.955.932.932,0,0,0,.44.838,5.413,5.413,0,0,0,1.59.54A8.283,8.283,0,0,1,49,13.426a2.718,2.718,0,0,1,1.058.859A2.112,2.112,0,0,1,50.4,15.51a2.3,2.3,0,0,1-.963,1.93,4.039,4.039,0,0,1-2.5.726,4.523,4.523,0,0,1-1.909-.382,3.105,3.105,0,0,1-1.3-1.067,2.571,2.571,0,0,1-.469-1.482H44.8a1.59,1.59,0,0,0,.618,1.224,2.4,2.4,0,0,0,1.523.452,2.476,2.476,0,0,0,1.4-.353A1.084,1.084,0,0,0,48.864,15.618ZM54.111,18H52.575V9.019h1.536ZM52.451,6.636a.917.917,0,0,1,.228-.631.857.857,0,0,1,.677-.257.87.87,0,0,1,.681.257.907.907,0,0,1,.232.631.877.877,0,0,1-.232.623.886.886,0,0,1-.681.249.872.872,0,0,1-.677-.249A.886.886,0,0,1,52.451,6.636Zm3.753,6.79a5.3,5.3,0,0,1,.519-2.374,3.87,3.87,0,0,1,1.444-1.627,3.932,3.932,0,0,1,2.113-.573,3.788,3.788,0,0,1,2.968,1.27A4.886,4.886,0,0,1,64.38,13.5v.108a5.351,5.351,0,0,1-.5,2.353,3.813,3.813,0,0,1-1.436,1.623,3.977,3.977,0,0,1-2.146.581,3.778,3.778,0,0,1-2.959-1.27A4.861,4.861,0,0,1,56.2,13.534Zm1.544.183a3.842,3.842,0,0,0,.693,2.4A2.349,2.349,0,0,0,62.156,16a4.2,4.2,0,0,0,.689-2.569,3.836,3.836,0,0,0-.7-2.395,2.23,2.23,0,0,0-1.864-.917,2.205,2.205,0,0,0-1.834.9A4.17,4.17,0,0,0,57.748,13.609ZM67.8,9.019l.05,1.129A3.273,3.273,0,0,1,70.54,8.853q2.847,0,2.872,3.212V18H71.877V12.057a2.068,2.068,0,0,0-.444-1.436,1.78,1.78,0,0,0-1.357-.465,2.216,2.216,0,0,0-1.312.4,2.706,2.706,0,0,0-.88,1.046V18H66.348V9.019Zm11.7,9.147a3.924,3.924,0,0,1-2.972-1.2,4.452,4.452,0,0,1-1.146-3.208v-.282a5.39,5.39,0,0,1,.51-2.386,3.982,3.982,0,0,1,1.428-1.644,3.59,3.59,0,0,1,1.988-.594,3.364,3.364,0,0,1,2.723,1.154A5,5,0,0,1,83,13.31v.639H76.916a3.193,3.193,0,0,0,.776,2.146,2.44,2.44,0,0,0,1.888.818,2.675,2.675,0,0,0,1.378-.332,3.462,3.462,0,0,0,.988-.88l.938.73A3.772,3.772,0,0,1,79.5,18.166Zm-.191-8.052a2.048,2.048,0,0,0-1.561.677,3.288,3.288,0,0,0-.78,1.9h4.5v-.116a2.925,2.925,0,0,0-.631-1.814A1.928,1.928,0,0,0,79.307,10.114Zm10.742,5.5a1.131,1.131,0,0,0-.469-.967,4.514,4.514,0,0,0-1.635-.594,7.731,7.731,0,0,1-1.851-.6,2.633,2.633,0,0,1-1.013-.83,1.986,1.986,0,0,1-.328-1.146,2.33,2.33,0,0,1,.934-1.868,3.647,3.647,0,0,1,2.386-.764,3.753,3.753,0,0,1,2.478.789,2.5,2.5,0,0,1,.95,2.017H89.958a1.386,1.386,0,0,0-.535-1.087,2.006,2.006,0,0,0-1.349-.457,2.1,2.1,0,0,0-1.312.365,1.15,1.15,0,0,0-.473.955.932.932,0,0,0,.44.838,5.413,5.413,0,0,0,1.59.54,8.283,8.283,0,0,1,1.864.614,2.718,2.718,0,0,1,1.058.859,2.112,2.112,0,0,1,.344,1.224,2.3,2.3,0,0,1-.963,1.93,4.039,4.039,0,0,1-2.5.726,4.523,4.523,0,0,1-1.909-.382,3.105,3.105,0,0,1-1.3-1.067,2.571,2.571,0,0,1-.469-1.482h1.536A1.59,1.59,0,0,0,86.6,16.46a2.4,2.4,0,0,0,1.523.452,2.476,2.476,0,0,0,1.4-.353A1.084,1.084,0,0,0,90.049,15.618ZM14.922,37.269V42H13.329V29.914h4.458a4.478,4.478,0,0,1,3.109,1.013,3.433,3.433,0,0,1,1.125,2.681,3.388,3.388,0,0,1-1.1,2.71,4.678,4.678,0,0,1-3.15.95Zm0-1.3h2.864a2.863,2.863,0,0,0,1.959-.6,2.2,2.2,0,0,0,.681-1.742,2.277,2.277,0,0,0-.681-1.73,2.682,2.682,0,0,0-1.868-.674H14.922ZM28.2,34.4a4.6,4.6,0,0,0-.755-.058,2.024,2.024,0,0,0-2.05,1.287V42H23.855V33.019h1.494l.025,1.038a2.391,2.391,0,0,1,2.142-1.2,1.569,1.569,0,0,1,.681.116Zm.881,3.03a5.3,5.3,0,0,1,.519-2.374,3.87,3.87,0,0,1,1.444-1.627,3.932,3.932,0,0,1,2.113-.573,3.788,3.788,0,0,1,2.968,1.27A4.886,4.886,0,0,1,37.253,37.5v.108a5.351,5.351,0,0,1-.5,2.353,3.813,3.813,0,0,1-1.436,1.623,3.977,3.977,0,0,1-2.146.581A3.778,3.778,0,0,1,30.21,40.9a4.861,4.861,0,0,1-1.133-3.362Zm1.544.183a3.842,3.842,0,0,0,.693,2.4A2.349,2.349,0,0,0,35.029,40a4.2,4.2,0,0,0,.689-2.569,3.836,3.836,0,0,0-.7-2.395,2.23,2.23,0,0,0-1.864-.917,2.205,2.205,0,0,0-1.834.9A4.17,4.17,0,0,0,30.621,37.609Zm10.684-6.765v2.175h1.677v1.187H41.305v5.577a1.247,1.247,0,0,0,.224.81.943.943,0,0,0,.764.27,3.718,3.718,0,0,0,.73-.1V42a4.478,4.478,0,0,1-1.179.165,1.912,1.912,0,0,1-1.552-.623,2.675,2.675,0,0,1-.523-1.768v-5.57H38.134V33.019H39.77V30.844Zm2.939,6.583a5.3,5.3,0,0,1,.519-2.374,3.87,3.87,0,0,1,1.444-1.627,3.932,3.932,0,0,1,2.113-.573,3.788,3.788,0,0,1,2.968,1.27A4.886,4.886,0,0,1,52.421,37.5v.108a5.351,5.351,0,0,1-.5,2.353,3.813,3.813,0,0,1-1.436,1.623,3.977,3.977,0,0,1-2.146.581,3.778,3.778,0,0,1-2.959-1.27,4.861,4.861,0,0,1-1.133-3.362Zm1.544.183a3.842,3.842,0,0,0,.693,2.4A2.349,2.349,0,0,0,50.2,40a4.2,4.2,0,0,0,.689-2.569,3.836,3.836,0,0,0-.7-2.395,2.23,2.23,0,0,0-1.864-.917,2.205,2.205,0,0,0-1.834.9A4.17,4.17,0,0,0,45.789,37.609Zm10.684-6.765v2.175h1.677v1.187H56.473v5.577a1.247,1.247,0,0,0,.224.81.943.943,0,0,0,.764.27,3.718,3.718,0,0,0,.73-.1V42a4.478,4.478,0,0,1-1.179.165,1.912,1.912,0,0,1-1.552-.623,2.675,2.675,0,0,1-.523-1.768v-5.57H53.3V33.019h1.635V30.844ZM61.653,42H60.118V33.019h1.536Zm-1.66-11.364a.917.917,0,0,1,.228-.631.857.857,0,0,1,.677-.257.87.87,0,0,1,.681.257.907.907,0,0,1,.232.631.877.877,0,0,1-.232.623.886.886,0,0,1-.681.249.872.872,0,0,1-.677-.249A.886.886,0,0,1,59.993,30.636ZM71.74,37.609a5.378,5.378,0,0,1-.938,3.3,3.006,3.006,0,0,1-2.54,1.253,3.294,3.294,0,0,1-2.573-1.038v4.325H64.153V33.019h1.4l.075,1a3.163,3.163,0,0,1,2.606-1.162,3.063,3.063,0,0,1,2.561,1.22,5.437,5.437,0,0,1,.942,3.4ZM70.2,37.435a3.968,3.968,0,0,0-.647-2.4,2.086,2.086,0,0,0-1.776-.88,2.257,2.257,0,0,0-2.092,1.237v4.292A2.262,2.262,0,0,0,67.8,40.913a2.076,2.076,0,0,0,1.756-.876A4.332,4.332,0,0,0,70.2,37.435Zm3.122-.008a5.3,5.3,0,0,1,.519-2.374,3.87,3.87,0,0,1,1.444-1.627,3.932,3.932,0,0,1,2.113-.573,3.788,3.788,0,0,1,2.968,1.27A4.886,4.886,0,0,1,81.5,37.5v.108a5.351,5.351,0,0,1-.5,2.353,3.813,3.813,0,0,1-1.436,1.623,3.977,3.977,0,0,1-2.146.581,3.778,3.778,0,0,1-2.959-1.27,4.861,4.861,0,0,1-1.133-3.362Zm1.544.183a3.842,3.842,0,0,0,.693,2.4A2.349,2.349,0,0,0,79.278,40a4.2,4.2,0,0,0,.689-2.569,3.836,3.836,0,0,0-.7-2.395,2.23,2.23,0,0,0-1.864-.917,2.205,2.205,0,0,0-1.834.9A4.17,4.17,0,0,0,74.87,37.609ZM88.7,39.618a1.131,1.131,0,0,0-.469-.967,4.514,4.514,0,0,0-1.635-.594,7.731,7.731,0,0,1-1.851-.6,2.633,2.633,0,0,1-1.013-.83,1.986,1.986,0,0,1-.328-1.146,2.33,2.33,0,0,1,.934-1.868,3.647,3.647,0,0,1,2.386-.764,3.753,3.753,0,0,1,2.478.789,2.5,2.5,0,0,1,.95,2.017H88.609a1.386,1.386,0,0,0-.535-1.087,2.006,2.006,0,0,0-1.349-.457,2.1,2.1,0,0,0-1.312.365,1.15,1.15,0,0,0-.473.955.932.932,0,0,0,.44.838,5.413,5.413,0,0,0,1.59.54,8.283,8.283,0,0,1,1.864.614,2.718,2.718,0,0,1,1.058.859,2.112,2.112,0,0,1,.344,1.224,2.3,2.3,0,0,1-.963,1.93,4.039,4.039,0,0,1-2.5.726,4.523,4.523,0,0,1-1.909-.382,3.105,3.105,0,0,1-1.3-1.067,2.571,2.571,0,0,1-.469-1.482h1.536a1.59,1.59,0,0,0,.618,1.224,2.4,2.4,0,0,0,1.523.452,2.476,2.476,0,0,0,1.4-.353A1.084,1.084,0,0,0,88.7,39.618ZM5.5,61.269V66H3.9V53.914H8.361a4.478,4.478,0,0,1,3.109,1.013,3.433,3.433,0,0,1,1.125,2.681,3.388,3.388,0,0,1-1.1,2.71,4.678,4.678,0,0,1-3.15.95Zm0-1.3H8.361a2.863,2.863,0,0,0,1.959-.6A2.2,2.2,0,0,0,11,57.62a2.277,2.277,0,0,0-.681-1.73,2.682,2.682,0,0,0-1.868-.674H5.5ZM18.771,58.4a4.6,4.6,0,0,0-.755-.058,2.024,2.024,0,0,0-2.05,1.287V66H14.429V57.019h1.494l.025,1.038a2.391,2.391,0,0,1,2.142-1.2,1.569,1.569,0,0,1,.681.116Zm7,6.715a3.262,3.262,0,0,1-2.631,1.054,2.792,2.792,0,0,1-2.187-.834,3.611,3.611,0,0,1-.76-2.469V57.019h1.536v5.8q0,2.042,1.66,2.042a2.3,2.3,0,0,0,2.341-1.312V57.019h1.536V66H25.8Zm7.6,1.054a3.924,3.924,0,0,1-2.972-1.2,4.452,4.452,0,0,1-1.146-3.208v-.282a5.39,5.39,0,0,1,.51-2.386,3.982,3.982,0,0,1,1.428-1.644,3.59,3.59,0,0,1,1.988-.594A3.364,3.364,0,0,1,35.9,58.006a5,5,0,0,1,.971,3.3v.639H30.784a3.193,3.193,0,0,0,.776,2.146,2.44,2.44,0,0,0,1.888.818,2.675,2.675,0,0,0,1.378-.332,3.462,3.462,0,0,0,.988-.88l.938.73A3.772,3.772,0,0,1,33.365,66.166Zm-.191-8.052a2.048,2.048,0,0,0-1.561.677,3.288,3.288,0,0,0-.78,1.9h4.5v-.116a2.925,2.925,0,0,0-.631-1.814A1.928,1.928,0,0,0,33.175,58.114Zm13.116,3.495a5.34,5.34,0,0,1-.946,3.308,3.024,3.024,0,0,1-2.54,1.249,3.131,3.131,0,0,1-2.631-1.2L40.1,66H38.687V53.25h1.536v4.756a3.113,3.113,0,0,1,2.565-1.154,3.042,3.042,0,0,1,2.569,1.237,5.5,5.5,0,0,1,.934,3.387Zm-1.536-.174a4.15,4.15,0,0,0-.606-2.424,2.006,2.006,0,0,0-1.743-.855,2.255,2.255,0,0,0-2.183,1.411v3.885a2.318,2.318,0,0,0,2.2,1.411,2,2,0,0,0,1.718-.855A4.413,4.413,0,0,0,44.755,61.435ZM53.812,66a3.226,3.226,0,0,1-.216-.946,3.426,3.426,0,0,1-2.557,1.112,3.17,3.17,0,0,1-2.179-.751,2.43,2.43,0,0,1-.851-1.905,2.539,2.539,0,0,1,1.067-2.179,5.029,5.029,0,0,1,3-.776h1.494v-.706a1.725,1.725,0,0,0-.481-1.282,1.935,1.935,0,0,0-1.419-.477,2.239,2.239,0,0,0-1.378.415,1.223,1.223,0,0,0-.556,1H48.193a2.119,2.119,0,0,1,.477-1.3,3.258,3.258,0,0,1,1.295-.992,4.356,4.356,0,0,1,1.8-.365,3.551,3.551,0,0,1,2.432.776,2.8,2.8,0,0,1,.913,2.137V63.9a5.054,5.054,0,0,0,.315,1.967V66Zm-2.548-1.17a2.7,2.7,0,0,0,1.37-.374,2.259,2.259,0,0,0,.938-.971V61.642h-1.2q-2.822,0-2.822,1.652a1.4,1.4,0,0,0,.481,1.129A1.85,1.85,0,0,0,51.264,64.83Zm11.522-1.212a1.13,1.13,0,0,0-.469-.967,4.514,4.514,0,0,0-1.635-.594,7.731,7.731,0,0,1-1.851-.6,2.633,2.633,0,0,1-1.013-.83,1.986,1.986,0,0,1-.328-1.146,2.33,2.33,0,0,1,.934-1.868,3.647,3.647,0,0,1,2.386-.764,3.753,3.753,0,0,1,2.478.789,2.5,2.5,0,0,1,.95,2.017H62.7a1.386,1.386,0,0,0-.535-1.087,2.006,2.006,0,0,0-1.349-.457,2.1,2.1,0,0,0-1.312.365,1.15,1.15,0,0,0-.473.955.932.932,0,0,0,.44.838,5.413,5.413,0,0,0,1.59.54,8.283,8.283,0,0,1,1.864.614,2.718,2.718,0,0,1,1.058.859,2.112,2.112,0,0,1,.344,1.224,2.3,2.3,0,0,1-.963,1.93,4.039,4.039,0,0,1-2.5.726,4.523,4.523,0,0,1-1.909-.382,3.105,3.105,0,0,1-1.3-1.067,2.571,2.571,0,0,1-.469-1.482h1.536a1.59,1.59,0,0,0,.618,1.224,2.4,2.4,0,0,0,1.523.452,2.476,2.476,0,0,0,1.4-.353A1.084,1.084,0,0,0,62.786,63.618Zm16.579-9.7v8.218a3.855,3.855,0,0,1-1.075,2.8,4.332,4.332,0,0,1-2.893,1.22l-.423.017A4.524,4.524,0,0,1,71.811,65.1a3.83,3.83,0,0,1-1.2-2.947V53.914h1.577V62.1a2.521,2.521,0,0,0,2.781,2.764,2.794,2.794,0,0,0,2.071-.722,2.759,2.759,0,0,0,.718-2.034V53.914Zm9.049,8.923H83.35L82.213,66H80.57l4.615-12.086h1.395L91.2,66H89.568Zm-4.582-1.3h4.109l-2.059-5.653Zm16.32-6.317H96.267V66H94.682V55.217H90.806v-1.3h9.347Z" transform="translate(-4835 -6880)" fill="#12263f"/>
    <rect id="Rectangle_458979" data-name="Rectangle 458979" width="138" height="38" transform="translate(-5057 -7338)" fill="#19538d"/>
    <rect id="Rectangle_458976" data-name="Rectangle 458976" width="138" height="38" transform="translate(-4853 -7338)" fill="#19538d"/>
    <rect id="Rectangle_458977" data-name="Rectangle 458977" width="138" height="38" transform="translate(-4853 -7136)" fill="#19538d"/>
    <rect id="Rectangle_458972" data-name="Rectangle 458972" width="138" height="38" transform="translate(-5057 -6934)" fill="#19538d"/>
    <rect id="Rectangle_458973" data-name="Rectangle 458973" width="138" height="38" transform="translate(-4853 -6934)" fill="#19538d"/>
    <path id="Path_1033289" data-name="Path 1033289" d="M30.428,12.87H25.846v2.889h5.412V18H22.932V5.914h8.342v2.25H25.846v2.548h4.582ZM35.31,18H32.5V5.25H35.31Zm4.716,0H37.22V9.019h2.806ZM37.054,6.7a1.249,1.249,0,0,1,.432-.979,1.835,1.835,0,0,1,2.241,0,1.249,1.249,0,0,1,.432.979,1.249,1.249,0,0,1-.432.979,1.835,1.835,0,0,1-2.241,0A1.249,1.249,0,0,1,37.054,6.7Zm8.534,9.305a1.244,1.244,0,0,0,.913-.32,1.172,1.172,0,0,0,.315-.892h2.623a3.105,3.105,0,0,1-1.058,2.424,3.937,3.937,0,0,1-2.727.946,3.986,3.986,0,0,1-3.088-1.229,4.841,4.841,0,0,1-1.129-3.4v-.116a5.471,5.471,0,0,1,.5-2.4,3.656,3.656,0,0,1,1.448-1.6,4.319,4.319,0,0,1,2.241-.56,3.887,3.887,0,0,1,2.781.971,3.445,3.445,0,0,1,1.029,2.631H46.816a1.536,1.536,0,0,0-.34-1.071,1.175,1.175,0,0,0-.913-.374q-1.087,0-1.27,1.386a9.781,9.781,0,0,0-.058,1.212,3.842,3.842,0,0,0,.324,1.876A1.121,1.121,0,0,0,45.588,16.008ZM53.616,18H50.81V9.019h2.806ZM50.644,6.7a1.249,1.249,0,0,1,.432-.979,1.835,1.835,0,0,1,2.241,0,1.249,1.249,0,0,1,.432.979,1.249,1.249,0,0,1-.432.979,1.835,1.835,0,0,1-2.241,0A1.249,1.249,0,0,1,50.644,6.7Zm7.995.083V9.019h1.478v1.942H58.639V15.07a1.049,1.049,0,0,0,.183.706.98.98,0,0,0,.722.2,4.1,4.1,0,0,0,.7-.05v2a5.163,5.163,0,0,1-1.577.241,2.93,2.93,0,0,1-2.133-.681,2.79,2.79,0,0,1-.689-2.067V10.961H54.7V9.019h1.146V6.786ZM66.318,18a3.159,3.159,0,0,1-.266-.805,2.6,2.6,0,0,1-2.158.971,3.187,3.187,0,0,1-2.158-.768,2.444,2.444,0,0,1-.888-1.93,2.512,2.512,0,0,1,1.079-2.208,5.5,5.5,0,0,1,3.138-.747h.863v-.475q0-1.243-1.071-1.243a.875.875,0,0,0-1,.984h-2.8a2.508,2.508,0,0,1,1.108-2.114A4.657,4.657,0,0,1,65,8.853a4.083,4.083,0,0,1,2.714.838,2.915,2.915,0,0,1,1.021,2.3v3.976a4.072,4.072,0,0,0,.382,1.893V18Zm-1.751-1.826a1.56,1.56,0,0,0,.867-.224,1.4,1.4,0,0,0,.494-.506V14.007h-.813q-1.461,0-1.461,1.312a.8.8,0,0,0,.257.618A.931.931,0,0,0,64.566,16.174Zm11.19-4.624-.921-.066a1.655,1.655,0,0,0-1.693.83V18h-2.8V9.019h2.623l.091,1.154a2.166,2.166,0,0,1,1.967-1.32,2.728,2.728,0,0,1,.78.1Z" transform="translate(-5024 -7329)" fill="#fff"/>
    <path id="Path_1033290" data-name="Path 1033290" d="M21.953,15.742H17.961L17.263,18H14.151L18.583,5.914h2.739L25.788,18H22.659Zm-3.3-2.25h2.6L19.953,9.3ZM28.753,9.019l.091,1.054a3.046,3.046,0,0,1,2.565-1.22,2.562,2.562,0,0,1,2.1.838,3.991,3.991,0,0,1,.718,2.523V18H31.417V12.331a1.516,1.516,0,0,0-.274-1,1.267,1.267,0,0,0-1-.32,1.334,1.334,0,0,0-1.22.647V18h-2.8V9.019ZM40.873,18a3.158,3.158,0,0,1-.266-.805,2.6,2.6,0,0,1-2.158.971,3.187,3.187,0,0,1-2.158-.768,2.444,2.444,0,0,1-.888-1.93,2.512,2.512,0,0,1,1.079-2.208,5.5,5.5,0,0,1,3.138-.747h.863v-.475q0-1.243-1.071-1.243a.875.875,0,0,0-1,.984h-2.8a2.508,2.508,0,0,1,1.108-2.114,4.657,4.657,0,0,1,2.826-.813,4.083,4.083,0,0,1,2.714.838,2.915,2.915,0,0,1,1.021,2.3v3.976a4.072,4.072,0,0,0,.382,1.893V18Zm-1.751-1.826a1.56,1.56,0,0,0,.867-.224,1.4,1.4,0,0,0,.494-.506V14.007h-.813q-1.461,0-1.461,1.312a.8.8,0,0,0,.257.618A.931.931,0,0,0,39.121,16.174ZM47.83,18H45.024V5.25H47.83Zm4.716,0H49.74V9.019h2.806ZM49.574,6.7a1.249,1.249,0,0,1,.432-.979,1.835,1.835,0,0,1,2.241,0,1.249,1.249,0,0,1,.432.979,1.249,1.249,0,0,1-.432.979,1.835,1.835,0,0,1-2.241,0A1.249,1.249,0,0,1,49.574,6.7Zm8.036,9.139H61.7V18H54.074V16.439l3.984-5.263h-3.81V9.019h7.363v1.511ZM68.161,18a3.159,3.159,0,0,1-.266-.805,2.6,2.6,0,0,1-2.158.971,3.187,3.187,0,0,1-2.158-.768,2.444,2.444,0,0,1-.888-1.93A2.512,2.512,0,0,1,63.77,13.26a5.5,5.5,0,0,1,3.138-.747h.863v-.475q0-1.243-1.071-1.243a.875.875,0,0,0-1,.984h-2.8a2.508,2.508,0,0,1,1.108-2.114,4.657,4.657,0,0,1,2.826-.813,4.083,4.083,0,0,1,2.714.838,2.915,2.915,0,0,1,1.021,2.3v3.976a4.072,4.072,0,0,0,.382,1.893V18ZM66.41,16.174a1.56,1.56,0,0,0,.867-.224,1.4,1.4,0,0,0,.494-.506V14.007h-.813q-1.461,0-1.461,1.312a.8.8,0,0,0,.257.618A.931.931,0,0,0,66.41,16.174ZM77.6,11.55l-.921-.066a1.655,1.655,0,0,0-1.693.83V18h-2.8V9.019h2.623l.091,1.154a2.166,2.166,0,0,1,1.967-1.32,2.728,2.728,0,0,1,.78.1Z" transform="translate(-4814 -7329)" fill="#fff"/>
    <path id="Path_1033293" data-name="Path 1033293" d="M13.89,12.87H9.308v2.889H14.72V18H6.394V5.914h8.342v2.25H9.308v2.548H13.89Zm6.633,2.606a.646.646,0,0,0-.374-.573,5.682,5.682,0,0,0-1.419-.448A6.473,6.473,0,0,1,17,13.845a2.892,2.892,0,0,1-1.038-.917,2.19,2.19,0,0,1-.357-1.237A2.482,2.482,0,0,1,16.63,9.654a4.206,4.206,0,0,1,2.673-.8,4.66,4.66,0,0,1,2.855.805,2.518,2.518,0,0,1,1.079,2.117H20.432q0-1.079-1.137-1.079a1.127,1.127,0,0,0-.739.245.758.758,0,0,0-.3.61.7.7,0,0,0,.365.606,3.451,3.451,0,0,0,1.166.382A10.078,10.078,0,0,1,21.2,12.9a2.556,2.556,0,0,1,2.025,2.5,2.352,2.352,0,0,1-1.092,2,4.787,4.787,0,0,1-2.826.772,4.885,4.885,0,0,1-2.059-.415,3.442,3.442,0,0,1-1.411-1.129,2.556,2.556,0,0,1-.506-1.5h2.615a1.081,1.081,0,0,0,.415.909,1.707,1.707,0,0,0,1.021.286,1.343,1.343,0,0,0,.859-.232A.743.743,0,0,0,20.523,15.477Zm12.386-1.9a5.416,5.416,0,0,1-.942,3.341,3.021,3.021,0,0,1-2.544,1.249,2.589,2.589,0,0,1-2.034-.9v4.192h-2.8V9.019h2.615l.083.83a2.589,2.589,0,0,1,2.117-1,3.045,3.045,0,0,1,2.582,1.224,5.483,5.483,0,0,1,.921,3.366Zm-2.8-.174q0-2.391-1.395-2.391a1.316,1.316,0,0,0-1.328.714v3.536a1.359,1.359,0,0,0,1.345.747q1.336,0,1.378-2.308Zm8.418,4.765a4.617,4.617,0,0,1-3.345-1.233,4.257,4.257,0,0,1-1.278-3.208v-.232a5.516,5.516,0,0,1,.51-2.432,3.735,3.735,0,0,1,1.49-1.631,4.5,4.5,0,0,1,2.324-.577,3.888,3.888,0,0,1,2.988,1.175,4.616,4.616,0,0,1,1.1,3.275v1.087H36.753a2.016,2.016,0,0,0,.656,1.187,1.951,1.951,0,0,0,1.312.432,2.514,2.514,0,0,0,2.075-.93l1.278,1.511a3.573,3.573,0,0,1-1.482,1.15A5.007,5.007,0,0,1,38.529,18.166Zm-.315-7.155q-1.229,0-1.461,1.627h2.822v-.216a1.386,1.386,0,0,0-.34-1.042A1.354,1.354,0,0,0,38.214,11.011Zm9.065,5a1.244,1.244,0,0,0,.913-.32,1.172,1.172,0,0,0,.315-.892h2.623a3.105,3.105,0,0,1-1.058,2.424,3.937,3.937,0,0,1-2.727.946,3.986,3.986,0,0,1-3.088-1.229,4.841,4.841,0,0,1-1.129-3.4v-.116a5.471,5.471,0,0,1,.5-2.4,3.656,3.656,0,0,1,1.448-1.6,4.319,4.319,0,0,1,2.241-.56,3.887,3.887,0,0,1,2.781.971,3.445,3.445,0,0,1,1.029,2.631H48.508a1.536,1.536,0,0,0-.34-1.071,1.175,1.175,0,0,0-.913-.374q-1.087,0-1.27,1.386a9.781,9.781,0,0,0-.058,1.212,3.842,3.842,0,0,0,.324,1.876A1.121,1.121,0,0,0,47.279,16.008ZM55.307,18H52.5V9.019h2.806ZM52.335,6.7a1.249,1.249,0,0,1,.432-.979,1.835,1.835,0,0,1,2.241,0,1.249,1.249,0,0,1,.432.979,1.249,1.249,0,0,1-.432.979,1.835,1.835,0,0,1-2.241,0A1.249,1.249,0,0,1,52.335,6.7ZM57.724,18V10.961h-1.3V9.019h1.3v-.3A3.429,3.429,0,0,1,58.9,5.972a4.71,4.71,0,0,1,3.063-.9,10.869,10.869,0,0,1,2.922.481l-.382,2.208-.465-.125A7.4,7.4,0,0,0,62.131,7.4q-1.6,0-1.6,1.461v.158h1.76v1.942h-1.76V18Zm8.45,0H63.36V9.019h2.814Zm5.546-1.992a1.244,1.244,0,0,0,.913-.32,1.172,1.172,0,0,0,.315-.892h2.623a3.105,3.105,0,0,1-1.058,2.424,3.937,3.937,0,0,1-2.727.946A3.986,3.986,0,0,1,68.7,16.938a4.841,4.841,0,0,1-1.129-3.4v-.116a5.471,5.471,0,0,1,.5-2.4,3.656,3.656,0,0,1,1.448-1.6,4.319,4.319,0,0,1,2.241-.56,3.887,3.887,0,0,1,2.781.971,3.445,3.445,0,0,1,1.029,2.631H72.948a1.536,1.536,0,0,0-.34-1.071,1.175,1.175,0,0,0-.913-.374q-1.087,0-1.27,1.386a9.782,9.782,0,0,0-.058,1.212,3.842,3.842,0,0,0,.324,1.876A1.121,1.121,0,0,0,71.72,16.008ZM81.856,18a3.159,3.159,0,0,1-.266-.805,2.6,2.6,0,0,1-2.158.971,3.187,3.187,0,0,1-2.158-.768,2.444,2.444,0,0,1-.888-1.93,2.512,2.512,0,0,1,1.079-2.208,5.5,5.5,0,0,1,3.138-.747h.863v-.475q0-1.243-1.071-1.243a.875.875,0,0,0-1,.984H76.6A2.508,2.508,0,0,1,77.71,9.665a4.657,4.657,0,0,1,2.826-.813,4.083,4.083,0,0,1,2.714.838,2.915,2.915,0,0,1,1.021,2.3v3.976a4.072,4.072,0,0,0,.382,1.893V18ZM80.1,16.174a1.56,1.56,0,0,0,.867-.224,1.4,1.4,0,0,0,.494-.506V14.007h-.813q-1.461,0-1.461,1.312a.8.8,0,0,0,.257.618A.931.931,0,0,0,80.1,16.174ZM91.3,11.55l-.921-.066a1.655,1.655,0,0,0-1.693.83V18h-2.8V9.019h2.623l.091,1.154a2.166,2.166,0,0,1,1.967-1.32,2.728,2.728,0,0,1,.78.1Z" transform="translate(-4819 -7127)" fill="#fff"/>
    <path id="Path_1033295" data-name="Path 1033295" d="M34.809,16.506a4.685,4.685,0,0,1-1.967,1.2A8.485,8.485,0,0,1,30,18.166a5.062,5.062,0,0,1-3.793-1.453,5.88,5.88,0,0,1-1.519-4.042l-.008-1.046a7.213,7.213,0,0,1,.631-3.117,4.685,4.685,0,0,1,1.805-2.05,5.107,5.107,0,0,1,2.719-.718,5.354,5.354,0,0,1,3.507,1.033A4.379,4.379,0,0,1,34.8,9.857H32a2.291,2.291,0,0,0-.647-1.444,2.089,2.089,0,0,0-1.411-.432,1.9,1.9,0,0,0-1.693.93,4.964,4.964,0,0,0-.606,2.656v.73a4.86,4.86,0,0,0,.618,2.719,2.187,2.187,0,0,0,1.947.909,2.448,2.448,0,0,0,1.693-.506V13.542H29.87v-2h4.939Zm5.953,1.66a4.617,4.617,0,0,1-3.345-1.233,4.257,4.257,0,0,1-1.278-3.208v-.232a5.516,5.516,0,0,1,.51-2.432,3.735,3.735,0,0,1,1.49-1.631,4.5,4.5,0,0,1,2.324-.577,3.888,3.888,0,0,1,2.988,1.175,4.616,4.616,0,0,1,1.1,3.275v1.087H38.985a2.016,2.016,0,0,0,.656,1.187,1.951,1.951,0,0,0,1.312.432,2.514,2.514,0,0,0,2.075-.93l1.278,1.511a3.573,3.573,0,0,1-1.482,1.15A5.007,5.007,0,0,1,40.762,18.166Zm-.315-7.155q-1.229,0-1.461,1.627h2.822v-.216a1.386,1.386,0,0,0-.34-1.042A1.354,1.354,0,0,0,40.446,11.011Zm9.97,4.466a.646.646,0,0,0-.374-.573,5.682,5.682,0,0,0-1.419-.448,6.473,6.473,0,0,1-1.727-.61,2.892,2.892,0,0,1-1.038-.917,2.19,2.19,0,0,1-.357-1.237,2.482,2.482,0,0,1,1.021-2.038,4.206,4.206,0,0,1,2.673-.8,4.66,4.66,0,0,1,2.855.805,2.518,2.518,0,0,1,1.079,2.117H50.325q0-1.079-1.137-1.079a1.127,1.127,0,0,0-.739.245.758.758,0,0,0-.3.61.7.7,0,0,0,.365.606,3.451,3.451,0,0,0,1.166.382,10.078,10.078,0,0,1,1.407.357,2.556,2.556,0,0,1,2.025,2.5,2.352,2.352,0,0,1-1.092,2,4.787,4.787,0,0,1-2.826.772,4.885,4.885,0,0,1-2.059-.415,3.442,3.442,0,0,1-1.411-1.129,2.556,2.556,0,0,1-.506-1.5h2.615a1.081,1.081,0,0,0,.415.909,1.707,1.707,0,0,0,1.021.286,1.343,1.343,0,0,0,.859-.232A.743.743,0,0,0,50.416,15.477Zm7.306-8.691V9.019H59.2v1.942H57.722V15.07a1.049,1.049,0,0,0,.183.706.98.98,0,0,0,.722.2,4.1,4.1,0,0,0,.7-.05v2a5.163,5.163,0,0,1-1.577.241,2.93,2.93,0,0,1-2.133-.681,2.79,2.79,0,0,1-.689-2.067V10.961H53.779V9.019h1.146V6.786ZM63.293,18H60.487V9.019h2.806ZM60.321,6.7a1.249,1.249,0,0,1,.432-.979,1.835,1.835,0,0,1,2.241,0,1.249,1.249,0,0,1,.432.979,1.249,1.249,0,0,1-.432.979,1.835,1.835,0,0,1-2.241,0A1.249,1.249,0,0,1,60.321,6.7Zm4.384,6.724a5.3,5.3,0,0,1,.523-2.395,3.74,3.74,0,0,1,1.5-1.615,4.525,4.525,0,0,1,2.3-.564A4.13,4.13,0,0,1,72.209,10.1a4.794,4.794,0,0,1,1.162,3.4v.1A4.651,4.651,0,0,1,72.2,16.933a4.141,4.141,0,0,1-3.158,1.233,4.188,4.188,0,0,1-3.08-1.15A4.5,4.5,0,0,1,64.713,13.9Zm2.8.174a3.342,3.342,0,0,0,.39,1.826,1.3,1.3,0,0,0,1.154.581q1.494,0,1.527-2.3v-.282q0-2.416-1.544-2.416-1.4,0-1.519,2.083Zm9.713-4.582.091,1.054a3.046,3.046,0,0,1,2.565-1.22,2.562,2.562,0,0,1,2.1.838,3.991,3.991,0,0,1,.718,2.523V18H79.88V12.331a1.516,1.516,0,0,0-.274-1,1.267,1.267,0,0,0-1-.32,1.334,1.334,0,0,0-1.22.647V18h-2.8V9.019ZM89.336,18a3.159,3.159,0,0,1-.266-.805,2.6,2.6,0,0,1-2.158.971,3.187,3.187,0,0,1-2.158-.768,2.444,2.444,0,0,1-.888-1.93,2.512,2.512,0,0,1,1.079-2.208,5.5,5.5,0,0,1,3.138-.747h.863v-.475q0-1.243-1.071-1.243a.875.875,0,0,0-1,.984h-2.8a2.508,2.508,0,0,1,1.108-2.114,4.657,4.657,0,0,1,2.826-.813,4.083,4.083,0,0,1,2.714.838,2.915,2.915,0,0,1,1.021,2.3v3.976a4.072,4.072,0,0,0,.382,1.893V18Zm-1.751-1.826a1.56,1.56,0,0,0,.867-.224,1.4,1.4,0,0,0,.494-.506V14.007h-.813q-1.461,0-1.461,1.312a.8.8,0,0,0,.257.618A.931.931,0,0,0,87.584,16.174Zm11.19-4.624-.921-.066a1.655,1.655,0,0,0-1.693.83V18h-2.8V9.019h2.623l.091,1.154a2.166,2.166,0,0,1,1.967-1.32,2.728,2.728,0,0,1,.78.1Z" transform="translate(-5049 -6925)" fill="#fff"/>
    <path id="Path_1033296" data-name="Path 1033296" d="M39.853,14.713l2.407-8.8h3.254L41.446,18H38.259L34.225,5.914h3.229ZM50.985,18a3.158,3.158,0,0,1-.266-.805,2.6,2.6,0,0,1-2.158.971A3.187,3.187,0,0,1,46.4,17.4a2.444,2.444,0,0,1-.888-1.93,2.512,2.512,0,0,1,1.079-2.208,5.5,5.5,0,0,1,3.138-.747h.863v-.475q0-1.243-1.071-1.243a.875.875,0,0,0-1,.984h-2.8a2.508,2.508,0,0,1,1.108-2.114,4.657,4.657,0,0,1,2.826-.813,4.083,4.083,0,0,1,2.714.838,2.915,2.915,0,0,1,1.021,2.3v3.976a4.072,4.072,0,0,0,.382,1.893V18Zm-1.751-1.826a1.56,1.56,0,0,0,.867-.224,1.4,1.4,0,0,0,.494-.506V14.007h-.813q-1.461,0-1.461,1.312a.8.8,0,0,0,.257.618A.931.931,0,0,0,49.234,16.174ZM57.942,18H55.136V5.25h2.806Zm4.716,0H59.852V9.019h2.806ZM59.686,6.7a1.249,1.249,0,0,1,.432-.979,1.835,1.835,0,0,1,2.241,0,1.249,1.249,0,0,1,.432.979,1.249,1.249,0,0,1-.432.979,1.835,1.835,0,0,1-2.241,0A1.249,1.249,0,0,1,59.686,6.7Zm4.384,6.74a5.486,5.486,0,0,1,.921-3.362,3.033,3.033,0,0,1,2.573-1.229A2.579,2.579,0,0,1,69.59,9.8V5.25H72.4V18H69.881l-.141-.963a2.649,2.649,0,0,1-2.191,1.129,3.027,3.027,0,0,1-2.54-1.229A5.66,5.66,0,0,1,64.07,13.443Zm2.8.174q0,2.391,1.395,2.391a1.377,1.377,0,0,0,1.328-.78v-3.42a1.34,1.34,0,0,0-1.312-.8q-1.295,0-1.4,2.092ZM79.087,18a3.159,3.159,0,0,1-.266-.805,2.6,2.6,0,0,1-2.158.971,3.187,3.187,0,0,1-2.158-.768,2.444,2.444,0,0,1-.888-1.93A2.512,2.512,0,0,1,74.7,13.26a5.5,5.5,0,0,1,3.138-.747H78.7v-.475q0-1.243-1.071-1.243a.875.875,0,0,0-1,.984h-2.8a2.508,2.508,0,0,1,1.108-2.114,4.657,4.657,0,0,1,2.826-.813,4.083,4.083,0,0,1,2.714.838,2.915,2.915,0,0,1,1.021,2.3v3.976a4.072,4.072,0,0,0,.382,1.893V18Zm-1.751-1.826a1.56,1.56,0,0,0,.867-.224,1.4,1.4,0,0,0,.494-.506V14.007h-.813q-1.461,0-1.461,1.312a.8.8,0,0,0,.257.618A.931.931,0,0,0,77.336,16.174Zm11.19-4.624-.921-.066a1.655,1.655,0,0,0-1.693.83V18h-2.8V9.019h2.623l.091,1.154A2.166,2.166,0,0,1,87.8,8.853a2.728,2.728,0,0,1,.78.1Z" transform="translate(-4845 -6925)" fill="#fff"/>
    <g id="Group_1188623" data-name="Group 1188623" transform="translate(-6678.858 -6839.753) rotate(-90)">
      <path id="Path_999401" data-name="Path 999401" d="M118.044,202l-10.267,10.268,10.267,10.268h8.623l-8.623-8.567v-3.346l3.867-3.868L126.667,202Z" transform="translate(204.712 1919.029) rotate(-90)" fill="#1e75cc"/>
      <rect id="Rectangle_458934" data-name="Rectangle 458934" width="5" height="31" transform="translate(414.711 1773)" fill="#1e75cc"/>
    </g>
    <g id="Group_1188628" data-name="Group 1188628" transform="translate(-5404.711 -8755.126)">
      <path id="Path_999401-2" data-name="Path 999401" d="M118.044,202l-10.267,10.268,10.267,10.268h8.623l-8.623-8.567v-3.346l3.867-3.868L126.667,202Z" transform="translate(204.712 1919.029) rotate(-90)" fill="#1e75cc"/>
      <rect id="Rectangle_458934-2" data-name="Rectangle 458934" width="5" height="104" transform="translate(414.711 1700)" fill="#1e75cc"/>
    </g>
    <g id="Group_1188624" data-name="Group 1188624" transform="translate(-5200.479 -8959)">
      <path id="Path_999401-3" data-name="Path 999401" d="M118.044,202l-10.267,10.268,10.267,10.268h8.623l-8.623-8.567v-3.346l3.867-3.868L126.667,202Z" transform="translate(204.712 1919.029) rotate(-90)" fill="#1e75cc"/>
      <rect id="Rectangle_458934-3" data-name="Rectangle 458934" width="5" height="31" transform="translate(414.711 1773)" fill="#1e75cc"/>
    </g>
    <g id="Group_1188627" data-name="Group 1188627" transform="translate(-6678.858 -6448.146) rotate(-90)">
      <path id="Path_999401-4" data-name="Path 999401" d="M118.044,202l-10.267,10.268,10.267,10.268h8.623l-8.623-8.567v-3.346l3.867-3.868L126.667,202Z" transform="translate(204.712 1919.029) rotate(-90)" fill="#1e75cc"/>
      <rect id="Rectangle_458934-4" data-name="Rectangle 458934" width="5" height="31" transform="translate(414.711 1773)" fill="#1e75cc"/>
    </g>
    <path id="Path_1033299" data-name="Path 1033299" d="M-61.749-4.258V0h-2.49V-12.086h4.715a5.455,5.455,0,0,1,2.395.5,3.67,3.67,0,0,1,1.59,1.415,3.946,3.946,0,0,1,.556,2.088,3.47,3.47,0,0,1-1.216,2.8,5.065,5.065,0,0,1-3.366,1.025Zm0-2.017h2.225a2.187,2.187,0,0,0,1.507-.465A1.691,1.691,0,0,0-57.5-8.068,1.994,1.994,0,0,0-58.022-9.5a1.953,1.953,0,0,0-1.444-.564h-2.283Zm13.407-.457a6.517,6.517,0,0,0-.863-.066,1.757,1.757,0,0,0-1.785.921V0h-2.4V-8.981h2.266l.066,1.071a2.223,2.223,0,0,1,2-1.237,2.514,2.514,0,0,1,.747.108Zm.524,2.158A5.327,5.327,0,0,1-47.3-6.956a3.767,3.767,0,0,1,1.482-1.619,4.323,4.323,0,0,1,2.245-.573,4.09,4.09,0,0,1,2.968,1.112,4.464,4.464,0,0,1,1.282,3.021l.017.614a4.694,4.694,0,0,1-1.154,3.316A4.011,4.011,0,0,1-43.56.166a4.031,4.031,0,0,1-3.1-1.245,4.777,4.777,0,0,1-1.158-3.387Zm2.4.17a3.357,3.357,0,0,0,.481,1.958,1.588,1.588,0,0,0,1.378.678A1.592,1.592,0,0,0-42.2-2.437a3.674,3.674,0,0,0,.49-2.141,3.324,3.324,0,0,0-.49-1.945,1.592,1.592,0,0,0-1.378-.69,1.566,1.566,0,0,0-1.361.686A3.735,3.735,0,0,0-45.42-4.4Zm11.365,2.635a1.573,1.573,0,0,0,1.079-.365,1.28,1.28,0,0,0,.432-.971h2.25a3.077,3.077,0,0,1-.5,1.673A3.286,3.286,0,0,1-32.133-.253a4.2,4.2,0,0,1-1.88.419,3.9,3.9,0,0,1-3.038-1.224,4.845,4.845,0,0,1-1.112-3.383V-4.6a4.79,4.79,0,0,1,1.1-3.312,3.854,3.854,0,0,1,3.03-1.237,3.778,3.778,0,0,1,2.7.959,3.4,3.4,0,0,1,1.033,2.552h-2.25a1.648,1.648,0,0,0-.432-1.139,1.439,1.439,0,0,0-1.1-.438,1.445,1.445,0,0,0-1.266.611,3.541,3.541,0,0,0-.427,1.983v.249a3.586,3.586,0,0,0,.423,2A1.463,1.463,0,0,0-34.055-1.768ZM-24.749.166a4.409,4.409,0,0,1-3.217-1.212,4.308,4.308,0,0,1-1.241-3.229v-.232a5.426,5.426,0,0,1,.523-2.42A3.838,3.838,0,0,1-27.2-8.571a4.159,4.159,0,0,1,2.187-.577,3.727,3.727,0,0,1,2.9,1.162,4.722,4.722,0,0,1,1.058,3.3v.979h-5.719a2.229,2.229,0,0,0,.7,1.411,2.12,2.12,0,0,0,1.482.531,2.589,2.589,0,0,0,2.167-1l1.179,1.32A3.6,3.6,0,0,1-22.707-.261,4.793,4.793,0,0,1-24.749.166Zm-.274-7.379a1.5,1.5,0,0,0-1.158.484,2.5,2.5,0,0,0-.569,1.384h3.337v-.192a1.786,1.786,0,0,0-.432-1.238A1.547,1.547,0,0,0-25.023-7.213Zm10.236,4.731a.773.773,0,0,0-.436-.693,4.95,4.95,0,0,0-1.4-.452q-3.2-.672-3.2-2.723a2.468,2.468,0,0,1,.992-2,4,4,0,0,1,2.594-.8,4.307,4.307,0,0,1,2.735.805A2.538,2.538,0,0,1-12.479-6.25h-2.4A1.161,1.161,0,0,0-15.21-7.1a1.405,1.405,0,0,0-1.038-.336,1.436,1.436,0,0,0-.938.274.865.865,0,0,0-.332.7.739.739,0,0,0,.378.643,3.885,3.885,0,0,0,1.274.423,10.407,10.407,0,0,1,1.511.4,2.482,2.482,0,0,1,1.9,2.416A2.343,2.343,0,0,1-13.508-.594a4.548,4.548,0,0,1-2.723.76,4.75,4.75,0,0,1-2-.4,3.363,3.363,0,0,1-1.374-1.1,2.565,2.565,0,0,1-.5-1.515h2.274a1.252,1.252,0,0,0,.473.979,1.877,1.877,0,0,0,1.179.34A1.737,1.737,0,0,0-15.139-1.8.814.814,0,0,0-14.787-2.482Zm3.545-2.092a5.327,5.327,0,0,1,.515-2.382A3.768,3.768,0,0,1-9.245-8.575,4.323,4.323,0,0,1-7-9.147,4.09,4.09,0,0,1-4.032-8.035,4.464,4.464,0,0,1-2.75-5.014l.017.614A4.694,4.694,0,0,1-3.887-1.083,4.011,4.011,0,0,1-6.983.166a4.031,4.031,0,0,1-3.1-1.245,4.777,4.777,0,0,1-1.158-3.387Zm2.4.17a3.357,3.357,0,0,0,.481,1.958,1.588,1.588,0,0,0,1.378.678,1.592,1.592,0,0,0,1.361-.669,3.674,3.674,0,0,0,.49-2.141,3.324,3.324,0,0,0-.49-1.945A1.592,1.592,0,0,0-7-7.213a1.566,1.566,0,0,0-1.361.686A3.735,3.735,0,0,0-8.842-4.4ZM5.595,0H3.187V-8.981H5.595ZM3.046-11.306a1.181,1.181,0,0,1,.361-.888,1.356,1.356,0,0,1,.984-.349,1.36,1.36,0,0,1,.979.349,1.175,1.175,0,0,1,.365.888,1.178,1.178,0,0,1-.369.9,1.363,1.363,0,0,1-.975.349,1.363,1.363,0,0,1-.975-.349A1.178,1.178,0,0,1,3.046-11.306Zm7.438.116v2.208h1.536v1.76H10.485v4.482a1.07,1.07,0,0,0,.191.714.959.959,0,0,0,.73.216,3.826,3.826,0,0,0,.706-.058V-.05a4.939,4.939,0,0,1-1.453.216A2.29,2.29,0,0,1,8.086-2.382V-7.222H6.774v-1.76H8.086v-2.208ZM17.533.166a4.409,4.409,0,0,1-3.217-1.212,4.308,4.308,0,0,1-1.241-3.229v-.232a5.426,5.426,0,0,1,.523-2.42A3.838,3.838,0,0,1,15.08-8.571a4.159,4.159,0,0,1,2.187-.577,3.727,3.727,0,0,1,2.9,1.162,4.722,4.722,0,0,1,1.058,3.3v.979H15.508a2.229,2.229,0,0,0,.7,1.411,2.12,2.12,0,0,0,1.482.531,2.589,2.589,0,0,0,2.167-1l1.179,1.32A3.6,3.6,0,0,1,19.575-.261,4.793,4.793,0,0,1,17.533.166Zm-.274-7.379A1.5,1.5,0,0,0,16.1-6.73a2.5,2.5,0,0,0-.569,1.384H18.87v-.192a1.786,1.786,0,0,0-.432-1.238A1.547,1.547,0,0,0,17.259-7.213Zm10.418.481a6.517,6.517,0,0,0-.863-.066,1.757,1.757,0,0,0-1.785.921V0h-2.4V-8.981H24.9l.066,1.071a2.223,2.223,0,0,1,2-1.237,2.514,2.514,0,0,1,.747.108ZM33.83,0a2.664,2.664,0,0,1-.241-.805,2.9,2.9,0,0,1-2.266.971A3.189,3.189,0,0,1,29.136-.6a2.456,2.456,0,0,1-.867-1.926,2.538,2.538,0,0,1,1.058-2.191,5.222,5.222,0,0,1,3.059-.772h1.1V-6a1.48,1.48,0,0,0-.32-1,1.257,1.257,0,0,0-1.009-.374,1.429,1.429,0,0,0-.95.291.987.987,0,0,0-.344.8h-2.4a2.41,2.41,0,0,1,.481-1.444A3.182,3.182,0,0,1,30.31-8.77a4.961,4.961,0,0,1,1.976-.378,3.92,3.92,0,0,1,2.635.834A2.918,2.918,0,0,1,35.9-5.968v3.893a4.294,4.294,0,0,0,.357,1.934V0ZM31.846-1.668a2.066,2.066,0,0,0,.979-.237,1.554,1.554,0,0,0,.664-.635V-4.084h-.9q-1.8,0-1.917,1.245l-.008.141a.96.96,0,0,0,.315.739A1.225,1.225,0,0,0,31.846-1.668Zm8.808-9.521v2.208H42.19v1.76H40.654v4.482a1.07,1.07,0,0,0,.191.714.959.959,0,0,0,.73.216,3.826,3.826,0,0,0,.706-.058V-.05a4.939,4.939,0,0,1-1.453.216,2.29,2.29,0,0,1-2.573-2.548V-7.222H36.943v-1.76h1.312v-2.208ZM46.1,0H43.693V-8.981H46.1ZM43.552-11.306a1.181,1.181,0,0,1,.361-.888,1.356,1.356,0,0,1,.984-.349,1.36,1.36,0,0,1,.979.349,1.175,1.175,0,0,1,.365.888,1.178,1.178,0,0,1-.369.9,1.363,1.363,0,0,1-.975.349,1.363,1.363,0,0,1-.975-.349A1.178,1.178,0,0,1,43.552-11.306ZM51.48-2.93l1.668-6.051h2.507L52.626,0H50.335L47.3-8.981h2.507Zm4.774-1.644a5.327,5.327,0,0,1,.515-2.382A3.767,3.767,0,0,1,58.25-8.575,4.323,4.323,0,0,1,60.5-9.147a4.09,4.09,0,0,1,2.968,1.112,4.464,4.464,0,0,1,1.282,3.021l.017.614a4.694,4.694,0,0,1-1.154,3.316,4.011,4.011,0,0,1-3.1,1.249,4.031,4.031,0,0,1-3.1-1.245,4.777,4.777,0,0,1-1.158-3.387Zm2.4.17a3.357,3.357,0,0,0,.481,1.958,1.588,1.588,0,0,0,1.378.678,1.592,1.592,0,0,0,1.361-.669,3.674,3.674,0,0,0,.49-2.141,3.324,3.324,0,0,0-.49-1.945,1.592,1.592,0,0,0-1.378-.69,1.566,1.566,0,0,0-1.361.686A3.735,3.735,0,0,0,58.653-4.4Z" transform="translate(-4887 -6729)" fill="#12263f"/>
    <rect id="Rectangle_459180" data-name="Rectangle 459180" width="5" height="127" transform="translate(-4863 -7055.126) rotate(90)" fill="#1e75cc"/>
    <g id="Group_1188986" data-name="Group 1188986" transform="translate(-4777.071 -6759.5) rotate(180)">
      <path id="Path_999401-5" data-name="Path 999401" d="M6.858,0,0,6.858l6.858,6.858h5.76L6.858,7.994V5.76L9.441,3.176,12.617,0Z" transform="translate(0 25.55) rotate(-90)" fill="#c58a13"/>
      <rect id="Rectangle_458934-5" data-name="Rectangle 458934" width="3.34" height="20.706" transform="translate(5.343)" fill="#c58a13"/>
    </g>
    <g id="Group_1188987" data-name="Group 1188987" transform="translate(-4981.212 -6759.5) rotate(180)">
      <path id="Path_999401-6" data-name="Path 999401" d="M6.858,0,0,6.858l6.858,6.858h5.76L6.858,7.994V5.76L9.441,3.176,12.617,0Z" transform="translate(0 25.55) rotate(-90)" fill="#c58a13"/>
      <rect id="Rectangle_458934-6" data-name="Rectangle 458934" width="3.34" height="20.706" transform="translate(5.343)" fill="#c58a13"/>
      <rect id="Rectangle_459181" data-name="Rectangle 459181" width="3.34" height="206.706" transform="translate(8.683) rotate(90)" fill="#c58a13"/>
    </g>
    <g id="entrevista-de-trabajo" transform="translate(-5048.268 -7332.302)">
      <path id="Path_1032993" data-name="Path 1032993" d="M336.873,35.489a3.356,3.356,0,1,1-3.356-3.356A3.356,3.356,0,0,1,336.873,35.489Zm0,0" transform="translate(-312.404 -30.405)" fill="#fff"/>
      <path id="Path_1032994" data-name="Path 1032994" d="M15.3,9.432,13.71,7.043V2.967A2.964,2.964,0,0,0,10.744,0H2.967A2.965,2.965,0,0,0,0,2.967V7.719a2.964,2.964,0,0,0,2.967,2.967H14.632A.807.807,0,0,0,15.3,9.432ZM6.833,7.662H4.285a.822.822,0,0,1-.828-.768.807.807,0,0,1,.806-.845H6.855a.807.807,0,0,1,.806.845A.822.822,0,0,1,6.833,7.662ZM9.448,4.638H4.286a.822.822,0,0,1-.829-.767.807.807,0,0,1,.806-.846H9.425a.822.822,0,0,1,.829.768.807.807,0,0,1-.806.845Zm0,0" fill="#fff"/>
      <path id="Path_1032995" data-name="Path 1032995" d="M6.265,372.151A6.331,6.331,0,0,0,0,378.506v.177a.989.989,0,0,0,.989.989h10.6a.989.989,0,0,0,.989-.989v-.245a6.287,6.287,0,0,0-6.309-6.287Zm0,0" transform="translate(0 -352.136)" fill="#fff"/>
      <path id="Path_1032996" data-name="Path 1032996" d="M51.207,228.892a3.959,3.959,0,1,1-3.959-3.959A3.959,3.959,0,0,1,51.207,228.892Zm0,0" transform="translate(-40.961 -212.836)" fill="#fff"/>
      <path id="Path_1032997" data-name="Path 1032997" d="M308.08,161.47H297.9a5.127,5.127,0,0,1,10.182,0Zm0,0" transform="translate(-281.877 -148.508)" fill="#fff"/>
      <path id="Path_1032998" data-name="Path 1032998" d="M212.218,272a.807.807,0,0,1,.807.807v9.566a.807.807,0,0,1-.846.806.822.822,0,0,1-.767-.829v-.9H199.357a7.935,7.935,0,0,0-3.326-4.431,5.564,5.564,0,0,0,1.131-5.02Zm0,0" transform="translate(-185.489 -257.371)" fill="#fff"/>
    </g>
    <g id="documento" transform="translate(-4846 -7332.802)">
      <path id="Path_1032999" data-name="Path 1032999" d="M.859,56.321H16.432a.858.858,0,0,0,.859-.859V54.6h-13a2.579,2.579,0,0,1-2.577-2.576V30.5H.859A.858.858,0,0,0,0,31.358v24.1a.858.858,0,0,0,.859.859Zm0,0" transform="translate(0 -28.282)" fill="#fff"/>
      <path id="Path_1033000" data-name="Path 1033000" d="M242.012,13.939h4.65l-4.65-4.65Zm0,0" transform="translate(-228.156 -8.286)" fill="#fff"/>
      <path id="Path_1033001" data-name="Path 1033001" d="M60.863.5A.858.858,0,0,0,60,1.359V23.745a.858.858,0,0,0,.859.859H74.718a.858.858,0,0,0,.859-.859v-1.1a6.765,6.765,0,0,1-1.718.245,6.871,6.871,0,1,1,0-13.741,6.789,6.789,0,0,1,1.718.244V7.37H69.565a.858.858,0,0,1-.859-.859V.5Zm0,0" transform="translate(-56.569)" fill="#fff"/>
      <path id="Path_1033002" data-name="Path 1033002" d="M223.8,190.865a.859.859,0,0,0-1.214,0l-1.225-1.225a5.177,5.177,0,1,0-1.214,1.215l1.224,1.224h0a.859.859,0,0,0,0,1.215l4.889,4.889a1.717,1.717,0,1,0,2.429-2.429Zm0,0" transform="translate(-199.874 -170.645)" fill="#fff"/>
    </g>
    <g id="google-docs" transform="translate(-4907 -7131)">
      <path id="Path_1033003" data-name="Path 1033003" d="M63.53,28.79H80.4a2.533,2.533,0,0,0,2.53-2.53V8.434h-5.9A2.533,2.533,0,0,1,74.5,5.9V0H63.53A2.533,2.533,0,0,0,61,2.53V26.259A2.533,2.533,0,0,0,63.53,28.79ZM66.9,11.864H77.025a.843.843,0,0,1,0,1.687H66.9a.843.843,0,1,1,0-1.687Zm0,3.374H77.025a.843.843,0,0,1,0,1.687H66.9a.843.843,0,1,1,0-1.687Zm0,3.374H77.025a.843.843,0,0,1,0,1.687H66.9a.843.843,0,1,1,0-1.687Zm0,3.374h6.748a.843.843,0,1,1,0,1.687H66.9a.843.843,0,1,1,0-1.687Z" fill="#fff"/>
      <path id="Path_1033004" data-name="Path 1033004" d="M331.843,15.042h5.41L331,8.789V14.2A.844.844,0,0,0,331.843,15.042Z" transform="translate(-254.818 -8.295)" fill="#fff"/>
    </g>
  </g>
</svg>
